<svg width="276" height="194" viewBox="0 0 276 194" fill="none" xmlns="http://www.w3.org/2000/svg">
<g filter="url(#filter0_d_200_46)">
<path d="M258.524 153.372C258.469 153.372 258.414 153.349 258.377 153.303C258.31 153.222 258.321 153.101 258.402 153.034C258.597 152.874 258.789 152.71 258.978 152.543C259.057 152.474 259.177 152.481 259.247 152.56C259.317 152.639 259.309 152.76 259.23 152.83C259.038 152.999 258.843 153.165 258.645 153.328C258.61 153.358 258.567 153.372 258.524 153.372Z" fill="#1E9A5F"/>
<path d="M244.256 158.777C244.153 158.777 244.069 158.696 244.065 158.593C244.062 158.488 244.144 158.4 244.249 158.396C244.736 158.379 245.228 158.347 245.713 158.3C245.817 158.289 245.911 158.366 245.921 158.471C245.932 158.576 245.855 158.669 245.75 158.68C245.257 158.728 244.756 158.76 244.262 158.777C244.26 158.777 244.258 158.777 244.256 158.777ZM241.853 158.736C241.849 158.736 241.845 158.736 241.84 158.736C241.346 158.702 240.847 158.652 240.356 158.587C240.252 158.574 240.178 158.478 240.192 158.373C240.206 158.269 240.298 158.195 240.406 158.209C240.889 158.273 241.38 158.322 241.866 158.355C241.971 158.362 242.051 158.453 242.044 158.558C242.037 158.659 241.953 158.736 241.853 158.736ZM248.108 158.325C248.019 158.325 247.939 158.263 247.921 158.172C247.9 158.069 247.967 157.969 248.07 157.948C248.546 157.852 249.027 157.739 249.499 157.612C249.601 157.585 249.705 157.646 249.732 157.747C249.76 157.849 249.699 157.954 249.597 157.981C249.118 158.11 248.63 158.224 248.146 158.322C248.133 158.324 248.12 158.325 248.108 158.325ZM238.018 158.155C238.003 158.155 237.988 158.153 237.974 158.15C237.493 158.036 237.008 157.905 236.534 157.761C236.433 157.73 236.377 157.624 236.407 157.523C236.438 157.422 236.543 157.365 236.645 157.396C237.112 157.538 237.588 157.666 238.062 157.778C238.164 157.803 238.228 157.905 238.203 158.008C238.182 158.096 238.104 158.155 238.018 158.155ZM251.835 157.25C251.758 157.25 251.686 157.203 251.657 157.127C251.619 157.028 251.669 156.918 251.767 156.88L251.895 156.832C252.307 156.673 252.72 156.5 253.123 156.318C253.219 156.275 253.332 156.318 253.375 156.414C253.419 156.51 253.376 156.623 253.28 156.666C252.871 156.851 252.451 157.026 252.032 157.188L251.903 157.237C251.881 157.246 251.858 157.25 251.835 157.25ZM234.329 156.956C234.304 156.956 234.279 156.951 234.255 156.941C233.798 156.75 233.341 156.542 232.898 156.324C232.804 156.277 232.765 156.163 232.812 156.068C232.858 155.974 232.972 155.935 233.067 155.981C233.503 156.197 233.952 156.401 234.403 156.589C234.5 156.63 234.545 156.741 234.505 156.839C234.474 156.912 234.403 156.956 234.329 156.956ZM255.339 155.586C255.273 155.586 255.209 155.552 255.174 155.491C255.121 155.4 255.152 155.283 255.243 155.23C255.665 154.986 256.084 154.725 256.489 154.456C256.577 154.397 256.695 154.421 256.754 154.508C256.812 154.596 256.788 154.715 256.701 154.773C256.289 155.047 255.864 155.312 255.435 155.56C255.405 155.578 255.372 155.586 255.339 155.586ZM230.884 155.174C230.85 155.174 230.815 155.165 230.783 155.145C230.362 154.882 229.946 154.603 229.545 154.316C229.459 154.255 229.439 154.135 229.501 154.05C229.562 153.964 229.681 153.944 229.767 154.006C230.162 154.288 230.572 154.563 230.985 154.822C231.075 154.878 231.102 154.995 231.046 155.085C231.01 155.142 230.948 155.174 230.884 155.174ZM227.776 152.856C227.732 152.856 227.686 152.841 227.65 152.809C227.279 152.481 226.913 152.138 226.564 151.788C226.49 151.714 226.49 151.593 226.564 151.518C226.639 151.444 226.76 151.444 226.834 151.519C227.178 151.863 227.537 152.2 227.903 152.522C227.982 152.592 227.989 152.713 227.92 152.792C227.882 152.835 227.829 152.856 227.776 152.856ZM225.091 150.062C225.036 150.062 224.981 150.038 224.943 149.992C224.632 149.609 224.328 149.21 224.04 148.807C223.978 148.722 223.998 148.602 224.084 148.541C224.17 148.48 224.289 148.5 224.35 148.586C224.633 148.982 224.932 149.374 225.239 149.751C225.305 149.833 225.293 149.953 225.211 150.019C225.176 150.048 225.133 150.062 225.091 150.062ZM222.901 146.863C222.834 146.863 222.77 146.829 222.735 146.767C222.49 146.337 222.255 145.894 222.037 145.45C221.991 145.355 222.03 145.241 222.125 145.194C222.219 145.148 222.334 145.187 222.38 145.282C222.594 145.719 222.825 146.155 223.066 146.578C223.118 146.67 223.086 146.786 222.995 146.838C222.965 146.855 222.933 146.863 222.901 146.863ZM221.261 143.349C221.184 143.349 221.111 143.301 221.082 143.224C220.909 142.758 220.75 142.283 220.607 141.811C220.576 141.71 220.634 141.604 220.734 141.573C220.835 141.543 220.942 141.6 220.972 141.701C221.112 142.165 221.27 142.633 221.44 143.091C221.477 143.19 221.426 143.3 221.328 143.337C221.306 143.345 221.283 143.349 221.261 143.349ZM220.211 139.614C220.122 139.614 220.042 139.551 220.024 139.46C219.93 138.976 219.849 138.481 219.785 137.988C219.771 137.884 219.845 137.788 219.949 137.774C220.054 137.761 220.15 137.834 220.163 137.939C220.227 138.424 220.306 138.911 220.398 139.387C220.418 139.491 220.351 139.591 220.248 139.611C220.235 139.613 220.223 139.614 220.211 139.614ZM219.786 135.759C219.683 135.759 219.598 135.677 219.595 135.573C219.59 135.359 219.587 135.145 219.587 134.932C219.587 134.648 219.592 134.362 219.602 134.082C219.606 133.979 219.691 133.898 219.793 133.898C219.795 133.898 219.798 133.898 219.8 133.898C219.905 133.902 219.988 133.991 219.983 134.096C219.973 134.371 219.968 134.652 219.968 134.932C219.968 135.142 219.971 135.352 219.977 135.563C219.98 135.668 219.897 135.756 219.791 135.759C219.79 135.759 219.788 135.759 219.786 135.759Z" fill="#1E9A5F"/>
<path d="M220.003 131.872C219.994 131.872 219.986 131.872 219.977 131.87C219.872 131.856 219.8 131.76 219.814 131.655C219.849 131.401 219.889 131.148 219.932 130.896C219.95 130.792 220.049 130.723 220.153 130.74C220.257 130.758 220.326 130.857 220.308 130.961C220.265 131.209 220.227 131.458 220.192 131.708C220.179 131.803 220.097 131.872 220.003 131.872Z" fill="#91B3FA"/>
<path d="M229.354 116.099C229.296 116.099 229.238 116.072 229.201 116.022C229.138 115.937 229.156 115.818 229.241 115.755C229.446 115.603 229.655 115.454 229.866 115.308C229.952 115.248 230.072 115.269 230.131 115.356C230.191 115.443 230.17 115.562 230.083 115.622C229.875 115.765 229.67 115.912 229.468 116.062C229.434 116.087 229.394 116.099 229.354 116.099Z" fill="#91B3FA"/>
<path d="M267.054 136.916C267.05 136.916 267.044 136.915 267.04 136.915C266.935 136.907 266.856 136.815 266.864 136.71C266.903 136.198 266.926 135.677 266.931 135.162C266.933 135.058 267.018 134.973 267.122 134.973C267.123 134.973 267.124 134.973 267.124 134.973C267.23 134.974 267.314 135.061 267.313 135.166C267.308 135.69 267.284 136.219 267.244 136.74C267.237 136.84 267.153 136.916 267.054 136.916ZM267.011 132.82C266.914 132.82 266.831 132.746 266.821 132.648C266.771 132.136 266.703 131.62 266.619 131.111C266.602 131.007 266.672 130.909 266.776 130.892C266.879 130.874 266.978 130.945 266.995 131.049C267.081 131.565 267.15 132.091 267.201 132.61C267.211 132.715 267.135 132.808 267.03 132.819C267.023 132.819 267.017 132.82 267.011 132.82ZM266.258 128.793C266.174 128.793 266.098 128.738 266.074 128.653C265.937 128.159 265.78 127.662 265.61 127.175C265.575 127.075 265.627 126.966 265.726 126.931C265.826 126.897 265.935 126.949 265.97 127.048C266.143 127.543 266.302 128.049 266.442 128.551C266.47 128.652 266.411 128.758 266.309 128.786C266.292 128.791 266.275 128.793 266.258 128.793ZM264.825 124.955C264.754 124.955 264.686 124.915 264.653 124.846C264.432 124.381 264.194 123.917 263.943 123.469C263.892 123.376 263.925 123.26 264.017 123.209C264.109 123.158 264.225 123.191 264.276 123.283C264.531 123.739 264.773 124.21 264.997 124.683C265.043 124.778 265.002 124.892 264.907 124.937C264.881 124.949 264.853 124.955 264.825 124.955ZM262.758 121.42C262.698 121.42 262.639 121.392 262.602 121.339C262.304 120.919 261.989 120.505 261.665 120.106C261.599 120.025 261.611 119.904 261.693 119.838C261.775 119.772 261.895 119.784 261.961 119.866C262.29 120.271 262.611 120.692 262.913 121.119C262.974 121.205 262.954 121.324 262.868 121.385C262.834 121.408 262.796 121.42 262.758 121.42ZM260.109 118.299C260.061 118.299 260.012 118.28 259.975 118.244C259.61 117.882 259.228 117.528 258.839 117.191C258.759 117.123 258.75 117.002 258.819 116.922C258.888 116.843 259.009 116.834 259.088 116.903C259.484 117.246 259.872 117.605 260.243 117.973C260.318 118.047 260.319 118.168 260.245 118.242C260.208 118.28 260.158 118.299 260.109 118.299ZM256.96 115.683C256.922 115.683 256.884 115.672 256.851 115.649C256.428 115.355 255.99 115.072 255.55 114.808C255.459 114.754 255.43 114.636 255.484 114.546C255.539 114.456 255.656 114.426 255.746 114.481C256.194 114.749 256.639 115.037 257.069 115.335C257.155 115.395 257.177 115.514 257.117 115.6C257.08 115.654 257.02 115.683 256.96 115.683ZM232.137 114.327C232.069 114.327 232.004 114.291 231.969 114.227C231.919 114.134 231.953 114.019 232.046 113.968C232.505 113.719 232.978 113.482 233.454 113.264C233.55 113.219 233.663 113.261 233.707 113.357C233.751 113.453 233.709 113.566 233.613 113.61C233.145 113.825 232.68 114.059 232.228 114.304C232.199 114.319 232.168 114.327 232.137 114.327ZM253.406 113.647C253.379 113.647 253.352 113.641 253.326 113.629C252.859 113.413 252.379 113.209 251.899 113.024C251.801 112.986 251.752 112.875 251.79 112.777C251.828 112.679 251.939 112.63 252.037 112.668C252.524 112.856 253.012 113.063 253.486 113.283C253.582 113.327 253.623 113.441 253.579 113.536C253.547 113.606 253.478 113.647 253.406 113.647ZM235.892 112.69C235.813 112.69 235.738 112.64 235.711 112.56C235.678 112.46 235.731 112.352 235.831 112.318C236.327 112.151 236.834 111.997 237.339 111.863C237.44 111.836 237.545 111.897 237.572 111.998C237.599 112.1 237.539 112.205 237.437 112.232C236.94 112.364 236.441 112.515 235.953 112.679C235.933 112.686 235.913 112.69 235.892 112.69ZM249.555 112.25C249.539 112.25 249.523 112.248 249.506 112.243C249.009 112.11 248.501 111.992 247.997 111.892C247.893 111.872 247.826 111.771 247.847 111.668C247.867 111.565 247.967 111.497 248.071 111.518C248.584 111.62 249.1 111.74 249.605 111.875C249.707 111.902 249.767 112.007 249.74 112.109C249.717 112.194 249.64 112.25 249.555 112.25ZM239.872 111.718C239.779 111.718 239.698 111.65 239.683 111.556C239.667 111.452 239.739 111.354 239.843 111.338C240.36 111.259 240.886 111.196 241.407 111.151C241.514 111.14 241.604 111.219 241.613 111.324C241.622 111.429 241.544 111.522 241.439 111.531C240.927 111.575 240.409 111.637 239.901 111.716C239.891 111.717 239.881 111.718 239.872 111.718ZM245.521 111.536C245.516 111.536 245.51 111.536 245.504 111.535C244.992 111.49 244.471 111.461 243.957 111.45C243.851 111.448 243.768 111.36 243.77 111.255C243.773 111.15 243.856 111.073 243.965 111.068C244.488 111.08 245.017 111.109 245.538 111.155C245.643 111.164 245.72 111.257 245.711 111.362C245.702 111.461 245.619 111.536 245.521 111.536Z" fill="#1E9A5F"/>
<path d="M266.569 140.193C266.556 140.193 266.542 140.191 266.528 140.188C266.425 140.166 266.36 140.064 266.383 139.961C266.437 139.715 266.487 139.468 266.534 139.22C266.553 139.116 266.653 139.048 266.756 139.068C266.86 139.087 266.928 139.187 266.909 139.29C266.861 139.542 266.81 139.793 266.755 140.043C266.736 140.132 266.657 140.193 266.569 140.193Z" fill="#1E9A5F"/>
<path d="M260.576 141.033C260.628 140.924 260.606 140.793 260.52 140.708L258.066 138.273C258.417 136.697 258.519 135.054 258.344 133.402L261.056 131.261C261.151 131.186 261.188 131.059 261.148 130.945L259.78 127.03C259.74 126.916 259.632 126.839 259.511 126.839L256.056 126.853C255.165 125.451 254.062 124.229 252.806 123.215L253.21 119.781C253.224 119.661 253.16 119.545 253.051 119.492L249.316 117.691C249.207 117.638 249.076 117.66 248.991 117.746L246.556 120.201C244.98 119.849 243.337 119.747 241.685 119.923L239.544 117.211C239.469 117.115 239.342 117.078 239.228 117.118L235.313 118.486C235.198 118.526 235.122 118.634 235.122 118.755L235.136 122.21C233.734 123.101 232.512 124.205 231.497 125.461L228.064 125.056C227.944 125.042 227.827 125.106 227.775 125.215L225.973 128.95C225.921 129.059 225.943 129.19 226.029 129.275L228.484 131.71C228.132 133.286 228.03 134.929 228.206 136.581L225.493 138.722C225.398 138.797 225.361 138.924 225.401 139.038L226.769 142.953C226.809 143.068 226.917 143.144 227.038 143.144L230.493 143.13C231.384 144.532 232.487 145.754 233.743 146.769L233.339 150.202C233.325 150.323 233.388 150.439 233.498 150.492L237.233 152.293C237.342 152.345 237.473 152.323 237.558 152.237L239.993 149.783C241.569 150.134 243.212 150.236 244.864 150.061L247.005 152.773C247.08 152.868 247.207 152.905 247.321 152.865L251.236 151.497C251.351 151.457 251.427 151.349 251.427 151.228L251.413 147.773C252.815 146.882 254.037 145.779 255.052 144.523L258.485 144.927C258.605 144.941 258.721 144.878 258.774 144.768L260.576 141.033Z" fill="#B7E8D0"/>
<path d="M243.28 138.863C242.021 138.863 240.786 138.252 240.042 137.125C239.472 136.261 239.273 135.228 239.48 134.214C239.688 133.201 240.278 132.329 241.141 131.759C242.005 131.189 243.038 130.99 244.052 131.197C245.065 131.405 245.937 131.995 246.507 132.858C247.683 134.641 247.19 137.047 245.408 138.224C244.752 138.656 244.012 138.863 243.28 138.863ZM243.267 131.499C242.591 131.499 241.929 131.696 241.351 132.077C240.573 132.591 240.041 133.377 239.854 134.291C239.667 135.204 239.847 136.136 240.36 136.915C241.421 138.521 243.591 138.966 245.197 137.906C246.804 136.845 247.249 134.675 246.188 133.068C245.675 132.29 244.889 131.758 243.975 131.571C243.739 131.523 243.502 131.499 243.267 131.499Z" fill="#1E9A5F"/>
<path d="M243.201 145.158C238.985 145.158 235.032 142.522 233.565 138.323C233.178 137.213 232.994 136.081 232.994 134.968C232.995 130.752 235.631 126.8 239.829 125.333C242.401 124.435 245.168 124.592 247.622 125.775C250.075 126.958 251.921 129.026 252.819 131.597C253.038 132.225 253.196 132.873 253.29 133.526C253.299 133.588 253.307 133.649 253.315 133.711C253.316 133.719 253.316 133.727 253.316 133.735C253.316 133.829 253.245 133.912 253.149 133.924C253.047 133.937 252.949 133.862 252.936 133.758C252.85 133.069 252.69 132.384 252.459 131.723C251.594 129.248 249.817 127.258 247.456 126.119C245.094 124.98 242.431 124.829 239.955 125.693C235.914 127.105 233.376 130.91 233.376 134.967C233.376 136.039 233.553 137.129 233.926 138.197C235.71 143.306 241.32 146.011 246.429 144.227C248.109 143.64 249.596 142.611 250.728 141.251C250.796 141.17 250.916 141.159 250.997 141.227C251.042 141.265 251.066 141.319 251.066 141.373C251.066 141.416 251.051 141.46 251.022 141.495C249.845 142.908 248.3 143.977 246.555 144.587C245.446 144.974 244.314 145.158 243.201 145.158Z" fill="#1E9A5F"/>
<path d="M214.982 148.309C214.982 150.011 213.588 151.403 211.884 151.403H44.3668C42.663 151.403 41.2689 150.011 41.2689 148.309L39.875 52.0411C39.875 50.339 41.8804 47.0158 45.5558 47.2656L209.272 43.0295C211.41 42.9741 213.477 43.797 214.991 45.3059C216.504 46.8149 217.333 48.8778 217.282 51.0136L214.982 148.309Z" fill="url(#paint0_linear_200_46)"/>
<path d="M211.923 145.34C211.923 146.951 210.604 148.27 208.992 148.27H48.4063C46.7945 148.27 45.4756 146.951 45.4756 145.34L44.1602 57.947C44.3151 52.688 48.9259 50.7978 51.7208 50.9094C51.7208 50.9094 179.68 47.4765 208.628 46.6998C210.13 46.6596 211.582 47.2382 212.646 48.2992C213.709 49.3601 214.294 50.8123 214.257 52.3142L211.923 145.34Z" fill="url(#paint1_linear_200_46)"/>
<path opacity="0.37" d="M47.211 103.614C47.0902 103.614 46.9916 103.517 46.9898 103.396L46.8858 96.3081C46.8841 96.1861 46.9816 96.0853 47.1038 96.0836C47.1048 96.0836 47.106 96.0836 47.1072 96.0836C47.2279 96.0836 47.3265 96.1806 47.3283 96.3016L47.4324 103.389C47.4341 103.511 47.3365 103.612 47.2144 103.614C47.2132 103.614 47.2121 103.614 47.211 103.614Z" fill="white"/>
<path d="M46.9562 86.2459C46.8355 86.2459 46.7369 86.1488 46.7351 86.0278L46.3364 58.8833C46.3446 57.0751 46.9015 55.6305 47.9918 54.5858C49.9763 52.6842 53.0811 52.781 53.2136 52.7851L103.322 51.4404C103.449 51.4441 103.546 51.5336 103.549 51.6559C103.553 51.778 103.456 51.8795 103.334 51.883L53.2128 53.2277C53.0726 53.2212 50.1483 53.1326 48.298 54.9054C47.2977 55.8639 46.7867 57.2016 46.779 58.8811L47.1776 86.0213C47.1793 86.1435 47.0818 86.2442 46.9596 86.2459C46.9584 86.2459 46.9574 86.2459 46.9562 86.2459Z" fill="white"/>
<path opacity="0.37" d="M52.5506 140.491C52.7187 133.268 52.6561 69.306 52.2416 63.782C51.8272 58.2579 60.4305 57.2218 73.6394 56.6001C86.8482 55.9784 198.296 53.5172 201.165 53.2844C207.616 52.7614 208.951 62.4023 208.305 83.332C207.821 99.0563 207.017 124.959 206.647 136.871C206.537 140.418 203.638 143.232 200.089 143.242C173.271 143.316 70.4816 143.611 63.6388 143.814C55.7645 144.049 52.4839 143.356 52.5506 140.491Z" fill="white"/>
<path d="M227.235 159.395H32.412C31.6768 159.395 31.0752 158.793 31.0752 158.058V152.273C31.0752 151.538 31.6768 150.937 32.412 150.937H227.235C227.97 150.937 228.571 151.538 228.571 152.273V158.058C228.571 158.794 227.97 159.395 227.235 159.395Z" fill="url(#paint2_linear_200_46)"/>
<path d="M78.4629 78.8987H14.3361C11.2164 78.8987 8.68726 76.3696 8.68726 73.2499V6.14885C8.68726 3.02911 11.2164 0.5 14.3361 0.5H78.4629C81.5826 0.5 84.1117 3.02911 84.1117 6.14885V73.2499C84.1117 76.3696 81.5826 78.8987 78.4629 78.8987Z" fill="url(#paint3_linear_200_46)"/>
<path d="M74.9603 76.8227H17.9694C14.8497 76.8227 12.3206 74.2936 12.3206 71.1738V8.44609C12.3206 5.32635 14.8497 2.79724 17.9694 2.79724H74.9603C78.08 2.79724 80.6091 5.32635 80.6091 8.44609V71.1738C80.6091 74.2936 78.08 76.8227 74.9603 76.8227Z" fill="#B7E8D0"/>
<path d="M57.5291 9.5727H16.7701C15.5807 9.5727 14.6167 8.60854 14.6167 7.41933V7.02861C14.6167 5.83927 15.5809 4.87524 16.7701 4.87524H57.5291C58.7184 4.87524 59.6825 5.8394 59.6825 7.02861V7.41933C59.6826 8.60854 58.7184 9.5727 57.5291 9.5727Z" fill="#D6F58D"/>
<path d="M63.8269 9.09964C62.7669 9.09964 61.9045 8.28708 61.9045 7.28841C61.9045 6.28973 62.767 5.47717 63.8269 5.47717C64.8869 5.47717 65.7492 6.28973 65.7492 7.28841C65.7492 8.28708 64.8868 9.09964 63.8269 9.09964ZM63.8269 5.98081C63.0445 5.98081 62.408 6.5674 62.408 7.28841C62.408 8.00941 63.0445 8.596 63.8269 8.596C64.6092 8.596 65.2457 8.00941 65.2457 7.28841C65.2457 6.5674 64.6091 5.98081 63.8269 5.98081Z" fill="#D6F58D"/>
<path d="M70.3332 9.09964C69.2732 9.09964 68.4109 8.28708 68.4109 7.28841C68.4109 6.28973 69.2733 5.47717 70.3332 5.47717C71.3932 5.47717 72.2555 6.28973 72.2555 7.28841C72.2555 8.28708 71.3932 9.09964 70.3332 9.09964ZM70.3332 5.98081C69.5509 5.98081 68.9144 6.5674 68.9144 7.28841C68.9144 8.00941 69.5509 8.596 70.3332 8.596C71.1156 8.596 71.752 8.00941 71.752 7.28841C71.752 6.5674 71.1156 5.98081 70.3332 5.98081Z" fill="#D6F58D"/>
<path d="M76.8398 9.09964C75.7798 9.09964 74.9175 8.28708 74.9175 7.28841C74.9175 6.28973 75.7799 5.47717 76.8398 5.47717C77.8998 5.47717 78.7621 6.28973 78.7621 7.28841C78.7623 8.28708 77.8998 9.09964 76.8398 9.09964ZM76.8398 5.98081C76.0575 5.98081 75.421 6.5674 75.421 7.28841C75.421 8.00941 76.0575 8.596 76.8398 8.596C77.6222 8.596 78.2586 8.00941 78.2586 7.28841C78.2586 6.5674 77.6222 5.98081 76.8398 5.98081Z" fill="#D6F58D"/>
<path opacity="0.43" d="M57.1833 8.25739H17.186C16.6402 8.25739 16.1978 7.81497 16.1978 7.26914C16.1978 6.72331 16.6402 6.28088 17.186 6.28088H57.1833C57.7291 6.28088 58.1715 6.72331 58.1715 7.26914C58.1717 7.81484 57.7291 8.25739 57.1833 8.25739Z" fill="#F2F8F5"/>
<path d="M16.9783 9.70642L12.4575 14.3087C12.2679 14.5017 12.2829 14.8153 12.4901 14.9894L12.5241 15.018C12.7075 15.1719 12.981 15.1473 13.1337 14.963L17.2732 9.97016L16.9783 9.70642Z" fill="#1E9A5F"/>
<path opacity="0.2" d="M21.6222 6.01953C22.3212 7.48419 21.6787 9.24867 20.1871 9.96056C18.6955 10.6724 16.9197 10.0621 16.2206 8.59748C15.5216 7.13281 16.164 5.36833 17.6557 4.65645C19.1473 3.94456 20.9231 4.55486 21.6222 6.01953Z" fill="url(#paint4_linear_200_46)"/>
<path d="M17.5128 4.35744C15.8531 5.14955 15.1382 7.1129 15.916 8.74271C16.6938 10.3725 18.6699 11.0516 20.3296 10.2595C21.9894 9.46736 22.7044 7.50401 21.9265 5.8742C21.1486 4.24439 19.1726 3.56532 17.5128 4.35744ZM20.1226 9.82604C18.7066 10.5018 17.0208 9.92241 16.3574 8.53211C15.6938 7.14168 16.3037 5.46681 17.7197 4.791C19.1356 4.11519 20.8214 4.69462 21.4849 6.08492C22.1486 7.47535 21.5385 9.15023 20.1226 9.82604Z" fill="#1E9A5F"/>
<path d="M74.3645 21.8982H18.8274C18.19 21.8982 17.6733 21.3815 17.6733 20.7441C17.6733 20.1067 18.19 19.5901 18.8274 19.5901H74.3645C75.0019 19.5901 75.5185 20.1067 75.5185 20.7441C75.5185 21.3815 75.0019 21.8982 74.3645 21.8982Z" fill="url(#paint5_linear_200_46)"/>
<path d="M74.3645 21.8982H18.8274C18.19 21.8982 17.6733 21.3815 17.6733 20.7441C17.6733 20.1067 18.19 19.5901 18.8274 19.5901H74.3645C75.0019 19.5901 75.5185 20.1067 75.5185 20.7441C75.5185 21.3815 75.0019 21.8982 74.3645 21.8982Z" fill="url(#paint6_linear_200_46)"/>
<path d="M65.5317 17.3397H26.8816C26.2442 17.3397 25.7275 16.8231 25.7275 16.1857C25.7275 15.5483 26.2442 15.0316 26.8816 15.0316H65.5315C66.1689 15.0316 66.6856 15.5483 66.6856 16.1857C66.6856 16.8231 66.169 17.3397 65.5317 17.3397Z" fill="url(#paint7_linear_200_46)"/>
<path d="M71.2142 71.9777H22.2326C20.4244 71.9777 18.9587 70.512 18.9587 68.7039V28.8948C18.9587 27.0867 20.4244 25.621 22.2326 25.621H71.2142C73.0223 25.621 74.488 27.0867 74.488 28.8948V68.7039C74.4879 70.512 73.0223 71.9777 71.2142 71.9777Z" fill="#D6F58D"/>
<path opacity="0.43" d="M69.5529 30.1101H23.7341C23.0967 30.1101 22.5801 29.5934 22.5801 28.956C22.5801 28.3187 23.0967 27.802 23.7341 27.802H69.5529C70.1903 27.802 70.707 28.3187 70.707 28.956C70.707 29.5934 70.1903 30.1101 69.5529 30.1101Z" fill="#1E9A5F"/>
<path opacity="0.43" d="M69.5114 34.5163H23.6926C23.0552 34.5163 22.5386 33.9997 22.5386 33.3623C22.5386 32.7249 23.0552 32.2083 23.6926 32.2083H69.5114C70.1488 32.2083 70.6655 32.7249 70.6655 33.3623C70.6655 33.9997 70.1488 34.5163 69.5114 34.5163Z" fill="#1E9A5F"/>
<path opacity="0.43" d="M69.643 39.2008H23.8242C23.1868 39.2008 22.6702 38.6841 22.6702 38.0467C22.6702 37.4094 23.1868 36.8927 23.8242 36.8927H69.643C70.2804 36.8927 70.7971 37.4094 70.7971 38.0467C70.7971 38.6841 70.2804 39.2008 69.643 39.2008Z" fill="#1E9A5F"/>
<path opacity="0.43" d="M69.6013 43.6072H23.7825C23.1451 43.6072 22.6284 43.0905 22.6284 42.4531C22.6284 41.8157 23.1451 41.2991 23.7825 41.2991H69.6013C70.2387 41.2991 70.7553 41.8157 70.7553 42.4531C70.7553 43.0905 70.2387 43.6072 69.6013 43.6072Z" fill="#1E9A5F"/>
<path opacity="0.43" d="M69.5307 47.636H23.7119C23.0745 47.636 22.5579 47.1193 22.5579 46.4819C22.5579 45.8445 23.0745 45.3279 23.7119 45.3279H69.5307C70.1681 45.3279 70.6848 45.8445 70.6848 46.4819C70.6848 47.1193 70.1681 47.636 69.5307 47.636Z" fill="#1E9A5F"/>
<path opacity="0.43" d="M69.4885 52.0421H23.6697C23.0323 52.0421 22.5156 51.5254 22.5156 50.8881C22.5156 50.2507 23.0323 49.734 23.6697 49.734H69.4885C70.1259 49.734 70.6425 50.2507 70.6425 50.8881C70.6425 51.5254 70.1259 52.0421 69.4885 52.0421Z" fill="#1E9A5F"/>
<path opacity="0.43" d="M69.6203 56.7267H23.8015C23.1641 56.7267 22.6475 56.21 22.6475 55.5726C22.6475 54.9352 23.1641 54.4186 23.8015 54.4186H69.6203C70.2577 54.4186 70.7744 54.9352 70.7744 55.5726C70.7744 56.21 70.2577 56.7267 69.6203 56.7267Z" fill="#1E9A5F"/>
<path opacity="0.43" d="M69.5788 61.133H23.76C23.1226 61.133 22.606 60.6164 22.606 59.979C22.606 59.3416 23.1226 58.825 23.76 58.825H69.5788C70.2162 58.825 70.7329 59.3416 70.7329 59.979C70.7329 60.6164 70.2162 61.133 69.5788 61.133Z" fill="#1E9A5F"/>
<path opacity="0.43" d="M69.4873 65.2971H23.6684C23.0311 65.2971 22.5144 64.7805 22.5144 64.1431C22.5144 63.5057 23.0311 62.989 23.6684 62.989H69.4873C70.1247 62.989 70.6413 63.5057 70.6413 64.1431C70.6413 64.7805 70.1247 65.2971 69.4873 65.2971Z" fill="#1E9A5F"/>
<path opacity="0.43" d="M69.619 69.9816H23.8C23.1627 69.9816 22.646 69.4649 22.646 68.8275C22.646 68.1901 23.1627 67.6735 23.8 67.6735H69.619C70.2564 67.6735 70.773 68.1901 70.773 68.8275C70.773 69.4649 70.2563 69.9816 69.619 69.9816Z" fill="#1E9A5F"/>
<path d="M45.2566 71.0597L42.5861 71.4591C41.7635 70.5033 40.7827 69.6717 39.6663 69.0101L39.5929 66.3126C39.5905 66.2179 39.5281 66.1354 39.4378 66.107L36.3483 65.1347C36.258 65.1063 36.1596 65.1384 36.1033 65.2144L34.4984 67.3838C33.2042 67.2869 31.924 67.4069 30.7023 67.7195L28.7417 65.8626C28.6729 65.7975 28.5706 65.7832 28.4866 65.827L25.6144 67.3241C25.5304 67.3678 25.4835 67.46 25.4976 67.5537L25.897 70.2242C24.9412 71.0467 24.1096 72.0276 23.448 73.144L20.7504 73.2174C20.6558 73.22 20.5732 73.2822 20.5447 73.3725L19.5725 76.4621C19.5441 76.5524 19.5761 76.6508 19.6522 76.7071L21.8216 78.312C21.7245 79.6061 21.8445 80.8865 22.1571 82.1081L20.3003 84.0687C20.2353 84.1374 20.2209 84.2399 20.2646 84.3237L21.7618 87.1959C21.8056 87.2799 21.8978 87.3268 21.9913 87.3127L24.6618 86.9133C25.4843 87.8691 26.4652 88.7007 27.5817 89.3623L27.655 92.0599C27.6576 92.1545 27.7198 92.2371 27.8101 92.2654L30.8998 93.2377C30.99 93.2661 31.0885 93.2342 31.1447 93.158L32.7497 90.9886C34.0437 91.0856 35.3241 90.9657 36.5457 90.6531L38.5062 92.5099C38.575 92.575 38.6775 92.5894 38.7614 92.5456L41.6335 91.0485C41.7174 91.0047 41.7644 90.9125 41.7503 90.8189L41.3509 88.1483C42.3067 87.3259 43.1383 86.3449 43.7999 85.2285L46.4976 85.1552C46.5921 85.1527 46.6747 85.0903 46.7031 84.9999L47.6753 81.9104C47.7037 81.8202 47.6718 81.7217 47.5957 81.6654L45.4263 80.0605C45.5232 78.7664 45.4033 77.4861 45.0908 76.2644L46.9477 74.3038C47.0128 74.235 47.0271 74.1327 46.9833 74.0487L45.4862 71.1765C45.4425 71.0926 45.3503 71.0456 45.2566 71.0597Z" fill="#B7E8D0"/>
<path d="M35.9869 81.2551C35.37 81.9581 34.4472 82.3809 33.4434 82.3228C31.7137 82.2232 30.3877 80.7348 30.4875 79.0052C30.587 77.2759 32.0752 75.9497 33.805 76.0493C35.5347 76.149 36.8607 77.6373 36.7608 79.367C36.719 80.0927 36.4327 80.7471 35.9869 81.2551ZM31.6584 77.4684C31.2768 77.9033 31.0522 78.4492 31.0183 79.036C30.9355 80.4728 32.0372 81.7091 33.4738 81.7921C34.911 81.8752 36.1467 80.7728 36.2297 79.3366C36.2699 78.6404 36.0365 77.9706 35.5728 77.4501C35.109 76.9295 34.4703 76.6207 33.7743 76.5804C33.0783 76.5403 32.4082 76.7737 31.8875 77.2375C31.8061 77.3102 31.7295 77.3874 31.6584 77.4684Z" fill="#1E9A5F"/>
<path d="M50.7092 75.3098C50.6743 75.3497 50.6269 75.3796 50.5714 75.3928C50.4285 75.427 50.2849 75.339 50.2507 75.1961C50.1701 74.859 50.0775 74.5192 49.9757 74.1864C49.9324 74.0462 50.0116 73.897 50.152 73.8542C50.2924 73.8113 50.441 73.8902 50.4841 74.0306C50.5894 74.3742 50.6848 74.7246 50.7681 75.0724C50.7889 75.1596 50.7642 75.2472 50.7092 75.3098Z" fill="#7D97F4"/>
<path d="M47.2594 90.3617C47.1654 90.4689 47.0023 90.4829 46.8912 90.3916C46.7777 90.2985 46.7609 90.1312 46.8541 90.0173C47.2757 89.5032 47.671 88.959 48.0291 88.3999C48.1075 88.277 48.2729 88.24 48.3965 88.3194C48.5202 88.3986 48.5563 88.563 48.4771 88.6866C48.1077 89.2631 47.7 89.8243 47.2653 90.3546C47.2636 90.357 47.2615 90.3593 47.2594 90.3617ZM44.9387 92.7018C44.9298 92.712 44.9198 92.7219 44.9089 92.7309C44.3824 93.1699 43.8248 93.5824 43.2518 93.9568C43.1289 94.0372 42.9641 94.0025 42.8838 93.8794C42.8033 93.7566 42.8383 93.5915 42.9609 93.5114C43.5167 93.1483 44.0575 92.7483 44.5684 92.3223C44.6811 92.2284 44.8488 92.2435 44.9429 92.3562C45.0279 92.4584 45.0237 92.6051 44.9387 92.7018ZM49.9589 85.7856C49.8867 85.8678 49.7682 85.8998 49.6606 85.8574C49.5243 85.8029 49.4576 85.6483 49.5119 85.5119C49.7574 84.894 49.9688 84.2554 50.1399 83.6137C50.1778 83.4719 50.3234 83.3879 50.4655 83.4254C50.6073 83.4632 50.6917 83.6091 50.6538 83.751C50.4774 84.4125 50.2593 85.0712 50.0059 85.7084C49.9944 85.7374 49.9784 85.7633 49.9589 85.7856ZM40.3883 95.4427C40.3621 95.4725 40.3286 95.4971 40.2893 95.513C39.6545 95.773 38.9984 95.9974 38.339 96.1802C38.1974 96.2194 38.0509 96.1365 38.0117 95.9949C37.9726 95.8536 38.0554 95.7068 38.1969 95.6677C38.8362 95.4905 39.4724 95.2729 40.0878 95.021C40.2238 94.9652 40.379 95.0302 40.4348 95.1662C40.4742 95.2628 40.4526 95.3692 40.3883 95.4427ZM51.1404 80.6059C51.0873 80.6664 51.0077 80.7023 50.9213 80.6959C50.7748 80.6855 50.6646 80.5581 50.6751 80.4117C50.6808 80.3321 50.6859 80.2529 50.6905 80.1731C50.7244 79.5872 50.7283 78.9942 50.7024 78.4111C50.696 78.2642 50.8097 78.1401 50.9562 78.1337C51.1029 78.1272 51.2273 78.2409 51.2338 78.3875C51.2605 78.9886 51.2564 79.5997 51.2215 80.2041C51.2167 80.2861 51.2114 80.3679 51.2056 80.4496C51.2013 80.5098 51.1771 80.5638 51.1404 80.6059ZM35.2218 96.6732C35.1778 96.7233 35.1149 96.7572 35.043 96.7629C34.3625 96.8171 33.6691 96.8318 32.9822 96.8067C32.8355 96.8012 32.7208 96.6779 32.7262 96.5312C32.7319 96.3843 32.8553 96.27 33.0016 96.2752C33.6682 96.2997 34.3409 96.2853 35.0008 96.2327C35.1471 96.2211 35.2753 96.3303 35.2868 96.4768C35.2931 96.5512 35.2677 96.6211 35.2218 96.6732ZM29.9233 96.2872C29.8609 96.3583 29.7625 96.3938 29.6639 96.3712C28.9948 96.218 28.3288 96.0236 27.6845 95.7933C27.5463 95.7439 27.4742 95.5918 27.5237 95.4534C27.5729 95.3158 27.7251 95.2428 27.8635 95.2924C28.4881 95.5155 29.1338 95.7041 29.7827 95.8526C29.9258 95.8852 30.0153 96.028 29.9826 96.171C29.9723 96.2158 29.9514 96.2553 29.9233 96.2872Z" fill="#1E9A5F"/>
<path d="M24.9808 94.3125C24.8981 94.4068 24.7574 94.4319 24.6457 94.3656C24.3384 94.1838 24.032 93.9891 23.7344 93.7874C23.6129 93.7049 23.5811 93.5395 23.6635 93.418C23.7464 93.2945 23.9112 93.265 24.0329 93.3472C24.3216 93.5429 24.619 93.7316 24.9166 93.9081C25.043 93.9829 25.0848 94.1459 25.0099 94.2724C25.0013 94.287 24.9914 94.3004 24.9808 94.3125Z" fill="#1E9A5F"/>
<path d="M16.8435 83.0237C16.8072 83.0651 16.7578 83.0956 16.6996 83.1081C16.5561 83.1389 16.4148 83.0474 16.3838 82.9039C16.3082 82.5529 16.243 82.1954 16.1896 81.8416C16.1675 81.6964 16.2671 81.5607 16.4128 81.539C16.5582 81.5168 16.6935 81.617 16.7155 81.7621C16.7672 82.1052 16.8306 82.4518 16.9037 82.792C16.9222 82.8778 16.8972 82.9626 16.8435 83.0237Z" fill="#1E9A5F"/>
<path d="M40.4707 63.3191C40.3976 63.4025 40.277 63.4341 40.1689 63.3894C39.5655 63.1394 38.9406 62.922 38.3113 62.7433C38.17 62.7032 38.0881 62.556 38.1282 62.4147C38.1678 62.2739 38.3155 62.1915 38.4566 62.2316C39.1056 62.4159 39.7502 62.6402 40.3726 62.8978C40.5083 62.954 40.5726 63.1097 40.5164 63.2454C40.5049 63.273 40.4894 63.2977 40.4707 63.3191ZM35.3952 62.0719C35.3411 62.1337 35.2593 62.1696 35.1715 62.1617C34.9838 62.1449 34.7952 62.1307 34.606 62.1197C34.14 62.0929 33.6685 62.0848 33.2049 62.0956C33.0581 62.0992 32.9365 61.9827 32.9329 61.8359C32.9298 61.6892 33.0457 61.5673 33.1926 61.5639C33.6705 61.5527 34.1562 61.5611 34.6365 61.5889C34.8316 61.6002 35.0259 61.6144 35.2189 61.6319C35.3653 61.645 35.4733 61.7742 35.46 61.9205C35.4548 61.9788 35.4311 62.0312 35.3952 62.0719ZM16.4695 78.7389C16.4185 78.7968 16.343 78.8324 16.26 78.8294C16.1131 78.8242 15.9984 78.701 16.0038 78.5541C16.0084 78.4275 16.0141 78.3006 16.0217 78.1735C16.0532 77.6262 16.1106 77.0748 16.1922 76.5348C16.2141 76.3899 16.3495 76.2901 16.4949 76.3116C16.6401 76.3337 16.74 76.4691 16.7181 76.6143C16.6389 77.138 16.5832 77.673 16.5525 78.2045C16.5453 78.328 16.5395 78.4508 16.5351 78.5733C16.5329 78.637 16.5084 78.6946 16.4695 78.7389ZM30.178 62.3833C30.1417 62.4248 30.0919 62.4554 30.034 62.4677C29.3955 62.6044 28.7578 62.7799 28.1382 62.9897C27.9991 63.037 27.848 62.9625 27.801 62.8234C27.754 62.6843 27.8281 62.5329 27.9676 62.4862C28.6064 62.2698 29.2643 62.0886 29.9226 61.9478C30.0663 61.917 30.2076 62.0085 30.2383 62.1523C30.2565 62.2377 30.2317 62.3223 30.178 62.3833ZM17.4373 73.6028C17.3678 73.6818 17.2547 73.7152 17.1492 73.6782C17.0106 73.6295 16.9377 73.4777 16.9864 73.339C17.2097 72.7024 17.4728 72.0726 17.7681 71.4676C17.8338 71.3357 17.9918 71.2805 18.1237 71.3452C18.2557 71.4095 18.3105 71.5688 18.2462 71.7008C17.9599 72.2874 17.7049 72.8979 17.4881 73.5155C17.4766 73.5485 17.4591 73.5778 17.4373 73.6028ZM25.2935 64.2372C25.2744 64.259 25.2511 64.2781 25.2244 64.2932C24.656 64.6142 24.0996 64.9721 23.5703 65.3572C23.4516 65.4437 23.2854 65.4174 23.1989 65.2986C23.1122 65.18 23.1386 65.0142 23.2575 64.9272C23.8031 64.5301 24.3769 64.161 24.9629 63.83C25.0907 63.7578 25.2529 63.8029 25.3252 63.9307C25.3822 64.032 25.3661 64.1546 25.2935 64.2372ZM19.895 68.9905C19.8044 69.0938 19.6482 69.1115 19.5362 69.028C19.4185 68.9402 19.3942 68.7735 19.4821 68.6558C19.7588 68.2852 20.0538 67.9208 20.3592 67.5728C20.3602 67.5717 20.3614 67.5702 20.3624 67.5691C20.501 67.4112 20.6423 67.2557 20.7865 67.1027C20.8873 66.9959 21.0556 66.9909 21.1622 67.0917C21.2694 67.1924 21.2702 67.3668 21.1733 67.4677C21.0326 67.617 20.8883 67.7708 20.7587 67.9236C20.4626 68.261 20.1763 68.6145 19.9083 68.9738C19.9041 68.9798 19.8996 68.9853 19.895 68.9905Z" fill="#1E9A5F"/>
<path d="M44.2149 65.4532C44.1241 65.5566 43.9678 65.5743 43.8558 65.4906C43.5768 65.2817 43.2885 65.0794 42.9991 64.889C42.8764 64.8083 42.8422 64.6435 42.9229 64.5208C43.0027 64.3967 43.1684 64.3639 43.2912 64.4446C43.5896 64.6409 43.8868 64.8494 44.1745 65.0647C44.2921 65.1526 44.3159 65.3194 44.2282 65.4369C44.2239 65.4425 44.2196 65.448 44.2149 65.4532Z" fill="#7D97F4"/>
<path d="M39.6472 84.5446C37.5986 86.8793 34.2879 87.9223 31.1398 86.9317C30.0377 86.5848 29.0621 86.0223 28.2447 85.3051C25.9094 83.2564 24.8662 79.9455 25.8568 76.7971C27.1939 72.5466 31.7408 70.177 35.9914 71.5143C36.1773 71.5728 36.361 71.6379 36.5417 71.7094C36.8539 71.8328 37.1577 71.975 37.4504 72.135C37.4901 72.1568 37.5296 72.1787 37.5689 72.2011C37.5848 72.2102 37.5994 72.2206 37.6126 72.2322C37.7059 72.3136 37.7319 72.452 37.6685 72.5635C37.5943 72.6933 37.4336 72.7357 37.3058 72.6633C36.8418 72.3994 36.3458 72.1836 35.8316 72.0216C32.5437 70.9871 29.067 72.3253 27.258 75.0727C26.9101 75.6008 26.6245 76.1804 26.4133 76.8055C26.4044 76.8317 26.3957 76.8582 26.3871 76.8845C26.3791 76.9087 26.3716 76.9324 26.3639 76.9568C25.4384 79.8978 26.4133 82.9907 28.5948 84.9047C29.3582 85.5747 30.2696 86.1003 31.2993 86.4243C35.27 87.6738 39.5166 85.4599 40.7669 81.4891C41.1777 80.1835 41.2272 78.7939 40.91 77.4704C40.8758 77.3277 40.9633 77.1844 41.1067 77.1499C41.194 77.1291 41.2815 77.1537 41.3442 77.2088C41.3841 77.2438 41.4139 77.2909 41.4272 77.3466C41.7669 78.7637 41.714 80.2513 41.2743 81.6489C40.9275 82.7511 40.3647 83.727 39.6472 84.5446Z" fill="#1E9A5F"/>
<path d="M111.448 95.8947H47.321C44.2012 95.8947 41.6721 93.3656 41.6721 90.2458V23.1448C41.6721 20.0251 44.2012 17.496 47.321 17.496H111.448C114.567 17.496 117.097 20.0251 117.097 23.1448V90.2458C117.097 93.3656 114.567 95.8947 111.448 95.8947Z" fill="url(#paint8_linear_200_46)"/>
<path d="M107.945 93.8188H50.9543C47.8345 93.8188 45.3054 91.2897 45.3054 88.1699V25.4422C45.3054 22.3224 47.8345 19.7933 50.9543 19.7933H107.945C111.065 19.7933 113.594 22.3224 113.594 25.4422V88.1699C113.594 91.2897 111.065 93.8188 107.945 93.8188Z" fill="#B7E8D0"/>
<path d="M90.514 26.5687H49.7549C48.5656 26.5687 47.6016 25.6045 47.6016 24.4153V24.0246C47.6016 22.8352 48.5657 21.8712 49.7549 21.8712H90.514C91.7033 21.8712 92.6673 22.8354 92.6673 24.0246V24.4153C92.6675 25.6046 91.7033 26.5687 90.514 26.5687Z" fill="#D6F58D"/>
<path d="M96.8117 26.0955C95.7517 26.0955 94.8894 25.2829 94.8894 24.2843C94.8894 23.2856 95.7518 22.473 96.8117 22.473C97.8717 22.473 98.7341 23.2856 98.7341 24.2843C98.7341 25.2829 97.8717 26.0955 96.8117 26.0955ZM96.8117 22.9767C96.0294 22.9767 95.3929 23.5633 95.3929 24.2843C95.3929 25.0053 96.0294 25.5919 96.8117 25.5919C97.5941 25.5919 98.2306 25.0053 98.2306 24.2843C98.2306 23.5633 97.5941 22.9767 96.8117 22.9767Z" fill="#D6F58D"/>
<path d="M103.318 26.0955C102.258 26.0955 101.396 25.2829 101.396 24.2843C101.396 23.2856 102.258 22.473 103.318 22.473C104.378 22.473 105.241 23.2856 105.241 24.2843C105.241 25.2829 104.378 26.0955 103.318 26.0955ZM103.318 22.9767C102.536 22.9767 101.899 23.5633 101.899 24.2843C101.899 25.0053 102.536 25.5919 103.318 25.5919C104.101 25.5919 104.737 25.0053 104.737 24.2843C104.737 23.5633 104.101 22.9767 103.318 22.9767Z" fill="#D6F58D"/>
<path d="M109.825 26.0955C108.765 26.0955 107.902 25.2829 107.902 24.2843C107.902 23.2856 108.765 22.473 109.825 22.473C110.885 22.473 111.747 23.2856 111.747 24.2843C111.747 25.2829 110.885 26.0955 109.825 26.0955ZM109.825 22.9767C109.042 22.9767 108.406 23.5633 108.406 24.2843C108.406 25.0053 109.042 25.5919 109.825 25.5919C110.607 25.5919 111.243 25.0053 111.243 24.2843C111.243 23.5633 110.607 22.9767 109.825 22.9767Z" fill="#D6F58D"/>
<path opacity="0.43" d="M90.168 25.2532H50.1706C49.6248 25.2532 49.1824 24.8108 49.1824 24.265C49.1824 23.7192 49.6249 23.2767 50.1706 23.2767H90.1679C90.7137 23.2767 91.1561 23.7192 91.1561 24.265C91.1563 24.8108 90.7137 25.2532 90.168 25.2532Z" fill="#F2F8F5"/>
<path d="M49.9631 26.7024L45.4424 31.3046C45.2528 31.4977 45.2677 31.8113 45.475 31.9854L45.5089 32.0139C45.6922 32.1679 45.9658 32.1433 46.1186 31.959L50.2581 26.9661L49.9631 26.7024Z" fill="#1E9A5F"/>
<path opacity="0.2" d="M54.6071 23.0155C55.3061 24.4802 54.6636 26.2446 53.172 26.9565C51.6803 27.6684 49.9045 27.0581 49.2054 25.5934C48.5064 24.1288 49.1489 22.3643 50.6405 21.6524C52.1321 20.9405 53.908 21.5508 54.6071 23.0155Z" fill="url(#paint9_linear_200_46)"/>
<path d="M50.4979 21.3534C48.8382 22.1455 48.1233 24.1089 48.9011 25.7387C49.6789 27.3685 51.655 28.0475 53.3148 27.2554C54.9745 26.4633 55.6894 24.5 54.9116 22.8701C54.1337 21.2405 52.1577 20.5613 50.4979 21.3534ZM53.1078 26.822C51.6918 27.4978 50.006 26.9184 49.3426 25.5281C48.679 24.1376 49.2889 22.4628 50.7049 21.787C52.1209 21.1111 53.8067 21.6906 54.4702 23.0809C55.1337 24.4713 54.5238 26.1463 53.1078 26.822Z" fill="#1E9A5F"/>
<path d="M88.5921 91.1171H52.2731C50.4651 91.1171 48.9993 89.6514 48.9993 87.8433V69.9639C48.9993 68.1558 50.465 66.6901 52.2731 66.6901H88.5921C90.4003 66.6901 91.866 68.1558 91.866 69.9639V87.8433C91.866 89.6514 90.4003 91.1171 88.5921 91.1171Z" fill="#D6F58D"/>
<path opacity="0.43" d="M89.6063 71.1993H52.6338C51.9964 71.1993 51.4797 70.6827 51.4797 70.0453C51.4797 69.4079 51.9964 68.8912 52.6338 68.8912H89.6063C90.2436 68.8912 90.7603 69.4079 90.7603 70.0453C90.7603 70.6827 90.2436 71.1993 89.6063 71.1993Z" fill="#1E9A5F"/>
<path opacity="0.43" d="M89.5722 75.6057H52.5999C51.9625 75.6057 51.4458 75.089 51.4458 74.4517C51.4458 73.8143 51.9625 73.2976 52.5999 73.2976H89.5723C90.2097 73.2976 90.7264 73.8143 90.7264 74.4517C90.7264 75.089 90.2096 75.6057 89.5722 75.6057Z" fill="#1E9A5F"/>
<path opacity="0.43" d="M89.6799 80.2901H52.7075C52.0701 80.2901 51.5535 79.7735 51.5535 79.1361C51.5535 78.4987 52.0701 77.9821 52.7075 77.9821H89.6799C90.3172 77.9821 90.8339 78.4987 90.8339 79.1361C90.8339 79.7734 90.3172 80.2901 89.6799 80.2901Z" fill="#1E9A5F"/>
<path opacity="0.43" d="M89.6459 84.6964H52.6736C52.0362 84.6964 51.5195 84.1797 51.5195 83.5424C51.5195 82.905 52.0362 82.3883 52.6736 82.3883H89.6461C90.2834 82.3883 90.8001 82.905 90.8001 83.5424C90.8001 84.1797 90.2833 84.6964 89.6459 84.6964Z" fill="#1E9A5F"/>
<path opacity="0.43" d="M89.5878 88.7248H52.6155C51.9781 88.7248 51.4614 88.2082 51.4614 87.5708C51.4614 86.9334 51.9781 86.4167 52.6155 86.4167H89.5879C90.2253 86.4167 90.742 86.9334 90.742 87.5708C90.742 88.2082 90.2252 88.7248 89.5878 88.7248Z" fill="#1E9A5F"/>
<path d="M108.761 54.5262H95.938C94.4917 54.5262 93.3193 53.3538 93.3193 51.9075V32.6478C93.3193 31.2015 94.4917 30.0291 95.938 30.0291H108.761C110.207 30.0291 111.38 31.2015 111.38 32.6478V51.9075C111.38 53.3538 110.207 54.5262 108.761 54.5262Z" fill="#D6F58D"/>
<path d="M108.761 91.1171H95.938C94.4917 91.1171 93.3193 89.9446 93.3193 88.4983V59.314C93.3193 57.8677 94.4917 56.6953 95.938 56.6953H108.761C110.207 56.6953 111.38 57.8677 111.38 59.314V88.4983C111.38 89.9446 110.207 91.1171 108.761 91.1171Z" fill="#BDD0FB"/>
<path d="M89.176 65.1584H52.4307C51.7933 65.1584 51.2766 64.6418 51.2766 64.0044C51.2766 63.367 51.7933 62.8503 52.4307 62.8503H89.176C89.8134 62.8503 90.33 63.367 90.33 64.0044C90.3302 64.6417 89.8134 65.1584 89.176 65.1584Z" fill="url(#paint10_linear_200_46)"/>
<path d="M87.0189 60.8716H53.9589C52.13 60.8716 50.6475 59.3889 50.6475 57.5601V33.3405C50.6475 31.5117 52.1301 30.0291 53.9589 30.0291H87.0189C88.8477 30.0291 90.3303 31.5117 90.3303 33.3405V57.5601C90.3305 59.3891 88.8478 60.8716 87.0189 60.8716Z" fill="url(#paint11_linear_200_46)"/>
<path d="M56.9843 56.2583H81.7667C82.5381 56.2583 83.0176 55.4201 82.6264 54.7551L72.8153 38.0762C72.4061 37.3806 71.3832 37.4336 71.0481 38.1678L66.3108 48.5481C66.0295 49.1644 65.2288 49.327 64.7293 48.8692L62.813 47.1126C62.3677 46.7044 61.6648 46.7826 61.3201 47.2784L56.1654 54.6913C55.7055 55.3528 56.1788 56.2583 56.9843 56.2583Z" fill="#F2F8F5"/>
<path d="M81.4302 41.135C83.3978 41.135 84.9928 39.54 84.9928 37.5724C84.9928 35.6049 83.3978 34.0099 81.4302 34.0099C79.4627 34.0099 77.8677 35.6049 77.8677 37.5724C77.8677 39.54 79.4627 41.135 81.4302 41.135Z" fill="#F2F8F5"/>
<path d="M143.425 121.452H79.2983C76.1785 121.452 73.6494 118.922 73.6494 115.803V48.7017C73.6494 45.582 76.1785 43.0529 79.2983 43.0529H143.425C146.545 43.0529 149.074 45.582 149.074 48.7017V115.803C149.074 118.922 146.545 121.452 143.425 121.452Z" fill="url(#paint12_linear_200_46)"/>
<path d="M139.923 119.376H82.9318C79.8121 119.376 77.283 116.846 77.283 113.727V50.999C77.283 47.8792 79.8121 45.3501 82.9318 45.3501H139.923C143.042 45.3501 145.572 47.8792 145.572 50.999V113.727C145.572 116.847 143.042 119.376 139.923 119.376Z" fill="#B7E8D0"/>
<path opacity="0.43" d="M122.492 52.1257H81.7327C80.5434 52.1257 79.5793 51.1615 79.5793 49.9723V49.5816C79.5793 48.3923 80.5435 47.4282 81.7327 47.4282H122.492C123.681 47.4282 124.645 48.3924 124.645 49.5816V49.9723C124.645 51.1615 123.681 52.1257 122.492 52.1257Z" fill="#D6F58D"/>
<path d="M128.789 51.6525C127.729 51.6525 126.867 50.8399 126.867 49.8413C126.867 48.8426 127.729 48.03 128.789 48.03C129.849 48.03 130.711 48.8426 130.711 49.8413C130.711 50.8399 129.849 51.6525 128.789 51.6525ZM128.789 48.5335C128.007 48.5335 127.37 49.1201 127.37 49.8411C127.37 50.5621 128.007 51.1487 128.789 51.1487C129.571 51.1487 130.208 50.5621 130.208 49.8411C130.208 49.1201 129.571 48.5335 128.789 48.5335Z" fill="#D6F58D"/>
<path d="M135.295 51.6525C134.235 51.6525 133.373 50.8399 133.373 49.8413C133.373 48.8426 134.235 48.03 135.295 48.03C136.355 48.03 137.218 48.8426 137.218 49.8413C137.218 50.8399 136.355 51.6525 135.295 51.6525ZM135.295 48.5335C134.513 48.5335 133.877 49.1201 133.877 49.8411C133.877 50.5621 134.513 51.1487 135.295 51.1487C136.078 51.1487 136.714 50.5621 136.714 49.8411C136.714 49.1201 136.078 48.5335 135.295 48.5335Z" fill="#D6F58D"/>
<path d="M141.802 51.6525C140.742 51.6525 139.88 50.8399 139.88 49.8413C139.88 48.8426 140.742 48.03 141.802 48.03C142.862 48.03 143.725 48.8426 143.725 49.8413C143.725 50.8399 142.862 51.6525 141.802 51.6525ZM141.802 48.5335C141.02 48.5335 140.383 49.1201 140.383 49.8411C140.383 50.5621 141.02 51.1487 141.802 51.1487C142.585 51.1487 143.221 50.5621 143.221 49.8411C143.221 49.1201 142.585 48.5335 141.802 48.5335Z" fill="#D6F58D"/>
<path opacity="0.43" d="M122.145 50.8101H82.1482C81.6023 50.8101 81.1599 50.3676 81.1599 49.8219C81.1599 49.276 81.6025 48.8336 82.1482 48.8336H122.146C122.691 48.8336 123.134 49.276 123.134 49.8219C123.134 50.3676 122.691 50.8101 122.145 50.8101Z" fill="#F2F8F5"/>
<path d="M81.9404 52.2592L77.4197 56.8614C77.2301 57.0544 77.245 57.368 77.4522 57.5422L77.4862 57.5707C77.6695 57.7246 77.9431 57.7 78.0959 57.5157L82.2354 52.5229L81.9404 52.2592Z" fill="#1E9A5F"/>
<path opacity="0.2" d="M86.5844 48.5724C87.2834 50.0371 86.6409 51.8015 85.1493 52.5134C83.6576 53.2253 81.8818 52.615 81.1827 51.1503C80.4837 49.6857 81.1262 47.9212 82.6178 47.2093C84.1094 46.4974 85.8854 47.1077 86.5844 48.5724Z" fill="url(#paint13_linear_200_46)"/>
<path d="M82.4752 46.9103C80.8155 47.7024 80.1006 49.6658 80.8784 51.2956C81.6562 52.9254 83.6323 53.6044 85.2921 52.8123C86.9518 52.0202 87.6667 50.0569 86.8889 48.4271C86.111 46.7972 84.135 46.1182 82.4752 46.9103ZM85.085 52.3788C83.669 53.0546 81.9832 52.4751 81.3198 51.0848C80.6562 49.6944 81.2661 48.0195 82.6821 47.3437C84.098 46.6679 85.7838 47.2474 86.4474 48.6377C87.111 50.0282 86.5009 51.7031 85.085 52.3788Z" fill="#1E9A5F"/>
<path d="M136.16 65.1584H86.6946C86.0572 65.1584 85.5405 64.6418 85.5405 64.0044C85.5405 63.367 86.0572 62.8503 86.6946 62.8503H136.16C136.797 62.8503 137.314 63.367 137.314 64.0044C137.314 64.6418 136.797 65.1584 136.16 65.1584Z" fill="#1E9A5F"/>
<path d="M130.297 60.7344H91.6465C91.0091 60.7344 90.4924 60.2177 90.4924 59.5803C90.4924 58.9429 91.0091 58.4263 91.6465 58.4263H130.297C130.934 58.4263 131.451 58.9429 131.451 59.5803C131.451 60.2177 130.934 60.7344 130.297 60.7344Z" fill="#1E9A5F"/>
<path d="M106.847 114.531H84.1732C82.3651 114.531 80.8994 113.065 80.8994 111.257V71.4476C80.8994 69.6395 82.3651 68.1738 84.1732 68.1738H106.847C108.655 68.1738 110.121 69.6395 110.121 71.4476V111.257C110.121 113.065 108.655 114.531 106.847 114.531Z" fill="#D6F58D"/>
<path opacity="0.43" d="M107.281 72.6628H83.582C82.9446 72.6628 82.428 72.1462 82.428 71.5088C82.428 70.8714 82.9446 70.3547 83.582 70.3547H107.281C107.918 70.3547 108.435 70.8714 108.435 71.5088C108.435 72.1462 107.918 72.6628 107.281 72.6628Z" fill="#1E9A5F"/>
<path opacity="0.43" d="M107.258 77.0692H83.5596C82.9222 77.0692 82.4055 76.5525 82.4055 75.9152C82.4055 75.2778 82.9222 74.7611 83.5596 74.7611H107.258C107.896 74.7611 108.412 75.2778 108.412 75.9152C108.412 76.5525 107.896 77.0692 107.258 77.0692Z" fill="#1E9A5F"/>
<path opacity="0.43" d="M107.329 81.7538H83.6306C82.9932 81.7538 82.4766 81.2371 82.4766 80.5997C82.4766 79.9623 82.9932 79.4457 83.6306 79.4457H107.329C107.967 79.4457 108.483 79.9623 108.483 80.5997C108.483 81.2371 107.967 81.7538 107.329 81.7538Z" fill="#1E9A5F"/>
<path opacity="0.43" d="M107.307 86.1599H83.6079C82.9705 86.1599 82.4539 85.6432 82.4539 85.0058C82.4539 84.3685 82.9705 83.8518 83.6079 83.8518H107.307C107.944 83.8518 108.461 84.3685 108.461 85.0058C108.461 85.6432 107.944 86.1599 107.307 86.1599Z" fill="#1E9A5F"/>
<path opacity="0.43" d="M107.269 90.1886H83.5698C82.9324 90.1886 82.4158 89.6719 82.4158 89.0345C82.4158 88.3972 82.9324 87.8805 83.5698 87.8805H107.269C107.906 87.8805 108.423 88.3972 108.423 89.0345C108.423 89.6719 107.906 90.1886 107.269 90.1886Z" fill="#1E9A5F"/>
<path opacity="0.43" d="M107.246 94.5948H83.5476C82.9102 94.5948 82.3936 94.0782 82.3936 93.4408C82.3936 92.8034 82.9102 92.2867 83.5476 92.2867H107.246C107.884 92.2867 108.4 92.8034 108.4 93.4408C108.4 94.0782 107.884 94.5948 107.246 94.5948Z" fill="#1E9A5F"/>
<path opacity="0.43" d="M107.317 99.2795H83.6184C82.981 99.2795 82.4644 98.7629 82.4644 98.1255C82.4644 97.4881 82.981 96.9714 83.6184 96.9714H107.317C107.955 96.9714 108.471 97.4881 108.471 98.1255C108.471 98.7629 107.954 99.2795 107.317 99.2795Z" fill="#1E9A5F"/>
<path opacity="0.43" d="M107.294 103.686H83.5957C82.9583 103.686 82.4417 103.169 82.4417 102.532C82.4417 101.894 82.9583 101.378 83.5957 101.378H107.294C107.932 101.378 108.449 101.894 108.449 102.532C108.449 103.169 107.932 103.686 107.294 103.686Z" fill="#1E9A5F"/>
<path opacity="0.43" d="M107.245 107.85H83.5464C82.909 107.85 82.3923 107.333 82.3923 106.696C82.3923 106.058 82.909 105.542 83.5464 105.542H107.245C107.883 105.542 108.399 106.058 108.399 106.696C108.399 107.333 107.883 107.85 107.245 107.85Z" fill="#1E9A5F"/>
<path opacity="0.43" d="M107.316 112.534H83.6177C82.9803 112.534 82.4636 112.018 82.4636 111.38C82.4636 110.743 82.9803 110.226 83.6177 110.226H107.316C107.954 110.226 108.471 110.743 108.471 111.38C108.47 112.018 107.954 112.534 107.316 112.534Z" fill="#1E9A5F"/>
<path d="M138.573 114.279H115.899C114.091 114.279 112.625 112.813 112.625 111.005V71.1958C112.625 69.3877 114.091 67.922 115.899 67.922H138.573C140.381 67.922 141.846 69.3877 141.846 71.1958V111.005C141.846 112.813 140.381 114.279 138.573 114.279Z" fill="#D6F58D"/>
<g opacity="0.43">
<path opacity="0.43" d="M139.007 72.4111H115.308C114.671 72.4111 114.154 71.8945 114.154 71.2571C114.154 70.6197 114.671 70.103 115.308 70.103H139.007C139.645 70.103 140.161 70.6197 140.161 71.2571C140.161 71.8945 139.645 72.4111 139.007 72.4111Z" fill="#BDD0FB"/>
<path opacity="0.43" d="M138.984 76.8176H115.286C114.648 76.8176 114.132 76.301 114.132 75.6636C114.132 75.0262 114.648 74.5095 115.286 74.5095H138.984C139.622 74.5095 140.138 75.0262 140.138 75.6636C140.139 76.3008 139.622 76.8176 138.984 76.8176Z" fill="#BDD0FB"/>
<path opacity="0.43" d="M139.055 81.5021H115.357C114.719 81.5021 114.203 80.9854 114.203 80.348C114.203 79.7106 114.719 79.194 115.357 79.194H139.055C139.693 79.194 140.21 79.7106 140.21 80.348C140.21 80.9854 139.693 81.5021 139.055 81.5021Z" fill="#BDD0FB"/>
<path opacity="0.43" d="M139.033 85.9083H115.334C114.697 85.9083 114.18 85.3917 114.18 84.7543C114.18 84.1169 114.697 83.6002 115.334 83.6002H139.033C139.67 83.6002 140.187 84.1169 140.187 84.7543C140.187 85.3917 139.67 85.9083 139.033 85.9083Z" fill="#BDD0FB"/>
<path opacity="0.43" d="M138.994 89.9368H115.296C114.658 89.9368 114.142 89.4201 114.142 88.7827C114.142 88.1453 114.658 87.6287 115.296 87.6287H138.994C139.632 87.6287 140.148 88.1453 140.148 88.7827C140.148 89.4201 139.632 89.9368 138.994 89.9368Z" fill="#BDD0FB"/>
<path opacity="0.43" d="M138.972 94.3433H115.273C114.636 94.3433 114.119 93.8266 114.119 93.1892C114.119 92.5518 114.636 92.0352 115.273 92.0352H138.972C139.61 92.0352 140.126 92.5518 140.126 93.1892C140.126 93.8266 139.61 94.3433 138.972 94.3433Z" fill="#BDD0FB"/>
<path opacity="0.43" d="M139.043 99.0276H115.344C114.707 99.0276 114.19 98.5109 114.19 97.8735C114.19 97.2361 114.707 96.7195 115.344 96.7195H139.043C139.681 96.7195 140.197 97.2361 140.197 97.8735C140.197 98.5109 139.681 99.0276 139.043 99.0276Z" fill="#BDD0FB"/>
<path opacity="0.43" d="M139.021 103.434H115.322C114.685 103.434 114.168 102.917 114.168 102.28C114.168 101.643 114.685 101.126 115.322 101.126H139.021C139.658 101.126 140.175 101.643 140.175 102.28C140.175 102.917 139.658 103.434 139.021 103.434Z" fill="#BDD0FB"/>
<path opacity="0.43" d="M138.971 107.598H115.273C114.635 107.598 114.119 107.081 114.119 106.444C114.119 105.807 114.635 105.29 115.273 105.29H138.971C139.609 105.29 140.126 105.807 140.126 106.444C140.126 107.081 139.609 107.598 138.971 107.598Z" fill="#BDD0FB"/>
<path opacity="0.43" d="M139.043 112.282H115.344C114.707 112.282 114.19 111.766 114.19 111.128C114.19 110.491 114.707 109.974 115.344 109.974H139.043C139.68 109.974 140.197 110.491 140.197 111.128C140.197 111.766 139.68 112.282 139.043 112.282Z" fill="#BDD0FB"/>
</g>
<path d="M186.104 142.292H121.977C118.857 142.292 116.328 139.763 116.328 136.643V68.3415C116.328 65.2217 118.857 62.6926 121.977 62.6926H186.104C189.224 62.6926 191.753 65.2217 191.753 68.3415V136.643C191.753 139.763 189.224 142.292 186.104 142.292Z" fill="url(#paint14_linear_200_46)"/>
<path d="M182.601 140.184H125.61C122.491 140.184 119.961 137.655 119.961 134.535V70.6736C119.961 67.5539 122.491 65.0248 125.61 65.0248H182.601C185.721 65.0248 188.25 67.5539 188.25 70.6736V134.535C188.25 137.655 185.721 140.184 182.601 140.184Z" fill="#B7E8D0"/>
<path d="M161.355 108.838H128.295C126.466 108.838 124.983 107.355 124.983 105.526V81.3067C124.983 79.4778 126.466 77.9952 128.295 77.9952H161.355C163.184 77.9952 164.666 79.4779 164.666 81.3067V105.526C164.666 107.355 163.184 108.838 161.355 108.838Z" fill="#1E9A5F"/>
<path d="M131.321 104.225H156.103C156.875 104.225 157.354 103.386 156.963 102.721L147.152 86.0425C146.742 85.3469 145.72 85.3999 145.384 86.1341L140.647 96.5144C140.366 97.1307 139.565 97.2933 139.066 96.8356L137.149 95.0789C136.704 94.6709 136.001 94.7489 135.657 95.2447L130.502 102.658C130.042 103.319 130.515 104.225 131.321 104.225Z" fill="#F2F8F5"/>
<path d="M155.766 89.1014C157.734 89.1014 159.329 87.5064 159.329 85.5389C159.329 83.5713 157.734 81.9763 155.766 81.9763C153.799 81.9763 152.204 83.5713 152.204 85.5389C152.204 87.5064 153.799 89.1014 155.766 89.1014Z" fill="#F2F8F5"/>
<path opacity="0.43" d="M165.17 71.7655H124.411C123.222 71.7655 122.258 70.8013 122.258 69.6121V69.2214C122.258 68.032 123.222 67.068 124.411 67.068H165.17C166.359 67.068 167.323 68.0322 167.323 69.2214V69.6121C167.323 70.8013 166.359 71.7655 165.17 71.7655Z" fill="#D6F58D"/>
<path d="M171.467 71.2924C170.407 71.2924 169.545 70.4798 169.545 69.4812C169.545 68.4825 170.408 67.6699 171.467 67.6699C172.528 67.6699 173.39 68.4825 173.39 69.4812C173.39 70.4798 172.528 71.2924 171.467 71.2924ZM171.467 68.1734C170.685 68.1734 170.049 68.76 170.049 69.481C170.049 70.202 170.685 70.7886 171.467 70.7886C172.25 70.7886 172.886 70.202 172.886 69.481C172.886 68.76 172.25 68.1734 171.467 68.1734Z" fill="#D6F58D"/>
<path d="M177.974 71.2924C176.914 71.2924 176.052 70.4798 176.052 69.4812C176.052 68.4825 176.914 67.6699 177.974 67.6699C179.034 67.6699 179.896 68.4825 179.896 69.4812C179.896 70.4798 179.034 71.2924 177.974 71.2924ZM177.974 68.1734C177.191 68.1734 176.555 68.76 176.555 69.481C176.555 70.202 177.191 70.7886 177.974 70.7886C178.756 70.7886 179.393 70.202 179.393 69.481C179.393 68.76 178.756 68.1734 177.974 68.1734Z" fill="#D6F58D"/>
<path d="M184.48 71.2924C183.42 71.2924 182.558 70.4798 182.558 69.4812C182.558 68.4825 183.42 67.6699 184.48 67.6699C185.54 67.6699 186.402 68.4825 186.402 69.4812C186.402 70.4798 185.54 71.2924 184.48 71.2924ZM184.48 68.1734C183.698 68.1734 183.061 68.76 183.061 69.481C183.061 70.202 183.698 70.7886 184.48 70.7886C185.262 70.7886 185.899 70.202 185.899 69.481C185.899 68.76 185.262 68.1734 184.48 68.1734Z" fill="#D6F58D"/>
<path opacity="0.43" d="M164.823 70.4501H124.826C124.28 70.4501 123.838 70.0076 123.838 69.4619C123.838 68.916 124.28 68.4736 124.826 68.4736H164.823C165.369 68.4736 165.812 68.916 165.812 69.4619C165.812 70.0076 165.369 70.4501 164.823 70.4501Z" fill="#F2F8F5"/>
<path d="M124.619 71.8988L120.098 76.5011C119.909 76.6941 119.924 77.0077 120.131 77.1818L120.165 77.2103C120.348 77.3643 120.622 77.3397 120.774 77.1554L124.914 72.1625L124.619 71.8988Z" fill="#1E9A5F"/>
<path opacity="0.2" d="M129.263 68.2122C129.962 69.6768 129.319 71.4413 127.827 72.1532C126.336 72.8651 124.56 72.2548 123.861 70.7901C123.162 69.3255 123.804 67.561 125.296 66.8491C126.788 66.1372 128.564 66.7474 129.263 68.2122Z" fill="url(#paint15_linear_200_46)"/>
<path d="M125.153 66.55C123.494 67.3421 122.779 69.3055 123.557 70.9353C124.334 72.5651 126.311 73.2442 127.97 72.4522C129.63 71.6601 130.345 69.6967 129.567 68.0669C128.789 66.4371 126.813 65.7579 125.153 66.55ZM127.763 72.0185C126.347 72.6943 124.662 72.1149 123.998 70.7246C123.334 69.3342 123.944 67.6593 125.36 66.9835C126.776 66.3077 128.462 66.8871 129.126 68.2774C129.789 69.6678 129.179 71.3428 127.763 72.0185Z" fill="#1E9A5F"/>
<path d="M163.512 114.279H126.137C125.5 114.279 124.983 113.762 124.983 113.125C124.983 112.487 125.5 111.971 126.137 111.971H163.512C164.15 111.971 164.666 112.487 164.666 113.125C164.666 113.762 164.15 114.279 163.512 114.279Z" fill="#1E9A5F"/>
<path d="M163.478 118.685H126.103C125.465 118.685 124.949 118.168 124.949 117.531C124.949 116.894 125.465 116.377 126.103 116.377H163.478C164.115 116.377 164.632 116.894 164.632 117.531C164.632 118.168 164.115 118.685 163.478 118.685Z" fill="#1E9A5F"/>
<path d="M162.013 137.947H127.567C126.121 137.947 124.949 136.775 124.949 135.328V123.696C124.949 122.25 126.121 121.077 127.567 121.077H162.013C163.459 121.077 164.632 122.25 164.632 123.696V135.328C164.632 136.775 163.459 137.947 162.013 137.947Z" fill="#B7E8D0"/>
<path opacity="0.43" d="M183.532 98.29H169.779C168.333 98.29 167.16 97.1176 167.16 95.6713V80.614C167.16 79.1676 168.333 77.9952 169.779 77.9952H183.532C184.979 77.9952 186.151 79.1676 186.151 80.614V95.6711C186.151 97.1174 184.979 98.29 183.532 98.29Z" fill="#D6F58D"/>
<path opacity="0.43" d="M183.532 123.205H169.779C168.333 123.205 167.16 122.032 167.16 120.586V105.529C167.16 104.083 168.333 102.91 169.779 102.91H183.532C184.979 102.91 186.151 104.083 186.151 105.529V120.586C186.151 122.032 184.979 123.205 183.532 123.205Z" fill="white"/>
<path opacity="0.43" d="M183.532 137.947H169.779C168.333 137.947 167.16 136.775 167.16 135.328V127.347C167.16 125.9 168.333 124.728 169.779 124.728H183.532C184.979 124.728 186.151 125.9 186.151 127.347V135.328C186.151 136.775 184.979 137.947 183.532 137.947Z" fill="white"/>
<path opacity="0.43" d="M185.174 101.513H168.137C167.598 101.513 167.16 101.075 167.16 100.535C167.16 99.9957 167.598 99.5581 168.137 99.5581H185.174C185.714 99.5581 186.151 99.9957 186.151 100.535C186.151 101.075 185.714 101.513 185.174 101.513Z" fill="white"/>
<path d="M234.699 166.59H170.573C167.453 166.59 164.924 164.061 164.924 160.941V92.6395C164.924 89.5197 167.453 86.9906 170.573 86.9906H234.699C237.819 86.9906 240.348 89.5197 240.348 92.6395V160.941C240.348 164.061 237.819 166.59 234.699 166.59Z" fill="url(#paint16_linear_200_46)"/>
<path d="M231.197 164.482H174.206C171.086 164.482 168.557 161.953 168.557 158.834V94.9718C168.557 91.8521 171.086 89.323 174.206 89.323H231.197C234.317 89.323 236.846 91.8521 236.846 94.9718V158.834C236.846 161.953 234.317 164.482 231.197 164.482Z" fill="#B7E8D0"/>
<path d="M227.069 133.136H179.031C177.202 133.136 175.72 131.653 175.72 129.824V105.605C175.72 103.776 177.202 102.293 179.031 102.293H227.069C228.898 102.293 230.381 103.776 230.381 105.605V129.824C230.381 131.653 228.898 133.136 227.069 133.136Z" fill="url(#paint17_linear_200_46)"/>
<path d="M213.766 96.0634H173.007C171.818 96.0634 170.854 95.0993 170.854 93.9101V93.5193C170.854 92.33 171.818 91.366 173.007 91.366H213.766C214.955 91.366 215.919 92.3301 215.919 93.5193V93.9101C215.919 95.0993 214.955 96.0634 213.766 96.0634Z" fill="#D6F58D"/>
<path d="M220.064 95.5901C219.004 95.5901 218.141 94.7776 218.141 93.7789C218.141 92.7802 219.004 91.9677 220.064 91.9677C221.124 91.9677 221.986 92.7802 221.986 93.7789C221.986 94.7776 221.124 95.5901 220.064 95.5901ZM220.064 92.4712C219.281 92.4712 218.645 93.0578 218.645 93.7788C218.645 94.4999 219.281 95.0864 220.064 95.0864C220.846 95.0864 221.483 94.4998 221.483 93.7788C221.483 93.0578 220.846 92.4712 220.064 92.4712Z" fill="#D6F58D"/>
<path d="M226.57 95.5901C225.51 95.5901 224.647 94.7776 224.647 93.7789C224.647 92.7802 225.51 91.9677 226.57 91.9677C227.63 91.9677 228.492 92.7802 228.492 93.7789C228.492 94.7776 227.63 95.5901 226.57 95.5901ZM226.57 92.4712C225.787 92.4712 225.151 93.0578 225.151 93.7788C225.151 94.4999 225.787 95.0864 226.57 95.0864C227.352 95.0864 227.989 94.4998 227.989 93.7788C227.988 93.0578 227.352 92.4712 226.57 92.4712Z" fill="#D6F58D"/>
<path d="M233.077 95.5901C232.017 95.5901 231.154 94.7776 231.154 93.7789C231.154 92.7802 232.017 91.9677 233.077 91.9677C234.137 91.9677 234.999 92.7802 234.999 93.7789C234.999 94.7776 234.137 95.5901 233.077 95.5901ZM233.077 92.4712C232.294 92.4712 231.658 93.0578 231.658 93.7788C231.658 94.4999 232.294 95.0864 233.077 95.0864C233.859 95.0864 234.495 94.4998 234.495 93.7788C234.495 93.0578 233.859 92.4712 233.077 92.4712Z" fill="#D6F58D"/>
<path opacity="0.43" d="M213.42 94.748H173.423C172.877 94.748 172.434 94.3054 172.434 93.7597C172.434 93.2139 172.877 92.7714 173.423 92.7714H213.42C213.966 92.7714 214.408 93.2139 214.408 93.7596C214.408 94.3054 213.966 94.748 213.42 94.748Z" fill="#F2F8F5"/>
<path d="M173.215 96.1969L168.694 100.799C168.504 100.992 168.519 101.306 168.727 101.48L168.761 101.508C168.944 101.662 169.218 101.638 169.37 101.453L173.51 96.4606L173.215 96.1969Z" fill="#1E9A5F"/>
<path opacity="0.2" d="M177.859 92.5099C178.558 93.9746 177.915 95.739 176.424 96.4509C174.932 97.1628 173.156 96.5525 172.457 95.0878C171.758 93.6232 172.401 91.8587 173.892 91.1468C175.384 90.4349 177.16 91.0452 177.859 92.5099Z" fill="url(#paint18_linear_200_46)"/>
<path d="M173.749 90.8478C172.09 91.6399 171.375 93.6033 172.153 95.2331C172.93 96.8629 174.906 97.5419 176.566 96.7498C178.226 95.9577 178.941 93.9944 178.163 92.3646C177.385 90.7347 175.409 90.0557 173.749 90.8478ZM176.359 96.3163C174.943 96.9921 173.257 96.4126 172.594 95.0223C171.93 93.6319 172.54 91.957 173.956 91.2812C175.372 90.6054 177.058 91.1849 177.721 92.5752C178.385 93.9657 177.775 95.6406 176.359 96.3163Z" fill="url(#paint19_linear_200_46)"/>
<path d="M230.664 138.577H175.127C174.49 138.577 173.973 138.06 173.973 137.423C173.973 136.785 174.49 136.269 175.127 136.269H230.664C231.301 136.269 231.818 136.785 231.818 137.423C231.818 138.06 231.301 138.577 230.664 138.577Z" fill="#1E9A5F"/>
<path d="M230.614 142.983H175.076C174.439 142.983 173.922 142.466 173.922 141.829C173.922 141.192 174.439 140.675 175.076 140.675H230.614C231.251 140.675 231.768 141.192 231.768 141.829C231.768 142.466 231.251 142.983 230.614 142.983Z" fill="#1E9A5F"/>
<path d="M209.099 162.245H174.653C173.207 162.245 172.034 161.073 172.034 159.626V147.994C172.034 146.548 173.207 145.375 174.653 145.375H209.099C210.545 145.375 211.717 146.548 211.717 147.994V159.626C211.717 161.073 210.545 162.245 209.099 162.245Z" fill="#D6F58D"/>
<path d="M230.618 162.245H216.864C215.418 162.245 214.245 161.073 214.245 159.626V147.994C214.245 146.548 215.418 145.375 216.864 145.375H230.618C232.064 145.375 233.236 146.548 233.236 147.994V159.626C233.236 161.073 232.064 162.245 230.618 162.245Z" fill="#D6F58D"/>
<path d="M209.985 117.715C209.985 121.311 207.07 124.226 203.474 124.226C199.878 124.226 196.963 121.311 196.963 117.715C196.963 114.119 199.878 111.203 203.474 111.203C207.07 111.203 209.985 114.119 209.985 117.715ZM209.591 117.715C209.591 114.336 206.852 111.598 203.474 111.598C200.096 111.598 197.357 114.336 197.357 117.715C197.357 121.093 200.096 123.831 203.474 123.831C206.852 123.831 209.591 121.093 209.591 117.715Z" fill="#B7E8D0"/>
<path d="M201.627 121.07C201.445 121.07 201.294 120.925 201.289 120.741L201.135 114.976C201.13 114.785 201.222 114.61 201.381 114.506C201.54 114.401 201.737 114.387 201.91 114.468L207.605 117.132C207.793 117.219 207.913 117.403 207.919 117.61C207.924 117.818 207.814 118.007 207.631 118.105L202.603 120.785C202.438 120.873 202.234 120.81 202.146 120.646C202.058 120.481 202.121 120.276 202.285 120.188L207.08 117.632L201.817 115.171L201.965 120.723C201.97 120.909 201.823 121.065 201.637 121.07C201.633 121.07 201.63 121.07 201.627 121.07Z" fill="#B7E8D0"/>
<path d="M114.727 109.407L54.6949 166.924C52.177 169.337 52.2479 173.382 54.8484 175.705L55.2755 176.086C57.5765 178.141 61.1107 177.931 63.1508 175.616L118.424 112.919L114.727 109.407Z" fill="url(#paint20_linear_200_46)"/>
<path opacity="0.12" d="M155.962 113.922C175.454 105.334 184.418 82.8566 175.985 63.7169C167.552 44.5772 144.915 36.0233 125.424 44.6114C105.932 53.1994 96.9677 75.6772 105.401 94.8169C113.834 113.957 136.471 122.51 155.962 113.922Z" fill="white"/>
<path d="M123.705 40.7133C102.016 50.2683 92.039 75.2798 101.421 96.5777C110.804 117.876 135.993 127.396 157.682 117.841C179.372 108.286 189.348 83.2745 179.966 61.9763C170.583 40.6783 145.394 31.1584 123.705 40.7133ZM155.187 112.176C136.683 120.327 115.195 112.206 107.19 94.0363C99.1861 75.8668 107.697 54.5295 126.201 46.3782C144.704 38.2268 166.193 46.3483 174.197 64.5177C182.201 82.6874 173.69 104.025 155.187 112.176Z" fill="url(#paint21_linear_200_46)"/>
<path d="M106.424 99.9276C106.362 99.9389 106.298 99.912 106.263 99.8554C105.746 98.9953 105.255 98.1045 104.806 97.2072C104.768 97.1307 104.799 97.0381 104.875 96.9998C104.952 96.9614 105.044 96.9928 105.083 97.0688C105.528 97.959 106.015 98.8427 106.528 99.6959C106.572 99.7691 106.548 99.864 106.475 99.9079C106.459 99.9179 106.442 99.9243 106.424 99.9276ZM101.943 89.0258C101.863 89.0407 101.784 88.9903 101.765 88.9102C101.119 86.2435 100.759 83.4995 100.693 80.7541C100.507 72.9799 102.63 65.3463 106.834 58.6788C111.138 51.8524 117.355 46.5079 124.811 43.223C131.824 40.134 139.499 39.0787 147.007 40.1719C147.092 40.1842 147.15 40.2627 147.138 40.3471C147.126 40.4316 147.047 40.4906 146.963 40.4778C139.512 39.393 131.895 40.4399 124.935 43.506C110.012 50.0805 100.617 64.6982 101.002 80.7467C101.067 83.4701 101.425 86.1922 102.065 88.8374C102.085 88.9203 102.034 89.0039 101.951 89.0239C101.948 89.0248 101.946 89.0253 101.943 89.0258Z" fill="#B7E8D0"/>
<path d="M60.1582 175.59C60.1531 175.591 60.1479 175.592 60.1426 175.592C57.6185 175.8 55.9189 175.054 55.0911 173.376C54.2578 171.687 54.6368 169.611 56.034 168.21L63.1438 161.081C63.2033 161.019 63.3015 161.02 63.3622 161.08C63.4226 161.14 63.4228 161.238 63.3625 161.299L56.2527 168.428C54.9492 169.735 54.5937 171.669 55.3681 173.239C56.1343 174.792 57.7321 175.481 60.1172 175.284C60.2022 175.277 60.2768 175.34 60.2839 175.426C60.2904 175.505 60.2352 175.576 60.1582 175.59Z" fill="#BDD0FB"/>
<path d="M65.4724 159.145C65.4242 159.154 65.3725 159.14 65.335 159.102C65.2745 159.042 65.2744 158.944 65.3347 158.884L66.2561 157.96C66.316 157.898 66.414 157.899 66.4745 157.959C66.535 158.02 66.5351 158.118 66.4748 158.178L65.5534 159.102C65.5306 159.125 65.5021 159.139 65.4724 159.145Z" fill="#BDD0FB"/>
</g>
<defs>
<filter id="filter0_d_200_46" x="0.687256" y="0.5" width="274.626" height="193" filterUnits="userSpaceOnUse" color-interpolation-filters="sRGB">
<feFlood flood-opacity="0" result="BackgroundImageFix"/>
<feColorMatrix in="SourceAlpha" type="matrix" values="0 0 0 0 0 0 0 0 0 0 0 0 0 0 0 0 0 0 127 0" result="hardAlpha"/>
<feOffset dy="8"/>
<feGaussianBlur stdDeviation="4"/>
<feComposite in2="hardAlpha" operator="out"/>
<feColorMatrix type="matrix" values="0 0 0 0 0 0 0 0 0 0 0 0 0 0 0 0 0 0 0.16 0"/>
<feBlend mode="normal" in2="BackgroundImageFix" result="effect1_dropShadow_200_46"/>
<feBlend mode="normal" in="SourceGraphic" in2="effect1_dropShadow_200_46" result="shape"/>
</filter>
<linearGradient id="paint0_linear_200_46" x1="125.365" y1="162.775" x2="129.967" y2="23.1709" gradientUnits="userSpaceOnUse">
<stop stop-color="#0A4C2D"/>
<stop offset="1" stop-color="#1E9A5F"/>
</linearGradient>
<linearGradient id="paint1_linear_200_46" x1="201.051" y1="17.5023" x2="-17.1829" y2="266.763" gradientUnits="userSpaceOnUse">
<stop stop-color="#A2DB1E"/>
<stop offset="1" stop-color="#D6F58D"/>
</linearGradient>
<linearGradient id="paint2_linear_200_46" x1="129.823" y1="57.7412" x2="129.823" y2="150.811" gradientUnits="userSpaceOnUse">
<stop stop-color="#0A4C2D"/>
<stop offset="1" stop-color="#1E9A5F"/>
</linearGradient>
<linearGradient id="paint3_linear_200_46" x1="74.9604" y1="-26.9665" x2="-20.7287" y2="203.282" gradientUnits="userSpaceOnUse">
<stop stop-color="#0A4C2D"/>
<stop offset="1" stop-color="#1E9A5F"/>
</linearGradient>
<linearGradient id="paint4_linear_200_46" x1="16.2205" y1="8.59737" x2="21.6222" y2="6.01956" gradientUnits="userSpaceOnUse">
<stop stop-color="#53D8FF"/>
<stop offset="1" stop-color="#3840F7"/>
</linearGradient>
<linearGradient id="paint5_linear_200_46" x1="68.5001" y1="18.7815" x2="68.3734" y2="26.7288" gradientUnits="userSpaceOnUse">
<stop stop-color="#0A4C2D"/>
<stop offset="1" stop-color="#1E9A5F"/>
</linearGradient>
<linearGradient id="paint6_linear_200_46" x1="75.5196" y1="20.7372" x2="74.8796" y2="26.7834" gradientUnits="userSpaceOnUse">
<stop stop-color="#0A4C2D"/>
<stop offset="1" stop-color="#1E9A5F"/>
</linearGradient>
<linearGradient id="paint7_linear_200_46" x1="66.6863" y1="16.1788" x2="65.7923" y2="22.159" gradientUnits="userSpaceOnUse">
<stop stop-color="#0A4C2D"/>
<stop offset="1" stop-color="#1E9A5F"/>
</linearGradient>
<linearGradient id="paint8_linear_200_46" x1="107.945" y1="-9.97048" x2="12.2562" y2="220.278" gradientUnits="userSpaceOnUse">
<stop stop-color="#0A4C2D"/>
<stop offset="1" stop-color="#1E9A5F"/>
</linearGradient>
<linearGradient id="paint9_linear_200_46" x1="49.2054" y1="25.5934" x2="54.607" y2="23.0155" gradientUnits="userSpaceOnUse">
<stop stop-color="#53D8FF"/>
<stop offset="1" stop-color="#3840F7"/>
</linearGradient>
<linearGradient id="paint10_linear_200_46" x1="51.2766" y1="64.0043" x2="90.3301" y2="64.0043" gradientUnits="userSpaceOnUse">
<stop stop-color="#0A4C2D"/>
<stop offset="1" stop-color="#1E9A5F"/>
</linearGradient>
<linearGradient id="paint11_linear_200_46" x1="50.6474" y1="45.4503" x2="90.3304" y2="45.4503" gradientUnits="userSpaceOnUse">
<stop stop-color="#0A4C2D"/>
<stop offset="1" stop-color="#1E9A5F"/>
</linearGradient>
<linearGradient id="paint12_linear_200_46" x1="139.923" y1="15.5864" x2="44.2334" y2="245.835" gradientUnits="userSpaceOnUse">
<stop stop-color="#0A4C2D"/>
<stop offset="1" stop-color="#1E9A5F"/>
</linearGradient>
<linearGradient id="paint13_linear_200_46" x1="81.1827" y1="51.1502" x2="86.5843" y2="48.5724" gradientUnits="userSpaceOnUse">
<stop stop-color="#53D8FF"/>
<stop offset="1" stop-color="#3840F7"/>
</linearGradient>
<linearGradient id="paint14_linear_200_46" x1="182.602" y1="34.8054" x2="84.4049" y2="267.523" gradientUnits="userSpaceOnUse">
<stop stop-color="#0A4C2D"/>
<stop offset="1" stop-color="#1E9A5F"/>
</linearGradient>
<linearGradient id="paint15_linear_200_46" x1="123.861" y1="70.79" x2="129.263" y2="68.2122" gradientUnits="userSpaceOnUse">
<stop stop-color="#53D8FF"/>
<stop offset="1" stop-color="#3840F7"/>
</linearGradient>
<linearGradient id="paint16_linear_200_46" x1="231.197" y1="59.1034" x2="133" y2="291.821" gradientUnits="userSpaceOnUse">
<stop stop-color="#0A4C2D"/>
<stop offset="1" stop-color="#1E9A5F"/>
</linearGradient>
<linearGradient id="paint17_linear_200_46" x1="175.72" y1="117.714" x2="230.381" y2="117.714" gradientUnits="userSpaceOnUse">
<stop stop-color="#0A4C2D"/>
<stop offset="1" stop-color="#1E9A5F"/>
</linearGradient>
<linearGradient id="paint18_linear_200_46" x1="172.457" y1="95.0877" x2="177.859" y2="92.5099" gradientUnits="userSpaceOnUse">
<stop stop-color="#53D8FF"/>
<stop offset="1" stop-color="#3840F7"/>
</linearGradient>
<linearGradient id="paint19_linear_200_46" x1="180.187" y1="81.5545" x2="167.979" y2="111.278" gradientUnits="userSpaceOnUse">
<stop stop-color="#53D8FF"/>
<stop offset="1" stop-color="#3840F7"/>
</linearGradient>
<linearGradient id="paint20_linear_200_46" x1="87.778" y1="96.1489" x2="91.3577" y2="19.4429" gradientUnits="userSpaceOnUse">
<stop stop-color="#0A4C2D"/>
<stop offset="1" stop-color="#1E9A5F"/>
</linearGradient>
<linearGradient id="paint21_linear_200_46" x1="154.727" y1="37.0169" x2="128.614" y2="121.542" gradientUnits="userSpaceOnUse">
<stop stop-color="#0A4C2D"/>
<stop offset="1" stop-color="#1E9A5F"/>
</linearGradient>
</defs>
</svg>
