<svg width="23" height="21" viewBox="0 0 23 21" fill="none" xmlns="http://www.w3.org/2000/svg">
<path d="M1.96328 9.52569C1.19266 9.54597 0.584389 10.1871 0.604668 10.9577C0.624948 11.7284 1.2661 12.3366 2.03672 12.3164L1.96328 9.52569ZM22.0126 11.3817C22.5432 10.8225 22.5199 9.93898 21.9607 9.40841L12.8472 0.76225C12.2879 0.231678 11.4044 0.254928 10.8739 0.814179C10.3433 1.37343 10.3665 2.2569 10.9258 2.78748L19.0267 10.4729L11.3412 18.5739C10.8107 19.1331 10.8339 20.0166 11.3932 20.5472C11.9524 21.0777 12.8359 21.0545 13.3665 20.4952L22.0126 11.3817ZM2 10.921L2.03672 12.3164L21.0367 11.8164L21 10.421L20.9633 9.02569L1.96328 9.52569L2 10.921Z" fill="white"/>
</svg>
