<svg width="214" height="194" viewBox="0 0 214 194" fill="none" xmlns="http://www.w3.org/2000/svg">
<g filter="url(#filter0_d_147_2743)">
<path d="M156.614 127.917C182.597 102.082 182.597 60.1947 156.614 34.3595C130.631 8.52426 88.5043 8.52426 62.5213 34.3595C36.5382 60.1947 36.5382 102.082 62.5213 127.917C88.5043 153.752 130.631 153.752 156.614 127.917Z" fill="#6FDDF2"/>
<path d="M195.543 69.0865L187.914 64.2316L199.432 25.8199C200.345 22.7743 198.664 19.4789 195.696 18.4973L133.212 1.96307C132.456 1.71287 131.647 2.14329 131.415 2.91855L109.671 99.0589C109.438 99.8346 109.866 100.673 110.622 100.924L161.938 117.897L165.533 119.086L179.195 123.605C181.898 124.499 184.807 122.722 185.72 119.677L198.373 77.4805C199.286 74.4353 198.038 70.6743 195.543 69.0865Z" fill="#1E9A5F"/>
<path d="M192.645 69.0357L185.153 64.5855L196.27 27.5099C197.152 24.57 195.492 21.4589 192.582 20.596L138.732 4.6327C137.991 4.41321 137.201 4.84564 136.977 5.59422L108.679 99.9625C108.455 100.711 108.878 101.503 109.618 101.723L159.942 116.642L163.468 117.687L176.865 121.659C179.516 122.445 182.356 120.668 183.238 117.728L195.451 76.9992C196.333 74.0598 195.095 70.4911 192.645 69.0357Z" fill="white"/>
<path d="M190.216 68.9803L182.321 64.3303L193.839 25.9186C194.752 22.873 192.993 19.638 189.93 18.7299L133.256 1.92887C132.476 1.69781 131.647 2.14283 131.415 2.91859L102.098 100.687C101.866 101.463 102.313 102.287 103.093 102.518L156.056 118.219L159.767 119.319L173.867 123.499C176.658 124.326 179.635 122.496 180.549 119.45L193.201 77.254C194.115 74.2088 192.798 70.5011 190.216 68.9803Z" fill="#B7E8D0"/>
<path d="M106.227 94.5246L68.1424 115.294C64.578 117.238 60.0619 115.928 58.1071 112.384L13.8832 32.2103C11.9284 28.6662 13.2453 24.1758 16.8096 22.2316L54.8946 1.46215C58.459 -0.481535 62.9751 0.827852 64.9299 4.3719L109.154 84.5459C111.109 88.0904 109.792 92.5804 106.227 94.5246Z" fill="#1D4147"/>
<path d="M104.483 93.339L68.0745 113.194C64.616 115.08 60.234 113.809 58.3374 110.371L14.8087 31.4562C12.9116 28.0173 14.1895 23.6608 17.648 21.7745L54.0562 1.91974C57.5147 0.033446 61.8967 1.30407 63.7932 4.7429L107.322 83.6573C109.219 87.0962 107.942 91.4527 104.483 93.339Z" fill="#1E9A5F"/>
<path d="M103.821 80.1893L57.2789 105.57H57.2784L18.2683 34.8482L64.811 9.46643L103.821 80.1893Z" fill="#0A4C2D"/>
<path d="M64.5438 12.1272L20.6721 36.0527L57.5512 102.91L101.423 78.9844L64.5438 12.1272Z" fill="#A2DB1E"/>
<g opacity="0.3">
<path d="M20.6707 36.0529L23.6745 41.4993L35.6231 27.8986L20.6707 36.0529Z" fill="white"/>
<path d="M64.5411 12.1285L52.4356 18.7303L27.053 47.6234L30.3626 53.6246L65.419 13.7198L64.5411 12.1285Z" fill="white"/>
<path d="M70.7077 23.3079L35.6519 63.2126L39.4395 70.0797L74.4959 30.175L70.7077 23.3079Z" fill="white"/>
<path d="M82.4128 44.5283C70.7215 57.8376 59.0422 71.1575 47.3979 84.5081L50.5866 90.2883L85.643 50.3836L82.4128 44.5283Z" fill="white"/>
<path d="M89.0205 56.5077C77.3352 69.8094 65.6499 83.1107 53.9641 96.4124L55.8409 99.815L90.8973 59.9103L89.0205 56.5077Z" fill="white"/>
<path d="M97.8545 72.5223C93.108 77.9185 88.3604 83.3136 83.6028 88.7001L101.419 78.9842L97.8545 72.5223Z" fill="white"/>
</g>
<path d="M28.4924 24.8937C27.578 25.3921 26.4196 25.0563 25.9184 24.1471C25.4167 23.2379 25.7549 22.0861 26.6692 21.5877C27.5836 21.0894 28.742 21.4251 29.2432 22.3343C29.7445 23.243 29.4068 24.3948 28.4924 24.8937Z" fill="white"/>
<path d="M27.9951 23.992C27.5794 24.2186 27.0529 24.066 26.825 23.6527C26.5972 23.2394 26.7506 22.7159 27.1663 22.4893C27.5819 22.2628 28.1085 22.4153 28.3363 22.8286C28.5641 23.2419 28.4107 23.7655 27.9951 23.992Z" fill="#245159"/>
<path d="M86.8944 96.2961C87.9328 98.1789 87.2397 100.543 85.3462 101.575C83.4526 102.608 81.0751 101.919 80.0366 100.036C78.9977 98.1532 79.6914 95.7892 81.5849 94.7567C83.4784 93.7237 85.8555 94.4128 86.8944 96.2961Z" fill="white"/>
<path d="M85.445 97.0865C86.0445 98.1734 85.6445 99.5381 84.5514 100.134C83.4583 100.73 82.0858 100.333 81.4863 99.2456C80.8869 98.1588 81.2868 96.794 82.3799 96.198C83.473 95.6014 84.8456 95.9996 85.445 97.0865Z" fill="#306C78"/>
<path d="M84.2921 99.6645C83.28 100.217 82.036 99.9082 81.3804 98.9975C81.4138 99.0806 81.4416 99.1646 81.4862 99.2452C82.0856 100.332 83.4582 100.73 84.5513 100.134C85.6444 99.5377 86.0449 98.1729 85.4449 97.086C85.4004 97.0055 85.3442 96.937 85.2915 96.864C85.7112 97.9041 85.3042 99.1123 84.2921 99.6645Z" fill="#245159"/>
<path d="M45.401 11.541L30.4631 19.6874L32.1441 22.7348L47.082 14.5884L45.401 11.541Z" fill="#245159"/>
<path d="M46.3669 13.2911L31.429 21.4375L32.1445 22.7348L47.0824 14.5883L46.3669 13.2911Z" fill="#1D4147"/>
<path d="M77.0936 99.9821L64.9817 106.587L66.3904 109.141L78.5024 102.536L77.0936 99.9821Z" fill="#245159"/>
<path d="M78.0062 101.636L65.8943 108.242L66.3907 109.142L78.5026 102.536L78.0062 101.636Z" fill="#1D4147"/>
<path d="M99.9918 87.4942L87.8799 94.0995L89.2886 96.6534L101.401 90.0481L99.9918 87.4942Z" fill="#245159"/>
<path d="M100.904 89.1484L88.7925 95.7537L89.2889 96.6537L101.401 90.0484L100.904 89.1484Z" fill="#1D4147"/>
<path d="M65.1622 68.8969L8.5 95.1217L41.3339 165.259L97.9961 139.034L65.1622 68.8969Z" fill="#1E9A5F"/>
<path d="M63.7511 69.5501L9.91089 94.4689L41.8399 162.673L95.6801 137.755L63.7511 69.5501Z" fill="#0A4C2D"/>
<path d="M62.849 69.9675L10.8127 94.0514L42.0318 160.739L94.0681 136.655L62.849 69.9675Z" fill="white"/>
<path d="M15.7658 95.2072C15.9865 95.6789 15.781 96.2397 15.3066 96.4592C14.8322 96.6787 14.2687 96.4743 14.0474 96.0026C13.8267 95.5309 14.0322 94.9701 14.5066 94.7507C14.981 94.5312 15.545 94.7355 15.7658 95.2072Z" fill="#171C24"/>
<path d="M19.9923 93.2515C20.2131 93.7232 20.0075 94.284 19.5331 94.5035C19.0587 94.723 18.4952 94.5186 18.274 94.0469C18.0532 93.5752 18.2588 93.0149 18.7332 92.7949C19.2076 92.5749 19.7716 92.7798 19.9923 93.2515Z" fill="#171C24"/>
<path d="M24.2189 91.2953C24.4397 91.767 24.2341 92.3273 23.7597 92.5472C23.2853 92.7667 22.7218 92.5624 22.5005 92.0907C22.2798 91.619 22.4854 91.0582 22.9598 90.8387C23.4347 90.6192 23.9982 90.8236 24.2189 91.2953Z" fill="#171C24"/>
<path d="M28.446 89.3394C28.6667 89.8111 28.4611 90.3719 27.9868 90.5914C27.5124 90.8109 26.9488 90.6065 26.7276 90.1348C26.5068 89.6631 26.7124 89.1023 27.1868 88.8828C27.6612 88.6628 28.2252 88.8672 28.446 89.3394Z" fill="#171C24"/>
<path d="M32.6725 87.3832C32.8933 87.8549 32.6877 88.4152 32.2133 88.6352C31.7389 88.8546 31.1749 88.6502 30.9542 88.1785C30.7334 87.7068 30.939 87.1465 31.4134 86.9266C31.8883 86.7071 32.4518 86.9115 32.6725 87.3832Z" fill="#171C24"/>
<path d="M36.8991 85.4274C37.1198 85.8991 36.9143 86.4599 36.4399 86.6794C35.9655 86.8989 35.4015 86.6945 35.1807 86.2228C34.96 85.7511 35.1655 85.1908 35.6399 84.9708C36.1148 84.7508 36.6783 84.9552 36.8991 85.4274Z" fill="#171C24"/>
<path d="M41.1261 83.4712C41.3469 83.9429 41.1413 84.5037 40.6669 84.7232C40.1925 84.9426 39.6285 84.7383 39.4078 84.2666C39.187 83.7949 39.3926 83.2346 39.867 83.0146C40.3414 82.7951 40.9054 82.9995 41.1261 83.4712Z" fill="#171C24"/>
<path d="M45.3527 81.5154C45.5734 81.9871 45.3679 82.5474 44.8935 82.7674C44.4191 82.9869 43.8556 82.7825 43.6343 82.3108C43.4136 81.8391 43.6191 81.2788 44.0935 81.0588C44.5684 80.8388 45.132 81.0432 45.3527 81.5154Z" fill="#171C24"/>
<path d="M49.5793 79.5591C49.8 80.0308 49.5945 80.5911 49.1201 80.8111C48.6457 81.031 48.0816 80.8262 47.8609 80.3544C47.6402 79.8827 47.8457 79.3219 48.3201 79.1025C48.795 78.883 49.3585 79.0874 49.5793 79.5591Z" fill="#171C24"/>
<path d="M53.8063 77.6028C54.0271 78.0745 53.8215 78.6353 53.3471 78.8547C52.8727 79.0742 52.3092 78.8699 52.0879 78.3982C51.8672 77.9265 52.0728 77.3656 52.5472 77.1462C53.0216 76.9267 53.5856 77.1311 53.8063 77.6028Z" fill="#171C24"/>
<path d="M58.0329 75.647C58.2536 76.1187 58.0481 76.6795 57.5737 76.899C57.0993 77.1185 56.5353 76.9141 56.3145 76.4424C56.0938 75.9707 56.2993 75.4104 56.7737 75.1904C57.2486 74.9705 57.8121 75.1753 58.0329 75.647Z" fill="#171C24"/>
<path d="M62.2594 73.6908C62.4802 74.1625 62.2746 74.7228 61.8002 74.9428C61.3258 75.1628 60.7623 74.9579 60.5411 74.4862C60.3203 74.0145 60.5259 73.4542 61.0003 73.2342C61.4752 73.0147 62.0387 73.2191 62.2594 73.6908Z" fill="#171C24"/>
<path d="M15.1221 96.0656C14.906 96.1658 14.6467 96.0717 14.546 95.8567L12.5208 91.5299C12.42 91.3149 12.5147 91.0571 12.7309 90.957C12.9471 90.8568 13.2063 90.9509 13.3071 91.1659L15.3328 95.4927C15.433 95.7077 15.3383 95.9655 15.1221 96.0656Z" fill="#252D38"/>
<path d="M19.3487 94.1098C19.1325 94.21 18.8728 94.1159 18.7726 93.9009L16.7469 89.574C16.6461 89.3591 16.7408 89.1013 16.957 89.0012C17.1732 88.901 17.4324 88.9951 17.5331 89.2101L19.5588 93.5369C19.6596 93.7514 19.5649 94.0096 19.3487 94.1098Z" fill="#252D38"/>
<path d="M23.5753 92.1535C23.3591 92.2537 23.0999 92.1596 22.9991 91.9446L20.9734 87.6173C20.8727 87.4023 20.9674 87.144 21.1835 87.0444C21.3997 86.9442 21.659 87.0383 21.7597 87.2533L23.7854 91.5801C23.8867 91.7956 23.792 92.0534 23.5753 92.1535Z" fill="#252D38"/>
<path d="M27.8023 90.1972C27.5861 90.2974 27.3264 90.2033 27.2262 89.9883L25.2005 85.6614C25.0997 85.4465 25.1944 85.1882 25.4106 85.0886C25.6268 84.9884 25.886 85.0825 25.9868 85.2975L28.0124 89.6243C28.1132 89.8393 28.0185 90.0975 27.8023 90.1972Z" fill="#252D38"/>
<path d="M32.0289 88.2415C31.8127 88.3417 31.5535 88.2476 31.4527 88.0326L29.427 83.7058C29.3263 83.4908 29.421 83.2331 29.6372 83.1329C29.8533 83.0327 30.1131 83.1268 30.2133 83.3418L32.2385 87.6686C32.3398 87.8836 32.2451 88.1413 32.0289 88.2415Z" fill="#252D38"/>
<path d="M36.2555 86.2852C36.0393 86.3854 35.7795 86.2913 35.6793 86.0763L33.6536 81.7495C33.5529 81.5345 33.6475 81.2763 33.8637 81.1761C34.0799 81.0759 34.3396 81.17 34.4399 81.385L36.4656 85.7119C36.5663 85.9273 36.4722 86.1856 36.2555 86.2852Z" fill="#252D38"/>
<path d="M40.4825 84.3294C40.2663 84.4296 40.0066 84.3355 39.9058 84.1205L37.8807 79.7936C37.7799 79.5787 37.8746 79.3204 38.0908 79.2208C38.307 79.1206 38.5667 79.2147 38.6669 79.4297L40.6926 83.7565C40.7934 83.9715 40.6987 84.2292 40.4825 84.3294Z" fill="#252D38"/>
<path d="M44.7091 82.3731C44.4929 82.4733 44.2332 82.3792 44.1329 82.1642L42.1072 77.8373C42.0065 77.6224 42.1011 77.3646 42.3173 77.2645C42.5335 77.1643 42.7933 77.2584 42.894 77.4734L44.9192 81.8002C45.0199 82.0152 44.9253 82.2729 44.7091 82.3731Z" fill="#252D38"/>
<path d="M48.9356 80.4174C48.7195 80.5176 48.4597 80.4235 48.3595 80.2085L46.3338 75.8817C46.233 75.6667 46.3277 75.4084 46.5439 75.3088C46.7601 75.2086 47.0193 75.3027 47.1201 75.5177L49.1457 79.8445C49.2465 80.0595 49.1523 80.3173 48.9356 80.4174Z" fill="#252D38"/>
<path d="M53.1627 78.4611C52.9465 78.5613 52.6873 78.4672 52.5865 78.2522L50.5613 73.9254C50.4606 73.7104 50.5552 73.4521 50.7714 73.3525C50.9876 73.2523 51.2468 73.3464 51.3476 73.5614L53.3733 77.8883C53.4735 78.1032 53.3789 78.361 53.1627 78.4611Z" fill="#252D38"/>
<path d="M57.3892 76.5048C57.1731 76.605 56.9138 76.5109 56.8131 76.2959L54.7874 71.9691C54.6866 71.7541 54.7813 71.4964 54.9975 71.3962C55.2137 71.296 55.4734 71.3901 55.5737 71.6051L57.5994 75.932C57.7001 76.1469 57.6054 76.4052 57.3892 76.5048Z" fill="#252D38"/>
<path d="M61.6158 74.549C61.3996 74.6492 61.1404 74.5551 61.0396 74.3401L59.014 70.0133C58.9132 69.7983 59.0079 69.5405 59.2241 69.4404C59.4403 69.3402 59.6995 69.4343 59.8002 69.6493L61.8259 73.9761C61.9272 74.1911 61.8325 74.4488 61.6158 74.549Z" fill="#252D38"/>
<path d="M13.929 100.72L65.966 76.6383" stroke="#50B6CA" stroke-width="0.8957" stroke-miterlimit="10"/>
<path d="M15.4695 104.012L67.5065 79.9301" stroke="#50B6CA" stroke-width="0.8957" stroke-miterlimit="10"/>
<path d="M17.0103 107.303L69.0478 83.2214" stroke="#50B6CA" stroke-width="0.8957" stroke-miterlimit="10"/>
<path d="M18.5513 110.595L70.5883 86.5133" stroke="#50B6CA" stroke-width="0.8957" stroke-miterlimit="10"/>
<path d="M20.092 113.887L72.1291 89.8051" stroke="#50B6CA" stroke-width="0.8957" stroke-miterlimit="10"/>
<path d="M21.6326 117.178L73.6701 93.0969" stroke="#50B6CA" stroke-width="0.8957" stroke-miterlimit="10"/>
<path d="M23.1738 120.47L75.2109 96.3883" stroke="#50B6CA" stroke-width="0.8957" stroke-miterlimit="10"/>
<path d="M24.7146 123.762L76.7516 99.6801" stroke="#50B6CA" stroke-width="0.8957" stroke-miterlimit="10"/>
<path d="M26.2551 127.054L78.2927 102.972" stroke="#50B6CA" stroke-width="0.8957" stroke-miterlimit="10"/>
<path d="M27.7959 130.345L79.8334 106.264" stroke="#50B6CA" stroke-width="0.8957" stroke-miterlimit="10"/>
<path d="M29.3369 133.637L81.374 109.555" stroke="#50B6CA" stroke-width="0.8957" stroke-miterlimit="10"/>
<path d="M30.8777 136.929L82.9147 112.847" stroke="#50B6CA" stroke-width="0.8957" stroke-miterlimit="10"/>
<path d="M32.4182 140.221L84.4558 116.139" stroke="#50B6CA" stroke-width="0.8957" stroke-miterlimit="10"/>
<path d="M33.9595 143.512L85.9965 119.431" stroke="#50B6CA" stroke-width="0.8957" stroke-miterlimit="10"/>
<path d="M35.5 146.804L87.537 122.722" stroke="#50B6CA" stroke-width="0.8957" stroke-miterlimit="10"/>
<path d="M37.0408 150.096L89.0783 126.014" stroke="#50B6CA" stroke-width="0.8957" stroke-miterlimit="10"/>
<path d="M38.582 153.388L90.6191 129.306" stroke="#50B6CA" stroke-width="0.8957" stroke-miterlimit="10"/>
<path d="M40.1226 156.679L92.1596 132.597" stroke="#50B6CA" stroke-width="0.8957" stroke-miterlimit="10"/>
<path d="M25.4131 107.361C25.247 107.361 25.081 107.332 24.922 107.275L18.6677 105.006C17.9245 104.736 17.5417 103.918 17.8126 103.179C18.084 102.44 18.9062 102.059 19.6494 102.33L24.558 104.11L27.8787 95.0597C28.1501 94.3212 28.9718 93.9396 29.7156 94.21C30.4588 94.4793 30.8416 95.2973 30.5707 96.0363L26.7593 106.425C26.6292 106.78 26.3624 107.069 26.0181 107.228C25.8267 107.316 25.6202 107.361 25.4131 107.361Z" fill="#A2DB1E"/>
<path d="M65.5022 86.0451L36.6545 99.3952C35.9786 99.7078 35.168 99.4138 34.8536 98.7417C34.5392 98.0697 34.8344 97.2637 35.5108 96.9511L64.3585 83.601C65.0344 83.2884 65.845 83.5824 66.1594 84.2544C66.4738 84.9265 66.1781 85.7325 65.5022 86.0451Z" fill="#0A4C2D"/>
<path d="M37.6614 133.527C37.4984 133.527 37.3328 133.5 37.1708 133.441L30.916 131.172C30.1728 130.903 29.79 130.085 30.0609 129.346C30.3317 128.606 31.1535 128.224 31.8977 128.496L36.8062 130.276L40.1265 121.225C40.3979 120.486 41.2191 120.105 41.9634 120.376C42.7066 120.645 43.0894 121.463 42.8185 122.202L39.0071 132.59C38.7955 133.168 38.2462 133.527 37.6614 133.527Z" fill="#A2DB1E"/>
<path d="M77.75 112.212L48.9023 125.562C48.2264 125.874 47.4159 125.58 47.1014 124.908C46.787 124.236 47.0822 123.43 47.7586 123.118L76.6063 109.768C77.2822 109.455 78.0928 109.748 78.4072 110.421C78.7216 111.093 78.4264 111.899 77.75 112.212Z" fill="#0A4C2D"/>
<path d="M31.5373 120.444C31.3713 120.444 31.2052 120.415 31.0462 120.358L24.7925 118.089C24.0492 117.82 23.6665 117.002 23.9378 116.263C24.2092 115.524 25.0314 115.143 25.7747 115.413L30.6832 117.193L34.004 108.143C34.2754 107.404 35.0976 107.022 35.8409 107.293C36.5841 107.562 36.9669 108.38 36.696 109.119L32.8846 119.508C32.7545 119.863 32.4877 120.152 32.1434 120.311C31.951 120.399 31.7444 120.444 31.5373 120.444Z" fill="#A2DB1E"/>
<path d="M61.034 104.03L42.778 112.478C42.1021 112.791 41.2916 112.497 40.9771 111.825C40.6622 111.153 40.9579 110.347 41.6343 110.034L59.8903 101.586C60.5662 101.273 61.3768 101.567 61.6912 102.24C62.0056 102.912 61.7099 103.718 61.034 104.03Z" fill="#0A4C2D"/>
<path d="M43.1699 145.294C43.0039 145.294 42.8378 145.265 42.6788 145.208L36.4241 142.939C35.6808 142.669 35.2981 141.851 35.5689 141.112C35.8403 140.374 36.6615 139.993 37.4058 140.262L42.3143 142.043L45.6346 132.992C45.9055 132.253 46.7282 131.872 47.4714 132.142C48.2147 132.412 48.5974 133.23 48.3266 133.969L44.5152 144.357C44.385 144.712 44.1182 145.001 43.774 145.16C43.5831 145.25 43.3765 145.294 43.1699 145.294Z" fill="#A2DB1E"/>
<path d="M72.6663 128.881L54.4103 137.329C53.7344 137.642 52.9238 137.348 52.6094 136.676C52.295 136.004 52.5907 135.198 53.2666 134.885L71.5226 126.437C72.1985 126.124 73.0091 126.418 73.3235 127.09C73.6379 127.762 73.3422 128.568 72.6663 128.881Z" fill="#306C78"/>
<path d="M150.405 166.568H61.4575C56.4745 166.568 52.4353 162.552 52.4353 157.598V30.7414C52.4353 25.7868 56.4745 21.7705 61.4575 21.7705H150.405C155.388 21.7705 159.427 25.7868 159.427 30.7414V157.598C159.427 162.552 155.388 166.568 150.405 166.568Z" fill="#1E9A5F"/>
<path opacity="0.3" d="M150.405 21.7705H61.4575C56.4745 21.7705 52.4353 25.7868 52.4353 30.7414V157.598C52.4353 162.552 56.4745 166.568 61.4575 166.568H150.405C155.388 166.568 159.427 162.552 159.427 157.598V30.7414C159.427 25.7868 155.388 21.7705 150.405 21.7705ZM157.92 155.81C157.92 160.625 153.994 164.529 149.152 164.529H62.7106C57.8684 164.529 53.9425 160.626 53.9425 155.81V32.5285C53.9425 27.7138 57.8679 23.8103 62.7106 23.8103H149.152C153.994 23.8103 157.92 27.7133 157.92 32.5285V155.81Z" fill="#0A1D12"/>
<path opacity="0.3" d="M153.422 159.641H58.4404L63.4381 29.2367H148.425L153.422 159.641Z" fill="#0A1D12"/>
<path d="M151.779 29.2367H60.084V156.53H151.779V29.2367Z" fill="#F2F8F5"/>
<path opacity="0.3" d="M68.2195 24.418V33.9401H143.643V24.418C143.643 23.5158 143.609 22.6324 143.548 21.7705H68.3142C68.2529 22.6329 68.2195 23.5163 68.2195 24.418Z" fill="#171C24"/>
<path d="M105.932 0.149292C99.9816 0.149292 95.113 4.99014 95.113 10.9063V19.6516C95.113 25.5683 99.9816 30.4086 105.932 30.4086C111.882 30.4086 116.75 25.5678 116.75 19.6516V10.9063C116.75 4.98963 111.882 0.149292 105.932 0.149292ZM105.932 12.4482C103.723 12.4482 101.933 10.6682 101.933 8.47226C101.933 6.27636 103.723 4.49628 105.932 4.49628C108.14 4.49628 109.93 6.27636 109.93 8.47226C109.93 10.6682 108.14 12.4482 105.932 12.4482Z" fill="#0A4C2D"/>
<path d="M142.263 32.3472H69.5991V20.8185C69.5991 17.283 72.5083 14.3904 76.064 14.3904H135.798C139.354 14.3904 142.263 17.283 142.263 20.8185V32.3472Z" fill="#D6F58D"/>
<path d="M135.798 22.0831H76.064C72.5083 22.0831 69.5991 24.9758 69.5991 28.5113V32.3473H142.263V28.5113C142.263 24.9758 139.354 22.0831 135.798 22.0831Z" fill="#A2DB1E"/>
<path opacity="0.3" d="M143.644 68.5005H72.9966" stroke="#171C24" stroke-width="0.8957" stroke-miterlimit="10"/>
<path opacity="0.3" d="M143.644 62.8527H72.9966" stroke="#171C24" stroke-width="0.8957" stroke-miterlimit="10"/>
<path opacity="0.3" d="M143.644 57.2043H72.9966" stroke="#171C24" stroke-width="0.8957" stroke-miterlimit="10"/>
<path opacity="0.3" d="M143.644 51.5565H72.9966" stroke="#171C24" stroke-width="0.8957" stroke-miterlimit="10"/>
<path opacity="0.3" d="M143.644 45.9082H72.9966" stroke="#171C24" stroke-width="0.8957" stroke-miterlimit="10"/>
<path d="M81.4956 52.944H78.9636V73.7426H81.4956V52.944Z" fill="#50B6CA"/>
<path d="M86.2346 46.4962H83.7026V73.7431H86.2346V46.4962Z" fill="#E49345"/>
<path d="M95.7119 40.2961H93.1799V73.7426H95.7119V40.2961Z" fill="#FFDF3D"/>
<path d="M90.9729 55.4243H88.4409V73.7431H90.9729V55.4243Z" fill="#FF4446"/>
<path d="M105.461 44.264H102.929V73.7426H105.461V44.264Z" fill="#50B6CA"/>
<path d="M110.2 49.72H107.668V73.7425H110.2V49.72Z" fill="#E49345"/>
<path d="M119.677 46.4961H117.146V73.743H119.677V46.4961Z" fill="#FFDF3D"/>
<path d="M114.938 41.7842H112.406V73.743H114.938V41.7842Z" fill="#FF4446"/>
<path d="M129.426 44.264H126.894V73.7426H129.426V44.264Z" fill="#50B6CA"/>
<path d="M134.165 49.72H131.633V73.7425H134.165V49.72Z" fill="#E49345"/>
<path d="M143.643 43.0131H141.111V73.7431H143.643V43.0131Z" fill="#FFDF3D"/>
<path d="M138.904 41.7842H136.372V73.743H138.904V41.7842Z" fill="#FF4446"/>
<path opacity="0.3" d="M143.644 73.7431H72.9966V40.2961" stroke="#171C24" stroke-width="0.8957" stroke-miterlimit="10"/>
<path d="M72.1462 73.8912V74.7025C72.1462 75.1386 72.1072 75.5065 72.0292 75.8061C71.9513 76.1058 71.8392 76.347 71.693 76.5297C71.5468 76.7125 71.3702 76.8452 71.1631 76.9281C70.9585 77.0085 70.727 77.0487 70.4688 77.0487C70.2641 77.0487 70.0753 77.0231 69.9023 76.9719C69.7293 76.9208 69.5734 76.8392 69.4345 76.7271C69.2981 76.6126 69.1812 76.464 69.0837 76.2812C68.9863 76.0985 68.9119 75.8768 68.8608 75.6161C68.8096 75.3554 68.784 75.0509 68.784 74.7025V73.8912C68.784 73.4551 68.823 73.0896 68.901 72.7948C68.9814 72.5001 69.0947 72.2637 69.2408 72.0859C69.387 71.9056 69.5624 71.7765 69.7671 71.6985C69.9742 71.6205 70.2056 71.5816 70.4614 71.5816C70.6685 71.5816 70.8586 71.6071 71.0315 71.6583C71.207 71.707 71.3629 71.7862 71.4993 71.8958C71.6358 72.003 71.7515 72.1468 71.8465 72.3271C71.944 72.5049 72.0183 72.723 72.0694 72.9812C72.1206 73.2395 72.1462 73.5428 72.1462 73.8912ZM71.4664 74.8121V73.7779C71.4664 73.5391 71.4518 73.3296 71.4226 73.1493C71.3958 72.9666 71.3556 72.8107 71.302 72.6816C71.2484 72.5524 71.1802 72.4477 71.0973 72.3673C71.0169 72.2869 70.9231 72.2284 70.8159 72.1919C70.7112 72.1529 70.593 72.1334 70.4614 72.1334C70.3007 72.1334 70.1581 72.1638 70.0339 72.2247C69.9096 72.2832 69.8049 72.377 69.7196 72.5061C69.6368 72.6353 69.5734 72.8046 69.5296 73.0141C69.4857 73.2236 69.4638 73.4782 69.4638 73.7779V74.8121C69.4638 75.0509 69.4772 75.2616 69.504 75.4444C69.5332 75.6271 69.5758 75.7854 69.6319 75.9194C69.6879 76.051 69.7561 76.1594 69.8365 76.2447C69.9169 76.33 70.0095 76.3933 70.1143 76.4347C70.2215 76.4737 70.3396 76.4932 70.4688 76.4932C70.6344 76.4932 70.7794 76.4615 70.9036 76.3982C71.0279 76.3348 71.1314 76.2362 71.2143 76.1022C71.2995 75.9657 71.3629 75.7915 71.4043 75.5796C71.4457 75.3652 71.4664 75.1094 71.4664 74.8121Z" fill="#171C24"/>
<path d="M68.9002 66.3829V71.733H68.2241V67.227L66.861 67.7241V67.1138L68.7942 66.3829H68.9002ZM70.0185 77.6486V78.4599C70.0185 78.896 69.9795 79.2639 69.9015 79.5636C69.8236 79.8633 69.7115 80.1045 69.5653 80.2872C69.4191 80.4699 69.2425 80.6027 69.0354 80.6855C68.8308 80.7659 68.5993 80.8061 68.3411 80.8061C68.1364 80.8061 67.9476 80.7805 67.7746 80.7294C67.6016 80.6782 67.4457 80.5966 67.3069 80.4845C67.1704 80.37 67.0535 80.2214 66.956 80.0387C66.8586 79.856 66.7843 79.6342 66.7331 79.3736C66.6819 79.1129 66.6564 78.8083 66.6564 78.4599V77.6486C66.6564 77.2125 66.6953 76.8471 66.7733 76.5523C66.8537 76.2575 66.967 76.0212 67.1132 75.8433C67.2593 75.663 67.4348 75.5339 67.6394 75.4559C67.8465 75.378 68.0779 75.339 68.3338 75.339C68.5409 75.339 68.7309 75.3646 68.9039 75.4157C69.0793 75.4645 69.2352 75.5437 69.3716 75.6533C69.5081 75.7605 69.6238 75.9042 69.7188 76.0845C69.8163 76.2624 69.8906 76.4804 69.9417 76.7387C69.9929 76.9969 70.0185 77.3002 70.0185 77.6486ZM69.3387 78.5696V77.5354C69.3387 77.2966 69.3241 77.0871 69.2949 76.9068C69.2681 76.7241 69.2279 76.5681 69.1743 76.439C69.1207 76.3099 69.0525 76.2051 68.9696 76.1247C68.8892 76.0443 68.7954 75.9858 68.6882 75.9493C68.5835 75.9103 68.4653 75.8908 68.3338 75.8908C68.173 75.8908 68.0304 75.9213 67.9062 75.9822C67.7819 76.0407 67.6772 76.1345 67.5919 76.2636C67.5091 76.3927 67.4457 76.562 67.4019 76.7716C67.358 76.9811 67.3361 77.2357 67.3361 77.5354V78.5696C67.3361 78.8083 67.3495 79.0191 67.3763 79.2018C67.4055 79.3845 67.4482 79.5429 67.5042 79.6769C67.5602 79.8084 67.6284 79.9169 67.7088 80.0021C67.7892 80.0874 67.8818 80.1507 67.9866 80.1922C68.0938 80.2311 68.2119 80.2506 68.3411 80.2506C68.5067 80.2506 68.6517 80.219 68.776 80.1556C68.9002 80.0923 69.0038 79.9936 69.0866 79.8596C69.1719 79.7232 69.2352 79.549 69.2766 79.337C69.318 79.1226 69.3387 78.8668 69.3387 78.5696Z" fill="#171C24"/>
<path d="M70.1647 65.5294V66.0848H66.6819V65.5988L68.4251 63.6583C68.6395 63.4195 68.8052 63.2173 68.9221 63.0516C69.0415 62.8835 69.1244 62.7337 69.1706 62.6021C69.2194 62.4681 69.2437 62.3317 69.2437 62.1928C69.2437 62.0174 69.2072 61.859 69.1341 61.7177C69.0634 61.574 68.9587 61.4595 68.8198 61.3742C68.6809 61.2889 68.5128 61.2463 68.3155 61.2463C68.0792 61.2463 67.8818 61.2926 67.7235 61.3852C67.5675 61.4753 67.4506 61.602 67.3726 61.7652C67.2947 61.9285 67.2557 62.1161 67.2557 62.328H66.5796C66.5796 62.0284 66.6454 61.7543 66.7769 61.5058C66.9085 61.2573 67.1034 61.0599 67.3617 60.9137C67.6199 60.7651 67.9379 60.6908 68.3155 60.6908C68.6517 60.6908 68.9392 60.7505 69.178 60.8699C69.4167 60.9868 69.5994 61.1525 69.7261 61.3669C69.8552 61.5789 69.9198 61.8274 69.9198 62.1124C69.9198 62.2683 69.893 62.4267 69.8394 62.5875C69.7883 62.7459 69.7164 62.9042 69.6238 63.0626C69.5337 63.2209 69.4277 63.3769 69.3059 63.5303C69.1865 63.6838 69.0586 63.8349 68.9221 63.9835L67.4969 65.5294H70.1647ZM70.0185 72.0004V72.8117C70.0185 73.2478 69.9795 73.6157 69.9015 73.9154C69.8236 74.2151 69.7115 74.4563 69.5653 74.639C69.4191 74.8217 69.2425 74.9545 69.0354 75.0373C68.8308 75.1177 68.5993 75.1579 68.3411 75.1579C68.1364 75.1579 67.9476 75.1323 67.7746 75.0812C67.6016 75.03 67.4457 74.9484 67.3069 74.8363C67.1704 74.7218 67.0535 74.5732 66.956 74.3905C66.8586 74.2078 66.7843 73.9861 66.7331 73.7254C66.6819 73.4647 66.6564 73.1601 66.6564 72.8117V72.0004C66.6564 71.5643 66.6953 71.1989 66.7733 70.9041C66.8537 70.6093 66.967 70.373 67.1132 70.1951C67.2593 70.0148 67.4348 69.8857 67.6394 69.8078C67.8465 69.7298 68.0779 69.6908 68.3338 69.6908C68.5409 69.6908 68.7309 69.7164 68.9039 69.7676C69.0793 69.8163 69.2352 69.8955 69.3716 70.0051C69.5081 70.1123 69.6238 70.256 69.7188 70.4363C69.8163 70.6142 69.8906 70.8322 69.9417 71.0905C69.9929 71.3487 70.0185 71.6521 70.0185 72.0004ZM69.3387 72.9214V71.8872C69.3387 71.6484 69.3241 71.4389 69.2949 71.2586C69.2681 71.0759 69.2279 70.9199 69.1743 70.7908C69.1207 70.6617 69.0525 70.5569 68.9696 70.4765C68.8892 70.3961 68.7954 70.3377 68.6882 70.3011C68.5835 70.2621 68.4653 70.2426 68.3338 70.2426C68.173 70.2426 68.0304 70.2731 67.9062 70.334C67.7819 70.3925 67.6772 70.4863 67.5919 70.6154C67.5091 70.7445 67.4457 70.9138 67.4019 71.1234C67.358 71.3329 67.3361 71.5875 67.3361 71.8872V72.9214C67.3361 73.1601 67.3495 73.3709 67.3763 73.5536C67.4055 73.7363 67.4482 73.8947 67.5042 74.0287C67.5602 74.1603 67.6284 74.2687 67.7088 74.3539C67.7892 74.4392 67.8818 74.5026 67.9866 74.544C68.0938 74.583 68.2119 74.6024 68.3411 74.6024C68.5067 74.6024 68.6517 74.5708 68.776 74.5074C68.9002 74.4441 69.0038 74.3454 69.0866 74.2114C69.1719 74.075 69.2352 73.9008 69.2766 73.6888C69.318 73.4744 69.3387 73.2186 69.3387 72.9214Z" fill="#171C24"/>
<path d="M67.665 57.4441H68.1474C68.3837 57.4441 68.5786 57.4051 68.7321 57.3272C68.888 57.2468 69.0038 57.1383 69.0793 57.0019C69.1572 56.863 69.1962 56.7071 69.1962 56.5341C69.1962 56.3295 69.1621 56.1577 69.0939 56.0189C69.0257 55.88 68.9234 55.7752 68.7869 55.7046C68.6505 55.6339 68.4775 55.5986 68.268 55.5986C68.0779 55.5986 67.9098 55.6363 67.7637 55.7119C67.6199 55.785 67.5066 55.8897 67.4238 56.0262C67.3434 56.1626 67.3032 56.3234 67.3032 56.5086H66.6271C66.6271 56.2381 66.6953 55.9921 66.8318 55.7703C66.9682 55.5486 67.1595 55.372 67.4055 55.2404C67.654 55.1089 67.9415 55.0431 68.268 55.0431C68.5896 55.0431 68.871 55.1004 69.1122 55.2149C69.3534 55.3269 69.541 55.495 69.675 55.7192C69.809 55.9409 69.876 56.2174 69.876 56.5488C69.876 56.6828 69.8443 56.8265 69.7809 56.98C69.72 57.131 69.6238 57.2723 69.4922 57.4039C69.3631 57.5355 69.195 57.6439 68.9879 57.7292C68.7808 57.812 68.5323 57.8534 68.2424 57.8534H67.665V57.4441ZM67.665 57.9996V57.5939H68.2424C68.581 57.5939 68.8612 57.6341 69.0829 57.7145C69.3046 57.7949 69.4788 57.9021 69.6055 58.0361C69.7347 58.1701 69.8248 58.3175 69.876 58.4783C69.9296 58.6367 69.9564 58.795 69.9564 58.9534C69.9564 59.2019 69.9137 59.4224 69.8284 59.6149C69.7456 59.8073 69.6275 59.9706 69.474 60.1046C69.3229 60.2386 69.1451 60.3397 68.9404 60.4079C68.7358 60.4761 68.5128 60.5102 68.2716 60.5102C68.0402 60.5102 67.8221 60.4773 67.6175 60.4116C67.4153 60.3458 67.2362 60.2508 67.0803 60.1265C66.9243 59.9998 66.8025 59.8451 66.7148 59.6624C66.6271 59.4772 66.5833 59.2665 66.5833 59.0302H67.2593C67.2593 59.2153 67.2995 59.3773 67.3799 59.5162C67.4628 59.6551 67.5797 59.7635 67.7308 59.8415C67.8843 59.917 68.0645 59.9547 68.2716 59.9547C68.4787 59.9547 68.6566 59.9194 68.8052 59.8488C68.9562 59.7757 69.072 59.666 69.1524 59.5199C69.2352 59.3737 69.2766 59.1897 69.2766 58.968C69.2766 58.7463 69.2303 58.5648 69.1378 58.4235C69.0452 58.2798 68.9136 58.1738 68.7431 58.1056C68.575 58.0349 68.3764 57.9996 68.1474 57.9996H67.665ZM70.0185 66.3527V67.164C70.0185 67.6001 69.9795 67.968 69.9015 68.2677C69.8236 68.5674 69.7115 68.8086 69.5653 68.9913C69.4191 69.174 69.2425 69.3068 69.0354 69.3896C68.8308 69.47 68.5993 69.5102 68.3411 69.5102C68.1364 69.5102 67.9476 69.4846 67.7746 69.4335C67.6016 69.3823 67.4457 69.3007 67.3069 69.1886C67.1704 69.0741 67.0535 68.9255 66.956 68.7428C66.8586 68.5601 66.7843 68.3383 66.7331 68.0777C66.6819 67.817 66.6564 67.5124 66.6564 67.164V66.3527C66.6564 65.9166 66.6953 65.5512 66.7733 65.2564C66.8537 64.9616 66.967 64.7253 67.1132 64.5474C67.2593 64.3671 67.4348 64.238 67.6394 64.16C67.8465 64.0821 68.0779 64.0431 68.3338 64.0431C68.5409 64.0431 68.7309 64.0687 68.9039 64.1198C69.0793 64.1686 69.2352 64.2478 69.3716 64.3574C69.5081 64.4646 69.6238 64.6083 69.7188 64.7886C69.8163 64.9665 69.8906 65.1845 69.9417 65.4428C69.9929 65.701 70.0185 66.0043 70.0185 66.3527ZM69.3387 67.2737V66.2395C69.3387 66.0007 69.3241 65.7912 69.2949 65.6109C69.2681 65.4282 69.2279 65.2722 69.1743 65.1431C69.1207 65.014 69.0525 64.9092 68.9696 64.8288C68.8892 64.7484 68.7954 64.6899 68.6882 64.6534C68.5835 64.6144 68.4653 64.5949 68.3338 64.5949C68.173 64.5949 68.0304 64.6254 67.9062 64.6863C67.7819 64.7448 67.6772 64.8386 67.5919 64.9677C67.5091 65.0968 67.4457 65.2661 67.4019 65.4757C67.358 65.6852 67.3361 65.9398 67.3361 66.2395V67.2737C67.3361 67.5124 67.3495 67.7232 67.3763 67.9059C67.4055 68.0886 67.4482 68.247 67.5042 68.381C67.5602 68.5125 67.6284 68.621 67.7088 68.7062C67.7892 68.7915 67.8818 68.8549 67.9866 68.8963C68.0938 68.9353 68.2119 68.9547 68.3411 68.9547C68.5067 68.9547 68.6517 68.9231 68.776 68.8597C68.9002 68.7964 69.0038 68.6977 69.0866 68.5637C69.1719 68.4273 69.2352 68.2531 69.2766 68.0411C69.318 67.8267 69.3387 67.5709 69.3387 67.2737Z" fill="#171C24"/>
<path d="M70.2743 52.9978V53.5532H66.4298V53.1549L68.8125 49.4675H69.3643L68.7723 50.5346L67.1972 52.9978H70.2743ZM69.5324 49.4675V54.7885H68.8564V49.4675H69.5324ZM70.0185 60.7041V61.5154C70.0185 61.9515 69.9795 62.3193 69.9015 62.619C69.8236 62.9187 69.7115 63.1599 69.5653 63.3426C69.4191 63.5253 69.2425 63.6581 69.0354 63.7409C68.8308 63.8213 68.5993 63.8615 68.3411 63.8615C68.1364 63.8615 67.9476 63.836 67.7746 63.7848C67.6016 63.7336 67.4457 63.652 67.3069 63.5399C67.1704 63.4254 67.0535 63.2768 66.956 63.0941C66.8586 62.9114 66.7843 62.6897 66.7331 62.429C66.6819 62.1683 66.6564 61.8638 66.6564 61.5154V60.7041C66.6564 60.268 66.6953 59.9025 66.7733 59.6077C66.8537 59.3129 66.967 59.0766 67.1132 58.8987C67.2593 58.7185 67.4348 58.5893 67.6394 58.5114C67.8465 58.4334 68.0779 58.3944 68.3338 58.3944C68.5409 58.3944 68.7309 58.42 68.9039 58.4712C69.0793 58.5199 69.2352 58.5991 69.3716 58.7087C69.5081 58.8159 69.6238 58.9596 69.7188 59.1399C69.8163 59.3178 69.8906 59.5358 69.9417 59.7941C69.9929 60.0523 70.0185 60.3557 70.0185 60.7041ZM69.3387 61.625V60.5908C69.3387 60.352 69.3241 60.1425 69.2949 59.9622C69.2681 59.7795 69.2279 59.6235 69.1743 59.4944C69.1207 59.3653 69.0525 59.2605 68.9696 59.1801C68.8892 59.0997 68.7954 59.0413 68.6882 59.0047C68.5835 58.9657 68.4653 58.9463 68.3338 58.9463C68.173 58.9463 68.0304 58.9767 67.9062 59.0376C67.7819 59.0961 67.6772 59.1899 67.5919 59.319C67.5091 59.4481 67.4457 59.6175 67.4019 59.827C67.358 60.0365 67.3361 60.2911 67.3361 60.5908V61.625C67.3361 61.8638 67.3495 62.0745 67.3763 62.2572C67.4055 62.4399 67.4482 62.5983 67.5042 62.7323C67.5602 62.8639 67.6284 62.9723 67.7088 63.0576C67.7892 63.1428 67.8818 63.2062 67.9866 63.2476C68.0938 63.2866 68.2119 63.3061 68.3411 63.3061C68.5067 63.3061 68.6517 63.2744 68.776 63.211C68.9002 63.1477 69.0038 63.049 69.0866 62.915C69.1719 62.7786 69.2352 62.6044 69.2766 62.3924C69.318 62.178 69.3387 61.9222 69.3387 61.625Z" fill="#171C24"/>
<path d="M67.5334 46.6082L66.9926 46.4693L67.2593 43.8198H69.9892V44.4447H67.8331L67.6723 45.8919C67.7698 45.8359 67.8928 45.7835 68.0414 45.7348C68.1925 45.686 68.3654 45.6617 68.5603 45.6617C68.8064 45.6617 69.0269 45.7043 69.2218 45.7896C69.4167 45.8724 69.5824 45.9918 69.7188 46.1477C69.8577 46.3036 69.9637 46.4912 70.0368 46.7105C70.1098 46.9298 70.1464 47.1746 70.1464 47.4451C70.1464 47.7009 70.1111 47.936 70.0404 48.1504C69.9722 48.3648 69.8686 48.5524 69.7298 48.7132C69.5909 48.8715 69.4155 48.9946 69.2035 49.0823C68.994 49.17 68.7467 49.2138 68.4617 49.2138C68.2473 49.2138 68.0438 49.1846 67.8514 49.1261C67.6613 49.0652 67.4908 48.9739 67.3397 48.852C67.1911 48.7278 67.0693 48.5743 66.9743 48.3916C66.8817 48.2064 66.8232 47.9896 66.7989 47.7411H67.4421C67.4713 47.9409 67.5298 48.109 67.6175 48.2454C67.7052 48.3818 67.8197 48.4854 67.961 48.556C68.1047 48.6242 68.2716 48.6584 68.4617 48.6584C68.6225 48.6584 68.765 48.6303 68.8892 48.5743C69.0135 48.5183 69.1183 48.4379 69.2035 48.3331C69.2888 48.2283 69.3534 48.1017 69.3972 47.953C69.4435 47.8044 69.4667 47.6375 69.4667 47.4524C69.4667 47.2843 69.4435 47.1283 69.3972 46.9846C69.3509 46.8409 69.2815 46.7154 69.1889 46.6082C69.0988 46.501 68.9879 46.4182 68.8564 46.3597C68.7248 46.2988 68.5737 46.2683 68.4032 46.2683C68.1766 46.2683 68.0049 46.2988 67.8879 46.3597C67.7734 46.4206 67.6552 46.5034 67.5334 46.6082ZM70.0185 55.0564V55.8677C70.0185 56.3038 69.9795 56.6716 69.9015 56.9713C69.8236 57.271 69.7115 57.5122 69.5653 57.6949C69.4191 57.8776 69.2425 58.0104 69.0354 58.0932C68.8308 58.1736 68.5993 58.2138 68.3411 58.2138C68.1364 58.2138 67.9476 58.1883 67.7746 58.1371C67.6016 58.0859 67.4457 58.0043 67.3069 57.8922C67.1704 57.7777 67.0535 57.6291 66.956 57.4464C66.8586 57.2637 66.7843 57.042 66.7331 56.7813C66.6819 56.5206 66.6564 56.216 66.6564 55.8677V55.0564C66.6564 54.6203 66.6953 54.2548 66.7733 53.96C66.8537 53.6652 66.967 53.4289 67.1132 53.251C67.2593 53.0707 67.4348 52.9416 67.6394 52.8637C67.8465 52.7857 68.0779 52.7467 68.3338 52.7467C68.5409 52.7467 68.7309 52.7723 68.9039 52.8235C69.0793 52.8722 69.2352 52.9514 69.3716 53.061C69.5081 53.1682 69.6238 53.3119 69.7188 53.4922C69.8163 53.6701 69.8906 53.8881 69.9417 54.1464C69.9929 54.4046 70.0185 54.708 70.0185 55.0564ZM69.3387 55.9773V54.9431C69.3387 54.7043 69.3241 54.4948 69.2949 54.3145C69.2681 54.1318 69.2279 53.9758 69.1743 53.8467C69.1207 53.7176 69.0525 53.6128 68.9696 53.5324C68.8892 53.452 68.7954 53.3936 68.6882 53.357C68.5835 53.318 68.4653 53.2985 68.3338 53.2985C68.173 53.2985 68.0304 53.329 67.9062 53.3899C67.7819 53.4484 67.6772 53.5422 67.5919 53.6713C67.5091 53.8004 67.4457 53.9698 67.4019 54.1793C67.358 54.3888 67.3361 54.6434 67.3361 54.9431V55.9773C67.3361 56.216 67.3495 56.4268 67.3763 56.6095C67.4055 56.7922 67.4482 56.9506 67.5042 57.0846C67.5602 57.2162 67.6284 57.3246 67.7088 57.4098C67.7892 57.4951 67.8818 57.5585 67.9866 57.5999C68.0938 57.6389 68.2119 57.6584 68.3411 57.6584C68.5067 57.6584 68.6517 57.6267 68.776 57.5633C68.9002 57.5 69.0038 57.4013 69.0866 57.2673C69.1719 57.1309 69.2352 56.9567 69.2766 56.7447C69.318 56.5303 69.3387 56.2745 69.3387 55.9773Z" fill="#171C24"/>
<path d="M68.9517 99.8683C68.9517 105.625 72.1099 110.964 77.0944 113.797L83.7542 99.7329L80.1251 84.6118C73.4871 86.7236 68.9517 92.8306 68.9517 99.8683Z" fill="#1E9A5F"/>
<path d="M85.0721 83.8391C84.2347 83.8391 83.3932 83.9056 82.5583 84.0364L85.985 98.3138L100.174 94.2633C97.8454 88.0678 91.8053 83.8391 85.0721 83.8391Z" fill="#B7E8D0"/>
<path d="M79.356 114.858C81.1776 115.548 83.0949 115.897 85.072 115.897C93.9611 115.897 101.192 108.706 101.192 99.8679C101.192 98.789 101.082 97.7128 100.864 96.6536L85.9621 100.907L79.356 114.858Z" fill="#A2DB1E"/>
<path opacity="0.1" d="M143.643 87.446H105.931V90.1695H143.643V87.446Z" fill="#171C24"/>
<path opacity="0.1" d="M143.643 100.018H105.931V102.742H143.643V100.018Z" fill="#171C24"/>
<path opacity="0.2" d="M135.718 93.7323H105.931V96.4558H135.718V93.7323Z" fill="#171C24"/>
<path opacity="0.2" d="M128.16 106.305H105.931V109.028H128.16V106.305Z" fill="#171C24"/>
<path opacity="0.1" d="M122.962 112.59H105.931V115.314H122.962V112.59Z" fill="#171C24"/>
<path opacity="0.2" d="M142.263 123.465H69.5991V150.757H142.263V123.465Z" fill="#171C24"/>
<path d="M105.924 125.742H72.1504V131.322H105.924V125.742Z" fill="#E3E3E3"/>
<path d="M139.712 125.742H107.893V131.322H139.712V125.742Z" fill="white"/>
<path d="M105.924 142.483H72.1504V148.063H105.924V142.483Z" fill="#F2F2F2"/>
<path d="M139.712 142.483H107.893V148.063H139.712V142.483Z" fill="white"/>
<path d="M88.0222 133.791H72.1504V139.371H88.0222V133.791Z" fill="#E3E3E3"/>
<path d="M139.675 133.791H123.803V139.371H139.675V133.791Z" fill="#E3E3E3"/>
<path d="M121.841 133.791H90.0222V139.371H121.841V133.791Z" fill="#F2F2F2"/>
<path d="M181.52 172.872L125.969 156.382C124.053 155.813 122.954 153.789 123.525 151.884L142.068 90.1248C142.64 88.2199 144.676 87.127 146.592 87.6953L202.143 104.185C204.059 104.754 205.158 106.778 204.586 108.683L186.043 170.442C185.471 172.347 183.436 173.441 181.52 172.872Z" fill="#245159"/>
<path d="M182.282 170.333L126.731 153.843C124.815 153.274 123.716 151.25 124.288 149.345L142.831 87.5856C143.403 85.6807 145.439 84.5878 147.354 85.1561L202.905 101.646C204.821 102.215 205.921 104.239 205.349 106.144L186.806 167.903C186.233 169.808 184.198 170.901 182.282 170.333Z" fill="#0A4C2D"/>
<path d="M146.868 124.414L138.979 122.073C137.96 121.77 137.38 120.703 137.685 119.689L138.771 116.072C139.075 115.058 140.148 114.482 141.168 114.785L149.056 117.127C150.075 117.429 150.655 118.496 150.351 119.51L149.265 123.128C148.96 124.141 147.887 124.717 146.868 124.414Z" fill="#1E9A5F"/>
<path d="M146.059 118.823L144.397 124.356L143.697 124.148L145.097 119.488L143.531 119.583L143.721 118.952L145.949 118.79L146.059 118.823Z" fill="white"/>
<path opacity="0.1" d="M149.265 123.127L150.351 119.509C150.522 118.939 150.406 118.357 150.097 117.899L137.938 121.3C138.178 121.657 138.533 121.94 138.979 122.073L146.868 124.414C147.887 124.717 148.961 124.141 149.265 123.127Z" fill="#171C24"/>
<path d="M161.035 128.62L153.146 126.279C152.127 125.976 151.547 124.909 151.851 123.895L152.938 120.277C153.242 119.264 154.315 118.688 155.334 118.99L163.223 121.332C164.242 121.634 164.822 122.701 164.517 123.715L163.431 127.332C163.127 128.346 162.054 128.923 161.035 128.62Z" fill="#1E9A5F"/>
<path d="M160.045 128.375L159.873 128.95L156.267 127.88L156.418 127.377L158.825 125.906C159.122 125.725 159.356 125.566 159.528 125.431C159.704 125.294 159.836 125.164 159.925 125.042C160.017 124.919 160.085 124.785 160.128 124.642C160.182 124.46 160.194 124.285 160.162 124.117C160.134 123.946 160.061 123.796 159.943 123.665C159.826 123.534 159.665 123.438 159.461 123.377C159.216 123.305 158.998 123.292 158.805 123.339C158.616 123.384 158.455 123.479 158.324 123.624C158.192 123.769 158.094 123.951 158.028 124.17L157.328 123.963C157.421 123.653 157.574 123.389 157.788 123.173C158.001 122.956 158.264 122.812 158.577 122.74C158.89 122.666 159.243 122.687 159.634 122.803C159.982 122.906 160.261 123.056 160.471 123.253C160.682 123.447 160.819 123.675 160.884 123.936C160.952 124.195 160.941 124.471 160.853 124.766C160.804 124.927 160.728 125.083 160.622 125.233C160.52 125.381 160.396 125.523 160.251 125.658C160.109 125.794 159.951 125.923 159.777 126.044C159.606 126.166 159.426 126.283 159.239 126.395L157.283 127.556L160.045 128.375Z" fill="white"/>
<path opacity="0.1" d="M164.264 122.105L152.105 125.505C152.345 125.862 152.7 126.146 153.146 126.278L161.034 128.62C162.053 128.922 163.127 128.346 163.431 127.332L164.517 123.714C164.689 123.145 164.573 122.563 164.264 122.105Z" fill="#171C24"/>
<path d="M175.201 132.825L167.313 130.483C166.294 130.181 165.714 129.114 166.018 128.1L167.104 124.482C167.409 123.469 168.481 122.892 169.501 123.195L177.39 125.537C178.409 125.839 178.989 126.906 178.684 127.92L177.598 131.538C177.293 132.551 176.221 133.128 175.201 132.825Z" fill="#1E9A5F"/>
<path d="M172.381 129.291L172.88 129.44C173.125 129.512 173.339 129.532 173.522 129.498C173.708 129.463 173.862 129.387 173.982 129.269C174.106 129.149 174.195 129 174.248 128.821C174.312 128.609 174.33 128.421 174.303 128.256C174.275 128.092 174.202 127.952 174.082 127.837C173.963 127.722 173.795 127.632 173.578 127.568C173.381 127.51 173.196 127.497 173.021 127.53C172.849 127.562 172.7 127.635 172.571 127.751C172.446 127.867 172.354 128.021 172.297 128.213L171.597 128.005C171.681 127.725 171.828 127.492 172.038 127.304C172.248 127.117 172.501 126.993 172.797 126.932C173.095 126.873 173.413 126.893 173.751 126.993C174.084 127.092 174.357 127.238 174.571 127.431C174.786 127.621 174.928 127.852 174.997 128.125C175.067 128.396 175.051 128.702 174.948 129.045C174.906 129.183 174.829 129.322 174.715 129.462C174.605 129.599 174.462 129.716 174.285 129.811C174.11 129.908 173.903 129.968 173.662 129.993C173.422 130.015 173.151 129.981 172.851 129.892L172.254 129.715L172.381 129.291ZM172.208 129.866L172.334 129.446L172.932 129.624C173.283 129.728 173.56 129.856 173.765 130.007C173.969 130.158 174.116 130.323 174.206 130.5C174.298 130.678 174.345 130.859 174.348 131.041C174.355 131.221 174.333 131.393 174.284 131.557C174.207 131.814 174.094 132.029 173.946 132.201C173.801 132.375 173.628 132.508 173.427 132.599C173.229 132.691 173.014 132.741 172.781 132.749C172.548 132.756 172.306 132.723 172.056 132.649C171.817 132.578 171.601 132.477 171.41 132.346C171.221 132.216 171.065 132.062 170.942 131.886C170.82 131.707 170.742 131.51 170.708 131.294C170.675 131.075 170.695 130.844 170.768 130.599L171.468 130.807C171.411 130.999 171.402 131.179 171.442 131.347C171.485 131.516 171.572 131.664 171.704 131.791C171.84 131.916 172.015 132.011 172.229 132.074C172.443 132.138 172.638 132.156 172.814 132.129C172.993 132.1 173.147 132.022 173.276 131.895C173.407 131.77 173.507 131.592 173.576 131.363C173.645 131.134 173.653 130.932 173.601 130.757C173.55 130.58 173.447 130.43 173.291 130.307C173.139 130.182 172.945 130.085 172.708 130.014L172.208 129.866Z" fill="white"/>
<path opacity="0.1" d="M178.43 126.31L166.271 129.71C166.512 130.067 166.866 130.351 167.312 130.483L175.201 132.825C176.22 133.128 177.293 132.551 177.598 131.538L178.684 127.92C178.855 127.35 178.739 126.768 178.43 126.31Z" fill="#171C24"/>
<path d="M144.084 133.686L136.196 131.344C135.177 131.042 134.597 129.975 134.901 128.961L135.988 125.343C136.292 124.33 137.365 123.753 138.385 124.056L146.273 126.398C147.292 126.7 147.872 127.767 147.568 128.781L146.482 132.399C146.177 133.412 145.104 133.989 144.084 133.686Z" fill="#1E9A5F"/>
<path d="M143.605 132.155L143.432 132.729L139.453 131.548L139.576 131.136L143.188 128.054L143.759 128.224L142.815 129.145L140.42 131.209L143.605 132.155ZM143.933 128.275L142.281 133.779L141.581 133.571L143.234 128.068L143.933 128.275Z" fill="white"/>
<path opacity="0.1" d="M146.481 132.399L147.568 128.781C147.739 128.211 147.623 127.629 147.314 127.17L135.155 130.571C135.396 130.928 135.75 131.211 136.196 131.343L144.085 133.685C145.104 133.989 146.177 133.413 146.481 132.399Z" fill="#171C24"/>
<path d="M158.251 137.891L150.362 135.55C149.343 135.247 148.764 134.18 149.068 133.166L150.154 129.548C150.459 128.535 151.531 127.959 152.551 128.261L160.44 130.603C161.459 130.906 162.039 131.972 161.734 132.986L160.648 136.604C160.343 137.618 159.27 138.194 158.251 137.891Z" fill="#1E9A5F"/>
<path d="M155.165 134.75L154.648 134.441L155.747 131.782L158.573 132.621L158.379 133.268L156.147 132.605L155.531 134.052C155.649 134.024 155.793 134.008 155.962 134.003C156.134 133.999 156.32 134.027 156.522 134.087C156.777 134.163 156.992 134.275 157.167 134.423C157.343 134.568 157.478 134.743 157.57 134.946C157.666 135.15 157.717 135.376 157.725 135.626C157.732 135.875 157.694 136.139 157.61 136.419C157.531 136.684 157.421 136.916 157.281 137.116C157.144 137.317 156.979 137.479 156.785 137.603C156.592 137.724 156.372 137.797 156.126 137.823C155.881 137.849 155.612 137.818 155.317 137.731C155.095 137.665 154.893 137.572 154.712 137.452C154.534 137.331 154.386 137.184 154.268 137.012C154.152 136.838 154.074 136.641 154.032 136.423C153.994 136.203 154.001 135.961 154.053 135.696L154.719 135.894C154.687 136.11 154.695 136.302 154.744 136.47C154.792 136.638 154.878 136.78 155.003 136.896C155.13 137.011 155.292 137.098 155.489 137.156C155.656 137.206 155.812 137.22 155.958 137.201C156.104 137.181 156.237 137.13 156.358 137.048C156.479 136.966 156.585 136.854 156.677 136.714C156.771 136.575 156.847 136.409 156.904 136.218C156.956 136.044 156.981 135.876 156.978 135.713C156.974 135.55 156.941 135.399 156.879 135.259C156.819 135.121 156.73 135.001 156.612 134.9C156.494 134.797 156.347 134.719 156.171 134.666C155.936 134.597 155.749 134.575 155.609 134.602C155.472 134.63 155.324 134.68 155.165 134.75Z" fill="white"/>
<path opacity="0.1" d="M161.48 131.376L149.321 134.777C149.562 135.134 149.916 135.417 150.362 135.55L158.251 137.891C159.27 138.194 160.343 137.618 160.647 136.604L161.734 132.986C161.905 132.416 161.789 131.834 161.48 131.376Z" fill="#171C24"/>
<path d="M172.417 142.096L164.529 139.755C163.509 139.452 162.93 138.385 163.234 137.371L164.321 133.753C164.625 132.74 165.698 132.164 166.717 132.466L174.606 134.808C175.625 135.111 176.205 136.178 175.901 137.191L174.814 140.809C174.51 141.823 173.437 142.399 172.417 142.096Z" fill="#1E9A5F"/>
<path d="M172 136.599L172.06 136.617L171.882 137.21L171.821 137.192C171.451 137.082 171.122 137.05 170.836 137.097C170.551 137.141 170.305 137.243 170.098 137.401C169.892 137.556 169.719 137.749 169.578 137.979C169.44 138.21 169.333 138.454 169.256 138.711L169.013 139.52C168.939 139.764 168.903 139.99 168.905 140.196C168.907 140.399 168.939 140.58 169.001 140.739C169.063 140.897 169.148 141.028 169.254 141.131C169.363 141.235 169.487 141.307 169.626 141.348C169.787 141.396 169.94 141.409 170.084 141.386C170.229 141.36 170.361 141.305 170.48 141.219C170.603 141.132 170.709 141.018 170.801 140.878C170.893 140.738 170.966 140.576 171.021 140.392C171.07 140.228 171.098 140.065 171.103 139.901C171.108 139.736 171.087 139.581 171.04 139.438C170.993 139.293 170.917 139.167 170.811 139.061C170.708 138.954 170.572 138.875 170.4 138.824C170.206 138.767 170.01 138.761 169.812 138.806C169.618 138.85 169.443 138.933 169.289 139.054C169.137 139.174 169.027 139.321 168.958 139.495L168.589 139.382C168.709 139.11 168.847 138.889 169.002 138.718C169.161 138.546 169.331 138.418 169.513 138.334C169.698 138.249 169.888 138.204 170.085 138.2C170.285 138.193 170.485 138.22 170.687 138.28C170.962 138.361 171.184 138.483 171.352 138.646C171.52 138.808 171.642 138.996 171.719 139.208C171.796 139.417 171.832 139.639 171.828 139.874C171.827 140.107 171.792 140.337 171.724 140.563C171.646 140.823 171.536 141.055 171.395 141.26C171.254 141.465 171.084 141.632 170.887 141.76C170.691 141.888 170.473 141.969 170.233 142.002C169.992 142.035 169.732 142.01 169.452 141.927C169.154 141.838 168.913 141.701 168.727 141.514C168.542 141.325 168.407 141.106 168.322 140.859C168.237 140.611 168.196 140.352 168.197 140.08C168.199 139.809 168.239 139.545 168.316 139.288L168.415 138.959C168.531 138.571 168.684 138.202 168.875 137.853C169.065 137.503 169.301 137.205 169.584 136.96C169.869 136.715 170.209 136.554 170.606 136.477C171.003 136.4 171.467 136.441 172 136.599Z" fill="white"/>
<path opacity="0.1" d="M175.647 135.581L163.488 138.982C163.728 139.339 164.083 139.622 164.529 139.755L172.417 142.096C173.436 142.399 174.51 141.823 174.814 140.809L175.901 137.191C176.071 136.621 175.956 136.039 175.647 135.581Z" fill="#171C24"/>
<path d="M141.301 142.957L133.412 140.615C132.393 140.313 131.813 139.246 132.118 138.232L133.204 134.615C133.508 133.601 134.581 133.025 135.601 133.327L143.49 135.669C144.509 135.971 145.088 137.039 144.784 138.052L143.698 141.67C143.393 142.684 142.32 143.26 141.301 142.957Z" fill="#1E9A5F"/>
<path d="M141.73 137.808L141.612 138.201L137.796 142.634L137.058 142.415L140.816 138.162L137.834 137.277L138.007 136.703L141.73 137.808Z" fill="white"/>
<path opacity="0.1" d="M133.412 140.616L141.3 142.958C142.32 143.26 143.393 142.684 143.697 141.671L144.784 138.053C144.955 137.483 144.839 136.901 144.53 136.442L132.371 139.843C132.611 140.2 132.966 140.484 133.412 140.616Z" fill="#171C24"/>
<path d="M155.467 147.163L147.578 144.821C146.559 144.518 145.98 143.452 146.284 142.438L147.37 138.82C147.675 137.806 148.748 137.23 149.767 137.532L157.656 139.874C158.675 140.177 159.255 141.244 158.95 142.257L157.864 145.875C157.56 146.889 156.487 147.465 155.467 147.163Z" fill="#1E9A5F"/>
<path d="M154.605 146.002C154.504 146.337 154.34 146.599 154.114 146.786C153.89 146.973 153.628 147.087 153.327 147.129C153.028 147.172 152.714 147.145 152.383 147.047C152.053 146.949 151.773 146.8 151.545 146.6C151.316 146.401 151.16 146.162 151.076 145.885C150.992 145.605 151.001 145.297 151.101 144.962C151.167 144.743 151.269 144.555 151.407 144.398C151.548 144.239 151.716 144.115 151.91 144.025C152.108 143.935 152.323 143.885 152.557 143.875C152.794 143.863 153.041 143.895 153.298 143.972C153.636 144.072 153.918 144.227 154.144 144.437C154.37 144.644 154.525 144.883 154.608 145.155C154.694 145.427 154.693 145.71 154.605 146.002ZM153.906 145.778C153.967 145.574 153.977 145.381 153.935 145.198C153.895 145.013 153.808 144.853 153.676 144.718C153.544 144.582 153.373 144.483 153.163 144.421C152.949 144.358 152.75 144.347 152.567 144.388C152.387 144.431 152.23 144.519 152.097 144.652C151.964 144.783 151.867 144.95 151.806 145.155C151.742 145.366 151.729 145.56 151.767 145.736C151.808 145.91 151.895 146.061 152.027 146.188C152.163 146.313 152.339 146.408 152.556 146.472C152.773 146.537 152.971 146.553 153.151 146.521C153.331 146.487 153.486 146.408 153.614 146.284C153.745 146.158 153.842 145.99 153.906 145.778ZM155.251 143.382C155.171 143.649 155.028 143.869 154.823 144.041C154.617 144.213 154.373 144.325 154.092 144.376C153.81 144.427 153.514 144.406 153.204 144.314C152.889 144.22 152.626 144.075 152.416 143.878C152.208 143.682 152.067 143.456 151.993 143.201C151.918 142.946 151.921 142.684 152.002 142.417C152.098 142.097 152.249 141.846 152.455 141.663C152.663 141.48 152.908 141.366 153.188 141.321C153.468 141.275 153.765 141.298 154.077 141.391C154.393 141.485 154.655 141.627 154.864 141.818C155.073 142.009 155.213 142.237 155.285 142.503C155.359 142.769 155.347 143.062 155.251 143.382ZM154.548 143.186C154.603 143.002 154.613 142.828 154.577 142.663C154.541 142.499 154.466 142.356 154.352 142.234C154.238 142.11 154.089 142.02 153.905 141.966C153.721 141.911 153.548 141.902 153.385 141.939C153.227 141.974 153.087 142.051 152.966 142.169C152.848 142.287 152.76 142.444 152.702 142.638C152.645 142.827 152.633 143.003 152.667 143.166C152.702 143.331 152.778 143.473 152.893 143.592C153.008 143.711 153.158 143.798 153.342 143.853C153.526 143.907 153.698 143.916 153.858 143.878C154.02 143.841 154.161 143.764 154.282 143.646C154.403 143.528 154.491 143.375 154.548 143.186Z" fill="white"/>
<path opacity="0.1" d="M158.697 140.648L146.537 144.048C146.778 144.405 147.132 144.689 147.578 144.821L155.467 147.163C156.486 147.465 157.559 146.889 157.864 145.876L158.95 142.258C159.121 141.688 159.005 141.106 158.697 140.648Z" fill="#171C24"/>
<path d="M169.634 151.368L161.745 149.026C160.726 148.723 160.146 147.657 160.45 146.643L161.536 143.025C161.841 142.011 162.914 141.435 163.933 141.738L171.822 144.079C172.841 144.382 173.421 145.449 173.116 146.463L172.03 150.081C171.726 151.094 170.653 151.671 169.634 151.368Z" fill="#1E9A5F"/>
<path d="M165.722 150.286L165.794 150.307C166.198 150.427 166.543 150.468 166.829 150.429C167.115 150.391 167.355 150.296 167.549 150.145C167.743 149.994 167.901 149.806 168.023 149.582C168.146 149.355 168.246 149.114 168.322 148.859L168.575 148.017C168.65 147.767 168.688 147.537 168.688 147.326C168.691 147.115 168.661 146.929 168.6 146.768C168.541 146.608 168.459 146.475 168.353 146.37C168.247 146.264 168.124 146.191 167.983 146.149C167.821 146.101 167.666 146.09 167.518 146.118C167.373 146.143 167.239 146.201 167.116 146.291C166.995 146.381 166.889 146.498 166.796 146.64C166.704 146.783 166.63 146.947 166.575 147.13C166.526 147.294 166.498 147.459 166.493 147.625C166.487 147.79 166.507 147.947 166.553 148.096C166.599 148.244 166.673 148.373 166.775 148.482C166.88 148.59 167.017 148.67 167.186 148.72C167.342 148.766 167.497 148.779 167.652 148.759C167.809 148.737 167.957 148.689 168.095 148.615C168.236 148.539 168.358 148.442 168.462 148.325C168.569 148.208 168.649 148.077 168.704 147.931L169.037 148.03C168.974 148.239 168.87 148.434 168.726 148.613C168.585 148.791 168.416 148.941 168.22 149.064C168.023 149.187 167.812 149.269 167.585 149.312C167.359 149.351 167.129 149.337 166.897 149.268C166.625 149.187 166.405 149.064 166.238 148.899C166.07 148.734 165.949 148.545 165.873 148.33C165.8 148.116 165.764 147.891 165.766 147.656C165.772 147.419 165.808 147.188 165.875 146.964C165.954 146.702 166.064 146.467 166.206 146.259C166.348 146.052 166.517 145.882 166.713 145.751C166.91 145.618 167.129 145.533 167.37 145.498C167.614 145.463 167.876 145.487 168.156 145.57C168.471 145.664 168.721 145.807 168.905 145.999C169.089 146.19 169.219 146.413 169.294 146.666C169.372 146.919 169.404 147.188 169.39 147.472C169.376 147.756 169.327 148.038 169.243 148.318L169.167 148.571C169.082 148.856 168.976 149.14 168.849 149.423C168.726 149.705 168.573 149.964 168.389 150.201C168.208 150.438 167.989 150.634 167.731 150.788C167.474 150.939 167.17 151.03 166.821 151.061C166.474 151.09 166.073 151.036 165.616 150.901L165.544 150.879L165.722 150.286Z" fill="white"/>
<path opacity="0.1" d="M172.863 144.853L160.704 148.253C160.944 148.61 161.299 148.894 161.745 149.026L169.633 151.368C170.652 151.67 171.726 151.094 172.03 150.081L173.116 146.463C173.288 145.893 173.172 145.311 172.863 144.853Z" fill="#171C24"/>
<path d="M138.517 152.229L130.628 149.887C129.609 149.585 129.029 148.518 129.333 147.504L130.419 143.886C130.724 142.873 131.797 142.296 132.816 142.599L140.705 144.941C141.724 145.243 142.304 146.31 141.999 147.324L140.913 150.942C140.609 151.955 139.536 152.532 138.517 152.229Z" fill="#1E9A5F"/>
<path d="M138.307 149.361L138.055 150.2C137.919 150.651 137.765 151.02 137.591 151.306C137.417 151.592 137.226 151.807 137.018 151.951C136.81 152.095 136.586 152.178 136.346 152.2C136.109 152.22 135.857 152.191 135.59 152.111C135.378 152.048 135.19 151.964 135.027 151.858C134.864 151.752 134.728 151.619 134.619 151.461C134.513 151.301 134.438 151.111 134.394 150.892C134.35 150.673 134.342 150.421 134.37 150.136C134.398 149.85 134.466 149.527 134.574 149.167L134.826 148.328C134.962 147.877 135.116 147.511 135.288 147.23C135.463 146.95 135.653 146.74 135.86 146.601C136.067 146.46 136.289 146.38 136.525 146.362C136.764 146.345 137.015 146.376 137.28 146.455C137.495 146.518 137.683 146.603 137.847 146.709C138.013 146.814 138.15 146.943 138.257 147.099C138.365 147.252 138.44 147.436 138.482 147.651C138.528 147.865 138.537 148.114 138.51 148.397C138.483 148.679 138.415 149.001 138.307 149.361ZM137.317 150.105L137.638 149.035C137.713 148.788 137.763 148.567 137.788 148.372C137.817 148.174 137.824 148.001 137.809 147.851C137.793 147.701 137.755 147.571 137.694 147.463C137.636 147.355 137.557 147.266 137.458 147.195C137.361 147.122 137.245 147.066 137.109 147.025C136.942 146.976 136.785 146.964 136.638 146.989C136.491 147.011 136.353 147.076 136.225 147.183C136.099 147.291 135.981 147.447 135.871 147.65C135.76 147.853 135.658 148.11 135.565 148.42L135.244 149.489C135.17 149.736 135.118 149.958 135.089 150.156C135.063 150.354 135.058 150.53 135.074 150.686C135.091 150.84 135.128 150.973 135.185 151.086C135.242 151.198 135.318 151.292 135.413 151.367C135.512 151.441 135.629 151.497 135.762 151.537C135.934 151.588 136.094 151.6 136.242 151.572C136.39 151.545 136.528 151.475 136.656 151.362C136.786 151.247 136.906 151.086 137.015 150.879C137.124 150.67 137.225 150.412 137.317 150.105Z" fill="white"/>
<path opacity="0.1" d="M140.913 150.942L142 147.324C142.171 146.754 142.055 146.172 141.746 145.714L129.587 149.115C129.828 149.471 130.182 149.755 130.628 149.887L138.517 152.229C139.536 152.532 140.609 151.955 140.913 150.942Z" fill="#171C24"/>
<path d="M152.683 156.434L144.795 154.093C143.776 153.79 143.196 152.723 143.5 151.71L144.587 148.092C144.891 147.078 145.964 146.502 146.983 146.804L154.872 149.146C155.891 149.449 156.471 150.516 156.167 151.529L155.081 155.147C154.776 156.16 153.703 156.737 152.683 156.434Z" fill="#1E9A5F"/>
<path d="M149.591 155.28L149.422 155.843C149.353 156.072 149.222 156.297 149.03 156.517C148.837 156.739 148.61 156.905 148.349 157.014L148.035 156.621C148.149 156.534 148.251 156.441 148.341 156.341C148.431 156.244 148.508 156.138 148.573 156.023C148.639 155.911 148.693 155.787 148.734 155.651L148.906 155.076L149.591 155.28Z" fill="white"/>
<path opacity="0.1" d="M155.912 149.919L143.753 153.32C143.994 153.677 144.348 153.96 144.794 154.092L152.683 156.434C153.702 156.736 154.775 156.16 155.08 155.147L156.166 151.529C156.337 150.959 156.221 150.377 155.912 149.919Z" fill="#171C24"/>
<path d="M166.85 160.64L158.961 158.298C157.942 157.995 157.362 156.929 157.667 155.915L158.753 152.297C159.057 151.283 160.13 150.707 161.149 151.009L169.038 153.351C170.057 153.654 170.637 154.721 170.333 155.735L169.246 159.352C168.942 160.366 167.869 160.942 166.85 160.64Z" fill="#1E9A5F"/>
<path d="M162.863 159.722C162.899 159.603 162.965 159.515 163.062 159.456C163.163 159.395 163.284 159.386 163.425 159.427C163.566 159.469 163.661 159.543 163.709 159.648C163.761 159.751 163.769 159.862 163.733 159.98C163.698 160.096 163.631 160.183 163.531 160.241C163.434 160.3 163.314 160.309 163.173 160.267C163.032 160.225 162.936 160.152 162.884 160.049C162.835 159.947 162.828 159.838 162.863 159.722Z" fill="white"/>
<path opacity="0.1" d="M170.079 154.124L157.92 157.525C158.16 157.882 158.515 158.165 158.961 158.297L166.849 160.639C167.868 160.942 168.942 160.365 169.246 159.352L170.333 155.734C170.504 155.165 170.388 154.583 170.079 154.124Z" fill="#171C24"/>
<path d="M189.367 137.031L181.479 134.689C180.46 134.386 179.88 133.319 180.184 132.306L181.271 128.687C181.575 127.674 182.648 127.098 183.668 127.4L191.556 129.742C192.575 130.045 193.155 131.111 192.851 132.125L191.765 135.743C191.46 136.757 190.387 137.333 189.367 137.031Z" fill="#89C464"/>
<path opacity="0.1" d="M192.597 130.515L180.438 133.915C180.678 134.272 181.033 134.556 181.479 134.688L189.368 137.03C190.387 137.333 191.46 136.756 191.764 135.743L192.85 132.125C193.021 131.555 192.906 130.974 192.597 130.515Z" fill="#171C24"/>
<path d="M186.584 146.302L178.695 143.96C177.676 143.657 177.096 142.591 177.401 141.577L178.487 137.959C178.791 136.945 179.865 136.369 180.884 136.672L188.772 139.013C189.792 139.316 190.371 140.383 190.067 141.396L188.981 145.014C188.676 146.028 187.603 146.604 186.584 146.302Z" fill="#FF4446"/>
<path opacity="0.1" d="M189.813 139.786L177.654 143.187C177.894 143.544 178.249 143.827 178.695 143.96L186.583 146.301C187.603 146.604 188.676 146.028 188.98 145.014L190.067 141.396C190.238 140.827 190.122 140.245 189.813 139.786Z" fill="#171C24"/>
<path d="M181.016 164.845L173.128 162.503C172.108 162.2 171.529 161.134 171.833 160.12L175.703 147.23C176.007 146.217 177.08 145.641 178.1 145.943L185.988 148.285C187.008 148.588 187.587 149.654 187.283 150.668L183.413 163.558C183.109 164.571 182.036 165.147 181.016 164.845Z" fill="#FAA102"/>
<path opacity="0.1" d="M171.927 161.444C172.148 161.936 172.567 162.337 173.127 162.503L181.016 164.845C182.035 165.147 183.109 164.571 183.413 163.558L187.283 150.668C187.42 150.212 187.37 149.748 187.189 149.344L171.927 161.444Z" fill="#171C24"/>
<path d="M194.958 113.635L147.203 99.4592C145.464 98.9432 143.616 99.9354 143.097 101.665L141.508 106.957C140.988 108.686 141.987 110.523 143.726 111.04L191.481 125.215C193.22 125.732 195.068 124.739 195.588 123.009L197.177 117.718C197.696 115.988 196.697 114.151 194.958 113.635Z" fill="#A2DB1E"/>
<g opacity="0.2">
<path d="M147.203 99.4592C145.464 98.9432 143.616 99.9354 143.097 101.665L142.564 103.438C144.705 102.288 146.846 101.138 148.986 99.9883L147.203 99.4592Z" fill="white"/>
<path d="M151.49 100.732C148.266 102.464 145.041 104.196 141.817 105.928L141.508 106.957C141.499 106.986 141.495 107.016 141.487 107.046L152.619 101.067L151.49 100.732Z" fill="white"/>
<path d="M157.65 102.56L142.754 110.56C143.042 110.767 143.368 110.933 143.727 111.039L146.655 111.909L161.778 103.786L157.65 102.56Z" fill="white"/>
<path d="M168.546 105.795L153.422 113.918L158.15 115.321C163.156 112.592 168.17 109.875 173.192 107.174L168.546 105.795Z" fill="white"/>
<path d="M179.126 108.935L164.003 117.059L166.552 117.815C171.593 115.107 176.634 112.4 181.676 109.692L179.126 108.935Z" fill="white"/>
<path d="M196.191 114.319C191.286 116.956 186.382 119.595 181.486 122.248L182.502 122.55C187.239 120.005 191.977 117.461 196.714 114.916C196.563 114.7 196.391 114.496 196.191 114.319Z" fill="white"/>
<path d="M189.537 124.638L191.481 125.215C193.22 125.731 195.068 124.739 195.587 123.009L196.171 121.065C193.958 122.252 191.746 123.442 189.537 124.638Z" fill="white"/>
<path d="M188.444 111.701L173.32 119.824L178.994 121.509C184.012 118.783 189.04 116.075 194.07 113.372L188.444 111.701Z" fill="white"/>
</g>
<path d="M165.09 94.8452L146.772 89.4069L145.106 94.9556L163.424 100.394L165.09 94.8452Z" fill="#1E9A5F"/>
<path d="M175.107 97.8173L167.791 95.6454L166.125 101.194L173.44 103.366L175.107 97.8173Z" fill="#B7E8D0"/>
<path d="M184.891 100.723L177.575 98.5513L175.909 104.1L183.225 106.272L184.891 100.723Z" fill="#1E9A5F"/>
<path d="M200.851 105.462L193.535 103.29L191.869 108.839L199.185 111.01L200.851 105.462Z" fill="#1E9A5F"/>
<path d="M190.988 102.531L187.104 101.378L185.438 106.927L189.321 108.08L190.988 102.531Z" fill="#B7E8D0"/>
<path d="M121.962 136.169C123.357 134.783 123.357 132.514 121.962 131.128L114.18 123.391C112.786 122.004 110.505 122.004 109.11 123.391C107.716 124.777 107.716 127.045 109.11 128.432L116.892 136.169C118.286 137.556 120.568 137.556 121.962 136.169Z" fill="#245159"/>
<path d="M108.801 130.501L116.263 123.081L106.884 113.755L99.4214 121.175L108.801 130.501Z" fill="#306C78"/>
<path d="M65.3443 121.302C76.8498 132.742 95.5043 132.742 107.01 121.302C118.515 109.862 118.515 91.3133 107.01 79.8732C95.5043 68.4331 76.8498 68.4331 65.3443 79.8732C53.8387 91.3138 53.8387 109.862 65.3443 121.302ZM69.6974 116.973C60.5962 107.924 60.5962 93.2514 69.6974 84.2015C78.7991 75.1516 93.555 75.1516 102.657 84.2015C111.758 93.2514 111.758 107.924 102.657 116.973C93.5555 126.023 78.7991 126.023 69.6974 116.973Z" fill="#A2DB1E"/>
<path d="M104.365 82.5035C94.3201 72.5158 78.0346 72.5158 67.9897 82.5035C57.9448 92.4913 57.9448 108.684 67.9897 118.672C78.0346 128.66 94.3201 128.66 104.365 118.672C114.409 108.684 114.409 92.4913 104.365 82.5035ZM102.657 116.973C93.5551 126.023 78.7991 126.023 69.6975 116.973C60.5963 107.923 60.5963 93.2514 69.6975 84.2015C78.7991 75.1516 93.5551 75.1516 102.657 84.2015C111.758 93.2514 111.758 107.924 102.657 116.973Z" fill="#0A4C2D"/>
<g opacity="0.4">
<path d="M82.9167 77.6497C76.3116 84.2333 69.7029 90.8125 63.1003 97.3986C64.5185 87.1738 72.641 79.0819 82.9167 77.6497Z" fill="white"/>
<path d="M62.8782 100.715C70.6665 92.9469 78.4609 85.1847 86.2528 77.42C87.4477 77.4236 88.6218 77.5172 89.768 77.6934L63.1536 104.156C62.9794 103.034 62.8842 101.885 62.8782 100.715Z" fill="white"/>
<path d="M64.6445 109.445L95.084 79.178C96.4535 79.7413 97.7557 80.4325 98.979 81.2334C88.2227 91.9285 77.467 102.623 66.7107 113.318C65.9062 112.101 65.2111 110.807 64.6445 109.445Z" fill="white"/>
<path d="M76.9714 121.874L107.586 91.4341C107.89 92.1353 108.161 92.8542 108.396 93.5892C98.6439 103.287 88.8911 112.983 79.1389 122.68C78.3997 122.446 77.6767 122.177 76.9714 121.874Z" fill="white"/>
<path d="M83.4722 123.6L109.32 97.899C109.393 98.5157 109.435 99.1415 109.46 99.7718C101.425 107.761 93.39 115.75 85.3556 123.739C84.7217 123.714 84.0924 123.672 83.4722 123.6Z" fill="white"/>
<path d="M94.5161 122.232L107.945 108.88C105.583 115.009 100.68 119.884 94.5161 122.232Z" fill="white"/>
<path d="M73.6628 120.129C72.6163 119.464 71.6235 118.722 70.6995 117.904C81.6638 107.003 92.6276 96.1008 103.591 85.1993C104.419 86.1231 105.169 87.1159 105.84 88.163C95.0882 98.7916 84.3649 109.45 73.6628 120.129Z" fill="white"/>
</g>
<path d="M161.71 175.691C164.243 173.172 164.243 169.049 161.71 166.53L126.795 131.814C124.262 129.295 120.115 129.295 117.582 131.814C115.048 134.333 115.048 138.456 117.582 140.975L152.496 175.691C155.03 178.21 159.176 178.21 161.71 175.691Z" fill="#252D38"/>
<path d="M115.768 135.38L150.672 170.085C153.205 172.604 157.351 172.604 159.885 170.085C160.893 169.083 161.493 167.826 161.699 166.519L161.71 166.53C164.243 169.049 164.243 173.171 161.71 175.691C159.176 178.21 155.03 178.21 152.496 175.691L117.582 140.975C116.056 139.457 115.456 137.36 115.768 135.38Z" fill="#171C24"/>
</g>
<defs>
<filter id="filter0_d_147_2743" x="0.5" y="0.149292" width="213" height="193.431" filterUnits="userSpaceOnUse" color-interpolation-filters="sRGB">
<feFlood flood-opacity="0" result="BackgroundImageFix"/>
<feColorMatrix in="SourceAlpha" type="matrix" values="0 0 0 0 0 0 0 0 0 0 0 0 0 0 0 0 0 0 127 0" result="hardAlpha"/>
<feOffset dy="8"/>
<feGaussianBlur stdDeviation="4"/>
<feComposite in2="hardAlpha" operator="out"/>
<feColorMatrix type="matrix" values="0 0 0 0 0 0 0 0 0 0 0 0 0 0 0 0 0 0 0.16 0"/>
<feBlend mode="normal" in2="BackgroundImageFix" result="effect1_dropShadow_147_2743"/>
<feBlend mode="normal" in="SourceGraphic" in2="effect1_dropShadow_147_2743" result="shape"/>
</filter>
</defs>
</svg>
