<svg width="253" height="171" viewBox="0 0 253 171" fill="none" xmlns="http://www.w3.org/2000/svg">
<g clip-path="url(#clip0_156_5269)">
<rect x="0.907288" y="75.5363" width="231.312" height="100.646" rx="18.991" transform="rotate(-19.0598 0.907288 75.5363)" fill="url(#paint0_linear_156_5269)" fill-opacity="0.1"/>
<path d="M38.0203 100.665L34.4074 90.2077L36.4092 89.5161L44.8898 95.3317L44.4715 95.4762C44.325 95.1812 44.187 94.8945 44.0573 94.616C43.9242 94.3276 43.7911 94.0391 43.658 93.7506C43.5314 93.4488 43.4031 93.142 43.2731 92.8301C43.1496 92.5049 43.0209 92.1648 42.8871 91.8097C42.7498 91.4446 42.6072 91.048 42.4592 90.6197L41.4734 87.7664L43.6694 87.0077L47.2823 97.4649L45.2506 98.1668L36.6246 92.3178L37.1975 92.1367C37.4262 92.6373 37.6192 93.0668 37.7763 93.4249C37.9401 93.7697 38.0783 94.0731 38.1911 94.3351C38.304 94.5971 38.3998 94.826 38.4785 95.0217C38.5673 95.214 38.6426 95.3998 38.7045 95.5791C38.7764 95.7549 38.8468 95.9424 38.9156 96.1416L40.2163 99.9062L38.0203 100.665ZM53.5 95.4839C52.6435 95.7798 51.8364 95.8636 51.0786 95.7352C50.3207 95.6069 49.6576 95.3009 49.0892 94.8173C48.5208 94.3336 48.1007 93.6984 47.8288 92.9116C47.6189 92.3041 47.5258 91.712 47.5495 91.1353C47.5732 90.5585 47.7007 90.024 47.9319 89.5316C48.1597 89.0293 48.4832 88.5942 48.9024 88.2264C49.3281 87.8453 49.8297 87.5549 50.4074 87.3553C50.9452 87.1695 51.4775 87.0971 52.0045 87.138C52.528 87.1689 53.016 87.3069 53.4685 87.5519C53.9275 87.7834 54.3293 88.1073 54.6737 88.5234C55.0181 88.9395 55.2785 89.4348 55.4547 90.0094L55.6668 90.6718L49.3178 92.8654L48.5252 91.6844L53.47 89.976L53.3238 90.3275L53.2103 89.9989C53.0975 89.7369 52.9235 89.5238 52.6885 89.3598C52.4634 89.1923 52.2107 89.0901 51.9304 89.0531C51.6501 89.0162 51.3605 89.0494 51.0618 89.1526C50.6236 89.304 50.2793 89.5177 50.0291 89.7936C49.7888 90.0662 49.6458 90.3943 49.6 90.778C49.5542 91.1617 49.6121 91.5876 49.7739 92.0557C49.939 92.5337 50.1814 92.9126 50.501 93.1924C50.8306 93.4687 51.214 93.6428 51.6513 93.7147C52.0952 93.7731 52.571 93.7146 53.079 93.5391C53.4275 93.4187 53.7273 93.2538 53.9783 93.0445C54.2292 92.8352 54.4726 92.5393 54.7083 92.1568L56.2145 93.225C56.0151 93.5838 55.7722 93.913 55.4855 94.2127C55.1954 94.5024 54.8816 94.7557 54.5441 94.9727C54.2066 95.1896 53.8586 95.36 53.5 95.4839ZM59.2139 93.3426L55.7919 83.4382L57.9132 82.7053L61.3352 92.6097L59.2139 93.3426ZM55.6601 87.8482L55.0046 85.9509L60.2182 84.1496L60.8737 86.0469L55.6601 87.8482ZM68.9419 89.9816L68.2761 88.0545L70.024 87.4506L67.7427 80.8476L65.9948 81.4515L65.329 79.5244L71.0655 77.5425L71.7313 79.4696L69.9835 80.0735L72.2648 86.6764L74.0126 86.0725L74.6784 87.9996L68.9419 89.9816ZM76.8337 87.255L74.1034 79.3524L76.1351 78.6504L76.7522 80.2432L76.3959 80.567C76.3816 80.1706 76.4639 79.7798 76.643 79.3947C76.8286 78.9961 77.0896 78.6384 77.4261 78.3215C77.7625 78.0046 78.1498 77.7704 78.588 77.619C79.1856 77.4126 79.7248 77.36 80.2058 77.4614C80.6967 77.5594 81.126 77.8179 81.4938 78.2371C81.8681 78.6429 82.1774 79.1993 82.4217 79.9064L84.094 84.7466L81.9727 85.4795L80.3572 80.8037C80.2333 80.4451 80.0803 80.1636 79.8981 79.959C79.7159 79.7543 79.5014 79.6334 79.2544 79.5961C79.0139 79.5454 78.7477 79.5816 78.4558 79.7048C78.2168 79.7874 78.0065 79.9046 77.8249 80.0565C77.6498 80.1951 77.5116 80.3599 77.4104 80.5509C77.3191 80.7385 77.2596 80.9374 77.2319 81.1477C77.2142 81.3544 77.2415 81.5624 77.3137 81.7716L78.955 86.5221L77.9093 86.8834C77.6802 86.9625 77.4761 87.0331 77.2968 87.095C77.1175 87.1569 76.9632 87.2103 76.8337 87.255ZM89.6142 83.0066C88.8573 83.2681 88.1182 83.3228 87.3968 83.1707C86.6753 83.0187 86.0337 82.6941 85.4718 82.1971C84.9198 81.6966 84.5079 81.053 84.2361 80.2662C83.9677 79.4894 83.8962 78.7337 84.0214 77.9993C84.1532 77.2514 84.456 76.595 84.9297 76.03C85.4033 75.465 86.0186 75.0518 86.7755 74.7903C87.4826 74.546 88.1747 74.4518 88.8518 74.5077C89.5288 74.5636 90.1108 74.7639 90.5977 75.1085L89.9177 76.9153C89.7129 76.7742 89.4801 76.6651 89.2193 76.588C88.9551 76.5009 88.6831 76.4556 88.4031 76.452C88.1331 76.4449 87.8687 76.4861 87.6097 76.5756C87.2014 76.7167 86.8723 76.9418 86.6224 77.2511C86.3791 77.547 86.2262 77.8952 86.164 78.2958C86.1017 78.6963 86.1463 79.1157 86.2977 79.5539C86.4456 79.9822 86.6677 80.3346 86.964 80.6113C87.2667 80.8746 87.6136 81.0557 88.0046 81.1548C88.3921 81.2438 88.785 81.2196 89.1834 81.0819C89.4423 80.9925 89.6743 80.8733 89.8792 80.7245C90.0808 80.5656 90.2553 80.3771 90.4029 80.1589C90.5604 79.9373 90.6877 79.6926 90.7848 79.425L92.4202 80.4318C92.2296 80.9771 91.8819 81.4874 91.3773 81.9627C90.8692 82.4281 90.2815 82.7761 89.6142 83.0066ZM97.95 80.1266C97.1433 80.4053 96.361 80.4805 95.6032 80.3522C94.8519 80.2104 94.1853 79.8945 93.6035 79.4043C93.0316 78.9107 92.6081 78.2655 92.3328 77.4688C92.0575 76.6721 91.9942 75.908 92.1429 75.1766C92.298 74.4318 92.6274 73.7718 93.1309 73.1965C93.6445 72.6177 94.3046 72.189 95.1113 71.9103C95.908 71.635 96.682 71.5683 97.4333 71.71C98.1946 71.8483 98.8611 72.1643 99.433 72.6579C100.001 73.1415 100.423 73.7817 100.699 74.5785C100.974 75.3752 101.039 76.1442 100.894 76.8856C100.748 77.6269 100.419 78.287 99.9056 78.8657C99.3986 79.4311 98.7467 79.8514 97.95 80.1266ZM97.31 78.2742C97.6984 78.14 98.0143 77.925 98.2576 77.6291C98.4975 77.3232 98.6437 76.9718 98.696 76.5747C98.7548 76.1642 98.7102 75.7448 98.5623 75.3165C98.4109 74.8783 98.1871 74.5209 97.8908 74.2442C97.6011 73.9541 97.2692 73.7678 96.895 73.6853C96.5175 73.5927 96.1345 73.6136 95.7461 73.7478C95.3477 73.8854 95.0286 74.1071 94.7887 74.413C94.5488 74.7188 94.3977 75.072 94.3354 75.4726C94.2731 75.8731 94.3226 76.2908 94.484 76.7256C94.622 77.1573 94.8408 77.5164 95.1405 77.8031C95.4368 78.0797 95.7737 78.2643 96.1513 78.3568C96.5254 78.4394 96.9116 78.4119 97.31 78.2742ZM103.647 77.991L100.917 70.0884L102.964 69.3813L103.53 70.8746L103.237 71.0428C103.257 70.746 103.32 70.462 103.427 70.191C103.534 69.9199 103.682 69.6683 103.869 69.4364C104.066 69.201 104.286 68.997 104.527 68.8244C104.765 68.6419 105.018 68.5041 105.287 68.4112C105.696 68.2702 106.086 68.2076 106.46 68.2235C106.833 68.2394 107.183 68.3473 107.508 68.547C107.83 68.7367 108.133 69.0333 108.417 69.4368L108.078 69.5204L108.1 69.2453C108.147 68.9615 108.238 68.6906 108.372 68.4326C108.502 68.1646 108.667 67.9179 108.868 67.6924C109.066 67.457 109.285 67.253 109.526 67.0804C109.768 66.9079 110.018 66.7768 110.277 66.6874C110.894 66.474 111.45 66.4213 111.945 66.5292C112.435 66.6272 112.865 66.8857 113.233 67.3049C113.61 67.7207 113.921 68.2821 114.166 68.9892L115.822 73.7845L113.701 74.5174L112.096 69.8715C111.972 69.5129 111.821 69.2364 111.642 69.0417C111.463 68.8471 111.26 68.7276 111.033 68.6835C110.803 68.6293 110.538 68.6539 110.239 68.7571C110.01 68.8362 109.81 68.9501 109.638 69.0985C109.473 69.2336 109.34 69.3967 109.239 69.5877C109.144 69.7654 109.088 69.9576 109.07 70.1644C109.052 70.3712 109.081 70.5841 109.157 70.8032L110.788 75.5239L108.667 76.2568L107.056 71.5959C106.943 71.2672 106.792 71.0073 106.603 70.8161C106.421 70.6115 106.215 70.4821 105.984 70.428C105.754 70.3738 105.499 70.395 105.22 70.4913C104.991 70.5704 104.791 70.6843 104.619 70.8327C104.454 70.9678 104.326 71.1292 104.234 71.3168C104.14 71.4944 104.078 71.6884 104.051 71.8986C104.033 72.1054 104.06 72.3134 104.133 72.5225L105.769 77.2581L103.647 77.991ZM121.644 71.9405C120.787 72.2365 119.98 72.3202 119.222 72.1919C118.464 72.0635 117.801 71.7575 117.233 71.2739C116.664 70.7902 116.244 70.155 115.973 69.3683C115.763 68.7607 115.67 68.1686 115.693 67.5919C115.717 67.0151 115.844 66.4806 116.076 65.9882C116.303 65.4859 116.627 65.0509 117.046 64.6831C117.472 64.3019 117.973 64.0115 118.551 63.8119C119.089 63.6261 119.621 63.5537 120.148 63.5946C120.672 63.6255 121.16 63.7635 121.612 64.0085C122.071 64.2401 122.473 64.5639 122.817 64.98C123.162 65.3961 123.422 65.8915 123.598 66.466L123.811 67.1285L117.462 69.322L116.669 68.1411L121.614 66.4327L121.468 66.7842L121.354 66.4555C121.241 66.1935 121.067 65.9804 120.832 65.8164C120.607 65.6489 120.354 65.5467 120.074 65.5098C119.794 65.4728 119.504 65.506 119.205 65.6092C118.767 65.7606 118.423 65.9743 118.173 66.2503C117.932 66.5228 117.789 66.8509 117.744 67.2346C117.698 67.6183 117.756 68.0442 117.918 68.5123C118.083 68.9904 118.325 69.3693 118.645 69.649C118.974 69.9253 119.358 70.0994 119.795 70.1713C120.239 70.2298 120.715 70.1713 121.223 69.9958C121.571 69.8753 121.871 69.7105 122.122 69.5011C122.373 69.2918 122.616 68.9959 122.852 68.6134L124.358 69.6817C124.159 70.0404 123.916 70.3696 123.629 70.6693C123.339 70.959 123.025 71.2124 122.688 71.4293C122.35 71.6463 122.002 71.8167 121.644 71.9405Z" fill="#AFAFAF"/>
<path d="M57.6715 137.167C56.1099 137.706 54.6728 137.935 53.3604 137.854C52.0583 137.75 50.8413 137.377 49.7093 136.734L50.548 132.966C51.7596 133.582 52.8538 133.935 53.8305 134.026C54.8071 134.116 55.7576 134.002 56.6818 133.683C57.112 133.534 57.4831 133.343 57.7952 133.111C58.1072 132.878 58.323 132.625 58.4427 132.352C58.5568 132.063 58.5588 131.759 58.4487 131.44C58.3662 131.201 58.2281 131.008 58.0345 130.861C57.8569 130.708 57.6398 130.596 57.3831 130.524C57.1264 130.452 56.8354 130.41 56.51 130.398C56.1791 130.369 55.8406 130.37 55.4944 130.401C55.1426 130.415 54.7884 130.448 54.4318 130.5C53.0953 130.659 51.9409 130.647 50.9686 130.466C50.0122 130.279 49.2164 129.912 48.5813 129.364C47.9407 128.801 47.458 128.049 47.1332 127.109C46.8744 126.36 46.805 125.617 46.9249 124.88C47.0553 124.122 47.3302 123.42 47.7497 122.776C48.1796 122.11 48.7357 121.525 49.418 121.022C50.0948 120.503 50.8475 120.1 51.6761 119.814C53.0306 119.346 54.3132 119.135 55.5239 119.18C56.7347 119.226 57.9137 119.541 59.0611 120.125L58.3146 123.54C57.4515 123.107 56.5665 122.869 55.6597 122.825C54.7528 122.782 53.8612 122.912 52.9848 123.214C52.5067 123.38 52.1145 123.586 51.8079 123.835C51.5118 124.062 51.3067 124.32 51.1926 124.61C51.0729 124.883 51.0654 125.171 51.17 125.474C51.2636 125.744 51.4231 125.948 51.6485 126.084C51.8739 126.22 52.1496 126.321 52.4756 126.387C52.796 126.437 53.1508 126.457 53.5399 126.447C53.9235 126.422 54.3175 126.375 54.7219 126.306C55.6589 126.179 56.5275 126.138 57.3277 126.182C58.1439 126.221 58.8785 126.36 59.5315 126.598C60.2005 126.831 60.7696 127.187 61.2387 127.667C61.7182 128.126 62.0873 128.729 62.3461 129.478C62.7479 130.641 62.8025 131.729 62.5096 132.739C62.2271 133.729 61.6663 134.609 60.8269 135.381C59.9981 136.131 58.9462 136.726 57.6715 137.167ZM56.9062 139.598L53.3292 128.393L55.5377 128.513L59.3682 138.748L56.9062 139.598ZM56.1436 128.33L53.935 128.21L50.2449 118.382L52.7069 117.531L56.1436 128.33ZM66.4993 133.849L65.0334 132.162L68.0679 125.147C68.2342 124.751 68.4106 124.306 68.5971 123.814C68.7837 123.321 68.9596 122.823 69.1247 122.32C69.2843 121.801 69.3857 121.32 69.4288 120.877C69.4879 120.429 69.4624 120.045 69.3523 119.727C69.2422 119.408 69.0741 119.154 68.8482 118.964C68.6222 118.775 68.3517 118.663 68.0368 118.629C67.7163 118.58 67.349 118.626 66.9347 118.769C66.5682 118.896 66.2506 119.113 65.9821 119.42C65.708 119.71 65.4856 120.099 65.315 120.586C65.1603 121.068 65.0518 121.632 64.9896 122.277L61.4164 121.693C61.4317 120.653 61.621 119.678 61.9843 118.767C62.358 117.836 62.8931 117.035 63.5895 116.367C64.2805 115.682 65.0961 115.177 66.0362 114.852C67.0297 114.527 67.9963 114.434 68.9362 114.573C69.8706 114.696 70.6954 115.044 71.4108 115.618C72.1366 116.169 72.6674 116.931 73.0032 117.903C73.1188 118.238 73.2001 118.602 73.2471 118.996C73.294 119.39 73.3066 119.814 73.2849 120.268C73.2577 120.705 73.1857 121.194 73.069 121.733C72.9627 122.252 72.8089 122.813 72.6075 123.418C72.4062 124.023 72.1521 124.681 71.8453 125.394L69.4735 130.842L68.3679 129.19L76.7336 126.3L77.9723 129.885L66.4993 133.849ZM85.1264 127.681C83.7719 128.149 82.4884 128.28 81.2759 128.075C80.0738 127.848 78.819 127.185 77.5114 126.085L79.7751 123.189C80.3184 123.626 80.831 123.948 81.3132 124.156C81.8112 124.358 82.2869 124.471 82.7404 124.492C83.2042 124.493 83.6592 124.416 84.1054 124.261C84.5516 124.107 84.9249 123.871 85.2253 123.553C85.5362 123.214 85.7398 122.823 85.8363 122.379C85.9487 121.93 85.9251 121.475 85.7654 121.012C85.5947 120.518 85.348 120.14 85.0253 119.877C84.7129 119.592 84.3353 119.429 83.8923 119.385C83.4652 119.337 82.9888 119.403 82.4629 119.585C82.2239 119.667 81.9799 119.787 81.7311 119.945C81.4767 120.086 81.2146 120.257 80.9449 120.457C80.6752 120.657 80.4085 120.892 80.1449 121.162L78.4429 119.101L80.9786 113.275L82.2845 113.493L75.2555 115.761L74.0746 112.343L84.3525 108.792L85.6055 110.018L82.1321 117.853L80.7879 117.06C80.8934 116.952 81.0812 116.825 81.3516 116.678C81.6323 116.51 81.9081 116.379 82.179 116.285C82.9279 116.026 83.6759 115.92 84.4228 115.965C85.1697 116.01 85.8807 116.183 86.5558 116.485C87.2308 116.787 87.8246 117.215 88.3372 117.769C88.8442 118.308 89.2244 118.943 89.4776 119.676C89.863 120.792 89.9202 121.887 89.6494 122.961C89.389 124.015 88.8608 124.964 88.065 125.81C87.2851 126.65 86.3055 127.274 85.1264 127.681ZM100.648 122.051L95.9735 108.523L98.1651 107.819L94.6779 117.318L93.8565 116.799L104.947 112.967L106.103 116.313L93.196 120.773L90.4889 118.203L95.4627 104.953L98.7373 103.822L104.567 120.697L100.648 122.051ZM111.282 118.671C110.629 118.897 110.055 118.89 109.562 118.65C109.085 118.405 108.728 117.939 108.491 117.254C108.271 116.617 108.283 116.033 108.528 115.502C108.773 114.972 109.198 114.602 109.804 114.393C110.457 114.167 111.033 114.182 111.532 114.438C112.025 114.678 112.39 115.14 112.626 115.826C112.841 116.447 112.826 117.023 112.581 117.554C112.336 118.084 111.903 118.457 111.282 118.671ZM121.298 114.917C120.437 115.214 119.572 115.343 118.703 115.305C117.844 115.245 117.042 115.04 116.297 114.691C115.546 114.326 114.877 113.835 114.289 113.218C113.717 112.595 113.286 111.861 112.994 111.016C112.79 110.427 112.658 109.839 112.599 109.253C112.533 108.652 112.516 108.033 112.546 107.399C112.587 106.742 112.665 106.064 112.78 105.365C112.906 104.644 113.052 103.88 113.219 103.073L114.207 98.3434L117.96 97.0469L118.138 97.2529L116.655 103.491C116.471 104.303 116.33 105.057 116.231 105.751C116.127 106.429 116.054 107.096 116.013 107.753C115.972 108.409 115.943 109.097 115.924 109.817L114.589 108.432C114.556 107.819 114.635 107.221 114.825 106.638C115.011 106.039 115.277 105.492 115.623 104.998C115.98 104.482 116.383 104.048 116.833 103.697C117.277 103.33 117.745 103.061 118.239 102.89C119.18 102.565 120.128 102.523 121.085 102.763C122.053 102.982 122.918 103.423 123.683 104.086C124.447 104.75 125 105.575 125.341 106.563C125.749 107.742 125.844 108.896 125.627 110.023C125.426 111.145 124.949 112.139 124.196 113.006C123.459 113.867 122.493 114.504 121.298 114.917ZM120.189 111.554C120.699 111.378 121.107 111.112 121.412 110.757C121.734 110.396 121.937 109.978 122.022 109.502C122.102 109.011 122.051 108.502 121.87 107.977C121.716 107.53 121.453 107.157 121.082 106.858C120.721 106.536 120.3 106.325 119.819 106.224C119.349 106.101 118.874 106.122 118.396 106.287C117.887 106.463 117.466 106.742 117.134 107.125C116.813 107.485 116.609 107.903 116.524 108.379C116.433 108.838 116.47 109.307 116.635 109.785C116.811 110.295 117.083 110.719 117.449 111.056C117.81 111.377 118.23 111.588 118.711 111.69C119.187 111.775 119.679 111.73 120.189 111.554ZM130.12 111.869L131.544 94.3068L133.352 95.8225L124.604 98.845L123.381 95.3075L134.281 91.5418L135.332 93.3457L134.183 110.465L130.12 111.869ZM144.698 101.347L142.465 98.2924L147.853 87.0133L152.657 85.3535L144.698 101.347ZM143.427 107.271L137.646 90.5395L141.71 89.1357L147.49 105.867L143.427 107.271ZM154.159 103.563L145.12 97.5357L147.051 94.2197L158.892 101.928L154.159 103.563Z" fill="#F3F9F6"/>
<circle cx="182.493" cy="82.7918" r="14.2247" transform="rotate(-19.0598 182.493 82.7918)" fill="#1E9A5F"/>
<path d="M183.396 88.2926C183.558 88.7627 184.071 89.0122 184.541 88.8497C185.011 88.6873 185.261 88.1745 185.098 87.7044L183.396 88.2926ZM180.851 76.2192C180.404 76.0017 179.865 76.1879 179.647 76.6352L176.102 83.9243C175.884 84.3716 176.07 84.9106 176.518 85.1282C176.965 85.3458 177.504 85.1596 177.721 84.7123L180.873 78.233L187.353 81.3848C187.8 81.6024 188.339 81.4162 188.556 80.9689C188.774 80.5216 188.588 79.9826 188.14 79.765L180.851 76.2192ZM184.247 87.9985L185.098 87.7044L181.309 76.735L180.457 77.0291L179.606 77.3233L183.396 88.2926L184.247 87.9985Z" fill="white"/>
</g>
<rect x="1.67899" y="75.9116" width="230.099" height="99.4321" rx="18.3842" transform="rotate(-19.0598 1.67899 75.9116)" stroke="url(#paint1_linear_156_5269)" stroke-width="1.21362"/>
<defs>
<linearGradient id="paint0_linear_156_5269" x1="116.798" y1="37.8873" x2="116.467" y2="210.044" gradientUnits="userSpaceOnUse">
<stop stop-color="#0A1D12"/>
<stop offset="0.5" stop-color="#1E9A5F"/>
<stop offset="1" stop-color="#0A1D12"/>
</linearGradient>
<linearGradient id="paint1_linear_156_5269" x1="-36.6718" y1="51.0937" x2="261.265" y2="60.4854" gradientUnits="userSpaceOnUse">
<stop stop-color="#0A1D12"/>
<stop offset="0.475962" stop-color="#F2F2F2" stop-opacity="0.14"/>
<stop offset="1" stop-color="#0A1D12"/>
</linearGradient>
<clipPath id="clip0_156_5269">
<rect x="0.907288" y="75.5363" width="231.312" height="100.646" rx="18.991" transform="rotate(-19.0598 0.907288 75.5363)" fill="white"/>
</clipPath>
</defs>
</svg>
