<svg width="292" height="211" viewBox="0 0 292 211" fill="none" xmlns="http://www.w3.org/2000/svg">
<g clip-path="url(#clip0_156_5243)">
<rect x="44.3221" y="0.424255" width="263.585" height="127" rx="21.566" transform="rotate(20.1852 44.3221 0.424255)" fill="url(#paint0_linear_156_5243)" fill-opacity="0.1"/>
<g filter="url(#filter1_d_156_5243)">
<path d="M48.105 51.6393L52.7502 39.004L48.188 37.3268L49.298 34.3077L61.911 38.9447L60.801 41.9638L56.1047 40.2372L51.4595 52.8726L48.105 51.6393ZM61.6706 56.8804C60.463 56.4364 59.478 55.7782 58.7157 54.9056C57.9737 54.0235 57.4968 53.0189 57.285 51.8918C57.0881 50.7701 57.2089 49.6129 57.6474 48.4202C58.0859 47.2275 58.7407 46.275 59.6117 45.5629C60.5032 44.8413 61.5172 44.3849 62.6538 44.1934C63.8053 44.0075 64.9849 44.1365 66.1925 44.5805C67.3852 45.019 68.3525 45.6792 69.0945 46.5613C69.8513 47.4488 70.3282 48.4534 70.5251 49.5751C70.7275 50.6818 70.6094 51.8316 70.171 53.0243C69.7325 54.217 69.075 55.1769 68.1984 55.9039C67.3219 56.631 66.3078 57.0874 65.1563 57.2734C64.0252 57.4499 62.8633 57.3189 61.6706 56.8804ZM62.6901 54.1073C63.2715 54.3211 63.8454 54.3713 64.4117 54.2579C64.9835 54.1297 65.4893 53.8587 65.9292 53.445C66.3894 53.0218 66.7373 52.4897 66.973 51.8486C67.2141 51.1926 67.2937 50.5618 67.2117 49.9563C67.1501 49.3413 66.9403 48.8072 66.5822 48.354C66.2297 47.8859 65.7627 47.545 65.1812 47.3312C64.5849 47.112 64.0008 47.0665 63.429 47.1947C62.8572 47.323 62.3439 47.5913 61.8892 47.9995C61.4345 48.4078 61.094 48.9426 60.8678 49.6041C60.6172 50.2397 60.5301 50.8677 60.6066 51.4882C60.6886 52.0938 60.9059 52.6306 61.2585 53.0987C61.6165 53.5519 62.0937 53.8881 62.6901 54.1073ZM71.522 60.2483L76.9729 45.4213L80.1485 46.5887L74.6976 61.4157L71.522 60.2483ZM72.6131 50.4442L73.6572 47.604L81.4621 50.4734L80.418 53.3136L72.6131 50.4442ZM83.4193 64.876C82.4353 64.5142 81.6468 63.9198 81.054 63.0925C80.4611 62.2653 80.1035 61.3046 79.9812 60.2103C79.8588 59.116 80.0169 57.9725 80.4554 56.7798C80.8939 55.5871 81.5114 54.621 82.3079 53.8814C83.1248 53.1325 84.0317 52.6451 85.0286 52.4192C86.0311 52.1785 87.0466 52.2472 88.0753 52.6254C88.6568 52.8392 89.1532 53.1232 89.5645 53.4775C89.9962 53.8224 90.3361 54.2097 90.5843 54.6394C90.8474 55.0746 91.0345 55.5326 91.1454 56.0134C91.2563 56.4942 91.2818 56.9775 91.2217 57.4631L90.5919 57.1046L91.6525 54.2197L94.8058 55.379L90.4565 67.2093L87.2585 66.0336L88.3027 63.1934L89.043 63.3894C88.7702 63.763 88.4312 64.0869 88.0258 64.3609C87.6204 64.635 87.1616 64.8471 86.6495 64.9973C86.1577 65.1381 85.6329 65.2075 85.0751 65.2055C84.5229 65.1886 83.9709 65.0788 83.4193 64.876ZM85.3027 62.4459C85.8991 62.6652 86.4729 62.7154 87.0244 62.5965C87.5758 62.4777 88.0639 62.2087 88.4888 61.7895C88.9341 61.3608 89.2828 60.8036 89.535 60.1178C89.7816 59.4469 89.8714 58.8114 89.8043 58.2113C89.7521 57.6167 89.5544 57.0955 89.2113 56.6478C88.8737 56.1852 88.4067 55.8443 87.8103 55.6251C87.2288 55.4113 86.6597 55.3713 86.1028 55.505C85.5663 55.6294 85.0781 55.8984 84.6383 56.3121C84.1985 56.7258 83.8553 57.2682 83.6086 57.9391C83.3565 58.6249 83.2612 59.2753 83.3229 59.8903C83.39 60.4904 83.5876 61.0115 83.9158 61.4537C84.259 61.9014 84.7213 62.2322 85.3027 62.4459ZM93.6627 68.388L99.7467 51.839L102.922 53.0065L96.8383 69.5555L93.6627 68.388ZM113.657 75.9926C113.135 75.8007 112.656 75.5398 112.219 75.2099C111.782 74.8799 111.408 74.5142 111.099 74.1127C110.795 73.6964 110.569 73.2749 110.421 72.8482C110.279 72.4067 110.237 71.9933 110.294 71.6081L111.108 71.6028L109.932 74.3183L106.935 73.2166L113.003 56.7124L116.178 57.8798L113.424 65.3716L112.911 64.9036C113.132 64.5787 113.429 64.2988 113.803 64.064C114.183 63.8143 114.613 63.6339 115.094 63.523C115.58 63.3971 116.082 63.3446 116.599 63.3654C117.116 63.3863 117.62 63.4871 118.112 63.668C119.141 64.0462 119.959 64.6516 120.567 65.4843C121.18 66.3021 121.548 67.2582 121.67 68.3524C121.807 69.4522 121.657 70.5984 121.218 71.7911C120.78 72.9838 120.16 73.9574 119.358 74.7119C118.556 75.4663 117.653 75.9639 116.651 76.2047C115.669 76.436 114.671 76.3653 113.657 75.9926ZM113.892 73.007C114.488 73.2263 115.055 73.2738 115.591 73.1494C116.148 73.0157 116.646 72.7419 117.086 72.3282C117.531 71.8996 117.88 71.3424 118.132 70.6565C118.379 69.9856 118.471 69.3427 118.41 68.7277C118.363 68.1182 118.168 67.5896 117.825 67.1419C117.482 66.6942 117.012 66.3607 116.416 66.1415C115.819 65.9222 115.246 65.872 114.694 65.9909C114.143 66.1097 113.644 66.3834 113.199 66.8121C112.754 67.2407 112.408 67.7905 112.161 68.4614C111.909 69.1472 111.814 69.7976 111.875 70.4126C111.943 71.0127 112.145 71.544 112.483 72.0066C112.826 72.4543 113.295 72.7878 113.892 73.007ZM125.788 80.4521C124.804 80.0903 124.015 79.4958 123.422 78.6686C122.829 77.8414 122.472 76.8807 122.349 75.7864C122.227 74.6921 122.385 73.5486 122.824 72.3559C123.262 71.1632 123.88 70.1971 124.676 69.4575C125.493 68.7086 126.4 68.2212 127.397 67.9953C128.399 67.7546 129.415 67.8233 130.444 68.2015C131.025 68.4153 131.521 68.6993 131.933 69.0536C132.364 69.3985 132.704 69.7858 132.953 70.2155C133.216 70.6507 133.403 71.1087 133.514 71.5895C133.625 72.0703 133.65 72.5536 133.59 73.0392L132.96 72.6807L134.021 69.7958L137.174 70.9551L132.825 82.7854L129.627 81.6097L130.671 78.7695L131.411 78.9655C131.139 79.3391 130.799 79.663 130.394 79.937C129.989 80.2111 129.53 80.4232 129.018 80.5734C128.526 80.7142 128.001 80.7836 127.443 80.7816C126.891 80.7647 126.339 80.6549 125.788 80.4521ZM127.671 78.022C128.267 78.2413 128.841 78.2915 129.393 78.1726C129.944 78.0538 130.432 77.7848 130.857 77.3655C131.302 76.9369 131.651 76.3797 131.903 75.6939C132.15 75.023 132.24 74.3875 132.173 73.7874C132.12 73.1928 131.923 72.6716 131.58 72.2239C131.242 71.7613 130.775 71.4204 130.179 71.2012C129.597 70.9874 129.028 70.9474 128.471 71.0811C127.935 71.2054 127.446 71.4745 127.007 71.8882C126.567 72.3019 126.224 72.8442 125.977 73.5151C125.725 74.201 125.63 74.8514 125.691 75.4664C125.758 76.0664 125.956 76.5876 126.284 77.0298C126.627 77.4775 127.09 77.8083 127.671 78.022ZM136.031 83.9641L142.115 67.4151L145.291 68.5826L139.207 85.1315L136.031 83.9641ZM146.557 88.0876C145.573 87.7258 144.784 87.1313 144.192 86.3041C143.599 85.4769 143.241 84.5162 143.119 83.4219C142.996 82.3276 143.154 81.1841 143.593 79.9914C144.031 78.7987 144.649 77.8326 145.445 77.093C146.262 76.3441 147.169 75.8567 148.166 75.6308C149.169 75.3901 150.184 75.4588 151.213 75.837C151.794 76.0508 152.291 76.3348 152.702 76.6891C153.134 77.034 153.474 77.4213 153.722 77.851C153.985 78.2862 154.172 78.7442 154.283 79.225C154.394 79.7058 154.419 80.1891 154.359 80.6747L153.729 80.3162L154.79 77.4313L157.943 78.5906L153.594 90.4209L150.396 89.2452L151.44 86.405L152.181 86.601C151.908 86.9746 151.569 87.2984 151.163 87.5725C150.758 87.8466 150.299 88.0587 149.787 88.2089C149.295 88.3497 148.77 88.4191 148.213 88.4171C147.66 88.4002 147.108 88.2904 146.557 88.0876ZM148.44 85.6575C149.037 85.8768 149.61 85.927 150.162 85.8081C150.713 85.6893 151.201 85.4203 151.626 85.001C152.072 84.5724 152.42 84.0152 152.672 83.3294C152.919 82.6585 153.009 82.023 152.942 81.4229C152.89 80.8283 152.692 80.3071 152.349 79.8594C152.011 79.3968 151.544 79.0559 150.948 78.8367C150.366 78.6229 149.797 78.5829 149.24 78.7166C148.704 78.8409 148.216 79.11 147.776 79.5237C147.336 79.9374 146.993 80.4797 146.746 81.1506C146.494 81.8365 146.399 82.4869 146.46 83.1019C146.527 83.7019 146.725 84.2231 147.053 84.6653C147.396 85.113 147.859 85.4438 148.44 85.6575ZM156.778 91.5913L161.127 79.7611L164.169 80.8792L163.37 83.3273L162.645 83.3655C163.007 82.8891 163.475 82.5114 164.052 82.2325C164.649 81.9442 165.294 81.7755 165.99 81.7264C166.685 81.6772 167.36 81.7733 168.016 82.0144C168.911 82.3433 169.59 82.7963 170.055 83.3733C170.535 83.9559 170.789 84.6672 170.819 85.5074C170.869 86.3381 170.699 87.2827 170.31 88.3413L167.647 95.587L164.471 94.4196L167.044 87.4198C167.242 86.8831 167.331 86.4084 167.314 85.9958C167.296 85.5832 167.161 85.2373 166.908 84.9582C166.676 84.6697 166.331 84.4581 165.872 84.3235C165.515 84.1919 165.157 84.1282 164.8 84.1324C164.464 84.1272 164.145 84.1878 163.845 84.3143C163.559 84.4463 163.3 84.6218 163.068 84.8408C162.85 85.0653 162.683 85.3341 162.568 85.6472L159.953 92.7588L158.388 92.1833C158.045 92.0572 157.74 91.9449 157.471 91.8462C157.203 91.7476 156.972 91.6626 156.778 91.5913ZM175.751 98.8204C174.618 98.4038 173.703 97.7627 173.005 96.8971C172.308 96.0316 171.869 95.0407 171.687 93.9245C171.52 92.8138 171.653 91.6695 172.086 90.4917C172.513 89.3288 173.15 88.3783 173.997 87.6403C174.864 86.8929 175.844 86.4153 176.935 86.2074C178.027 85.9995 179.14 86.1039 180.273 86.5205C181.331 86.9096 182.229 87.4597 182.966 88.1707C183.703 88.8817 184.192 89.6706 184.432 90.5373L181.915 91.9982C181.81 91.6382 181.642 91.2888 181.411 90.95C181.186 90.5964 180.912 90.284 180.588 90.0128C180.28 89.747 179.932 89.5429 179.544 89.4004C178.933 89.1757 178.334 89.1247 177.747 89.2475C177.181 89.3609 176.67 89.6217 176.216 90.0299C175.761 90.4382 175.413 90.9703 175.172 91.6263C174.936 92.2674 174.859 92.8907 174.941 93.4962C175.044 94.0924 175.276 94.6347 175.638 95.1232C176.005 95.5968 176.487 95.9432 177.083 96.1624C177.471 96.3049 177.856 96.387 178.237 96.4087C178.624 96.4155 179.007 96.3619 179.388 96.2479C179.783 96.1394 180.165 95.9751 180.533 95.7552L181.483 98.4905C180.74 98.9452 179.847 99.2094 178.805 99.2831C177.768 99.3418 176.75 99.1876 175.751 98.8204ZM188.341 103.449C187.059 102.978 186.037 102.306 185.275 101.433C184.512 100.561 184.03 99.5708 183.828 98.4641C183.625 97.3573 183.74 96.215 184.173 95.0372C184.508 94.1277 184.964 93.3476 185.542 92.6969C186.119 92.0462 186.778 91.5437 187.517 91.1893C188.262 90.8201 189.055 90.6207 189.895 90.5911C190.756 90.5521 191.618 90.6915 192.483 91.0094C193.288 91.3054 193.979 91.7285 194.555 92.2788C195.137 92.8142 195.575 93.4407 195.87 94.1583C196.185 94.8665 196.345 95.6277 196.35 96.442C196.355 97.2563 196.187 98.0829 195.845 98.9217L195.46 99.8975L185.956 96.4033L186.157 94.2686L193.559 96.9899L193.053 97.2609L193.234 96.7689C193.352 96.3554 193.353 95.9408 193.235 95.5251C193.132 95.1149 192.934 94.7546 192.642 94.4441C192.35 94.1337 191.98 93.8962 191.533 93.7318C190.877 93.4906 190.271 93.4118 189.716 93.4954C189.176 93.5844 188.696 93.8311 188.276 94.2354C187.857 94.6397 187.518 95.1922 187.261 95.8929C186.998 96.6085 186.919 97.2821 187.026 97.9135C187.147 98.5504 187.428 99.1194 187.87 99.6203C188.333 100.112 188.944 100.497 189.705 100.777C190.226 100.969 190.734 101.062 191.226 101.057C191.719 101.052 192.285 100.939 192.925 100.717L193.665 103.401C193.09 103.629 192.492 103.782 191.872 103.858C191.257 103.92 190.649 103.917 190.048 103.848C189.447 103.779 188.878 103.646 188.341 103.449Z" fill="#AFAFAF"/>
</g>
<path d="M35.3004 100.841C33.2914 100.103 31.662 99.1544 30.4121 97.9968C29.1902 96.8262 28.2751 95.4542 27.6667 93.8809L31.5963 90.7878C32.3072 92.3988 33.1155 93.6501 34.0211 94.5415C34.9267 95.4329 35.974 96.0972 37.163 96.5343C37.7165 96.7378 38.2451 96.8507 38.7489 96.873C39.2526 96.8953 39.6765 96.8184 40.0205 96.6423C40.372 96.4458 40.6231 96.1425 40.7738 95.7325C40.8869 95.425 40.9066 95.1181 40.833 94.8118C40.78 94.5131 40.6541 94.2225 40.4554 93.94C40.2568 93.6575 39.9993 93.3767 39.6831 93.0975C39.3744 92.7979 39.0339 92.5215 38.6615 92.2682C38.2968 91.9945 37.9142 91.7375 37.5139 91.4972C36.043 90.5609 34.8941 89.6033 34.0671 88.6244C33.2607 87.6531 32.7633 86.6325 32.5749 85.5626C32.394 84.4722 32.5258 83.3222 32.9705 82.1127C33.3247 81.1493 33.864 80.3469 34.5884 79.7057C35.3409 79.0515 36.1916 78.573 37.1407 78.2704C38.1177 77.9547 39.1548 77.824 40.2518 77.8783C41.3564 77.912 42.4417 78.1248 43.5076 78.5167C45.2501 79.1573 46.7102 79.9966 47.8877 81.0345C49.0652 82.0725 49.99 83.3549 50.662 84.8818L47.114 87.6964C46.603 86.5544 45.9104 85.59 45.0362 84.8032C44.1619 84.0164 43.161 83.4157 42.0335 83.0012C41.4185 82.7751 40.8554 82.6612 40.3441 82.6594C39.8608 82.6446 39.4435 82.7355 39.0919 82.9321C38.748 83.1081 38.5044 83.3909 38.3612 83.7804C38.2331 84.1289 38.2263 84.4638 38.3409 84.7852C38.4554 85.1066 38.6493 85.4338 38.9224 85.7669C39.2031 86.0795 39.5425 86.3905 39.9408 86.6998C40.3465 86.9886 40.7804 87.2644 41.2422 87.5273C42.2868 88.1673 43.1923 88.8376 43.9586 89.5382C44.7454 90.2464 45.3689 90.9875 45.8289 91.7617C46.3095 92.5434 46.5883 93.3673 46.6655 94.2334C46.7708 95.0866 46.6463 95.9949 46.292 96.9584C45.7419 98.4549 44.9056 99.5902 43.7833 100.364C42.6889 101.126 41.4045 101.549 39.9301 101.636C38.4836 101.709 36.9404 101.444 35.3004 100.841ZM32.5398 102.654L38.1347 88.4792L40.2524 90.4097L35.707 103.818L32.5398 102.654ZM41.0098 90.723L38.8921 88.7926L43.2453 75.9071L46.4126 77.0715L41.0098 90.723ZM55.7941 108.026L62.1926 90.6218L64.9682 91.7121L53.684 98.3844L53.2852 97.1906L67.5531 102.436L65.9704 106.741L49.3655 100.636L48.7555 95.8395L64.6055 86.6221L68.8182 88.1708L60.8371 109.88L55.7941 108.026ZM65.7749 118.677L65.0048 116.404C65.9605 116.336 66.7898 116.106 67.4928 115.713C68.1883 115.34 68.6114 114.949 68.7621 114.539C68.83 114.355 68.8541 114.131 68.8345 113.868C68.8278 113.632 68.689 113.314 68.418 112.912C68.0746 112.39 67.8812 111.935 67.8378 111.546C67.8019 111.138 67.8594 110.728 68.0101 110.318C68.2437 109.683 68.6539 109.263 69.2405 109.06C69.8477 108.864 70.5202 108.902 71.2582 109.174C71.8527 109.392 72.3254 109.752 72.6763 110.253C73.0478 110.762 73.2612 111.353 73.3167 112.025C73.3927 112.704 73.2912 113.423 73.0124 114.182C72.7561 114.879 72.3882 115.5 71.9086 116.045C71.4214 116.61 70.8506 117.087 70.1961 117.475C69.5546 117.89 68.8472 118.2 68.0739 118.405C67.3212 118.617 66.5548 118.707 65.7749 118.677ZM82.9628 118.363C81.2204 117.723 79.825 116.803 78.7768 115.603C77.7566 114.39 77.0414 112.696 76.631 110.521L81.2756 109.471C81.4628 110.354 81.713 111.097 82.0263 111.701C82.36 112.313 82.7454 112.815 83.1826 113.208C83.6477 113.589 84.1673 113.885 84.7413 114.096C85.3153 114.307 85.8833 114.376 86.4452 114.303C87.0352 114.218 87.5603 113.992 88.0207 113.626C88.5015 113.267 88.8512 112.791 89.0698 112.196C89.3034 111.561 89.3661 110.979 89.2579 110.45C89.1777 109.909 88.933 109.435 88.5239 109.029C88.1353 108.63 87.6028 108.306 86.9263 108.057C86.6188 107.944 86.2757 107.865 85.8971 107.819C85.526 107.752 85.123 107.709 84.6883 107.688C84.2536 107.668 83.7936 107.685 83.3082 107.739L83.2896 104.277L90.6085 100.51L91.7403 101.799L82.8292 98.3133L84.4458 93.9161L97.6682 98.7771L97.9206 101.034L88.0138 106.049L87.3151 104.151C87.5093 104.129 87.8022 104.156 88.1938 104.23C88.6134 104.291 88.9975 104.386 89.346 104.514C90.3095 104.868 91.1474 105.374 91.8598 106.031C92.5721 106.689 93.1433 107.446 93.5732 108.302C94.0031 109.158 94.248 110.074 94.308 111.05C94.3756 112.006 94.236 112.955 93.8893 113.898C93.3618 115.333 92.5218 116.479 91.3692 117.335C90.2448 118.178 88.9367 118.698 87.4451 118.894C85.9739 119.098 84.4798 118.921 82.9628 118.363ZM94.2325 122.158L94.1448 119.263L102.939 114.712C103.43 114.451 103.972 114.149 104.563 113.808C105.153 113.467 105.738 113.111 106.316 112.742C106.901 112.352 107.397 111.953 107.803 111.544C108.23 111.142 108.519 110.736 108.67 110.326C108.821 109.916 108.86 109.524 108.789 109.148C108.717 108.773 108.537 108.439 108.249 108.147C107.969 107.835 107.562 107.58 107.029 107.384C106.557 107.211 106.061 107.168 105.54 107.256C105.027 107.323 104.485 107.531 103.914 107.88C103.365 108.236 102.794 108.713 102.202 109.31L99.0962 105.795C99.9639 104.764 100.953 103.941 102.064 103.325C103.202 102.697 104.395 102.332 105.642 102.232C106.896 102.112 108.128 102.274 109.338 102.718C110.601 103.206 111.647 103.905 112.476 104.815C113.313 105.704 113.855 106.729 114.103 107.891C114.379 109.039 114.287 110.239 113.827 111.489C113.669 111.92 113.452 112.352 113.176 112.786C112.9 113.22 112.566 113.655 112.172 114.092C111.786 114.509 111.314 114.94 110.754 115.386C110.223 115.819 109.608 116.256 108.91 116.698C108.213 117.14 107.418 117.592 106.526 118.056L99.6816 121.578L99.9257 119.015L110.688 122.971L108.992 127.584L94.2325 122.158ZM119.514 131.801C117.587 131.093 116.099 130.045 115.05 128.659C114.021 127.28 113.449 125.639 113.334 123.735C113.227 121.811 113.6 119.69 114.451 117.374C115.303 115.057 116.389 113.211 117.709 111.835C119.037 110.438 120.54 109.547 122.217 109.163C123.914 108.787 125.727 108.953 127.654 109.661C129.581 110.37 131.069 111.417 132.118 112.804C133.168 114.19 133.746 115.845 133.853 117.77C133.968 119.673 133.599 121.783 132.747 124.1C131.896 126.416 130.806 128.273 129.478 129.67C128.158 131.046 126.649 131.922 124.951 132.299C123.254 132.675 121.441 132.509 119.514 131.801ZM121.142 127.373C122.475 127.863 123.711 127.666 124.85 126.782C126.01 125.905 126.982 124.401 127.766 122.269C128.572 120.075 128.821 118.258 128.513 116.819C128.233 115.366 127.426 114.395 126.094 113.905C124.761 113.415 123.507 113.629 122.332 114.546C121.185 115.451 120.208 117 119.402 119.194C118.618 121.326 118.374 123.098 118.669 124.509C118.985 125.929 119.81 126.883 121.142 127.373ZM133.826 137.098C132.986 136.789 132.417 136.312 132.118 135.667C131.841 135.03 131.864 134.27 132.188 133.389C132.489 132.569 132.98 131.993 133.661 131.661C134.341 131.33 135.071 131.307 135.85 131.593C136.69 131.902 137.256 132.39 137.547 133.055C137.845 133.7 137.832 134.463 137.508 135.344C137.214 136.144 136.727 136.709 136.046 137.041C135.366 137.373 134.626 137.392 133.826 137.098ZM148.162 142.333C146.235 141.625 144.747 140.577 143.697 139.191C142.668 137.812 142.097 136.17 141.982 134.267C141.875 132.342 142.247 130.222 143.099 127.906C143.951 125.589 145.037 123.743 146.357 122.367C147.685 120.97 149.188 120.079 150.865 119.695C152.562 119.319 154.374 119.485 156.301 120.193C158.228 120.902 159.717 121.949 160.766 123.335C161.815 124.722 162.394 126.377 162.501 128.302C162.615 130.205 162.247 132.315 161.395 134.632C160.544 136.948 159.454 138.805 158.126 140.202C156.805 141.578 155.296 142.454 153.599 142.831C151.901 143.207 150.089 143.041 148.162 142.333ZM149.79 137.905C151.122 138.395 152.358 138.198 153.498 137.314C154.658 136.437 155.63 134.932 156.414 132.801C157.22 130.607 157.469 128.79 157.161 127.351C156.88 125.898 156.074 124.926 154.741 124.437C153.409 123.947 152.155 124.161 150.98 125.078C149.833 125.983 148.856 127.532 148.05 129.726C147.266 131.858 147.022 133.629 147.317 135.041C147.633 136.461 148.457 137.415 149.79 137.905ZM168.912 149.961C166.985 149.253 165.497 148.206 164.447 146.819C163.419 145.44 162.847 143.799 162.732 141.895C162.625 139.971 162.997 137.851 163.849 135.534C164.701 133.218 165.787 131.371 167.107 129.995C168.435 128.598 169.938 127.708 171.615 127.324C173.312 126.947 175.125 127.113 177.052 127.822C178.978 128.53 180.467 129.577 181.516 130.964C182.566 132.35 183.144 134.006 183.251 135.93C183.365 137.834 182.997 139.944 182.145 142.26C181.294 144.577 180.204 146.433 178.876 147.83C177.555 149.206 176.046 150.083 174.349 150.459C172.651 150.836 170.839 150.67 168.912 149.961ZM170.54 145.533C171.872 146.023 173.108 145.826 174.248 144.942C175.408 144.065 176.38 142.561 177.164 140.429C177.97 138.236 178.219 136.419 177.911 134.979C177.63 133.526 176.824 132.555 175.491 132.065C174.159 131.575 172.905 131.789 171.73 132.707C170.583 133.612 169.606 135.161 168.8 137.354C168.016 139.486 167.772 141.258 168.067 142.67C168.383 144.089 169.207 145.044 170.54 145.533Z" fill="#F3F9F6"/>
<g clip-path="url(#clip1_156_5243)">
<rect x="194.663" y="133.152" width="59.5672" height="22.3377" rx="11.1689" transform="rotate(20.1852 194.663 133.152)" fill="#1E9A5F"/>
<path d="M198.867 147.68L199.406 146.215L205.008 148.274L204.469 149.739L198.867 147.68ZM200.133 150.417L202.143 144.949L203.731 145.533L201.721 151.001L200.133 150.417ZM204.766 152.615L204.734 151.563L207.932 149.908C208.111 149.813 208.307 149.703 208.522 149.579C208.737 149.455 208.95 149.326 209.16 149.191C209.373 149.05 209.553 148.904 209.701 148.756C209.856 148.61 209.961 148.462 210.016 148.313C210.071 148.164 210.085 148.021 210.059 147.885C210.033 147.748 209.968 147.627 209.863 147.521C209.761 147.407 209.613 147.314 209.419 147.243C209.248 147.18 209.067 147.165 208.878 147.197C208.691 147.221 208.494 147.297 208.287 147.423C208.087 147.553 207.879 147.726 207.664 147.943L206.535 146.665C206.85 146.29 207.21 145.991 207.614 145.767C208.028 145.539 208.461 145.406 208.915 145.37C209.371 145.326 209.819 145.385 210.259 145.546C210.718 145.724 211.099 145.978 211.4 146.309C211.704 146.632 211.901 147.005 211.992 147.427C212.092 147.845 212.058 148.281 211.891 148.736C211.834 148.893 211.755 149.05 211.654 149.207C211.554 149.365 211.432 149.524 211.289 149.682C211.149 149.834 210.977 149.991 210.774 150.153C210.58 150.31 210.357 150.469 210.103 150.63C209.85 150.791 209.561 150.955 209.236 151.124L206.747 152.404L206.836 151.472L210.75 152.911L210.133 154.588L204.766 152.615ZM211.618 155.274C211.313 155.162 211.106 154.988 210.997 154.754C210.896 154.522 210.905 154.246 211.022 153.925C211.132 153.627 211.311 153.418 211.558 153.297C211.805 153.177 212.071 153.168 212.354 153.273C212.66 153.385 212.865 153.562 212.971 153.804C213.079 154.038 213.075 154.316 212.957 154.636C212.85 154.927 212.673 155.133 212.425 155.253C212.178 155.374 211.909 155.381 211.618 155.274ZM216.272 156.972C215.638 156.739 215.131 156.405 214.75 155.968C214.379 155.527 214.119 154.911 213.97 154.12L215.659 153.738C215.727 154.06 215.818 154.33 215.931 154.55C216.053 154.772 216.193 154.955 216.352 155.098C216.521 155.236 216.71 155.344 216.919 155.42C217.127 155.497 217.334 155.522 217.538 155.496C217.753 155.465 217.944 155.383 218.111 155.249C218.286 155.119 218.413 154.946 218.493 154.73C218.578 154.499 218.601 154.287 218.561 154.095C218.532 153.898 218.443 153.726 218.294 153.578C218.153 153.433 217.959 153.315 217.713 153.225C217.601 153.183 217.477 153.155 217.339 153.138C217.204 153.114 217.058 153.098 216.9 153.09C216.741 153.083 216.574 153.089 216.398 153.109L216.391 151.85L219.052 150.48L219.464 150.949L216.223 149.681L216.811 148.082L221.619 149.85L221.711 150.671L218.109 152.494L217.855 151.804C217.925 151.796 218.032 151.806 218.174 151.833C218.327 151.855 218.466 151.889 218.593 151.936C218.944 152.065 219.248 152.249 219.507 152.488C219.766 152.727 219.974 153.002 220.13 153.314C220.287 153.625 220.376 153.958 220.398 154.313C220.422 154.66 220.371 155.006 220.245 155.349C220.053 155.87 219.748 156.287 219.329 156.598C218.92 156.905 218.444 157.094 217.902 157.165C217.367 157.239 216.824 157.175 216.272 156.972ZM222.835 159.347C222.246 159.13 221.753 158.814 221.356 158.397C220.967 157.983 220.698 157.495 220.549 156.933L221.978 156.189C222.16 156.636 222.358 156.972 222.573 157.194C222.79 157.409 223.059 157.576 223.379 157.694C223.618 157.782 223.848 157.811 224.07 157.783C224.292 157.754 224.487 157.674 224.654 157.541C224.832 157.403 224.96 157.226 225.04 157.01C225.122 156.786 225.139 156.568 225.09 156.355C225.051 156.138 224.958 155.943 224.81 155.77C224.669 155.6 224.48 155.471 224.241 155.383C224.07 155.32 223.904 155.276 223.744 155.251C223.584 155.226 223.405 155.22 223.206 155.231C223.017 155.238 222.782 155.266 222.502 155.315L222.092 153.946L223.843 150.667L228.338 152.32L227.75 153.919L224.16 152.599L224.883 152.154L223.601 154.501L223.012 154.03C223.201 153.956 223.413 153.907 223.65 153.884C223.894 153.864 224.147 153.868 224.407 153.896C224.671 153.916 224.921 153.971 225.16 154.058C225.652 154.239 226.049 154.516 226.352 154.89C226.665 155.259 226.863 155.687 226.946 156.175C227.029 156.662 226.975 157.167 226.783 157.689C226.594 158.203 226.292 158.621 225.878 158.942C225.466 159.256 224.995 159.456 224.465 159.54C223.937 159.617 223.394 159.552 222.835 159.347ZM228.283 161.261L236.338 155.337L238.004 155.95L229.894 161.853L228.283 161.261ZM230.139 157.767C229.759 157.628 229.454 157.41 229.224 157.114C228.997 156.81 228.859 156.463 228.808 156.072C228.764 155.684 228.819 155.281 228.973 154.863C229.129 154.439 229.349 154.092 229.634 153.824C229.929 153.552 230.259 153.377 230.626 153.301C230.993 153.224 231.366 153.256 231.746 153.395C232.134 153.538 232.439 153.756 232.661 154.049C232.891 154.345 233.026 154.691 233.067 155.087C233.11 155.475 233.054 155.881 232.898 156.306C232.744 156.724 232.521 157.065 232.229 157.33C231.937 157.595 231.606 157.769 231.237 157.854C230.878 157.933 230.512 157.904 230.139 157.767ZM230.563 156.616C230.689 156.662 230.809 156.66 230.921 156.608C231.04 156.559 231.151 156.464 231.254 156.324C231.356 156.184 231.445 156.009 231.522 155.801C231.599 155.592 231.644 155.401 231.657 155.228C231.669 155.055 231.646 154.911 231.587 154.796C231.538 154.677 231.45 154.594 231.323 154.547C231.204 154.503 231.083 154.51 230.961 154.566C230.841 154.615 230.726 154.708 230.617 154.846C230.514 154.986 230.425 155.16 230.348 155.369C230.271 155.578 230.227 155.769 230.214 155.942C230.201 156.115 230.224 156.259 230.283 156.373C230.35 156.491 230.443 156.572 230.563 156.616ZM234.705 163.749C234.325 163.609 234.022 163.388 233.795 163.084C233.568 162.781 233.428 162.437 233.374 162.054C233.331 161.665 233.386 161.263 233.539 160.845C233.695 160.42 233.916 160.074 234.2 159.806C234.488 159.531 234.815 159.355 235.181 159.278C235.548 159.202 235.925 159.234 236.313 159.377C236.7 159.519 237.005 159.737 237.228 160.031C237.457 160.327 237.592 160.672 237.633 161.068C237.676 161.456 237.62 161.863 237.464 162.288C237.313 162.698 237.092 163.035 236.8 163.3C236.508 163.565 236.177 163.74 235.807 163.824C235.445 163.911 235.078 163.886 234.705 163.749ZM235.129 162.597C235.256 162.644 235.375 162.641 235.487 162.589C235.609 162.533 235.72 162.438 235.82 162.306C235.922 162.165 236.012 161.991 236.088 161.782C236.165 161.574 236.21 161.383 236.223 161.21C236.236 161.037 236.212 160.893 236.153 160.778C236.104 160.658 236.016 160.575 235.889 160.529C235.763 160.482 235.639 160.483 235.52 160.532C235.4 160.582 235.284 160.679 235.172 160.823C235.069 160.963 234.98 161.138 234.903 161.347C234.826 161.555 234.782 161.746 234.769 161.919C234.766 162.087 234.793 162.233 234.85 162.355C234.909 162.47 235.002 162.551 235.129 162.597Z" fill="#F3F9F6"/>
</g>
</g>
<rect x="44.7641" y="1.38004" width="262.096" height="125.511" rx="20.8214" transform="rotate(20.1852 44.7641 1.38004)" stroke="url(#paint1_linear_156_5243)" stroke-width="1.48918"/>
<defs>
<filter id="filter1_d_156_5243" x="38.713" y="33.4131" width="165.731" height="81.4387" filterUnits="userSpaceOnUse" color-interpolation-filters="sRGB">
<feFlood flood-opacity="0" result="BackgroundImageFix"/>
<feColorMatrix in="SourceAlpha" type="matrix" values="0 0 0 0 0 0 0 0 0 0 0 0 0 0 0 0 0 0 127 0" result="hardAlpha"/>
<feOffset dy="4.74766"/>
<feGaussianBlur stdDeviation="2.37383"/>
<feComposite in2="hardAlpha" operator="out"/>
<feColorMatrix type="matrix" values="0 0 0 0 0 0 0 0 0 0 0 0 0 0 0 0 0 0 0.25 0"/>
<feBlend mode="normal" in2="BackgroundImageFix" result="effect1_dropShadow_156_5243"/>
<feBlend mode="normal" in="SourceGraphic" in2="effect1_dropShadow_156_5243" result="shape"/>
</filter>
<linearGradient id="paint0_linear_156_5243" x1="176.382" y1="-47.0831" x2="175.919" y2="170.153" gradientUnits="userSpaceOnUse">
<stop stop-color="#0A1D12"/>
<stop offset="0.5" stop-color="#1E9A5F"/>
<stop offset="1" stop-color="#0A1D12"/>
</linearGradient>
<linearGradient id="paint1_linear_156_5243" x1="1.5" y1="-30.4186" x2="341.067" y2="-20.7524" gradientUnits="userSpaceOnUse">
<stop stop-color="#0A1D12"/>
<stop offset="0.475962" stop-color="#F2F2F2" stop-opacity="0.14"/>
<stop offset="1" stop-color="#0A1D12"/>
</linearGradient>
<clipPath id="clip0_156_5243">
<rect x="44.3221" y="0.424255" width="263.585" height="127" rx="21.566" transform="rotate(20.1852 44.3221 0.424255)" fill="white"/>
</clipPath>
<clipPath id="clip1_156_5243">
<rect x="194.663" y="133.152" width="59.5672" height="22.3377" rx="11.1689" transform="rotate(20.1852 194.663 133.152)" fill="white"/>
</clipPath>
</defs>
</svg>
