<svg width="340" height="340" viewBox="0 0 340 340" fill="none" xmlns="http://www.w3.org/2000/svg">
<g filter="url(#filter0_d_147_3435)">
<path d="M304.12 209.608C275.348 277.354 198.707 315.306 132.244 305.068C121.429 303.402 91.7794 298.44 65.5289 275.03C14.9951 229.964 4.18793 140.727 44.9522 77.8403C74.6214 32.0695 127.806 6.12356 178.343 7.42148C189.228 7.70099 230.946 9.42394 267.609 39.6552C272.994 44.0957 284.871 54.6472 295.575 71.3865C320.711 110.694 322.871 165.457 304.12 209.608Z" fill="#F2F8F5"/>
<path d="M47.0496 79.2002C76.2284 34.1859 128.58 8.64462 178.278 9.9209C189.026 10.1969 230.026 11.9056 266.018 41.584C271.29 45.9307 282.955 56.2925 293.469 72.7334C318.104 111.258 320.29 165.139 301.819 208.631C273.52 275.264 198.023 312.671 132.625 302.598C121.922 300.949 92.8817 296.073 67.1931 273.164C17.6593 228.99 6.89688 141.144 47.0496 79.2002Z" stroke="url(#paint0_linear_147_3435)" stroke-opacity="0.14" stroke-width="5"/>
<g opacity="0.3">
<path d="M96.047 107.77C96.2274 108.403 95.9042 109.083 95.2802 109.333C93.9158 109.882 92.507 110.379 91.0937 110.811C90.4059 111.022 89.678 110.635 89.4678 109.947C89.4653 109.939 89.4631 109.931 89.4608 109.923C89.2668 109.243 89.6525 108.529 90.332 108.322C91.6749 107.911 93.013 107.438 94.3091 106.918C94.9762 106.649 95.7347 106.973 96.0027 107.64C96.0201 107.683 96.0346 107.726 96.047 107.77ZM85.1174 110.799C85.1313 110.848 85.1425 110.898 85.1509 110.95C85.2655 111.66 84.7829 112.328 84.0732 112.443C82.6152 112.678 81.1327 112.853 79.6671 112.963C78.95 113.017 78.3275 112.482 78.2709 111.763C78.2171 111.046 78.755 110.421 79.4714 110.367C80.8646 110.262 82.2729 110.096 83.6585 109.872C84.3168 109.766 84.939 110.173 85.1174 110.799ZM73.7926 111.346C73.8324 111.486 73.8493 111.634 73.8395 111.787C73.7928 112.504 73.1738 113.049 72.4563 113.002C70.9856 112.908 69.5006 112.748 68.0427 112.527C67.3318 112.418 66.8438 111.755 66.9506 111.044C67.0584 110.334 67.7222 109.845 68.4329 109.952C69.8173 110.162 71.2272 110.314 72.624 110.404C73.1885 110.441 73.6459 110.832 73.7926 111.346ZM62.6275 109.347C62.6931 109.577 62.6959 109.828 62.6224 110.075C62.417 110.764 61.6916 111.156 61.0027 110.95C59.5895 110.528 58.1775 110.04 56.8061 109.5C56.1381 109.236 55.8094 108.48 56.0724 107.811C56.336 107.142 57.0921 106.814 57.7611 107.077C59.0635 107.591 60.4045 108.054 61.7476 108.455C62.1898 108.587 62.5096 108.933 62.6275 109.347ZM52.1888 104.908C52.2809 105.231 52.2486 105.589 52.0705 105.905C51.7172 106.531 50.923 106.752 50.2971 106.399C49.0159 105.676 47.7474 104.888 46.5277 104.056C45.9333 103.652 45.7796 102.842 46.1849 102.247C46.5899 101.653 47.3996 101.5 47.9941 101.905C49.1533 102.695 50.359 103.444 51.5765 104.131C51.8871 104.307 52.0981 104.59 52.1888 104.908ZM42.9925 98.271C43.1118 98.6894 43.019 99.158 42.7053 99.5039C42.222 100.036 41.399 100.077 40.8662 99.5936C39.7749 98.6036 38.7121 97.5543 37.7084 96.4747C37.2187 95.9478 37.2488 95.1243 37.7756 94.6347C38.3017 94.1452 39.1257 94.1752 39.6153 94.7016C40.5693 95.7273 41.5785 96.7242 42.6156 97.6649C42.8024 97.8342 42.9282 98.0453 42.9925 98.271ZM26.9313 53.244C26.9806 53.4173 26.9946 53.6034 26.9663 53.7932C26.7589 55.1765 26.6091 56.5874 26.5216 57.9867C26.4766 58.7043 25.8585 59.2496 25.1413 59.2044C24.4236 59.1597 23.8782 58.5416 23.9233 57.8239C24.0155 56.3502 24.1729 54.864 24.3911 53.4074C24.4978 52.6962 25.1608 52.2063 25.8717 52.3129C26.393 52.391 26.7956 52.7682 26.9313 53.244ZM35.5008 89.7664C35.6488 90.2858 35.4616 90.8641 34.9941 91.1906C34.4046 91.6025 33.593 91.4584 33.1812 90.8691C32.3371 89.6611 31.5354 88.4016 30.7982 87.1257C30.4415 86.5016 30.6511 85.7068 31.274 85.347C31.8965 84.9874 32.6928 85.2005 33.0528 85.8232C33.7527 87.0351 34.514 88.231 35.3155 89.3781C35.4004 89.5 35.4622 89.6313 35.5008 89.7664ZM26.5257 64.5777C26.5493 64.6603 26.5654 64.7464 26.5723 64.8355C26.6799 66.231 26.8495 67.6402 27.0755 69.0242C27.1911 69.734 26.7099 70.4032 26.0004 70.519C25.2909 70.6346 24.6184 70.1547 24.5057 69.4439C24.2682 67.9877 24.0897 66.5047 23.9761 65.0364C23.9209 64.3194 24.4572 63.6933 25.174 63.6381C25.8013 63.5894 26.3595 63.9947 26.5257 64.5777ZM30.0965 79.8018C30.2767 80.4336 29.9546 81.1126 29.3321 81.3642C28.6653 81.6337 27.9067 81.3116 27.6368 80.6451C27.0853 79.2802 26.5853 77.8731 26.1514 76.4628C26.1483 76.4542 26.1458 76.4451 26.1433 76.4363C25.9496 75.757 26.334 75.0446 27.0121 74.8356C27.6996 74.624 28.4281 75.0094 28.6395 75.6967C29.0521 77.0363 29.5272 78.3727 30.0514 79.6695C30.0686 79.7132 30.0838 79.7575 30.0965 79.8018Z" fill="#56C490"/>
<path d="M29.0998 44.3647C29.1701 44.6112 29.1688 44.881 29.0793 45.142C28.8616 45.7771 28.6541 46.4272 28.461 47.0745C28.2561 47.7635 27.531 48.1562 26.8421 47.951C26.1528 47.7462 25.7594 47.021 25.9658 46.3317C26.1683 45.6508 26.3869 44.9672 26.6157 44.2988C26.8485 43.6188 27.5891 43.2558 28.2689 43.4887C28.6885 43.6322 28.9868 43.9685 29.0998 44.3647Z" fill="#56C490"/>
</g>
<g opacity="0.3">
<path d="M55.599 14.8156C55.7712 15.4199 55.4847 16.0767 54.8972 16.351C54.289 16.6346 53.6764 16.9359 53.077 17.2465C52.4384 17.5772 51.6527 17.3276 51.3222 16.6892C50.9902 16.048 51.2413 15.265 51.8794 14.9343C52.5107 14.6076 53.1558 14.2902 53.7961 13.9913C54.4477 13.6873 55.2223 13.969 55.5265 14.6205C55.5564 14.6845 55.5802 14.7498 55.599 14.8156Z" fill="#56C490"/>
<path d="M125.823 46.7955C125.987 47.3715 126.142 47.9527 126.288 48.5385C126.462 49.2362 126.037 49.9427 125.34 50.1165C124.642 50.2902 123.932 49.8629 123.761 49.1679C123.425 47.8159 123.034 46.4805 122.594 45.1842C122.364 44.5022 122.728 43.7642 123.409 43.5333C124.09 43.3023 124.83 43.6673 125.06 44.3484C125.332 45.1503 125.589 45.9736 125.823 46.7955ZM127.49 55.306C127.51 55.3758 127.524 55.4488 127.532 55.5237C127.69 56.9676 127.787 58.4344 127.823 59.883C127.84 60.6016 127.272 61.1987 126.554 61.2163C125.835 61.2339 125.236 60.6646 125.22 59.9467C125.186 58.5708 125.093 57.1775 124.944 55.8052C124.866 55.0905 125.383 54.4481 126.097 54.3703C126.737 54.3006 127.319 54.7071 127.49 55.306ZM122.416 38.0281C122.585 38.6184 122.315 39.2633 121.747 39.548C121.103 39.8696 120.321 39.609 120 38.966C119.385 37.7359 118.708 36.5155 117.988 35.3384C117.615 34.7242 117.807 33.9235 118.42 33.5486C119.034 33.1737 119.836 33.3672 120.211 33.9809C120.968 35.2204 121.68 36.5059 122.328 37.8012C122.365 37.8752 122.394 37.9513 122.416 38.0281ZM127.469 66.4695C127.514 66.6284 127.529 66.7986 127.509 66.9728C127.346 68.4147 127.118 69.8671 126.834 71.2893C126.693 71.9942 126.007 72.4511 125.302 72.3101C124.597 72.169 124.14 71.4838 124.281 70.7782C124.551 69.4279 124.767 68.0488 124.922 66.6792C125.003 65.9649 125.649 65.4514 126.363 65.5325C126.903 65.5938 127.328 65.9773 127.469 66.4695ZM116.352 28.6666C116.49 29.1507 116.339 29.6925 115.925 30.0317C115.368 30.4871 114.548 30.405 114.092 29.8485C113.222 28.7844 112.294 27.7427 111.333 26.7518C110.833 26.2357 110.845 25.4114 111.362 24.9108C111.878 24.4107 112.702 24.4234 113.203 24.9397C114.214 25.9826 115.191 27.0794 116.108 28.1999C116.224 28.3416 116.305 28.5007 116.352 28.6666ZM108.381 20.8621C108.491 21.2492 108.421 21.6818 108.154 22.023C107.71 22.5888 106.892 22.6882 106.326 22.2446C105.24 21.3942 104.107 20.5794 102.956 19.8232C102.355 19.4291 102.187 18.6222 102.583 18.0204C102.978 17.4194 103.785 17.2525 104.386 17.6473C105.597 18.4432 106.79 19.3003 107.932 20.1956C108.157 20.3715 108.308 20.6069 108.381 20.8621ZM98.8971 14.9812C98.981 15.2757 98.9621 15.6004 98.8197 15.8986C98.5102 16.5473 97.7331 16.8224 97.0842 16.5126C95.8386 15.9181 94.5548 15.3696 93.2674 14.8826C92.5952 14.6282 92.2559 13.8775 92.5108 13.2042C92.7654 12.5319 93.5164 12.193 94.1892 12.4474C95.5437 12.9601 96.8954 13.5372 98.2059 14.1628C98.5565 14.3303 98.7982 14.6345 98.8971 14.9812ZM88.3576 11.3088C88.4157 11.5127 88.4247 11.7336 88.3741 11.955C88.2139 12.6559 87.5159 13.0939 86.815 12.9336C85.4704 12.6259 84.0977 12.3724 82.7346 12.1799C82.0227 12.0793 81.5269 11.4199 81.6272 10.7091C81.7277 9.99702 82.3865 9.50134 83.0983 9.60196C84.5341 9.80462 85.9799 10.0717 87.3953 10.3955C87.8752 10.5055 88.2316 10.867 88.3576 11.3088ZM77.2646 10.0393C77.2973 10.154 77.3144 10.2752 77.3141 10.4004C77.3123 11.1192 76.7278 11.7007 76.0091 11.6986C74.6332 11.6951 73.2391 11.7502 71.8646 11.8629C71.1479 11.9215 70.5197 11.386 70.461 10.6717C70.4021 9.95505 70.9357 9.32648 71.6524 9.26783C73.0992 9.14933 74.567 9.09123 76.0154 9.09516C76.6092 9.09668 77.1096 9.49545 77.2646 10.0393ZM66.1712 11.2369C66.1785 11.2627 66.1849 11.2888 66.1908 11.3151C66.3455 12.0172 65.9016 12.7119 65.1995 12.8664C64.2084 13.0847 63.2125 13.3362 62.2382 13.614C61.8856 13.7145 61.5347 13.819 61.1862 13.9266C60.499 14.1387 59.77 13.7537 59.5582 13.0667C59.3299 12.3754 59.731 11.651 60.4177 11.4388C60.7846 11.3255 61.1532 11.2159 61.5243 11.11C62.5488 10.8179 63.5971 10.5533 64.6394 10.3238C65.3153 10.1748 65.984 10.5805 66.1712 11.2369Z" fill="#56C490"/>
<path d="M124.978 77.3839C125.049 77.6329 125.047 77.905 124.956 78.1677C124.724 78.8333 124.474 79.5067 124.213 80.1691C123.949 80.838 123.192 81.166 122.524 80.9019C121.855 80.6375 121.526 79.8822 121.791 79.2129C122.039 78.5837 122.277 77.944 122.497 77.3121C122.733 76.6332 123.475 76.2741 124.154 76.5104C124.57 76.6552 124.866 76.9902 124.978 77.3839Z" fill="#56C490"/>
</g>
<path d="M109.975 79.8329C110.123 79.62 110.12 79.3362 109.967 79.1265L105.603 73.1432C106.881 69.9296 107.656 66.489 107.846 62.935L114.309 59.3295C114.536 59.203 114.657 58.9466 114.611 58.6911L113.049 49.9466C113.003 49.6909 112.801 49.4926 112.544 49.4524L105.233 48.308C103.824 45.0394 101.906 42.08 99.5938 39.5079L101.616 32.3836C101.687 32.134 101.591 31.8668 101.378 31.7183L94.0904 26.6397C93.8773 26.4912 93.5936 26.4943 93.384 26.6473L87.4007 31.0111C84.1871 29.7331 80.7464 28.9583 77.1924 28.7687L73.5868 22.3054C73.4604 22.0788 73.2041 21.9573 72.9486 22.0029L64.2039 23.5653C63.9484 23.6109 63.75 23.8138 63.7099 24.0702L62.5655 31.382C59.2969 32.7906 56.3375 34.7087 53.7654 37.0206L46.6409 34.9986C46.3914 34.9279 46.1241 35.0232 45.9757 35.2361L40.8972 42.5242C40.7486 42.7372 40.7518 43.0208 40.9047 43.2306L45.2686 49.2139C43.9905 52.4275 43.2157 55.8681 43.0261 59.4221L36.5628 63.0277C36.3362 63.1542 36.2146 63.4105 36.2602 63.666L37.8227 72.4106C37.8683 72.6662 38.071 72.8646 38.3275 72.9047L45.6394 74.0491C47.0478 77.3178 48.9662 80.277 51.2781 82.8492L49.2561 89.9734C49.1852 90.2232 49.2807 90.4905 49.4936 90.6389L56.7817 95.7174C56.9946 95.8657 57.2783 95.8627 57.4881 95.7099L63.4714 91.346C66.685 92.6242 70.1257 93.3989 73.6796 93.5884L77.2852 100.052C77.4116 100.278 77.668 100.4 77.9236 100.354L86.668 98.7919C86.9235 98.7462 87.122 98.5435 87.1623 98.287L88.3067 90.9752C91.5751 89.5666 94.5345 87.6484 97.1068 85.3366L104.231 87.3584C104.481 87.4294 104.748 87.334 104.896 87.121L109.975 79.8329Z" fill="#56C490"/>
<path d="M84.0251 58.736C85.2185 62.9217 83.1928 67.4735 79.1103 69.3167C74.6226 71.3426 69.3241 69.3401 67.2981 64.8528C66.316 62.679 66.2403 60.253 67.0834 58.0225C67.9263 55.7914 69.5879 54.0221 71.7617 53.0409C76.2495 51.0149 81.548 53.0176 83.574 57.5048C83.7566 57.9093 83.9068 58.3211 84.0251 58.736ZM68.8474 63.0424C68.9396 63.3656 69.0557 63.6839 69.1964 63.9959C70.7495 67.4364 74.8128 68.9715 78.2529 67.4185C81.6935 65.865 83.2306 61.8026 81.6757 58.3617C80.1226 54.9213 76.0595 53.386 72.6192 54.9392C70.9523 55.6918 69.6786 57.048 69.032 58.7588C68.5068 60.149 68.4471 61.6386 68.8474 63.0424Z" fill="#F2F8F5"/>
<path d="M96.3783 55.0245C96.5832 55.7433 96.7533 56.4768 96.8866 57.2226C96.9287 57.4573 96.9668 57.6929 97.0013 57.9289C97.1708 59.0929 97.2475 60.2685 97.2301 61.4375C97.2299 61.4535 97.2297 61.4694 97.2295 61.4853C97.2286 61.5305 97.2277 61.5757 97.2264 61.621C97.2246 61.7091 97.2216 61.7971 97.2187 61.8849C97.2106 62.1161 97.0529 62.3068 96.8417 62.3673C96.7904 62.3819 96.7358 62.3888 96.6796 62.3868C96.3923 62.3767 96.1683 62.1349 96.178 61.848C96.2307 60.369 96.1241 58.8745 95.8612 57.406C94.559 50.1104 89.5977 44.3717 83.2059 41.7392C79.6509 40.2747 75.653 39.7714 71.5955 40.4966C70.884 40.6236 70.184 40.7856 69.4984 40.9814C64.884 42.2976 60.8958 45.1372 58.1156 49.1273C54.9217 53.7104 53.7038 59.2633 54.6864 64.7621C56.7166 76.1188 67.6006 83.6997 78.9521 81.6715C79.6521 81.5465 80.343 81.3865 81.0222 81.1925C83.9657 80.3528 86.6927 78.8783 89.0023 76.8652C89.0621 76.8132 89.1301 76.7773 89.2015 76.7571C89.3894 76.7036 89.6001 76.7585 89.7369 76.9157C89.9253 77.1332 89.9041 77.4613 89.6863 77.6506C87.2615 79.7639 84.3985 81.3123 81.3083 82.1939C80.5954 82.3974 79.8701 82.5653 79.1355 82.6968C67.2175 84.8263 55.7897 76.8592 53.6609 64.9455C52.6293 59.1723 53.908 53.3434 57.2609 48.5319C60.1796 44.3429 64.3665 41.362 69.2108 39.98C69.9307 39.7747 70.6653 39.6047 71.412 39.4711C77.1854 38.4397 83.0145 39.7181 87.826 43.0708C92.0157 45.9906 94.9968 50.179 96.3783 55.0245Z" fill="#F2F8F5"/>
<g opacity="0.3">
<path d="M44.6356 179.701C44.3063 179.922 43.8588 179.91 43.5385 179.643C42.9404 179.145 42.3493 178.623 41.7817 178.089C41.4129 177.743 41.395 177.163 41.7415 176.793C42.0873 176.423 42.6683 176.407 43.0372 176.753C43.5781 177.261 44.1414 177.76 44.712 178.235C45.1009 178.559 45.1533 179.137 44.8299 179.526C44.7723 179.595 44.7067 179.653 44.6356 179.701Z" fill="#56C490"/>
<path d="M39.6529 174.71C39.2671 174.969 38.7402 174.898 38.4377 174.533C37.5821 173.502 36.7698 172.415 36.0238 171.303C35.8668 171.069 35.7119 170.832 35.5586 170.593C35.2856 170.166 35.4429 169.6 35.8357 169.326C36.262 169.053 36.8289 169.177 37.1021 169.603C37.2484 169.831 37.3963 170.058 37.5464 170.281C38.2581 171.342 39.0328 172.379 39.8483 173.363C40.1718 173.753 40.1177 174.33 39.7285 174.654C39.7036 174.674 39.6785 174.693 39.6529 174.71ZM34.5192 166.695C34.4833 166.719 34.4449 166.742 34.405 166.761C33.9482 166.98 33.4006 166.788 33.1812 166.331C32.4774 164.867 31.8583 163.347 31.3416 161.812C31.1797 161.332 31.4406 160.812 31.9176 160.651C32.3978 160.489 32.9171 160.747 33.079 161.227C33.5721 162.691 34.1628 164.141 34.8337 165.538C35.0335 165.953 34.8917 166.445 34.5192 166.695ZM31.4826 157.674C31.386 157.739 31.2753 157.786 31.1545 157.812C30.6585 157.912 30.1746 157.591 30.0738 157.095C29.7514 155.506 29.5244 153.879 29.401 152.259C29.3622 151.754 29.7391 151.315 30.2454 151.276C30.7498 151.237 31.1904 151.615 31.2291 152.12C31.3471 153.664 31.5628 155.215 31.8709 156.731C31.9465 157.106 31.7818 157.474 31.4826 157.674ZM30.7563 148.183C30.5987 148.289 30.4072 148.346 30.2033 148.337C29.6977 148.313 29.3066 147.884 29.3306 147.378C29.4076 145.755 29.5861 144.123 29.8613 142.526C29.9478 142.027 30.4229 141.693 30.9205 141.779C31.4193 141.865 31.754 142.339 31.6682 142.838C31.4055 144.36 31.2353 145.917 31.1621 147.465C31.1478 147.766 30.9894 148.027 30.7563 148.183ZM32.3703 138.803C32.1502 138.95 31.8678 139.002 31.5941 138.919C31.1097 138.773 30.8357 138.261 30.9814 137.777C31.4507 136.223 32.0199 134.684 32.674 133.202C32.8777 132.737 33.4193 132.528 33.8826 132.733C34.3459 132.937 34.5559 133.479 34.3515 133.941C33.7276 135.356 33.1844 136.824 32.7371 138.306C32.6732 138.517 32.5401 138.689 32.3703 138.803ZM36.2116 130.099C35.9265 130.29 35.5446 130.312 35.23 130.125C34.7957 129.865 34.6543 129.303 34.9135 128.868C35.7461 127.475 36.6736 126.121 37.6703 124.844C37.984 124.445 38.5583 124.375 38.9573 124.686C39.3563 124.997 39.4271 125.574 39.1157 125.972C38.1651 127.19 37.2812 128.48 36.4876 129.808C36.4158 129.929 36.3205 130.026 36.2116 130.099ZM42.0626 122.601C41.7058 122.84 41.2182 122.802 40.9038 122.487C40.5464 122.128 40.5472 121.548 40.9055 121.19C42.0505 120.048 43.2825 118.963 44.567 117.964C44.9729 117.66 45.5437 117.727 45.8538 118.126C46.1645 118.526 46.092 119.102 45.6926 119.413C44.4666 120.364 43.2918 121.399 42.2 122.488C42.1572 122.531 42.1109 122.569 42.0626 122.601ZM53.8173 114.576C53.7735 114.606 53.726 114.632 53.6755 114.654C52.4525 115.193 51.2376 115.808 50.0643 116.483C49.886 116.585 49.7121 116.686 49.5401 116.79C49.105 117.049 48.5426 116.908 48.2827 116.473C48.0216 116.038 48.1586 115.461 48.5985 115.216C48.7827 115.106 48.967 114.998 49.154 114.892C50.38 114.187 51.6536 113.542 52.9362 112.977C53.3997 112.773 53.9403 112.982 54.1445 113.446C54.3266 113.858 54.1798 114.333 53.8173 114.576Z" fill="#56C490"/>
</g>
<g opacity="0.3">
<path d="M91.385 181.792C90.9694 182.07 90.4052 181.964 90.1199 181.55C89.8325 181.134 89.9371 180.563 90.3539 180.276C91.6087 179.41 92.8211 178.461 93.9577 177.454C94.3373 177.124 94.916 177.153 95.2519 177.532C95.5878 177.912 95.5521 178.491 95.1736 178.827C93.9811 179.882 92.7104 180.878 91.3952 181.785C91.3921 181.787 91.3882 181.789 91.385 181.792ZM87.3714 184.218C87.3438 184.236 87.3157 184.253 87.2859 184.268C85.8734 185.011 84.4011 185.675 82.9106 186.243C82.4372 186.422 81.908 186.186 81.728 185.712C81.5472 185.239 81.7882 184.709 82.2579 184.529C83.6804 183.988 85.085 183.354 86.4333 182.646C86.8811 182.41 87.4354 182.582 87.6708 183.03C87.8911 183.45 87.755 183.96 87.3714 184.218ZM98.39 175.584C98.0523 175.81 97.5923 175.791 97.273 175.509C96.894 175.175 96.8574 174.596 97.1923 174.216C98.2007 173.072 99.1481 171.858 100.008 170.605C100.297 170.188 100.865 170.082 101.283 170.369C101.7 170.655 101.806 171.226 101.519 171.644C100.618 172.956 99.6246 174.23 98.5671 175.428C98.5135 175.489 98.4539 175.541 98.39 175.584ZM78.6168 187.544C78.5302 187.602 78.4322 187.646 78.325 187.673C76.7742 188.054 75.1843 188.344 73.5997 188.532C73.0969 188.593 72.6408 188.233 72.5806 187.731C72.5214 187.229 72.8803 186.773 73.3823 186.712C74.8933 186.532 76.4087 186.256 77.8874 185.892C78.3789 185.772 78.8758 186.072 78.9964 186.564C79.0907 186.948 78.9275 187.335 78.6168 187.544ZM103.686 167.867C103.417 168.048 103.059 168.08 102.752 167.92C102.302 167.686 102.128 167.132 102.361 166.683C103.064 165.334 103.692 163.928 104.226 162.503C104.404 162.028 104.932 161.788 105.406 161.966C105.88 162.144 106.121 162.673 105.943 163.147C105.382 164.641 104.725 166.115 103.988 167.53C103.914 167.671 103.809 167.785 103.686 167.867ZM106.977 159.105C106.77 159.244 106.509 159.298 106.249 159.235C105.757 159.116 105.455 158.62 105.575 158.128C105.934 156.646 106.208 155.129 106.386 153.621C106.446 153.118 106.902 152.758 107.404 152.818C107.907 152.878 108.266 153.333 108.207 153.836C108.019 155.418 107.733 157.007 107.357 158.56C107.3 158.792 107.16 158.982 106.977 159.105ZM108.073 149.806C107.928 149.904 107.755 149.961 107.566 149.961C107.06 149.963 106.648 149.554 106.646 149.048C106.642 147.523 106.543 145.985 106.353 144.478C106.29 143.977 106.645 143.517 107.148 143.454C107.65 143.391 108.108 143.747 108.172 144.249C108.371 145.83 108.475 147.443 108.48 149.042C108.481 149.36 108.319 149.641 108.073 149.806Z" fill="#56C490"/>
<path d="M69.2759 188.657C69.1291 188.756 68.9524 188.813 68.7621 188.812C67.9776 188.809 67.1896 188.783 66.4198 188.734C65.9147 188.702 65.5306 188.267 65.5624 187.761C65.5956 187.257 66.0301 186.873 66.5353 186.904C67.2694 186.951 68.0213 186.976 68.77 186.979C69.2764 186.981 69.6851 187.393 69.6828 187.899C69.6811 188.215 69.5202 188.493 69.2759 188.657Z" fill="#56C490"/>
</g>
<path d="M63.3121 178.398C63.5015 178.456 63.7067 178.387 63.823 178.227L67.1402 173.654C69.7728 173.826 72.452 173.58 75.0761 172.883L79.2115 176.726C79.3565 176.861 79.5711 176.889 79.7459 176.796L85.7254 173.608C85.9001 173.514 85.9965 173.321 85.9654 173.125L85.078 167.549C87.1193 165.759 88.8165 163.671 90.1402 161.389L95.7859 161.183C95.9837 161.175 96.1553 161.043 96.213 160.854L98.1865 154.371C98.2441 154.182 98.1752 153.977 98.015 153.86L93.442 150.543C93.6145 147.91 93.3685 145.231 92.671 142.607L96.5147 138.472C96.6496 138.327 96.6775 138.112 96.5844 137.937L93.3959 131.958C93.3027 131.783 93.1088 131.687 92.9134 131.718L87.3377 132.605C85.5474 130.564 83.4598 128.867 81.1777 127.543L80.9712 121.897C80.9639 121.7 80.832 121.528 80.6426 121.47L74.1598 119.497C73.9705 119.439 73.7653 119.508 73.649 119.668L70.3317 124.241C67.699 124.069 65.0199 124.315 62.3959 125.012L58.2603 121.168C58.1153 121.034 57.9008 121.006 57.7259 121.099L51.7463 124.287C51.5716 124.38 51.4753 124.574 51.5064 124.77L52.3938 130.346C50.3524 132.136 48.6553 134.223 47.3315 136.506L41.6859 136.712C41.488 136.719 41.3164 136.851 41.2588 137.041L39.2853 143.523C39.2277 143.713 39.2964 143.918 39.4567 144.034L44.0296 147.352C43.8571 149.984 44.1032 152.663 44.8007 155.288L40.9569 159.423C40.8221 159.568 40.7941 159.783 40.8874 159.957L44.0758 165.937C44.1692 166.112 44.3628 166.208 44.5583 166.177L50.134 165.29C51.9244 167.331 54.0118 169.028 56.2939 170.352L56.5004 175.997C56.5076 176.195 56.6396 176.367 56.8291 176.424L63.3121 178.398Z" fill="#56C490"/>
<path d="M72.5861 154.716C71.358 155.54 69.9042 155.947 68.4005 155.875C66.5506 155.785 64.8462 154.981 63.6012 153.609C61.0317 150.78 61.2435 146.386 64.0737 143.815C66.9129 141.247 71.2991 141.458 73.8688 144.288C75.1141 145.66 75.7506 147.434 75.661 149.283C75.5719 151.133 74.7676 152.838 73.3954 154.083C73.1391 154.315 72.8684 154.527 72.5861 154.716ZM65.8961 144.711C65.6913 144.849 65.4943 145.002 65.3061 145.173C63.2244 147.064 63.0686 150.295 64.959 152.378C65.8745 153.386 67.1285 153.978 68.4889 154.044C69.8501 154.109 71.1539 153.64 72.1638 152.726C73.1723 151.81 73.7643 150.556 73.8301 149.195C73.8957 147.834 73.4274 146.529 72.5113 145.52C70.7918 143.626 67.9609 143.326 65.8961 144.711Z" fill="#F2F8F5"/>
<path d="M78.3954 163.139C77.9137 163.462 77.4117 163.763 76.8896 164.042C75.8525 164.596 74.758 165.044 73.6336 165.376C73.583 165.391 73.5323 165.405 73.4818 165.42C73.09 165.532 72.6853 165.371 72.4695 165.05C72.4171 164.972 72.376 164.884 72.349 164.789C72.2101 164.302 72.4941 163.797 72.9795 163.657C74.0322 163.357 75.0571 162.942 76.0262 162.425L76.0267 162.425C76.08 162.397 76.1331 162.367 76.1855 162.339C78.468 161.093 80.3537 159.326 81.727 157.198C82.4723 156.042 83.0664 154.779 83.4893 153.434C83.4928 153.423 83.4962 153.412 83.4996 153.401C83.5098 153.367 83.5206 153.334 83.5304 153.301C84.7307 149.357 84.324 145.181 82.384 141.543C82.1333 141.072 81.8605 140.618 81.5673 140.181C79.5941 137.24 76.6935 135.085 73.2596 134.039C69.3154 132.839 65.1402 133.247 61.5027 135.186C57.8681 137.126 55.2002 140.367 53.9989 144.31C52.7984 148.255 53.2053 152.43 55.1453 156.068C55.3918 156.531 55.6615 156.98 55.9517 157.412C57.2108 159.289 58.8656 160.868 60.8039 162.032C60.9233 162.104 61.0205 162.198 61.093 162.307C61.2846 162.592 61.3068 162.975 61.1178 163.29C60.8559 163.723 60.2944 163.865 59.8595 163.603C57.6906 162.301 55.8385 160.533 54.43 158.435C54.105 157.951 53.8034 157.449 53.5273 156.931C51.3568 152.861 50.9015 148.189 52.2451 143.776C53.5887 139.364 56.5659 135.737 60.6396 133.569C64.7096 131.398 69.3807 130.942 73.7936 132.286C77.6353 133.455 80.8802 135.866 83.0877 139.157C83.4153 139.645 83.721 140.154 84.0017 140.68C88.2033 148.56 85.658 158.268 78.3954 163.139Z" fill="#F2F8F5"/>
<path d="M242.83 305.688L97.0884 306.315C85.0992 306.367 75.2579 297.806 74.9024 287.016C73.3236 239.09 69.3932 99.1971 69.9438 53.5659C70.0384 45.723 76.9807 39.3401 85.6864 39.0764C119.54 38.0509 200.951 36.2716 238.772 41.397C246.737 42.4764 252.715 48.5007 253.004 55.7493C254.603 95.9041 259.779 245.861 258.838 291.473C258.676 299.339 251.567 305.651 242.83 305.688Z" fill="url(#paint1_linear_147_3435)"/>
<path d="M237.141 293.91L101.584 294.493C94.7312 294.523 89.1263 289.662 88.9976 283.579L84.6382 64.7572C84.5106 58.7261 89.955 53.7585 96.749 53.7068L231.093 52.7178C235.951 52.6808 239.947 56.1 240.083 60.4113L246.772 285.073C246.925 289.895 242.575 293.886 237.141 293.91Z" fill="url(#paint2_linear_147_3435)"/>
<path d="M161.971 50.037C163.495 49.406 164.218 47.6595 163.587 46.1361C162.956 44.6127 161.209 43.8892 159.686 44.5203C158.163 45.1513 157.439 46.8978 158.07 48.4212C158.701 49.9446 160.448 50.668 161.971 50.037Z" fill="white"/>
<path d="M277.411 283.306H104.449C102.749 283.306 101.359 281.915 101.359 280.216V265.848C101.359 264.149 102.749 262.758 104.449 262.758H277.411C279.11 262.758 280.501 264.149 280.501 265.848V280.216C280.501 281.915 279.11 283.306 277.411 283.306Z" fill="url(#paint3_linear_147_3435)"/>
<path d="M122.183 256.349V228.871H127.295V251.876H134.38V256.349L122.183 256.349Z" fill="#F2F8F5"/>
<path d="M156.558 242.572C156.558 247.121 155.706 250.616 154.002 253.059C152.298 255.503 149.861 256.725 146.691 256.725C143.508 256.725 141.065 255.506 139.361 253.069C137.657 250.632 136.805 247.12 136.805 242.534C136.805 237.986 137.657 234.499 139.361 232.075C141.065 229.65 143.521 228.438 146.729 228.438C149.899 228.438 152.33 229.657 154.021 232.094C155.713 234.531 156.558 238.024 156.558 242.572ZM142.03 242.572C142.03 245.705 142.425 248.091 143.214 249.733C144.003 251.375 145.162 252.195 146.691 252.195C149.773 252.195 151.315 248.988 151.315 242.572C151.315 236.157 149.786 232.949 146.729 232.949C145.175 232.949 144.003 233.766 143.214 235.401C142.425 237.037 142.03 239.427 142.03 242.572Z" fill="#F2F8F5"/>
<path d="M173.568 256.346L171.989 249.411H164.828L163.249 256.346H158.137L164.941 228.755H171.876L178.699 256.346H173.568ZM171.031 244.881L169.565 238.491C169.477 238.103 169.279 237.128 168.973 235.568C168.665 234.008 168.481 232.965 168.418 232.439C168.255 233.517 168.048 234.704 167.798 236.001C167.547 237.298 166.896 240.258 165.843 244.881H171.031Z" fill="#F2F8F5"/>
<path d="M198.603 242.347C198.603 246.883 197.678 250.351 195.83 252.75C193.982 255.149 191.323 256.349 187.852 256.349H181.123V228.871H188.472C191.667 228.871 194.154 230.052 195.934 232.413C197.713 234.776 198.603 238.087 198.603 242.347ZM193.359 242.497C193.359 236.357 191.667 233.288 188.284 233.288H186.236V251.876H187.89C189.756 251.876 191.135 251.096 192.025 249.536C192.914 247.976 193.359 245.63 193.359 242.497Z" fill="#F2F8F5"/>
<path d="M203.528 256.349V228.871H208.339V256.349H203.528Z" fill="#F2F8F5"/>
<path d="M233.393 256.349H227.153L218.658 236.445H218.413C218.726 237.961 218.883 239.59 218.883 241.332V256.349H214.147V228.871H220.424L228.844 248.568H229.051C228.813 247.252 228.694 245.686 228.694 243.869V228.871H233.393V256.349Z" fill="#F2F8F5"/>
<path d="M246.55 241.104H254.951V255.2C252.571 256.215 250.039 256.723 247.358 256.723C244.163 256.723 241.704 255.508 239.981 253.077C238.258 250.646 237.397 247.144 237.397 242.57C237.397 238.16 238.383 234.708 240.357 232.214C242.33 229.721 245.09 228.474 248.636 228.474C250.829 228.474 252.921 229.038 254.914 230.165L253.297 234.338C251.743 233.436 250.29 232.985 248.937 232.985C246.994 232.985 245.457 233.853 244.323 235.588C243.188 237.323 242.622 239.688 242.622 242.683C242.622 245.765 243.032 248.127 243.853 249.769C244.673 251.41 245.867 252.231 247.433 252.231C248.26 252.231 249.1 252.125 249.952 251.911V245.615H246.55L246.55 241.104Z" fill="#F2F8F5"/>
<path d="M164.408 205.062C200.82 205.062 230.337 175.545 230.337 139.133C230.337 102.722 200.82 73.2043 164.408 73.2043C127.997 73.2043 98.4795 102.722 98.4795 139.133C98.4795 175.545 127.997 205.062 164.408 205.062Z" fill="#1E9A5F"/>
<path d="M164.409 201.246C198.711 201.246 226.519 173.438 226.519 139.135C226.519 104.832 198.711 77.0244 164.409 77.0244C130.106 77.0244 102.298 104.832 102.298 139.135C102.298 173.438 130.106 201.246 164.409 201.246Z" fill="#F2F8F5"/>
<path opacity="0.5" d="M168.807 136.107L221.391 134.676C218.152 103.357 198.798 83.7853 168.275 80.644L168.807 136.107Z" fill="#1E9A5F"/>
<path d="M158.995 192.732C155.571 192.437 152.145 191.792 148.761 190.782C121.266 182.572 105.892 153.037 114.804 125.163C119.21 111.383 128.74 100.283 141.581 93.9146C143.15 93.1359 145.05 93.7851 145.825 95.3638C146.598 96.9417 145.955 98.8526 144.388 99.6329C133.128 105.237 124.778 114.985 120.919 127.074C113.117 151.519 126.579 177.433 150.687 184.672C168.177 189.925 187.007 184.049 198.726 169.813C199.83 168.472 201.773 168.279 203.065 169.381C204.355 170.482 204.509 172.461 203.407 173.802C192.353 187.259 175.721 194.172 158.995 192.732Z" fill="#1E9A5F"/>
<path d="M135.415 111.689L141.27 97.5398L127.168 91.6506L135.653 88.1536L149.688 94.045L143.865 108.156L135.415 111.689Z" fill="#1E9A5F"/>
<path d="M167.357 138.416C167.357 140.518 165.732 142.256 163.725 142.299C161.717 142.341 160.086 140.668 160.086 138.562C160.086 136.455 161.717 134.717 163.725 134.679C165.732 134.641 167.357 136.315 167.357 138.416Z" fill="url(#paint4_linear_147_3435)"/>
<path d="M163.673 110.91C162.891 110.922 162.309 111.335 162.309 112.544L162.257 136.476C162.257 137.685 162.891 138.647 163.673 138.624C164.454 138.601 165.087 137.603 165.087 136.396L165.037 112.505C165.037 111.298 164.454 110.897 163.673 110.91Z" fill="url(#paint5_linear_147_3435)"/>
<path d="M163.526 138.996C163.107 138.506 162.389 138.478 161.921 138.935L135.463 165.285C134.986 165.75 134.946 166.526 135.374 167.016C135.801 167.507 136.534 167.527 137.011 167.061L163.439 140.709C163.906 140.253 163.945 139.486 163.526 138.996Z" fill="url(#paint6_linear_147_3435)"/>
<path d="M280.329 94.081L279.765 93.5911C279.749 93.5772 279.719 93.5491 279.674 93.5078C279.518 93.3617 279.192 93.0569 278.716 92.6648C278.588 92.5586 278.56 92.3563 278.655 92.2121C278.75 92.0679 278.931 92.0375 279.059 92.1435C279.262 92.3108 279.438 92.4626 279.587 92.5934C279.624 92.4964 279.703 92.4212 279.803 92.4018C279.96 92.3708 280.11 92.4885 280.137 92.6649C280.2 93.0689 280.228 93.2897 280.228 93.2897L280.329 94.081ZM279.619 90.9256C279.596 90.9399 279.57 90.9506 279.543 90.9573C279.387 90.9959 279.233 90.8861 279.198 90.7118C279.064 90.0363 278.915 89.3465 278.754 88.663C278.714 88.4902 278.805 88.313 278.961 88.2679C279.115 88.2227 279.274 88.326 279.314 88.4987C279.476 89.1907 279.627 89.8877 279.763 90.5709C279.791 90.715 279.729 90.8582 279.619 90.9256ZM277.452 91.5096C277.364 91.5629 277.255 91.5641 277.164 91.5026C276.619 91.1347 276.066 90.8022 275.522 90.5154C275.377 90.4391 275.316 90.2464 275.383 90.0845C275.452 89.9239 275.624 89.8534 275.768 89.9297C276.331 90.2262 276.901 90.5687 277.462 90.9482C277.599 91.0404 277.643 91.2397 277.561 91.3927C277.533 91.4434 277.495 91.483 277.452 91.5096ZM274.026 89.7209C273.959 89.7621 273.877 89.7733 273.798 89.7447C273.192 89.5229 272.589 89.3572 272.005 89.2517C271.848 89.2234 271.74 89.057 271.766 88.8807C271.792 88.7039 271.94 88.5841 272.098 88.6128C272.71 88.7236 273.343 88.8974 273.977 89.1293C274.129 89.185 274.212 89.3676 274.163 89.5372C274.139 89.6191 274.089 89.6827 274.026 89.7209ZM278.661 86.8248C278.643 86.8354 278.625 86.8439 278.605 86.8508C278.452 86.9022 278.291 86.8051 278.245 86.6339C278.064 85.9615 277.871 85.2866 277.67 84.6275C277.619 84.4586 277.7 84.2747 277.85 84.2168C278.001 84.1589 278.166 84.2494 278.217 84.4187C278.42 85.0849 278.616 85.7674 278.799 86.4476C278.839 86.5969 278.778 86.7531 278.661 86.8248ZM270.305 89.073C270.267 89.0966 270.222 89.1104 270.176 89.1121C269.737 89.1268 269.302 89.1789 268.882 89.2666C268.695 89.3058 268.513 89.3401 268.336 89.3701C268.178 89.3968 268.031 89.275 268.007 89.0983C267.983 88.9218 268.091 88.7566 268.25 88.7301C268.42 88.7013 268.595 88.6682 268.776 88.6306C269.225 88.5366 269.69 88.4808 270.158 88.4652C270.318 88.4596 270.451 88.6001 270.456 88.779C270.459 88.905 270.398 89.0165 270.305 89.073ZM263.769 92.4739L263.258 92.772C263.033 92.3787 262.709 92.1355 262.176 91.9587C262.023 91.9079 261.936 91.7281 261.981 91.5565C262.026 91.3853 262.187 91.2872 262.341 91.3381C262.763 91.4783 263.091 91.6629 263.352 91.913C263.473 91.9042 263.59 91.9819 263.638 92.1145L263.769 92.4739ZM266.547 89.4875C266.505 89.5136 266.456 89.5277 266.405 89.5267C265.699 89.5141 265.046 89.4123 264.463 89.2249C264.31 89.1753 264.221 88.9962 264.265 88.8241C264.309 88.6522 264.469 88.5534 264.623 88.6024C265.157 88.7746 265.759 88.8675 266.414 88.8794C266.573 88.8824 266.701 89.0296 266.698 89.2084C266.697 89.3291 266.636 89.4335 266.547 89.4875ZM277.437 82.815C277.426 82.8218 277.414 82.8274 277.402 82.833C277.253 82.8971 277.086 82.8141 277.028 82.6473C276.801 81.9883 276.562 81.3326 276.316 80.6989C276.252 80.5347 276.32 80.3457 276.466 80.2731C276.613 80.2022 276.783 80.2774 276.847 80.4411C277.095 81.0832 277.338 81.747 277.568 82.4145C277.62 82.5675 277.562 82.7384 277.437 82.815ZM262.808 90.5455C262.797 90.5521 262.786 90.5576 262.774 90.5629C262.625 90.6279 262.457 90.5451 262.399 90.3787C262.132 89.6097 261.907 88.9383 261.729 88.3828C261.676 88.2144 261.756 88.0309 261.904 87.9689C262.055 87.9087 262.22 87.9962 262.274 88.1645C262.45 88.7145 262.673 89.3808 262.938 90.144C262.992 90.2975 262.933 90.4687 262.808 90.5455ZM260.54 91.5388C260.486 91.5721 260.422 91.5862 260.356 91.5742C259.795 91.4723 259.179 91.351 258.478 91.1569C258.323 91.114 258.228 90.9386 258.266 90.7648C258.305 90.5915 258.462 90.4862 258.617 90.5285C259.298 90.7172 259.899 90.8352 260.448 90.9352C260.606 90.9639 260.713 91.1303 260.687 91.3066C260.672 91.4091 260.616 91.4926 260.54 91.5388ZM263.004 88.2512C262.905 88.3116 262.779 88.3036 262.685 88.22C262.135 87.7298 261.803 87.2017 261.605 86.8859C261.543 86.7871 261.493 86.7067 261.451 86.6529C261.332 86.533 261.31 86.3132 261.418 86.181C261.524 86.0487 261.695 86.0227 261.813 86.143C261.835 86.1645 261.858 86.1914 261.884 86.2241C261.937 86.2912 262.001 86.3904 262.078 86.5137C262.27 86.8193 262.56 87.2813 263.046 87.7136C263.171 87.8249 263.191 88.0286 263.092 88.1684C263.067 88.2033 263.037 88.231 263.004 88.2512ZM275.927 78.9293C275.924 78.9315 275.92 78.9339 275.916 78.9363C275.772 79.0148 275.599 78.9482 275.529 78.7878C275.282 78.2237 275.025 77.6667 274.765 77.1325L274.662 76.9225C274.585 76.766 274.636 76.5691 274.776 76.4828L274.777 76.4823C274.917 76.3968 275.091 76.4537 275.168 76.6097L275.273 76.8226C275.537 77.3653 275.798 77.9307 276.048 78.5032C276.117 78.6592 276.062 78.8469 275.927 78.9293ZM256.879 90.5063C256.808 90.5494 256.722 90.5598 256.641 90.5261C256.056 90.2847 255.462 89.9991 254.877 89.6778C254.733 89.599 254.674 89.4051 254.745 89.2444C254.815 89.0844 254.988 89.0181 255.132 89.0964C255.699 89.4081 256.274 89.6848 256.841 89.9186C256.99 89.9802 257.067 90.1667 257.012 90.3342C256.987 90.4109 256.938 90.4701 256.879 90.5063ZM253.486 88.6545C253.398 88.7079 253.288 88.709 253.197 88.647C253.081 88.5684 252.964 88.4876 252.846 88.4047C252.415 88.1017 251.999 87.7714 251.61 87.422C251.485 87.3106 251.465 87.1068 251.564 86.9672C251.666 86.8277 251.846 86.8052 251.971 86.9168C252.344 87.2506 252.741 87.5667 253.154 87.8564C253.269 87.9377 253.383 88.0164 253.497 88.0935C253.633 88.1861 253.677 88.3851 253.594 88.538C253.567 88.5886 253.529 88.6281 253.486 88.6545ZM274.093 75.226C273.96 75.3071 273.792 75.2596 273.71 75.1139C273.373 74.513 273.022 73.9269 272.666 73.3719C272.573 73.2271 272.602 73.0247 272.732 72.9206C272.862 72.8104 273.042 72.8498 273.135 72.9946C273.498 73.5604 273.856 74.1576 274.2 74.7697C274.285 74.921 274.244 75.1206 274.109 75.216C274.103 75.2196 274.098 75.2228 274.093 75.226ZM250.546 86.0114C250.432 86.0808 250.287 86.0579 250.195 85.9463C249.76 85.4187 249.357 84.8469 248.996 84.2473C248.907 84.0992 248.941 83.8982 249.074 83.7982C249.211 83.7025 249.386 83.7375 249.475 83.8858C249.82 84.4581 250.205 85.0037 250.62 85.5076C250.728 85.639 250.721 85.8438 250.603 85.965C250.586 85.9834 250.566 85.999 250.546 86.0114ZM271.883 71.7909C271.764 71.8635 271.612 71.8343 271.522 71.7129C271.12 71.1693 270.7 70.6449 270.275 70.1541C270.164 70.0258 270.167 69.8206 270.282 69.6963C270.396 69.5735 270.579 69.575 270.69 69.7036C271.125 70.2062 271.555 70.7433 271.968 71.2997C272.07 71.4373 272.053 71.6413 271.929 71.7555C271.915 71.7692 271.899 71.781 271.883 71.7909ZM248.435 82.5134C248.431 82.516 248.427 82.5187 248.422 82.5211C248.278 82.5986 248.105 82.5306 248.036 82.3697C247.76 81.7266 247.521 81.0503 247.324 80.3604C247.276 80.1896 247.36 80.0065 247.512 79.9536C247.664 79.8993 247.827 79.9933 247.875 80.1634C248.064 80.8253 248.293 81.4735 248.558 82.0892C248.624 82.2452 248.57 82.4314 248.435 82.5134ZM269.249 68.7577C269.146 68.8205 269.015 68.8088 268.921 68.718C268.447 68.258 267.955 67.8238 267.458 67.4272C267.328 67.3232 267.298 67.1212 267.39 66.9756C267.483 66.8303 267.664 66.7966 267.794 66.8999C268.305 67.3085 268.812 67.7553 269.3 68.2288C269.42 68.346 269.433 68.5505 269.329 68.6854C269.306 68.7156 269.278 68.7397 269.249 68.7577ZM247.288 78.49C247.261 78.5066 247.231 78.5183 247.199 78.5243C247.041 78.5549 246.892 78.4366 246.865 78.2603C246.792 77.7882 246.632 76.4736 246.74 76.0191L246.735 76.0179L246.94 75.1316C246.98 74.9587 247.137 74.854 247.292 74.8992C247.447 74.9439 247.54 75.1204 247.5 75.2932L247.289 76.2079C247.273 76.3688 247.272 77.0907 247.435 78.1509C247.456 78.2908 247.394 78.4255 247.288 78.49ZM266.171 66.309C266.086 66.3606 265.98 66.3635 265.89 66.306C265.349 65.9623 264.789 65.6499 264.227 65.3773C264.08 65.3061 264.013 65.116 264.076 64.952C264.14 64.7881 264.31 64.7122 264.456 64.783C265.038 65.0649 265.616 65.3876 266.175 65.7433C266.314 65.8316 266.363 66.0289 266.284 66.1845C266.256 66.2391 266.217 66.2809 266.171 66.309ZM262.707 64.6319C262.641 64.6721 262.561 64.6841 262.484 64.6574C261.897 64.4556 261.291 64.2868 260.681 64.156C260.524 64.1227 260.421 63.9531 260.451 63.7773C260.481 63.602 260.633 63.4868 260.789 63.5205C261.42 63.6557 262.047 63.8299 262.654 64.0383C262.806 64.0912 262.892 64.272 262.845 64.4431C262.822 64.5269 262.771 64.5929 262.707 64.6319ZM247.831 73.446C247.769 73.4839 247.695 73.4969 247.62 73.4752C247.466 73.4305 247.373 73.254 247.413 73.0808L247.886 71.0305C247.926 70.8572 248.084 70.7527 248.239 70.798C248.393 70.8427 248.486 71.0192 248.446 71.192L247.973 73.2425C247.952 73.3331 247.899 73.4045 247.831 73.446ZM259.001 63.8348C258.953 63.8642 258.897 63.8785 258.838 63.8728C258.234 63.8152 257.608 63.7898 256.978 63.7976C256.818 63.7994 256.688 63.6563 256.686 63.4775C256.684 63.2982 256.812 63.1524 256.972 63.1503C257.62 63.1424 258.264 63.1685 258.887 63.2277C259.047 63.2431 259.165 63.3997 259.151 63.5779C259.142 63.6902 259.084 63.7845 259.001 63.8348ZM248.778 69.3446C248.716 69.3826 248.641 69.3956 248.567 69.3739C248.413 69.3292 248.32 69.1527 248.36 68.9799L248.833 66.9294C248.873 66.7559 249.031 66.6518 249.185 66.6968C249.34 66.7415 249.433 66.918 249.393 67.0908L248.92 69.1418C248.899 69.2318 248.846 69.3033 248.778 69.3446ZM255.227 63.8782C255.194 63.8982 255.157 63.9114 255.118 63.9157C254.514 63.9835 253.892 64.0813 253.269 64.207C253.112 64.2387 252.961 64.1218 252.933 63.9459C252.905 63.77 253.008 63.6003 253.166 63.57C253.804 63.4412 254.442 63.3411 255.06 63.2715C255.219 63.2536 255.361 63.3835 255.376 63.5614C255.388 63.6948 255.326 63.8177 255.227 63.8782ZM251.51 64.6234C251.489 64.636 251.466 64.6462 251.442 64.6528C250.904 64.8059 250.353 64.9818 249.801 65.1766C249.731 65.2631 249.622 65.3043 249.514 65.2731C249.359 65.2281 249.266 65.0516 249.306 64.8787L249.358 64.655L249.51 64.6008C250.111 64.3858 250.713 64.1922 251.3 64.0253C251.454 63.9813 251.612 64.0861 251.651 64.2594C251.684 64.406 251.623 64.5543 251.51 64.6234Z" fill="url(#paint7_linear_147_3435)"/>
<path d="M248.507 71.7022C248.507 71.7022 249.2 81.0557 255.389 81.2268C261.578 81.398 267.86 79.8511 269.879 82.2023C269.879 82.2023 265.446 64.5329 249.558 68.607L248.507 71.7022Z" fill="url(#paint8_linear_147_3435)"/>
<path d="M231.015 74.4014C231.015 74.4014 228.78 83.2698 230.784 85.4424C232.691 87.5088 250.456 93.8187 252.185 94.4295C252.263 94.457 252.344 94.412 252.374 94.3274C252.627 93.6275 252.567 92.8369 252.211 92.1956C250.492 89.0982 245.29 79.899 242.92 77.6822C240.058 75.0052 231.015 74.4014 231.015 74.4014Z" fill="url(#paint9_linear_147_3435)"/>
<path opacity="0.68" d="M246.232 91.008C246.187 91.0351 246.133 91.0424 246.081 91.0227C245.983 90.9861 236.308 87.3421 232.197 85.5915C231.465 85.2801 230.966 84.5145 230.925 83.6416C230.846 81.9592 230.827 79.4339 231.191 76.9554C231.207 76.84 231.304 76.7615 231.408 76.7807C231.511 76.7998 231.581 76.9088 231.564 77.0242C231.188 79.5941 231.239 82.2592 231.303 83.6191C231.336 84.3248 231.74 84.9438 232.332 85.1955C236.436 86.9431 246.104 90.5848 246.202 90.6212C246.301 90.6583 246.354 90.7784 246.321 90.8896C246.305 90.9422 246.272 90.9833 246.232 91.008Z" fill="white"/>
<path d="M238.18 54.5542C238.18 54.5542 242.077 46.4371 244.867 46.4334C247.521 46.4299 264.215 55.7068 265.837 56.6122C265.91 56.6528 265.941 56.7482 265.91 56.8328C265.657 57.5327 265.124 58.0546 264.47 58.2392C261.311 59.1305 251.859 61.7012 248.779 61.4526C245.059 61.1522 238.18 54.5542 238.18 54.5542Z" fill="url(#paint10_linear_147_3435)"/>
<path opacity="0.68" d="M259.341 54.6925C259.29 54.7239 259.226 54.7283 259.169 54.6981C259.077 54.6486 249.862 49.7486 245.826 47.8141C245.244 47.5347 244.569 47.6654 244.107 48.1475C243.217 49.0757 241.526 50.9529 240.202 53.0943C240.143 53.1917 240.025 53.2142 239.939 53.1479C239.853 53.0815 239.831 52.9495 239.891 52.8533C241.235 50.6792 242.948 48.7775 243.849 47.8373C244.421 47.2419 245.256 47.0798 245.975 47.4244C250.018 49.3622 259.239 54.2662 259.332 54.3151C259.426 54.3654 259.466 54.4917 259.422 54.5972C259.404 54.6394 259.375 54.6719 259.341 54.6925Z" fill="white"/>
<path d="M205.421 62.6981C208.484 65.5823 212.239 68.3161 216.781 70.3875C230.882 76.8191 242.24 78.8164 245.483 79.2875C246.069 79.3729 246.646 79.0855 246.994 78.5501C249.738 74.3319 251.465 69.6479 252.18 64.5008C252.315 63.5327 251.948 62.5606 251.241 61.9826C248.173 59.4748 238.975 52.4408 225.45 46.3743C220.932 44.3477 216.567 43.3923 212.598 43.0774C207.815 50.0249 206.137 58.0763 205.421 62.6981Z" fill="url(#paint11_linear_147_3435)"/>
<path d="M212.596 43.0745C203.83 42.3789 197 44.8112 194.753 45.7453C194.313 45.9278 194.11 46.4905 194.313 46.9634C195.346 49.3747 198.729 56.3947 205.42 62.6953C206.136 58.0736 207.813 50.0221 212.596 43.0745Z" fill="url(#paint12_linear_147_3435)"/>
<path d="M223.054 50.0193C226.71 51.6734 228.389 56.5756 226.803 60.9687C225.217 65.3619 220.967 67.5825 217.311 65.9283C213.654 64.2742 211.975 59.372 213.561 54.9789C215.147 50.5857 219.397 48.3654 223.054 50.0193Z" fill="url(#paint13_linear_147_3435)"/>
<path d="M222.364 51.3324C225.278 52.6504 226.616 56.5565 225.352 60.057C224.088 63.5575 220.702 65.3268 217.788 64.0088C214.874 62.6908 213.537 58.7847 214.8 55.2842C216.064 51.7837 219.45 50.0145 222.364 51.3324Z" fill="url(#paint14_linear_147_3435)"/>
<path d="M217.493 61.6629C217.427 61.7027 217.344 61.6974 217.283 61.6417C215.712 60.2169 215.167 57.6944 215.956 55.508C216.156 54.9566 216.428 54.4499 216.765 54.0027C216.833 53.9135 216.952 53.9018 217.032 53.9775C217.112 54.0527 217.122 54.1865 217.055 54.2757C216.743 54.6892 216.492 55.1569 216.308 55.667C215.58 57.6824 216.079 60.0041 217.521 61.3125C217.602 61.3864 217.615 61.5196 217.549 61.6102C217.533 61.6327 217.514 61.6501 217.493 61.6629Z" fill="#91B3FA"/>
<path d="M235.385 58.7384C237.801 59.831 238.91 63.0697 237.862 65.972C236.814 68.8742 234.006 70.3411 231.591 69.2484C229.175 68.1557 228.066 64.917 229.114 62.0148C230.161 59.1125 232.969 57.6456 235.385 58.7384Z" fill="url(#paint15_linear_147_3435)"/>
<path d="M234.93 59.6023C236.855 60.473 237.738 63.0536 236.904 65.3661C236.069 67.6787 233.832 68.8474 231.907 67.9767C229.982 67.1062 229.098 64.5256 229.933 62.213C230.768 59.9005 233.005 58.7318 234.93 59.6023Z" fill="url(#paint16_linear_147_3435)"/>
<path d="M231.742 66.4931C231.677 66.533 231.594 66.5274 231.532 66.4717C230.473 65.511 230.105 63.8107 230.637 62.3368C230.771 61.9656 230.954 61.6248 231.182 61.3232C231.248 61.2338 231.369 61.2225 231.449 61.2982C231.528 61.3734 231.538 61.5071 231.471 61.5965C231.269 61.8637 231.107 62.1664 230.988 62.4958C230.518 63.7981 230.839 65.298 231.771 66.1426C231.852 66.2164 231.864 66.3497 231.798 66.4403C231.782 66.4627 231.763 66.4801 231.742 66.4931Z" fill="#91B3FA"/>
<path d="M286.222 252.747C286.002 252.64 285.901 252.354 285.997 252.108L286.428 250.994C286.523 250.747 286.778 250.634 286.998 250.74C287.218 250.846 287.32 251.132 287.225 251.378L286.792 252.495C286.749 252.606 286.674 252.69 286.584 252.739C286.474 252.798 286.342 252.806 286.222 252.747ZM287.847 248.502C287.626 248.399 287.521 248.114 287.614 247.867C287.781 247.419 287.947 246.97 288.113 246.52C288.204 246.272 288.458 246.154 288.679 246.256C288.9 246.358 289.006 246.642 288.915 246.89C288.749 247.341 288.582 247.792 288.415 248.241C288.372 248.355 288.295 248.441 288.203 248.491C288.095 248.55 287.966 248.558 287.847 248.502ZM289.493 244.003C289.27 243.904 289.161 243.622 289.25 243.372C289.41 242.921 289.569 242.47 289.727 242.018C289.814 241.768 290.066 241.644 290.289 241.742C290.512 241.84 290.622 242.121 290.535 242.371C290.376 242.825 290.217 243.279 290.056 243.731C290.014 243.849 289.936 243.938 289.842 243.989C289.736 244.046 289.61 244.055 289.493 244.003ZM291.065 239.473C290.841 239.379 290.727 239.099 290.812 238.848C290.964 238.394 291.115 237.939 291.265 237.484C291.348 237.233 291.597 237.104 291.822 237.196C292.047 237.289 292.162 237.568 292.079 237.82C291.929 238.277 291.777 238.734 291.624 239.189C291.583 239.311 291.503 239.403 291.407 239.456C291.304 239.512 291.181 239.522 291.065 239.473ZM292.558 234.911C292.332 234.822 292.213 234.545 292.292 234.292C292.436 233.835 292.578 233.377 292.719 232.919C292.798 232.665 293.044 232.53 293.271 232.618C293.497 232.705 293.618 232.981 293.54 233.235C293.398 233.695 293.255 234.155 293.111 234.614C293.071 234.74 292.99 234.836 292.89 234.89C292.79 234.945 292.671 234.956 292.558 234.911ZM293.962 230.316C293.734 230.233 293.61 229.958 293.684 229.704C293.818 229.243 293.951 228.783 294.083 228.322C294.156 228.066 294.4 227.925 294.628 228.006C294.856 228.088 294.982 228.361 294.909 228.617C294.777 229.08 294.644 229.543 294.509 230.005C294.471 230.136 294.388 230.236 294.285 230.292C294.188 230.344 294.073 230.357 293.962 230.316ZM295.269 225.687C295.04 225.61 294.909 225.34 294.978 225.083C295.102 224.619 295.225 224.155 295.346 223.691C295.412 223.434 295.653 223.285 295.884 223.36C296.114 223.435 296.246 223.705 296.179 223.963C296.057 224.429 295.934 224.895 295.809 225.361C295.773 225.497 295.688 225.602 295.582 225.659C295.488 225.71 295.377 225.724 295.269 225.687ZM296.47 221.024C296.239 220.954 296.102 220.687 296.165 220.428C296.278 219.961 296.389 219.494 296.498 219.027C296.559 218.767 296.796 218.611 297.028 218.68C297.26 218.748 297.398 219.013 297.338 219.273C297.228 219.743 297.116 220.212 297.003 220.682C296.969 220.823 296.882 220.933 296.773 220.992C296.682 221.042 296.575 221.056 296.47 221.024ZM297.554 216.326C297.322 216.263 297.178 216.001 297.234 215.74C297.334 215.27 297.433 214.8 297.529 214.33C297.583 214.068 297.815 213.905 298.049 213.965C298.282 214.025 298.428 214.286 298.375 214.547C298.278 215.02 298.179 215.494 298.078 215.967C298.046 216.114 297.958 216.23 297.844 216.291C297.757 216.338 297.656 216.353 297.554 216.326ZM298.509 211.595C298.274 211.54 298.123 211.284 298.171 211.021C298.258 210.548 298.342 210.074 298.424 209.601C298.47 209.338 298.698 209.166 298.933 209.217C299.168 209.268 299.322 209.523 299.276 209.786C299.194 210.262 299.108 210.739 299.021 211.216C298.993 211.37 298.902 211.492 298.785 211.556C298.702 211.601 298.606 211.617 298.509 211.595ZM299.319 206.83C299.083 206.786 298.924 206.536 298.963 206.271C299.035 205.793 299.104 205.315 299.171 204.838C299.207 204.573 299.43 204.391 299.666 204.433C299.903 204.474 300.065 204.723 300.028 204.988C299.961 205.469 299.891 205.95 299.819 206.432C299.795 206.593 299.702 206.722 299.58 206.789C299.502 206.831 299.412 206.848 299.319 206.83ZM299.97 202.029C299.732 201.995 299.564 201.752 299.594 201.486C299.649 201.005 299.701 200.525 299.749 200.045C299.777 199.779 299.991 199.587 300.23 199.618C300.468 199.648 300.639 199.889 300.612 200.155C300.562 200.639 300.51 201.123 300.455 201.608C300.436 201.777 300.341 201.915 300.213 201.984C300.14 202.024 300.057 202.041 299.97 202.029ZM300.442 197.201C300.203 197.179 300.025 196.944 300.045 196.677C300.081 196.194 300.113 195.712 300.142 195.231C300.158 194.964 300.365 194.76 300.604 194.779C300.843 194.798 301.024 195.029 301.008 195.297C300.978 195.783 300.946 196.269 300.91 196.757C300.897 196.935 300.8 197.082 300.666 197.154C300.599 197.191 300.522 197.208 300.442 197.201ZM300.714 192.355C300.474 192.346 300.286 192.121 300.294 191.853C300.308 191.369 300.319 190.886 300.326 190.404C300.33 190.136 300.527 189.921 300.768 189.927C301.007 189.931 301.198 190.152 301.194 190.421C301.186 190.908 301.176 191.396 301.161 191.885C301.156 192.072 301.057 192.23 300.916 192.306C300.855 192.339 300.786 192.357 300.714 192.355ZM300.763 187.498C300.523 187.504 300.324 187.291 300.319 187.023C300.31 186.541 300.297 186.058 300.28 185.575C300.271 185.306 300.458 185.081 300.697 185.071C300.937 185.06 301.139 185.269 301.148 185.537C301.164 186.026 301.177 186.514 301.187 187.002C301.191 187.198 301.09 187.37 300.942 187.45C300.887 187.48 300.827 187.497 300.763 187.498ZM300.569 182.647C300.33 182.668 300.121 182.469 300.101 182.202C300.067 181.721 300.028 181.24 299.984 180.76C299.96 180.493 300.133 180.255 300.372 180.228C300.611 180.201 300.824 180.395 300.848 180.662C300.892 181.149 300.931 181.636 300.966 182.123C300.981 182.329 300.88 182.515 300.723 182.6C300.676 182.625 300.624 182.642 300.569 182.647ZM300.103 177.818C299.866 177.858 299.645 177.676 299.609 177.411C299.56 177.045 299.508 176.681 299.453 176.317C299.38 176.261 299.322 176.18 299.29 176.081C299.208 175.829 299.322 175.547 299.55 175.459C299.954 175.296 300.354 175.125 300.75 174.945C300.972 174.844 301.225 174.964 301.315 175.212C301.405 175.461 301.294 175.744 301.076 175.845C300.823 175.96 300.568 176.071 300.312 176.18C300.366 176.541 300.418 176.903 300.467 177.266C300.496 177.481 300.394 177.685 300.227 177.775C300.189 177.796 300.147 177.811 300.103 177.818ZM303.286 174.2C303.176 173.962 303.259 173.669 303.472 173.546C303.852 173.325 304.228 173.096 304.6 172.859C304.809 172.726 305.073 172.807 305.192 173.04C305.311 173.272 305.238 173.569 305.03 173.702C304.648 173.947 304.262 174.182 303.871 174.408C303.868 174.41 303.864 174.412 303.86 174.414C303.65 174.528 303.395 174.435 303.286 174.2ZM307.019 171.732C306.88 171.513 306.925 171.21 307.12 171.054C307.468 170.776 307.81 170.49 308.147 170.194C308.337 170.028 308.608 170.066 308.756 170.277C308.904 170.488 308.871 170.793 308.682 170.959C308.34 171.259 307.984 171.557 307.624 171.845C307.604 171.861 307.583 171.875 307.561 171.887C307.374 171.988 307.144 171.927 307.019 171.732ZM296.914 177.402C296.49 177.529 296.065 177.649 295.637 177.759C295.403 177.82 295.17 177.657 295.116 177.396C295.062 177.135 295.206 176.874 295.441 176.813C295.859 176.705 296.275 176.588 296.689 176.464C296.92 176.394 297.158 176.548 297.22 176.807C297.275 177.036 297.174 177.271 296.991 177.37C296.966 177.383 296.941 177.394 296.914 177.402ZM310.389 168.679C310.222 168.487 310.225 168.18 310.397 167.993L310.604 167.764C310.839 167.503 311.068 167.237 311.293 166.968C311.456 166.772 311.731 166.761 311.906 166.944C312.082 167.127 312.091 167.434 311.928 167.63C311.696 167.909 311.458 168.183 311.216 168.453L311.003 168.688C310.968 168.725 310.93 168.755 310.889 168.778C310.725 168.866 310.523 168.833 310.389 168.679ZM292.621 178.404C292.188 178.477 291.754 178.543 291.318 178.601C291.08 178.632 290.864 178.442 290.836 178.176C290.808 177.909 290.978 177.667 291.215 177.636C291.642 177.579 292.068 177.515 292.491 177.443C292.728 177.403 292.949 177.586 292.985 177.851C293.015 178.067 292.912 178.271 292.746 178.361C292.707 178.382 292.666 178.396 292.621 178.404ZM299.322 173.042C299.089 173.104 298.855 172.942 298.801 172.681C298.702 172.211 298.599 171.744 298.49 171.279C298.429 171.02 298.567 170.753 298.799 170.686C299.031 170.618 299.268 170.773 299.329 171.032C299.44 171.506 299.546 171.981 299.646 172.459C299.693 172.684 299.591 172.91 299.412 173.007C299.384 173.022 299.354 173.034 299.322 173.042ZM288.261 178.881C287.823 178.903 287.385 178.919 286.946 178.926C286.707 178.931 286.509 178.717 286.506 178.448C286.502 178.18 286.694 177.959 286.933 177.955C287.362 177.948 287.792 177.933 288.221 177.911C288.46 177.899 288.663 178.106 288.674 178.374C288.682 178.574 288.581 178.751 288.429 178.834C288.378 178.861 288.321 178.878 288.261 178.881ZM313.294 165.081C313.101 164.921 313.061 164.616 313.204 164.401C313.457 164.02 313.706 163.627 313.943 163.233C314.076 163.01 314.346 162.951 314.545 163.101C314.744 163.251 314.796 163.553 314.662 163.775C314.418 164.182 314.161 164.587 313.9 164.98C313.857 165.045 313.802 165.095 313.742 165.128C313.601 165.204 313.428 165.192 313.294 165.081ZM283.88 178.862C283.442 178.836 283.005 178.802 282.568 178.762C282.329 178.739 282.152 178.505 282.172 178.237C282.192 177.97 282.401 177.771 282.64 177.794C283.068 177.833 283.497 177.866 283.926 177.892C284.165 177.906 284.349 178.135 284.336 178.402C284.328 178.585 284.229 178.739 284.091 178.814C284.028 178.849 283.956 178.866 283.88 178.862ZM315.657 161.019C315.446 160.893 315.365 160.599 315.477 160.362C315.677 159.94 315.868 159.512 316.051 159.079C316.154 158.837 316.413 158.733 316.629 158.849C316.846 158.963 316.938 159.253 316.835 159.495C316.647 159.94 316.448 160.385 316.244 160.817C316.199 160.912 316.13 160.983 316.05 161.027C315.929 161.092 315.784 161.094 315.657 161.019ZM298.182 168.358C297.955 168.443 297.709 168.306 297.633 168.052C297.496 167.595 297.354 167.142 297.206 166.691C297.123 166.439 297.234 166.162 297.463 166.067C297.688 165.974 297.937 166.103 298.02 166.355C298.171 166.815 298.317 167.278 298.456 167.744C298.526 167.978 298.427 168.23 298.234 168.334C298.217 168.343 298.2 168.351 298.182 168.358ZM279.523 178.363C279.089 178.289 278.657 178.209 278.226 178.121C277.99 178.073 277.834 177.821 277.877 177.557C277.919 177.293 278.145 177.118 278.381 177.165C278.804 177.251 279.228 177.33 279.653 177.403C279.89 177.443 280.053 177.69 280.017 177.956C279.995 178.12 279.901 178.253 279.777 178.32C279.7 178.362 279.613 178.378 279.523 178.363ZM317.459 156.606C317.233 156.515 317.116 156.237 317.197 155.985C317.341 155.534 317.477 155.079 317.605 154.621C317.677 154.365 317.921 154.223 318.149 154.303C318.378 154.383 318.505 154.655 318.434 154.911C318.302 155.382 318.162 155.849 318.014 156.312C317.974 156.437 317.893 156.532 317.794 156.586C317.693 156.641 317.573 156.652 317.459 156.606ZM275.229 177.392C274.804 177.271 274.38 177.142 273.959 177.004C273.729 176.93 273.596 176.66 273.663 176.402C273.73 176.145 273.971 175.997 274.201 176.072C274.613 176.206 275.028 176.332 275.443 176.451C275.676 176.517 275.816 176.782 275.756 177.042C275.723 177.186 275.636 177.299 275.525 177.359C275.436 177.407 275.332 177.422 275.229 177.392ZM318.7 151.953C318.466 151.897 318.316 151.639 318.367 151.376C318.457 150.907 318.539 150.436 318.613 149.963C318.654 149.698 318.879 149.521 319.116 149.568C319.352 149.615 319.509 149.866 319.468 150.131C319.392 150.616 319.308 151.1 319.215 151.58C319.186 151.733 319.096 151.853 318.98 151.916C318.896 151.961 318.798 151.977 318.7 151.953ZM296.639 163.821C296.421 163.932 296.164 163.825 296.065 163.581C295.944 163.284 295.82 162.989 295.693 162.695C295.633 162.556 295.572 162.417 295.511 162.28C295.405 162.039 295.492 161.748 295.707 161.629C295.708 161.628 295.709 161.627 295.711 161.626C295.925 161.511 296.182 161.609 296.288 161.847C296.351 161.989 296.413 162.131 296.475 162.273C296.604 162.573 296.731 162.875 296.854 163.178C296.952 163.419 296.86 163.702 296.649 163.816C296.646 163.818 296.642 163.82 296.639 163.821ZM271.046 175.902C270.635 175.723 270.228 175.535 269.826 175.337C269.606 175.229 269.507 174.943 269.603 174.697C269.7 174.451 269.956 174.34 270.175 174.448C270.566 174.64 270.961 174.823 271.361 174.997C271.584 175.094 271.694 175.376 271.608 175.626C271.566 175.745 271.487 175.835 271.392 175.887C271.287 175.944 271.163 175.953 271.046 175.902ZM319.398 147.16C319.16 147.136 318.984 146.9 319.005 146.633C319.043 146.155 319.073 145.676 319.096 145.195C319.108 144.928 319.312 144.723 319.552 144.736C319.791 144.75 319.975 144.979 319.962 145.247C319.939 145.738 319.908 146.23 319.869 146.719C319.855 146.896 319.758 147.042 319.626 147.114C319.557 147.15 319.479 147.168 319.398 147.16ZM294.065 159.339C293.842 158.93 293.612 158.525 293.375 158.125C293.242 157.902 293.296 157.6 293.496 157.452C293.697 157.303 293.965 157.364 294.097 157.588C294.341 157.998 294.577 158.413 294.806 158.834C294.931 159.063 294.866 159.361 294.661 159.501C294.649 159.509 294.636 159.517 294.624 159.524C294.425 159.631 294.182 159.554 294.065 159.339ZM267.074 173.777C266.689 173.526 266.31 173.264 265.947 172.996C265.746 172.849 265.691 172.548 265.823 172.324C265.954 172.1 266.224 172.038 266.423 172.185C266.773 172.442 267.139 172.696 267.51 172.938C267.717 173.073 267.788 173.37 267.667 173.602C267.622 173.689 267.556 173.754 267.481 173.794C267.356 173.862 267.203 173.862 267.074 173.777ZM319.578 142.307C319.339 142.314 319.139 142.103 319.132 141.835C319.121 141.354 319.101 140.874 319.075 140.394C319.06 140.127 319.241 139.896 319.481 139.88C319.72 139.863 319.926 140.066 319.941 140.334C319.968 140.825 319.988 141.316 320 141.808C320.005 142.005 319.904 142.178 319.755 142.259C319.701 142.288 319.641 142.305 319.578 142.307ZM263.485 170.895C263.152 170.565 262.827 170.221 262.519 169.873C262.35 169.682 262.352 169.374 262.522 169.186C262.693 168.996 262.967 168.999 263.136 169.19C263.43 169.523 263.741 169.852 264.06 170.168C264.24 170.346 264.256 170.653 264.098 170.853C264.058 170.903 264.012 170.942 263.962 170.969C263.809 171.052 263.62 171.029 263.485 170.895ZM291.605 155.419C291.336 155.045 291.061 154.678 290.78 154.317C290.622 154.115 290.641 153.808 290.821 153.632C291.002 153.454 291.276 153.476 291.433 153.678C291.723 154.049 292.005 154.426 292.281 154.81C292.431 155.019 292.402 155.324 292.215 155.493C292.188 155.516 292.16 155.536 292.131 155.552C291.954 155.648 291.734 155.598 291.605 155.419ZM319.262 137.463C319.024 137.501 318.805 137.316 318.772 137.05C318.712 136.574 318.644 136.1 318.57 135.626C318.529 135.362 318.687 135.111 318.923 135.064C319.159 135.018 319.384 135.195 319.425 135.459C319.501 135.942 319.569 136.428 319.631 136.915C319.658 137.129 319.555 137.33 319.39 137.42C319.351 137.441 319.307 137.456 319.262 137.463ZM260.532 167.191C260.283 166.781 260.046 166.354 259.826 165.921C259.708 165.688 259.781 165.392 259.99 165.259C260.2 165.127 260.463 165.209 260.581 165.442C260.789 165.852 261.014 166.257 261.25 166.645C261.385 166.867 261.333 167.169 261.135 167.32C261.117 167.334 261.099 167.345 261.08 167.356C260.889 167.459 260.655 167.393 260.532 167.191ZM288.706 151.899C288.395 151.569 288.078 151.247 287.756 150.933C287.575 150.757 287.556 150.45 287.713 150.248C287.871 150.046 288.145 150.024 288.325 150.2C288.657 150.523 288.983 150.854 289.303 151.193C289.477 151.377 289.484 151.685 289.32 151.88C289.282 151.924 289.239 151.958 289.193 151.983C289.036 152.068 288.841 152.041 288.706 151.899ZM318.466 132.69C318.234 132.756 317.997 132.6 317.938 132.34C317.831 131.875 317.717 131.411 317.597 130.951C317.53 130.693 317.662 130.425 317.891 130.348C318.122 130.273 318.363 130.42 318.43 130.678C318.553 131.149 318.669 131.622 318.778 132.099C318.83 132.326 318.729 132.558 318.547 132.656C318.522 132.67 318.494 132.682 318.466 132.69ZM285.402 148.868C285.051 148.592 284.692 148.324 284.337 148.071C284.135 147.927 284.075 147.627 284.203 147.401C284.332 147.175 284.6 147.108 284.802 147.251C285.169 147.512 285.538 147.789 285.901 148.074C286.097 148.228 286.144 148.53 286.006 148.75C285.963 148.82 285.905 148.873 285.841 148.908C285.704 148.982 285.535 148.973 285.402 148.868ZM259.099 163.045C258.873 163.132 258.626 162.996 258.548 162.742C258.404 162.271 258.276 161.788 258.167 161.308C258.108 161.048 258.249 160.782 258.481 160.718C258.713 160.652 258.949 160.809 259.008 161.069C259.111 161.524 259.232 161.981 259.369 162.428C259.441 162.663 259.343 162.917 259.148 163.022C259.133 163.031 259.116 163.038 259.099 163.045ZM317.2 128.046C316.976 128.142 316.726 128.016 316.641 127.765C316.488 127.316 316.329 126.871 316.163 126.429C316.07 126.182 316.177 125.893 316.394 125.793C316.615 125.689 316.869 125.805 316.962 126.052C317.133 126.505 317.296 126.961 317.452 127.42C317.532 127.657 317.436 127.921 317.235 128.03C317.224 128.036 317.213 128.041 317.2 128.046ZM281.731 146.439C281.35 146.232 280.958 146.032 280.567 145.846C280.346 145.742 280.243 145.457 280.336 145.21C280.43 144.962 280.685 144.847 280.906 144.952C281.311 145.145 281.716 145.351 282.111 145.566C282.326 145.683 282.416 145.974 282.311 146.215C282.266 146.317 282.194 146.394 282.11 146.44C281.994 146.502 281.855 146.507 281.731 146.439ZM258.157 158.317C257.918 158.33 257.715 158.122 257.704 157.854C257.683 157.351 257.683 156.845 257.705 156.351C257.717 156.083 257.92 155.876 258.159 155.89C258.399 155.903 258.583 156.13 258.572 156.398C258.551 156.861 258.551 157.336 258.571 157.81C258.579 158.01 258.478 158.188 258.326 158.27C258.275 158.297 258.218 158.314 258.157 158.317ZM277.756 144.737C277.348 144.608 276.931 144.49 276.518 144.386C276.284 144.328 276.137 144.068 276.189 143.806C276.242 143.544 276.473 143.379 276.707 143.438C277.136 143.545 277.569 143.668 277.992 143.802C278.223 143.876 278.357 144.144 278.291 144.402C278.256 144.541 278.171 144.649 278.063 144.707C277.971 144.757 277.862 144.771 277.756 144.737ZM314.887 123.39C314.688 122.964 314.483 122.542 314.272 122.126C314.153 121.893 314.226 121.596 314.434 121.464C314.638 121.328 314.907 121.412 315.026 121.646C315.243 122.073 315.453 122.504 315.656 122.94C315.767 123.178 315.684 123.472 315.472 123.596C315.468 123.598 315.464 123.6 315.46 123.602C315.25 123.716 314.995 123.623 314.887 123.39ZM258.52 153.497C258.291 153.419 258.161 153.148 258.23 152.891C258.361 152.407 258.518 151.93 258.695 151.472C258.79 151.226 259.045 151.114 259.265 151.22C259.485 151.327 259.586 151.612 259.491 151.859C259.327 152.282 259.182 152.724 259.061 153.173C259.024 153.308 258.94 153.412 258.834 153.469C258.74 153.521 258.629 153.534 258.52 153.497ZM273.58 143.9C273.158 143.868 272.731 143.851 272.308 143.851C272.069 143.85 271.875 143.632 271.875 143.364C271.875 143.096 272.071 142.879 272.31 142.879C272.751 142.88 273.198 142.897 273.639 142.931C273.878 142.95 274.059 143.182 274.042 143.449C274.031 143.63 273.934 143.78 273.798 143.853C273.732 143.889 273.658 143.906 273.58 143.9ZM260.396 149.15C260.211 148.98 260.184 148.674 260.336 148.466C260.62 148.079 260.928 147.706 261.252 147.355C261.425 147.168 261.7 147.175 261.866 147.367C262.033 147.56 262.028 147.868 261.855 148.054C261.555 148.378 261.269 148.725 261.007 149.083C260.966 149.139 260.916 149.182 260.861 149.212C260.713 149.291 260.531 149.274 260.396 149.15ZM269.353 144.11C268.934 144.186 268.515 144.279 268.108 144.388C267.875 144.45 267.641 144.289 267.586 144.028C267.53 143.767 267.674 143.504 267.907 143.443C268.334 143.329 268.774 143.231 269.215 143.151C269.451 143.108 269.674 143.288 269.712 143.553C269.744 143.77 269.641 143.977 269.473 144.068C269.436 144.088 269.396 144.102 269.353 144.11ZM263.604 145.917C263.485 145.684 263.557 145.388 263.764 145.254C264.143 145.01 264.546 144.78 264.957 144.568C265.175 144.457 265.433 144.564 265.532 144.808C265.632 145.052 265.531 145.344 265.318 145.452C264.931 145.651 264.553 145.867 264.197 146.096C264.188 146.102 264.178 146.107 264.169 146.112C263.966 146.223 263.718 146.139 263.604 145.917ZM312.691 119.265C312.452 118.866 312.208 118.47 311.959 118.079C311.82 117.861 311.866 117.558 312.061 117.402C312.257 117.245 312.527 117.297 312.666 117.516C312.92 117.915 313.169 118.318 313.412 118.726C313.545 118.949 313.492 119.25 313.293 119.399C313.276 119.412 313.258 119.423 313.24 119.433C313.048 119.537 312.812 119.469 312.691 119.265ZM310.132 115.407C309.859 115.035 309.582 114.668 309.3 114.305C309.143 114.102 309.162 113.796 309.343 113.62C309.524 113.445 309.798 113.466 309.955 113.668C310.242 114.038 310.525 114.412 310.803 114.791C310.955 114.999 310.928 115.305 310.742 115.475C310.715 115.5 310.686 115.52 310.656 115.537C310.48 115.632 310.261 115.584 310.132 115.407ZM307.255 111.836C306.953 111.493 306.646 111.156 306.336 110.822C306.163 110.636 306.157 110.329 306.323 110.135C306.49 109.943 306.764 109.935 306.937 110.121C307.252 110.461 307.565 110.805 307.872 111.153C308.04 111.344 308.039 111.652 307.868 111.84C307.833 111.879 307.794 111.909 307.752 111.932C307.59 112.02 307.389 111.988 307.255 111.836ZM304.101 108.562C303.774 108.25 303.442 107.942 303.108 107.638C302.922 107.47 302.893 107.164 303.044 106.956C303.194 106.747 303.468 106.715 303.654 106.884C303.994 107.192 304.331 107.505 304.664 107.823C304.846 107.996 304.869 108.303 304.713 108.507C304.673 108.56 304.625 108.601 304.572 108.63C304.422 108.711 304.237 108.691 304.101 108.562ZM300.714 105.59C300.365 105.308 300.013 105.03 299.658 104.756C299.461 104.604 299.411 104.302 299.546 104.081C299.682 103.859 299.952 103.803 300.15 103.956C300.511 104.234 300.868 104.516 301.223 104.802C301.417 104.959 301.46 105.263 301.32 105.48C301.277 105.548 301.22 105.599 301.158 105.633C301.019 105.708 300.848 105.698 300.714 105.59ZM297.131 102.916C296.764 102.663 296.394 102.414 296.022 102.17C295.816 102.035 295.746 101.737 295.868 101.506C295.988 101.275 296.254 101.196 296.461 101.332C296.839 101.58 297.214 101.832 297.586 102.088C297.79 102.229 297.853 102.528 297.728 102.757C297.683 102.838 297.619 102.9 297.547 102.939C297.418 103.009 297.262 103.006 297.131 102.916ZM293.384 100.533C293.002 100.309 292.618 100.089 292.232 99.8735C292.018 99.7538 291.93 99.4622 292.038 99.2222C292.144 98.9827 292.405 98.8846 292.62 99.0046C293.01 99.2228 293.4 99.4454 293.786 99.6726C293.999 99.7971 294.081 100.091 293.969 100.328C293.924 100.424 293.855 100.496 293.774 100.54C293.655 100.605 293.51 100.607 293.384 100.533ZM289.502 98.4338C289.108 98.2375 288.712 98.046 288.315 97.8583C288.094 97.7539 287.991 97.4689 288.084 97.2218C288.177 96.975 288.432 96.8593 288.652 96.9632C289.055 97.1534 289.455 97.3477 289.854 97.5459C290.073 97.655 290.172 97.9419 290.075 98.1871C290.031 98.2962 289.956 98.3787 289.867 98.4269C289.756 98.487 289.623 98.4939 289.502 98.4338Z" fill="url(#paint17_linear_147_3435)"/>
</g>
<defs>
<filter id="filter0_d_147_3435" x="-0.000244141" y="0.375" width="340" height="339.347" filterUnits="userSpaceOnUse" color-interpolation-filters="sRGB">
<feFlood flood-opacity="0" result="BackgroundImageFix"/>
<feColorMatrix in="SourceAlpha" type="matrix" values="0 0 0 0 0 0 0 0 0 0 0 0 0 0 0 0 0 0 127 0" result="hardAlpha"/>
<feOffset dy="13"/>
<feGaussianBlur stdDeviation="10"/>
<feComposite in2="hardAlpha" operator="out"/>
<feColorMatrix type="matrix" values="0 0 0 0 0 0 0 0 0 0 0 0 0 0 0 0 0 0 0.14 0"/>
<feBlend mode="normal" in2="BackgroundImageFix" result="effect1_dropShadow_147_3435"/>
<feBlend mode="normal" in="SourceGraphic" in2="effect1_dropShadow_147_3435" result="shape"/>
</filter>
<linearGradient id="paint0_linear_147_3435" x1="-68.9894" y1="-388.168" x2="533.3" y2="-324.944" gradientUnits="userSpaceOnUse">
<stop stop-color="#0A1D12"/>
<stop offset="0.475962" stop-color="#1E9A5F"/>
<stop offset="1" stop-color="#0A1D12"/>
</linearGradient>
<linearGradient id="paint1_linear_147_3435" x1="106.011" y1="260.908" x2="256.913" y2="5.96512" gradientUnits="userSpaceOnUse">
<stop stop-color="#0A4C2D"/>
<stop offset="1" stop-color="#1E9A5F"/>
</linearGradient>
<linearGradient id="paint2_linear_147_3435" x1="307.409" y1="-106.351" x2="142.257" y2="221.201" gradientUnits="userSpaceOnUse">
<stop stop-color="#1E9A5F"/>
<stop offset="1" stop-color="#B7E8D0"/>
</linearGradient>
<linearGradient id="paint3_linear_147_3435" x1="95.9622" y1="275.15" x2="291.303" y2="270.793" gradientUnits="userSpaceOnUse">
<stop stop-color="#A2DB1E"/>
<stop offset="1" stop-color="#D6F58D"/>
</linearGradient>
<linearGradient id="paint4_linear_147_3435" x1="188.041" y1="68.8854" x2="145.997" y2="189.218" gradientUnits="userSpaceOnUse">
<stop stop-color="#0A4C2D"/>
<stop offset="1" stop-color="#1E9A5F"/>
</linearGradient>
<linearGradient id="paint5_linear_147_3435" x1="188.141" y1="-3.48591" x2="175.818" y2="61.0297" gradientUnits="userSpaceOnUse">
<stop stop-color="#0A4C2D"/>
<stop offset="1" stop-color="#1E9A5F"/>
</linearGradient>
<linearGradient id="paint6_linear_147_3435" x1="179.648" y1="-5.11021" x2="167.325" y2="59.4056" gradientUnits="userSpaceOnUse">
<stop stop-color="#0A4C2D"/>
<stop offset="1" stop-color="#1E9A5F"/>
</linearGradient>
<linearGradient id="paint7_linear_147_3435" x1="307.87" y1="-8.64205" x2="283.949" y2="40.2884" gradientUnits="userSpaceOnUse">
<stop stop-color="#0A4C2D"/>
<stop offset="1" stop-color="#1E9A5F"/>
</linearGradient>
<linearGradient id="paint8_linear_147_3435" x1="244.797" y1="70.3092" x2="279.592" y2="84.0822" gradientUnits="userSpaceOnUse">
<stop stop-color="#A2DB1E"/>
<stop offset="1" stop-color="#D6F58D"/>
</linearGradient>
<linearGradient id="paint9_linear_147_3435" x1="-316.251" y1="-1153.4" x2="-346.908" y2="-1221.69" gradientUnits="userSpaceOnUse">
<stop stop-color="#A2DB1E"/>
<stop offset="1" stop-color="#D6F58D"/>
</linearGradient>
<linearGradient id="paint10_linear_147_3435" x1="-295.027" y1="-1162.93" x2="-325.684" y2="-1231.21" gradientUnits="userSpaceOnUse">
<stop stop-color="#A2DB1E"/>
<stop offset="1" stop-color="#D6F58D"/>
</linearGradient>
<linearGradient id="paint11_linear_147_3435" x1="192.997" y1="-39.5996" x2="215.106" y2="23.8287" gradientUnits="userSpaceOnUse">
<stop stop-color="#A2DB1E"/>
<stop offset="1" stop-color="#D6F58D"/>
</linearGradient>
<linearGradient id="paint12_linear_147_3435" x1="-331.505" y1="-1146.55" x2="-362.163" y2="-1214.84" gradientUnits="userSpaceOnUse">
<stop stop-color="#A2DB1E"/>
<stop offset="1" stop-color="#D6F58D"/>
</linearGradient>
<linearGradient id="paint13_linear_147_3435" x1="294.536" y1="-810.176" x2="299.58" y2="-869.07" gradientUnits="userSpaceOnUse">
<stop stop-color="#A2DB1E"/>
<stop offset="1" stop-color="#D6F58D"/>
</linearGradient>
<linearGradient id="paint14_linear_147_3435" x1="217.552" y1="63.9181" x2="222.6" y2="51.4232" gradientUnits="userSpaceOnUse">
<stop stop-color="#0A4C2D"/>
<stop offset="1" stop-color="#1E9A5F"/>
</linearGradient>
<linearGradient id="paint15_linear_147_3435" x1="308.257" y1="-809" x2="313.301" y2="-867.894" gradientUnits="userSpaceOnUse">
<stop stop-color="#A2DB1E"/>
<stop offset="1" stop-color="#D6F58D"/>
</linearGradient>
<linearGradient id="paint16_linear_147_3435" x1="231.751" y1="67.9169" x2="235.086" y2="59.6624" gradientUnits="userSpaceOnUse">
<stop stop-color="#0A4C2D"/>
<stop offset="1" stop-color="#1E9A5F"/>
</linearGradient>
<linearGradient id="paint17_linear_147_3435" x1="406.73" y1="64.4315" x2="353.088" y2="114.087" gradientUnits="userSpaceOnUse">
<stop stop-color="#0A4C2D"/>
<stop offset="1" stop-color="#1E9A5F"/>
</linearGradient>
</defs>
</svg>
