<svg width="414" height="311" viewBox="0 0 414 311" fill="none" xmlns="http://www.w3.org/2000/svg">
<path d="M265.701 217.427H155.676V311H265.701V217.427Z" fill="#1E9A5F"/>
<path opacity="0.6" d="M265.701 279.022L155.676 269.165V217.427H265.701V279.022Z" fill="#0A4C2D"/>
<path d="M379.449 250.784H41.9285C37.0985 250.784 33.1829 246.868 33.1829 242.038V8.94392C33.1829 4.11389 37.0985 0.198242 41.9285 0.198242H379.449C384.279 0.198242 388.195 4.11389 388.195 8.94392V242.038C388.195 246.868 384.279 250.784 379.449 250.784Z" fill="#1E9A5F"/>
<path d="M371.4 12.0012H49.9834V233.254H371.4V12.0012Z" fill="white"/>
<path opacity="0.3" d="M190.352 73.1935V233.254H49.9834V67.0239H184.183C187.59 67.0239 190.352 69.7861 190.352 73.1935Z" fill="#B7E8D0"/>
<path opacity="0.3" d="M371.399 67.0239V233.254H223.986V73.1935C223.986 69.7861 226.749 67.0239 230.156 67.0239H371.399Z" fill="#B7E8D0"/>
<path d="M0.513916 208.262C0.513916 212.805 4.19692 216.488 8.74006 216.488H168.415C172.958 216.488 176.641 212.805 176.641 208.262V45.0911H0.513916V208.262Z" fill="white"/>
<path d="M168.415 217.002H8.74028C3.92104 217.002 0 213.081 0 208.262V44.5769H177.155V208.262C177.155 213.081 173.234 217.002 168.415 217.002ZM1.02827 45.6052V208.262C1.02827 212.514 4.48788 215.974 8.74028 215.974H168.415C172.668 215.974 176.127 212.514 176.127 208.262V45.6052H1.02827Z" fill="#3A6BEA"/>
<path d="M168.415 27.0686H8.74006C4.19692 27.0686 0.513916 30.7516 0.513916 35.2947V45.0908H176.641V35.2947C176.641 30.7516 172.958 27.0686 168.415 27.0686Z" fill="#1E9A5F"/>
<path d="M177.155 45.6047H0V35.2945C0 30.475 3.92104 26.5542 8.74028 26.5542H168.415C173.235 26.5542 177.155 30.475 177.155 35.2945V45.6047ZM1.02827 44.5764H176.127V35.2945C176.127 31.0421 172.668 27.5825 168.415 27.5825H8.74028C4.48788 27.5825 1.02827 31.0421 1.02827 35.2945V44.5764Z" fill="#3A6BEA"/>
<path d="M13.7127 39.6071C15.7003 39.6071 17.3116 37.9958 17.3116 36.0081C17.3116 34.0205 15.7003 32.4092 13.7127 32.4092C11.7251 32.4092 10.1138 34.0205 10.1138 36.0081C10.1138 37.9958 11.7251 39.6071 13.7127 39.6071Z" fill="white"/>
<path d="M161.067 108.329H16.0881V59.4866H161.067V108.329ZM17.1164 107.301H160.039V60.5148H17.1164V107.301Z" fill="#DADADA"/>
<path d="M160.553 95.3474H16.6023V96.3757H160.553V95.3474Z" fill="#DADADA"/>
<path d="M160.553 83.3938H16.6023V84.4221H160.553V83.3938Z" fill="#DADADA"/>
<path d="M160.553 71.4404H16.6023V72.4687H160.553V71.4404Z" fill="#DADADA"/>
<path d="M146.672 60.0007H145.644V107.815H146.672V60.0007Z" fill="#DADADA"/>
<path d="M132.277 60.0007H131.249V107.815H132.277V60.0007Z" fill="#DADADA"/>
<path d="M117.882 60.0007H116.854V107.815H117.882V60.0007Z" fill="#DADADA"/>
<path d="M103.487 60.0007H102.459V107.815H103.487V60.0007Z" fill="#DADADA"/>
<path d="M89.092 60.0007H88.0637V107.815H89.092V60.0007Z" fill="#DADADA"/>
<path d="M74.6967 60.0007H73.6685V107.815H74.6967V60.0007Z" fill="#DADADA"/>
<path d="M60.3015 60.0007H59.2732V107.815H60.3015V60.0007Z" fill="#DADADA"/>
<path d="M45.9067 60.0007H44.8784V107.815H45.9067V60.0007Z" fill="#DADADA"/>
<path d="M31.5117 60.0007H30.4834V107.815H31.5117V60.0007Z" fill="#DADADA"/>
<path d="M159.915 108.312C158.924 106.302 157.8 104.025 156.026 102.476C153.948 100.661 151.365 100.325 149.448 101.618C149.046 101.889 148.623 102.299 148.175 102.733C146.955 103.916 145.436 105.388 143.492 104.601C142.08 104.03 141.266 102.949 140.479 101.903C139.98 101.24 139.508 100.613 138.894 100.114C137.437 98.9284 135.627 99.0214 133.199 100.408L133.034 100.502C131.574 101.339 129.756 102.381 128.059 100.402C127.252 99.4608 127.045 98.2919 126.845 97.1616C126.676 96.2058 126.516 95.303 126.011 94.5863C124.532 92.4937 122.484 91.7652 120.393 92.5863C119.334 93.0022 118.105 94.431 116.804 95.9438C114.912 98.1436 112.815 100.58 110.554 100.58C110.009 100.58 109.454 100.439 108.89 100.118C107.095 99.0975 107.23 96.8765 107.349 94.9169C107.459 93.0999 107.563 91.3837 106.361 90.6292C104.827 89.6665 102.837 91.3878 101.873 92.7799C100.428 94.867 98.0257 96.8667 95.9175 96.6266C95.0234 96.5253 93.7838 95.9682 92.9548 93.8904C92.2939 92.2344 92.398 90.4441 92.499 88.7128C92.5682 87.5239 92.6335 86.4005 92.462 85.3491C92.2016 83.7511 90.9121 81.6085 88.8672 81.8517C87.4134 82.0236 86.6934 83.3457 85.9312 84.7455C85.5076 85.5236 85.069 86.3285 84.4865 86.9372C83.5965 87.867 82.7323 88.2285 81.9179 88.012C80.966 87.7591 80.2438 86.7457 79.8297 85.082C79.8099 85.0023 79.7863 84.8977 79.7583 84.7743C79.2356 82.4699 78.84 82.1362 78.694 82.0997C78.6734 82.0949 78.5572 82.1231 78.3552 82.3563C77.8426 82.9481 77.8439 83.8344 77.8449 84.7725C77.8459 85.5709 77.847 86.3964 77.531 87.1311C77.1038 88.1239 76.1745 88.8087 74.9812 89.0102C73.4832 89.2634 71.8236 88.7187 70.8509 87.655C69.4501 86.1231 68.9167 83.7779 69.2653 80.6841C69.546 78.1939 69.4943 71.5006 67.7054 70.4752C67.2571 70.2186 66.6481 70.3734 65.8946 70.9366C64.7995 71.7554 64.1337 73.9494 63.9597 75.7607C63.59 79.608 62.3779 83.4139 60.4548 86.7665C59.8577 87.8074 58.9949 89.0318 57.6114 89.2611C56.8767 89.383 56.1459 89.1889 55.498 88.7005C54.6035 88.0259 53.9613 86.8588 53.8225 85.6542C53.7089 84.6681 53.8282 83.6938 53.9438 82.7514C54.0351 82.0067 54.1215 81.3031 54.1012 80.5967C54.0582 79.1011 53.222 77.479 51.8963 77.3535C51.2104 77.2864 49.8816 78.4777 48.8148 79.4329C47.2573 80.828 45.912 82.0311 44.7796 81.6136C44.1539 81.3823 43.7763 80.7147 43.6252 79.5728C43.5994 79.3792 43.5866 79.1646 43.5727 78.9371C43.5128 77.9463 43.4203 77.1785 42.8347 77.052C42.3025 76.9373 42.0385 77.0908 41.8861 77.2162C40.9262 78.007 40.9815 80.8887 41.0144 82.61C41.0308 83.4707 41.0439 84.1504 40.9619 84.5586C40.7293 85.72 39.8961 86.8437 38.8892 87.3544C38.1607 87.7241 37.3843 87.7537 36.7039 87.4382C35.2041 86.7431 34.9332 84.9162 34.8646 83.402L34.4 73.1528C34.345 71.9356 34.143 70.2621 33.0314 69.7844C32.6507 69.6207 32.2355 69.6271 31.798 69.8032C31.0651 70.0983 30.3584 70.8412 29.9978 71.6957C29.7512 72.2803 29.5937 72.9006 29.4268 73.5577C29.1929 74.4787 28.9513 75.4312 28.4412 76.2905C27.8567 77.2756 26.7292 78.0188 25.6359 78.1396C24.8461 78.2265 24.1346 77.9823 23.6333 77.4504C22.7541 76.5178 22.8994 75.2458 23.0277 74.1235C23.0917 73.5643 23.1575 72.9862 23.0994 72.4806C22.9698 71.3572 22.2454 70.7348 21.6606 70.4106C20.4004 69.7119 18.5223 69.6628 17.1948 70.2939L16.7534 69.3654C18.3832 68.5906 20.6063 68.6508 22.1593 69.5114C23.3004 70.1441 23.9791 71.1299 24.121 72.3628C24.1927 72.9854 24.1199 73.6232 24.0495 74.2402C23.9317 75.2703 23.8302 76.16 24.3816 76.7453C24.6641 77.045 25.0482 77.1705 25.5227 77.1175C26.2991 77.0317 27.1353 76.4759 27.5569 75.7656C27.9911 75.034 28.2045 74.1942 28.4302 73.3047C28.5988 72.6399 28.7734 71.9523 29.0502 71.2962C29.5191 70.1855 30.4248 69.2479 31.4137 68.8497C32.1047 68.5713 32.8044 68.568 33.4371 68.84C35.0795 69.5456 35.3594 71.6127 35.427 73.1065L35.8916 83.3558C35.9468 84.5797 36.1383 86.0434 37.1357 86.5056C37.5363 86.691 37.9694 86.6678 38.4237 86.4378C39.1527 86.0678 39.7817 85.212 39.9532 84.3568C40.0131 84.0583 39.9997 83.3645 39.9856 82.6301C39.9442 80.4776 39.8879 77.5296 41.2319 76.4227C41.7221 76.0191 42.3342 75.8926 43.0506 76.0471C44.4455 76.3479 44.5375 77.8687 44.5984 78.8751C44.611 79.0836 44.6231 79.2808 44.6439 79.4378C44.7336 80.1154 44.9177 80.5684 45.1359 80.6491C45.685 80.8532 47.0979 79.5895 48.1282 78.6669C49.5315 77.4096 50.8585 76.2224 51.9924 76.3296C53.9559 76.5155 55.0736 78.6515 55.1284 80.5671C55.1508 81.3509 55.0559 82.1262 54.9639 82.8763C54.8508 83.7995 54.7438 84.6714 54.8436 85.5362C54.9497 86.4565 55.4495 87.3761 56.1166 87.8789C56.5399 88.1982 56.987 88.3215 57.4428 88.2462C58.4001 88.0876 59.0782 87.0987 59.5625 86.2547C61.4137 83.028 62.58 79.3651 62.9358 75.6623C63.1173 73.7749 63.8396 71.189 65.2784 70.1132C66.3908 69.2816 67.3789 69.1032 68.2162 69.5831C71.1645 71.2734 70.2972 80.7052 70.2864 80.7992C69.9722 83.5846 70.4172 85.6578 71.609 86.9609C72.3555 87.7773 73.6416 88.1935 74.8092 87.9961C75.3043 87.9125 76.1935 87.6362 76.5855 86.7244C76.8177 86.1848 76.8169 85.4992 76.8159 84.7735C76.8146 83.7383 76.813 82.565 77.5773 81.6828C78.1202 81.0561 78.6202 81.0211 78.9431 81.1018C79.9564 81.3558 80.4125 83.0131 80.76 84.5465C80.7863 84.6617 80.8084 84.7594 80.8266 84.8334C81.1312 86.0568 81.6374 86.8737 82.1808 87.0182C82.7109 87.1591 83.3225 86.6653 83.7425 86.2262C84.2304 85.7164 84.6173 85.0059 85.0268 84.2537C85.841 82.7589 86.7636 81.0648 88.7453 80.8306C91.2144 80.5404 93.0898 82.8147 93.4759 85.1838C93.6653 86.3473 93.5936 87.5802 93.5242 88.7727C93.4301 90.3917 93.3324 92.0657 93.9085 93.5094C94.4229 94.7986 95.1373 95.5035 96.0321 95.605C97.7134 95.7976 99.7966 93.9706 101.026 92.1945C102.451 90.1375 104.898 88.4979 106.907 89.7583C108.626 90.8372 108.492 93.0377 108.374 94.9793C108.263 96.8006 108.159 98.5207 109.397 99.2245C111.565 100.457 113.831 97.8217 116.023 95.2734C117.41 93.6616 118.719 92.139 120.015 91.6297C122.545 90.6354 125.101 91.5194 126.85 93.994C127.487 94.8989 127.674 95.9582 127.856 96.9826C128.04 98.0227 128.214 99.0052 128.838 99.7333C129.928 101.004 130.899 100.54 132.521 99.6104L132.688 99.515C135.494 97.9127 137.736 97.8479 139.542 99.3171C140.252 99.8952 140.784 100.602 141.298 101.285C142.033 102.262 142.728 103.184 143.875 103.648C145.106 104.146 146.093 103.317 147.457 101.995C147.939 101.528 148.394 101.087 148.871 100.766C151.187 99.2042 154.26 99.5716 156.7 101.702C158.629 103.386 159.801 105.762 160.836 107.857L159.915 108.312Z" fill="#1E9A5F"/>
<path d="M54.5632 77.167C54.7679 75.9057 53.9113 74.7173 52.65 74.5126C51.3888 74.3079 50.2003 75.1644 49.9956 76.4257C49.7909 77.687 50.6475 78.8754 51.9088 79.0801C53.17 79.2848 54.3585 78.4283 54.5632 77.167Z" fill="#0A1D12"/>
<path d="M117.225 97.447C118.503 97.447 119.539 96.4112 119.539 95.1334C119.539 93.8557 118.503 92.8198 117.225 92.8198C115.947 92.8198 114.911 93.8557 114.911 95.1334C114.911 96.4112 115.947 97.447 117.225 97.447Z" fill="#0A1D12"/>
<path d="M27.3558 123.835H16.7305V201.649H27.3558V123.835Z" fill="#A2DB1E"/>
<path d="M49.5343 134.55H38.9089V201.73H49.5343V134.55Z" fill="#D6F58D"/>
<path d="M71.712 148.071H61.0867V201.832H71.712V148.071Z" fill="#A2DB1E"/>
<path d="M93.8903 156.374H83.2649V201.873H93.8903V156.374Z" fill="#D6F58D"/>
<path d="M116.068 143.412H105.443V201.761H116.068V143.412Z" fill="#A2DB1E"/>
<path d="M138.246 164.693H127.621V201.834H138.246V164.693Z" fill="#D6F58D"/>
<path d="M160.424 185.772H149.799V202.186H160.424V185.772Z" fill="#A2DB1E"/>
<path d="M237.358 45.0911V208.262C237.358 212.805 241.041 216.488 245.584 216.488H405.259C409.802 216.488 413.485 212.805 413.485 208.262V45.0911H237.358Z" fill="white"/>
<path d="M405.26 217.002H245.585C240.765 217.002 236.844 213.081 236.844 208.262V44.5769H414V208.262C414 213.081 410.079 217.002 405.26 217.002ZM237.873 45.6052V208.262C237.873 212.514 241.332 215.974 245.585 215.974H405.26C409.512 215.974 412.972 212.514 412.972 208.262V45.6052H237.873Z" fill="#3A6BEA"/>
<path d="M413.485 35.2947C413.485 30.7516 409.802 27.0686 405.259 27.0686H245.584C241.041 27.0686 237.358 30.7516 237.358 35.2947V45.0908H413.485V35.2947Z" fill="#1E9A5F"/>
<path d="M414 45.6047H236.844V35.2945C236.844 30.475 240.765 26.5542 245.584 26.5542H405.259C410.079 26.5542 414 30.475 414 35.2945V45.6047ZM237.872 44.5764H412.971V35.2945C412.971 31.0421 409.512 27.5825 405.259 27.5825H245.584C241.332 27.5825 237.872 31.0421 237.872 35.2945V44.5764Z" fill="#3A6BEA"/>
<path d="M251.414 39.6071C253.402 39.6071 255.013 37.9958 255.013 36.0081C255.013 34.0205 253.402 32.4092 251.414 32.4092C249.427 32.4092 247.815 34.0205 247.815 36.0081C247.815 37.9958 249.427 39.6071 251.414 39.6071Z" fill="white"/>
<path d="M397.269 123.834H386.644V201.649H397.269V123.834Z" fill="#A2DB1E"/>
<path d="M375.092 126.896H364.467V201.672H375.092V126.896Z" fill="#D6F58D"/>
<path d="M352.913 139.515H342.287V201.752H352.913V139.515Z" fill="#A2DB1E"/>
<path d="M330.735 148.298H320.11V201.778H330.735V148.298Z" fill="#D6F58D"/>
<path d="M308.557 164.48H297.931V201.966H308.557V164.48Z" fill="#A2DB1E"/>
<path d="M286.379 177.87H275.753V202.044H286.379V177.87Z" fill="#D6F58D"/>
<path d="M264.201 185.772H253.576V202.186H264.201V185.772Z" fill="#A2DB1E"/>
<path d="M282.511 135.905H262.677C260.976 135.905 259.598 137.283 259.598 138.984V151.102C259.598 152.802 260.976 154.181 262.677 154.181H275.146L278.889 160.069L282.64 154.168C284.279 154.098 285.59 152.758 285.59 151.102V138.984C285.59 137.283 284.211 135.905 282.511 135.905Z" fill="#B7E8D0"/>
<path d="M272.594 140.009L274.163 143.187L277.67 143.697L275.132 146.171L275.731 149.664L272.594 148.015L269.457 149.664L270.056 146.171L267.518 143.697L271.026 143.187L272.594 140.009Z" fill="white"/>
<path d="M397.912 108.329H252.933V59.4866H397.912V108.329ZM253.961 107.301H396.884V60.5148H253.961V107.301Z" fill="#DADADA"/>
<path d="M397.398 95.3474H253.447V96.3757H397.398V95.3474Z" fill="#DADADA"/>
<path d="M397.398 83.3938H253.447V84.4221H397.398V83.3938Z" fill="#DADADA"/>
<path d="M397.398 71.4404H253.447V72.4687H397.398V71.4404Z" fill="#DADADA"/>
<path d="M383.517 60.0007H382.489V107.815H383.517V60.0007Z" fill="#DADADA"/>
<path d="M369.122 60.0007H368.094V107.815H369.122V60.0007Z" fill="#DADADA"/>
<path d="M354.727 60.0007H353.699V107.815H354.727V60.0007Z" fill="#DADADA"/>
<path d="M340.332 60.0007H339.303V107.815H340.332V60.0007Z" fill="#DADADA"/>
<path d="M325.937 60.0007H324.909V107.815H325.937V60.0007Z" fill="#DADADA"/>
<path d="M311.541 60.0007H310.513V107.815H311.541V60.0007Z" fill="#DADADA"/>
<path d="M297.146 60.0007H296.118V107.815H297.146V60.0007Z" fill="#DADADA"/>
<path d="M282.751 60.0007H281.723V107.815H282.751V60.0007Z" fill="#DADADA"/>
<path d="M268.356 60.0007H267.328V107.815H268.356V60.0007Z" fill="#DADADA"/>
<path d="M265.225 100.339C264.959 100.339 264.678 100.311 264.382 100.251C262.092 99.7891 261.675 97.7316 261.341 96.0781C260.994 94.3645 260.715 93.3087 259.397 93.1961C257.879 93.0671 255.288 94.9971 254.017 96.3429L253.269 95.6367C254.241 94.6082 257.255 91.9792 259.484 92.1714C261.637 92.355 262.015 94.2246 262.349 95.874C262.732 97.7668 263.074 98.938 264.585 99.2431C267.095 99.7503 268.12 97.1958 269.033 94.3038L272.211 84.2314C272.704 82.6715 273.261 80.9034 274.512 79.5816C275.731 78.2921 277.954 77.4803 279.672 78.5171C280.957 79.2919 281.61 80.7852 281.612 82.9556C281.613 83.3476 281.601 83.7594 281.588 84.1954C281.541 85.7993 281.489 87.617 282.072 88.8846C282.345 89.4776 282.862 89.9463 283.421 90.1082C283.848 90.2316 284.256 90.1694 284.636 89.9226C285.832 89.1458 285.975 87.692 286.127 86.1532C286.221 85.1892 286.32 84.1926 286.695 83.342C287.394 81.7615 289.056 81.0875 290.733 81.7024C294.165 82.9595 294.007 87.1044 293.902 89.8473L293.891 90.1527C293.82 92.1116 294.039 94.8632 295.494 96.8475C296.07 97.6336 296.848 98.0822 297.571 98.0475C298.214 98.0166 298.783 97.6172 299.214 96.8917C299.956 95.6462 300.046 93.93 300.133 92.2704C300.159 91.7655 300.184 91.2889 300.227 90.8293L300.912 83.5499C301.196 80.5343 302.242 78.731 303.938 78.3346C304.692 78.1582 305.357 78.268 305.912 78.6608C306.783 79.2772 307.311 80.5392 307.528 82.5183C307.587 83.0522 307.556 83.6541 307.524 84.2911C307.418 86.3702 307.463 87.7625 308.975 88.1579C309.906 88.4011 310.981 87.7337 311.483 86.9476C312.138 85.9193 312.31 84.6234 312.477 83.37C312.524 83.0116 312.572 82.6558 312.629 82.3073C313.03 79.869 313.534 76.9975 314.226 74.1896L314.235 74.1528C314.621 72.5827 315.151 70.4318 316.799 69.4776C318.043 68.7568 319.03 68.9557 319.638 69.2498C321.113 69.9629 322.025 72.0076 322.275 73.7174C322.439 74.8392 322.414 76.0405 322.39 77.2019C322.358 78.7507 322.325 80.352 322.749 81.7137C323.169 83.0613 324.522 84.7528 326.221 84.2944C328.029 83.8057 328.404 82.242 328.839 80.4317C328.923 80.0798 329.011 79.7158 329.11 79.3646C329.908 76.5338 331.003 72.6572 333.454 70.1549C334.964 68.6133 337.345 68.2673 339.243 69.3138C342.099 70.8896 342.073 74.3315 342.049 77.368C342.037 78.9451 342.026 80.4348 342.387 81.5633C342.86 83.043 343.669 83.9651 344.793 84.3036C345.721 84.5828 346.571 84.499 347.321 84.0543C348.701 83.2361 349.532 81.3404 349.849 79.8394L349.984 79.1916C350.633 76.0775 351.522 71.8125 353.532 69.4534C354.883 67.867 356.698 67.2403 358.511 67.7339C360.462 68.265 361.969 70.0092 362.35 72.1768C362.396 72.4387 362.436 72.7025 362.477 72.9665C362.604 73.8019 362.725 74.5911 363.023 75.3197C363.442 76.3425 364.154 76.9711 365.028 77.0896C365.991 77.2212 367.01 76.7197 367.759 75.7515C368.327 75.0179 368.713 74.1688 369.123 73.2698C369.368 72.7315 369.622 72.175 369.919 71.6428C372.618 66.8046 378.304 64.9074 382.725 64.7455C387.861 64.5573 392.836 66.1743 397.227 67.6005L396.909 68.5786C392.599 67.1784 387.716 65.592 382.762 65.773C378.621 65.9246 373.308 67.6781 370.817 72.1436C370.54 72.6392 370.296 73.1765 370.059 73.696C369.643 74.6089 369.213 75.5526 368.573 76.3806C367.596 77.643 366.217 78.288 364.89 78.1086C363.655 77.941 362.628 77.0667 362.072 75.7094C361.727 74.8675 361.591 73.9798 361.46 73.1217C361.421 72.8654 361.382 72.6092 361.337 72.3549C361.025 70.5776 359.81 69.1531 358.241 68.7262C356.828 68.3413 355.397 68.8498 354.315 70.1202C352.475 72.2793 351.618 76.3957 350.991 79.4014L350.855 80.0518C350.386 82.2728 349.261 84.0998 347.846 84.9389C346.838 85.536 345.712 85.6538 344.498 85.2882C343.05 84.8525 341.981 83.6725 341.407 81.8762C340.997 80.5911 341.009 79.0217 341.021 77.36C341.044 74.4762 341.067 71.4943 338.747 70.2143C337.251 69.3896 335.377 69.6614 334.189 70.8745C331.921 73.1888 330.868 76.9197 330.1 79.6435C330.006 79.9757 329.921 80.3294 329.839 80.6716C329.393 82.5312 328.886 84.6389 326.489 85.2869C324.353 85.8643 322.411 84.0797 321.768 82.0199C321.294 80.4985 321.329 78.8117 321.362 77.1808C321.387 76.0096 321.41 74.9035 321.258 73.866C321.048 72.4272 320.27 70.6973 319.191 70.1755C318.624 69.9012 318.011 69.9642 317.315 70.3673C316.046 71.1025 315.595 72.93 315.234 74.3986L315.225 74.4354C314.541 77.2089 314.042 80.0554 313.644 82.4741C313.589 82.8121 313.543 83.1574 313.497 83.5049C313.316 84.8695 313.129 86.2802 312.35 87.5005C311.643 88.6088 310.167 89.5321 308.715 89.1524C306.281 88.5159 306.406 86.044 306.498 84.2389C306.528 83.6438 306.556 83.0821 306.507 82.6299C306.282 80.5787 305.737 79.7955 305.319 79.4996C305.01 79.2811 304.635 79.2271 304.173 79.3353C302.544 79.7163 302.072 82.1993 301.936 83.6458L301.252 90.9252C301.211 91.3637 301.186 91.8301 301.16 92.3239C301.071 94.0252 300.97 95.9534 300.099 97.4174C299.491 98.4382 298.611 99.0267 297.621 99.074C296.537 99.1285 295.458 98.5357 294.665 97.4549C293.036 95.2323 292.786 92.2365 292.864 90.1147L292.875 89.8077C292.974 87.2162 293.11 83.6672 290.38 82.6674C289.215 82.2412 288.113 82.6792 287.636 83.7574C287.327 84.4569 287.241 85.3296 287.15 86.2535C286.989 87.8869 286.807 89.738 285.197 90.7846C284.564 91.1954 283.852 91.3028 283.135 91.0956C282.285 90.8496 281.539 90.1838 281.138 89.3141C280.454 87.8278 280.511 85.882 280.561 84.1654C280.573 83.7373 280.585 83.333 280.584 82.9566C280.582 81.171 280.097 79.9736 279.142 79.3973C277.885 78.6394 276.203 79.2898 275.259 80.288C274.171 81.4381 273.651 83.0864 273.192 84.5409L270.02 94.5917C269.323 96.7986 268.206 100.339 265.225 100.339Z" fill="#1E9A5F"/>
<path d="M297.344 100.36C298.622 100.36 299.657 99.3245 299.657 98.0468C299.657 96.769 298.622 95.7332 297.344 95.7332C296.066 95.7332 295.03 96.769 295.03 98.0468C295.03 99.3245 296.066 100.36 297.344 100.36Z" fill="#0A1D12"/>
<path d="M382.947 67.4556C384.225 67.4556 385.261 66.4197 385.261 65.142C385.261 63.8642 384.225 62.8284 382.947 62.8284C381.67 62.8284 380.634 63.8642 380.634 65.142C380.634 66.4197 381.67 67.4556 382.947 67.4556Z" fill="#0A1D12"/>
</svg>
