<svg width="442" height="339" viewBox="0 0 442 339" fill="none" xmlns="http://www.w3.org/2000/svg">
<g filter="url(#filter0_d_147_3347)">
<path d="M279.701 223.427H169.676V317H279.701V223.427Z" fill="#1E9A5F"/>
<path opacity="0.6" d="M279.701 285.022L169.676 275.165V223.427H279.701V285.022Z" fill="#0A4C2D"/>
<path d="M393.449 256.784H55.9285C51.0985 256.784 47.1829 252.868 47.1829 248.038V14.9439C47.1829 10.1139 51.0985 6.19824 55.9285 6.19824H393.449C398.279 6.19824 402.195 10.1139 402.195 14.9439V248.038C402.195 252.868 398.279 256.784 393.449 256.784Z" fill="#1E9A5F"/>
<path d="M385.4 18.0012H63.9834V239.254H385.4V18.0012Z" fill="white"/>
<path opacity="0.3" d="M204.352 79.1935V239.254H63.9834V73.0239H198.183C201.59 73.0239 204.352 75.7861 204.352 79.1935Z" fill="#B7E8D0"/>
<path opacity="0.3" d="M385.399 73.0239V239.254H237.986V79.1935C237.986 75.7861 240.749 73.0239 244.156 73.0239H385.399Z" fill="#B7E8D0"/>
<path d="M14.5139 214.262C14.5139 218.805 18.1969 222.488 22.7401 222.488H182.415C186.958 222.488 190.641 218.805 190.641 214.262V51.0908H14.5139V214.262Z" fill="white"/>
<path d="M182.415 223.002H22.7403C17.921 223.002 14 219.081 14 214.262V50.5767H191.155V214.262C191.155 219.081 187.234 223.002 182.415 223.002ZM15.0283 51.6049V214.262C15.0283 218.514 18.4879 221.974 22.7403 221.974H182.415C186.668 221.974 190.127 218.514 190.127 214.262V51.6049H15.0283Z" fill="#3A6BEA"/>
<path d="M182.415 33.0684H22.7401C18.1969 33.0684 14.5139 36.7514 14.5139 41.2945V51.0906H190.641V41.2945C190.641 36.7514 186.958 33.0684 182.415 33.0684Z" fill="#1E9A5F"/>
<path d="M191.155 51.6044H14V41.2942C14 36.4747 17.921 32.554 22.7403 32.554H182.415C187.235 32.554 191.155 36.4747 191.155 41.2942V51.6044ZM15.0283 50.5762H190.127V41.2942C190.127 37.0418 186.668 33.5822 182.415 33.5822H22.7403C18.4879 33.5822 15.0283 37.0418 15.0283 41.2942V50.5762Z" fill="#3A6BEA"/>
<path d="M27.7127 45.6068C29.7003 45.6068 31.3116 43.9955 31.3116 42.0079C31.3116 40.0202 29.7003 38.4089 27.7127 38.4089C25.7251 38.4089 24.1138 40.0202 24.1138 42.0079C24.1138 43.9955 25.7251 45.6068 27.7127 45.6068Z" fill="white"/>
<path d="M175.067 114.329H30.0881V65.4863H175.067V114.329ZM31.1164 113.301H174.039V66.5146H31.1164V113.301Z" fill="#DADADA"/>
<path d="M174.553 101.347H30.6023V102.375H174.553V101.347Z" fill="#DADADA"/>
<path d="M174.553 89.3936H30.6023V90.4218H174.553V89.3936Z" fill="#DADADA"/>
<path d="M174.553 77.4402H30.6023V78.4685H174.553V77.4402Z" fill="#DADADA"/>
<path d="M160.672 66.0005H159.644V113.815H160.672V66.0005Z" fill="#DADADA"/>
<path d="M146.277 66.0005H145.249V113.815H146.277V66.0005Z" fill="#DADADA"/>
<path d="M131.882 66.0005H130.854V113.815H131.882V66.0005Z" fill="#DADADA"/>
<path d="M117.487 66.0005H116.459V113.815H117.487V66.0005Z" fill="#DADADA"/>
<path d="M103.092 66.0005H102.064V113.815H103.092V66.0005Z" fill="#DADADA"/>
<path d="M88.6967 66.0005H87.6685V113.815H88.6967V66.0005Z" fill="#DADADA"/>
<path d="M74.3015 66.0005H73.2732V113.815H74.3015V66.0005Z" fill="#DADADA"/>
<path d="M59.9067 66.0005H58.8784V113.815H59.9067V66.0005Z" fill="#DADADA"/>
<path d="M45.5117 66.0005H44.4834V113.815H45.5117V66.0005Z" fill="#DADADA"/>
<path d="M173.915 114.311C172.924 112.302 171.8 110.025 170.026 108.476C167.948 106.661 165.365 106.324 163.448 107.618C163.046 107.888 162.623 108.299 162.175 108.733C160.955 109.916 159.436 111.387 157.492 110.601C156.08 110.03 155.266 108.948 154.479 107.903C153.98 107.239 153.508 106.613 152.894 106.114C151.437 104.928 149.627 105.021 147.199 106.407L147.034 106.502C145.574 107.339 143.756 108.381 142.059 106.402C141.252 105.461 141.045 104.292 140.845 103.161C140.676 102.206 140.516 101.303 140.011 100.586C138.532 98.4935 136.484 97.765 134.393 98.586C133.334 99.002 132.105 100.431 130.804 101.944C128.912 104.143 126.815 106.58 124.554 106.58C124.009 106.58 123.454 106.439 122.89 106.118C121.095 105.097 121.23 102.876 121.349 100.917C121.459 99.0997 121.563 97.3835 120.361 96.629C118.827 95.6663 116.837 97.3876 115.873 98.7796C114.428 100.867 112.026 102.866 109.917 102.626C109.023 102.525 107.784 101.968 106.955 99.8901C106.294 98.2341 106.398 96.4439 106.499 94.7125C106.568 93.5236 106.633 92.4002 106.462 91.3488C106.202 89.7509 104.912 87.6082 102.867 87.8514C101.413 88.0234 100.693 89.3455 99.9312 90.7452C99.5076 91.5234 99.069 92.3283 98.4865 92.937C97.5965 93.8668 96.7323 94.2282 95.9179 94.0118C94.966 93.7588 94.2438 92.7455 93.8297 91.0817C93.8099 91.0021 93.7863 90.8974 93.7583 90.774C93.2356 88.4697 92.84 88.136 92.694 88.0995C92.6734 88.0946 92.5572 88.1229 92.3552 88.3561C91.8426 88.9478 91.8439 89.8342 91.8449 90.7722C91.8459 91.5707 91.847 92.3961 91.531 93.1308C91.1038 94.1236 90.1745 94.8084 88.9812 95.01C87.4832 95.2632 85.8236 94.7185 84.8509 93.6547C83.4501 92.1229 82.9167 89.7776 83.2653 86.6838C83.546 84.1936 83.4943 77.5004 81.7054 76.4749C81.2571 76.2184 80.6481 76.3731 79.8946 76.9364C78.7995 77.7551 78.1337 79.9492 77.9597 81.7605C77.59 85.6078 76.3779 89.4136 74.4548 92.7663C73.8577 93.8072 72.9949 95.0316 71.6114 95.2609C70.8767 95.3827 70.1459 95.1886 69.498 94.7002C68.6035 94.0257 67.9613 92.8586 67.8225 91.654C67.7089 90.6679 67.8282 89.6936 67.9438 88.7512C68.0351 88.0064 68.1215 87.3029 68.1012 86.5964C68.0582 85.1008 67.222 83.4787 65.8963 83.3533C65.2104 83.2862 63.8816 84.4774 62.8148 85.4327C61.2573 86.8278 59.912 88.0309 58.7796 87.6134C58.1539 87.382 57.7763 86.7144 57.6252 85.5725C57.5994 85.379 57.5866 85.1643 57.5727 84.9368C57.5128 83.9461 57.4203 83.1782 56.8347 83.0517C56.3025 82.9371 56.0385 83.0905 55.8861 83.216C54.9262 84.0067 54.9815 86.8885 55.0144 88.6098C55.0308 89.4704 55.0439 90.1501 54.9619 90.5583C54.7293 91.7198 53.8961 92.8434 52.8892 93.3542C52.1607 93.7239 51.3843 93.7534 50.7039 93.438C49.2041 92.7429 48.9332 90.9159 48.8646 89.4018L48.4 79.1525C48.345 77.9353 48.143 76.2618 47.0314 75.7842C46.6507 75.6204 46.2355 75.6269 45.798 75.803C45.0651 76.0981 44.3584 76.841 43.9978 77.6955C43.7512 78.2801 43.5937 78.9004 43.4268 79.5574C43.1929 80.4785 42.9513 81.4309 42.4412 82.2903C41.8567 83.2754 40.7292 84.0186 39.6359 84.1394C38.8461 84.2263 38.1346 83.9821 37.6333 83.4502C36.7541 82.5175 36.8994 81.2456 37.0277 80.1232C37.0917 79.5641 37.1575 78.986 37.0994 78.4803C36.9698 77.3569 36.2454 76.7346 35.6606 76.4104C34.4004 75.7117 32.5223 75.6626 31.1948 76.2937L30.7534 75.3652C32.3832 74.5904 34.6063 74.6505 36.1593 75.5112C37.3004 76.1438 37.9791 77.1297 38.121 78.3626C38.1927 78.9852 38.1199 79.623 38.0495 80.2399C37.9317 81.27 37.8302 82.1597 38.3816 82.7451C38.6641 83.0448 39.0482 83.1702 39.5227 83.1173C40.2991 83.0314 41.1353 82.4756 41.5569 81.7654C41.9911 81.0338 42.2045 80.1939 42.4302 79.3045C42.5988 78.6397 42.7734 77.952 43.0502 77.296C43.5191 76.1852 44.4248 75.2477 45.4137 74.8495C46.1047 74.5711 46.8044 74.5677 47.4371 74.8397C49.0795 75.5454 49.3594 77.6124 49.427 79.1063L49.8916 89.3555C49.9468 90.5794 50.1383 92.0432 51.1357 92.5054C51.5363 92.6907 51.9694 92.6676 52.4237 92.4375C53.1527 92.0676 53.7817 91.2118 53.9532 90.3565C54.0131 90.0581 53.9997 89.3643 53.9856 88.6298C53.9442 86.4774 53.8879 83.5294 55.2319 82.4224C55.7221 82.0188 56.3342 81.8924 57.0506 82.0469C58.4455 82.3476 58.5375 83.8684 58.5984 84.8749C58.611 85.0833 58.6231 85.2805 58.6439 85.4376C58.7336 86.1152 58.9177 86.5682 59.1359 86.6489C59.685 86.853 61.0979 85.5892 62.1282 84.6666C63.5315 83.4093 64.8585 82.2222 65.9924 82.3294C67.9559 82.5152 69.0736 84.6512 69.1284 86.5669C69.1508 87.3507 69.0559 88.126 68.9639 88.8761C68.8508 89.7992 68.7438 90.6712 68.8436 91.536C68.9497 92.4563 69.4495 93.3758 70.1166 93.8786C70.5399 94.1979 70.987 94.3213 71.4428 94.246C72.4001 94.0874 73.0782 93.0984 73.5625 92.2545C75.4137 89.0278 76.58 85.3648 76.9358 81.662C77.1173 79.7746 77.8396 77.1888 79.2784 76.113C80.3908 75.2814 81.3789 75.103 82.2162 75.5829C85.1645 77.2731 84.2972 86.7049 84.2864 86.799C83.9722 89.5843 84.4172 91.6576 85.609 92.9606C86.3555 93.7771 87.6416 94.1933 88.8092 93.9959C89.3043 93.9123 90.1935 93.636 90.5855 92.7241C90.8177 92.1846 90.8169 91.499 90.8159 90.7733C90.8146 89.738 90.813 88.5648 91.5773 87.6825C92.1202 87.0558 92.6202 87.0208 92.9431 87.1016C93.9564 87.3555 94.4125 89.0129 94.76 90.5463C94.7863 90.6614 94.8084 90.7591 94.8266 90.8331C95.1312 92.0565 95.6374 92.8735 96.1808 93.018C96.7109 93.1588 97.3225 92.665 97.7425 92.2259C98.2304 91.7162 98.6173 91.0056 99.0268 90.2535C99.841 88.7586 100.764 87.0645 102.745 86.8304C105.214 86.5401 107.09 88.8144 107.476 91.1835C107.665 92.347 107.594 93.5799 107.524 94.7724C107.43 96.3915 107.332 98.0655 107.909 99.5092C108.423 100.798 109.137 101.503 110.032 101.605C111.713 101.797 113.797 99.9703 115.026 98.1943C116.451 96.1372 118.898 94.4976 120.907 95.758C122.626 96.837 122.492 99.0374 122.374 100.979C122.263 102.8 122.159 104.52 123.397 105.224C125.565 106.457 127.831 103.821 130.023 101.273C131.41 99.6613 132.719 98.1387 134.015 97.6295C136.545 96.6352 139.101 97.5192 140.85 99.9937C141.487 100.899 141.674 101.958 141.856 102.982C142.04 104.022 142.214 105.005 142.838 105.733C143.928 107.004 144.899 106.54 146.521 105.61L146.688 105.515C149.494 103.912 151.736 103.848 153.542 105.317C154.252 105.895 154.784 106.602 155.298 107.285C156.033 108.262 156.728 109.184 157.875 109.648C159.106 110.146 160.093 109.317 161.457 107.995C161.939 107.528 162.394 107.087 162.871 106.766C165.187 105.204 168.26 105.571 170.7 107.702C172.629 109.386 173.801 111.762 174.836 113.857L173.915 114.311Z" fill="#1E9A5F"/>
<path d="M68.5632 83.1667C68.7679 81.9055 67.9113 80.717 66.65 80.5124C65.3888 80.3077 64.2003 81.1642 63.9956 82.4255C63.7909 83.6868 64.6475 84.8752 65.9088 85.0799C67.17 85.2846 68.3585 84.428 68.5632 83.1667Z" fill="#0A1D12"/>
<path d="M131.225 103.447C132.503 103.447 133.539 102.411 133.539 101.133C133.539 99.8554 132.503 98.8196 131.225 98.8196C129.947 98.8196 128.911 99.8554 128.911 101.133C128.911 102.411 129.947 103.447 131.225 103.447Z" fill="#0A1D12"/>
<path d="M41.3558 129.834H30.7305V207.649H41.3558V129.834Z" fill="#A2DB1E"/>
<path d="M63.5343 140.55H52.9089V207.73H63.5343V140.55Z" fill="#D6F58D"/>
<path d="M85.712 154.071H75.0867V207.832H85.712V154.071Z" fill="#A2DB1E"/>
<path d="M107.89 162.373H97.2649V207.873H107.89V162.373Z" fill="#D6F58D"/>
<path d="M130.068 149.411H119.443V207.761H130.068V149.411Z" fill="#A2DB1E"/>
<path d="M152.246 170.693H141.621V207.834H152.246V170.693Z" fill="#D6F58D"/>
<path d="M174.424 191.772H163.799V208.186H174.424V191.772Z" fill="#A2DB1E"/>
<path d="M251.358 51.0908V214.262C251.358 218.805 255.041 222.488 259.584 222.488H419.259C423.802 222.488 427.485 218.805 427.485 214.262V51.0908H251.358Z" fill="white"/>
<path d="M419.26 223.002H259.585C254.765 223.002 250.844 219.081 250.844 214.262V50.5767H428V214.262C428 219.081 424.079 223.002 419.26 223.002ZM251.873 51.6049V214.262C251.873 218.514 255.332 221.974 259.585 221.974H419.26C423.512 221.974 426.972 218.514 426.972 214.262V51.6049H251.873Z" fill="#3A6BEA"/>
<path d="M427.485 41.2945C427.485 36.7514 423.802 33.0684 419.259 33.0684H259.584C255.041 33.0684 251.358 36.7514 251.358 41.2945V51.0906H427.485V41.2945Z" fill="#1E9A5F"/>
<path d="M428 51.6044H250.844V41.2942C250.844 36.4747 254.765 32.554 259.584 32.554H419.259C424.079 32.554 428 36.4747 428 41.2942V51.6044ZM251.872 50.5762H426.971V41.2942C426.971 37.0418 423.512 33.5822 419.259 33.5822H259.584C255.332 33.5822 251.872 37.0418 251.872 41.2942V50.5762Z" fill="#3A6BEA"/>
<path d="M265.414 45.6068C267.402 45.6068 269.013 43.9955 269.013 42.0079C269.013 40.0202 267.402 38.4089 265.414 38.4089C263.427 38.4089 261.815 40.0202 261.815 42.0079C261.815 43.9955 263.427 45.6068 265.414 45.6068Z" fill="white"/>
<path d="M411.269 129.834H400.644V207.648H411.269V129.834Z" fill="#A2DB1E"/>
<path d="M389.092 132.896H378.467V207.671H389.092V132.896Z" fill="#D6F58D"/>
<path d="M366.913 145.515H356.287V207.751H366.913V145.515Z" fill="#A2DB1E"/>
<path d="M344.735 154.298H334.11V207.777H344.735V154.298Z" fill="#D6F58D"/>
<path d="M322.557 170.48H311.931V207.966H322.557V170.48Z" fill="#A2DB1E"/>
<path d="M300.379 183.869H289.753V208.043H300.379V183.869Z" fill="#D6F58D"/>
<path d="M278.201 191.772H267.576V208.186H278.201V191.772Z" fill="#A2DB1E"/>
<path d="M296.511 141.905H276.677C274.976 141.905 273.598 143.283 273.598 144.984V157.102C273.598 158.802 274.976 160.18 276.677 160.18H289.146L292.889 166.069L296.64 160.167C298.279 160.098 299.59 158.758 299.59 157.102V144.984C299.59 143.283 298.211 141.905 296.511 141.905Z" fill="#B7E8D0"/>
<path d="M286.594 146.009L288.163 149.187L291.67 149.697L289.132 152.171L289.731 155.664L286.594 154.015L283.457 155.664L284.056 152.171L281.518 149.697L285.026 149.187L286.594 146.009Z" fill="white"/>
<path d="M411.912 114.329H266.933V65.4863H411.912V114.329ZM267.961 113.301H410.884V66.5146H267.961V113.301Z" fill="#DADADA"/>
<path d="M411.398 101.347H267.447V102.375H411.398V101.347Z" fill="#DADADA"/>
<path d="M411.398 89.3936H267.447V90.4218H411.398V89.3936Z" fill="#DADADA"/>
<path d="M411.398 77.4402H267.447V78.4685H411.398V77.4402Z" fill="#DADADA"/>
<path d="M397.517 66.0005H396.489V113.815H397.517V66.0005Z" fill="#DADADA"/>
<path d="M383.122 66.0005H382.094V113.815H383.122V66.0005Z" fill="#DADADA"/>
<path d="M368.727 66.0005H367.699V113.815H368.727V66.0005Z" fill="#DADADA"/>
<path d="M354.332 66.0005H353.303V113.815H354.332V66.0005Z" fill="#DADADA"/>
<path d="M339.937 66.0005H338.909V113.815H339.937V66.0005Z" fill="#DADADA"/>
<path d="M325.541 66.0005H324.513V113.815H325.541V66.0005Z" fill="#DADADA"/>
<path d="M311.146 66.0005H310.118V113.815H311.146V66.0005Z" fill="#DADADA"/>
<path d="M296.751 66.0005H295.723V113.815H296.751V66.0005Z" fill="#DADADA"/>
<path d="M282.356 66.0005H281.328V113.815H282.356V66.0005Z" fill="#DADADA"/>
<path d="M279.225 106.339C278.959 106.339 278.678 106.311 278.382 106.251C276.092 105.789 275.675 103.731 275.341 102.078C274.994 100.364 274.715 99.3085 273.397 99.1959C271.879 99.0668 269.288 100.997 268.017 102.343L267.269 101.636C268.241 100.608 271.255 97.9789 273.484 98.1712C275.637 98.3547 276.015 100.224 276.349 101.874C276.732 103.767 277.074 104.938 278.585 105.243C281.095 105.75 282.12 103.196 283.033 100.304L286.211 90.2312C286.704 88.6713 287.261 86.9032 288.512 85.5813C289.731 84.2919 291.954 83.4801 293.672 84.5168C294.957 85.2916 295.61 86.7849 295.612 88.9554C295.613 89.3474 295.601 89.7592 295.588 90.1952C295.541 91.799 295.489 93.6167 296.072 94.8843C296.345 95.4774 296.862 95.946 297.421 96.108C297.848 96.2314 298.256 96.1692 298.636 95.9224C299.832 95.1455 299.975 93.6918 300.127 92.153C300.221 91.189 300.32 90.1924 300.695 89.3417C301.394 87.7613 303.056 87.0872 304.733 87.7022C308.165 88.9592 308.007 93.1041 307.902 95.8471L307.891 96.1525C307.82 98.1113 308.039 100.863 309.494 102.847C310.07 103.633 310.848 104.082 311.571 104.047C312.214 104.016 312.783 103.617 313.214 102.891C313.956 101.646 314.046 99.9298 314.133 98.2702C314.159 97.7653 314.184 97.2887 314.227 96.8291L314.912 89.5497C315.196 86.534 316.242 84.7307 317.938 84.3343C318.692 84.158 319.357 84.2677 319.912 84.6605C320.783 85.277 321.311 86.5389 321.528 88.5181C321.587 89.052 321.556 89.6538 321.524 90.2908C321.418 92.37 321.463 93.7623 322.975 94.1576C323.906 94.4008 324.981 93.7335 325.483 92.9473C326.138 91.9191 326.31 90.6232 326.477 89.3697C326.524 89.0114 326.572 88.6556 326.629 88.307C327.03 85.8687 327.534 82.9973 328.226 80.1894L328.235 80.1526C328.621 78.5824 329.151 76.4316 330.799 75.4773C332.043 74.7565 333.03 74.9555 333.638 75.2496C335.113 75.9627 336.025 78.0074 336.275 79.7171C336.439 80.839 336.414 82.0402 336.39 83.2017C336.358 84.7505 336.325 86.3518 336.749 87.7135C337.169 89.061 338.522 90.7525 340.221 90.2942C342.029 89.8055 342.404 88.2417 342.839 86.4315C342.923 86.0795 343.011 85.7155 343.11 85.3644C343.908 82.5336 345.003 78.657 347.454 76.1547C348.964 74.6131 351.345 74.2671 353.243 75.3136C356.099 76.8894 356.073 80.3313 356.049 83.3677C356.037 84.9448 356.026 86.4345 356.387 87.5631C356.86 89.0428 357.669 89.9648 358.793 90.3034C359.721 90.5826 360.571 90.4988 361.321 90.0541C362.701 89.2358 363.532 87.3402 363.849 85.8392L363.984 85.1914C364.633 82.0773 365.522 77.8123 367.532 75.4531C368.883 73.8668 370.698 73.2401 372.511 73.7336C374.462 74.2647 375.969 76.0089 376.35 78.1765C376.396 78.4385 376.436 78.7022 376.477 78.9662C376.604 79.8017 376.725 80.5909 377.023 81.3194C377.442 82.3423 378.154 82.9708 379.028 83.0893C379.991 83.221 381.01 82.7194 381.759 81.7513C382.327 81.0176 382.713 80.1685 383.123 79.2696C383.368 78.7313 383.622 78.1747 383.919 77.6426C386.618 72.8043 392.304 70.9072 396.725 70.7452C401.861 70.5571 406.836 72.174 411.227 73.6002L410.909 74.5784C406.599 73.1781 401.716 71.5918 396.762 71.7727C392.621 71.9244 387.308 73.6779 384.817 78.1434C384.54 78.639 384.296 79.1763 384.059 79.6958C383.643 80.6086 383.213 81.5523 382.573 82.3803C381.596 83.6428 380.217 84.2878 378.89 84.1083C377.655 83.9407 376.628 83.0664 376.072 81.7091C375.727 80.8672 375.591 79.9796 375.46 79.1215C375.421 78.8652 375.382 78.6089 375.337 78.3547C375.025 76.5773 373.81 75.1529 372.241 74.7259C370.828 74.3411 369.397 74.8496 368.315 76.12C366.475 78.2791 365.618 82.3955 364.991 85.4011L364.855 86.0515C364.386 88.2726 363.261 90.0996 361.846 90.9386C360.838 91.5358 359.712 91.6535 358.498 91.288C357.05 90.8522 355.981 89.6723 355.407 87.8759C354.997 86.5908 355.009 85.0214 355.021 83.3598C355.044 80.476 355.067 77.494 352.747 76.2141C351.251 75.3894 349.377 75.6611 348.189 76.8742C345.921 79.1886 344.868 82.9194 344.1 85.6433C344.006 85.9754 343.921 86.3292 343.839 86.6713C343.393 88.5309 342.886 90.6386 340.489 91.2867C338.353 91.8641 336.411 90.0795 335.768 88.0196C335.294 86.4983 335.329 84.8114 335.362 83.1806C335.387 82.0094 335.41 80.9032 335.258 79.8657C335.048 78.4269 334.27 76.6971 333.191 76.1753C332.624 75.901 332.011 75.964 331.315 76.367C330.046 77.1022 329.595 78.9297 329.234 80.3983L329.225 80.4351C328.541 83.2086 328.042 86.0551 327.644 88.4739C327.589 88.8119 327.543 89.1571 327.497 89.5047C327.316 90.8692 327.129 92.28 326.35 93.5003C325.643 94.6085 324.167 95.5319 322.715 95.1522C320.281 94.5157 320.406 92.0438 320.498 90.2386C320.528 89.6435 320.556 89.0818 320.507 88.6296C320.282 86.5785 319.737 85.7952 319.319 85.4993C319.01 85.2808 318.635 85.2269 318.173 85.3351C316.544 85.716 316.072 88.1991 315.936 89.6456L315.252 96.9249C315.211 97.3635 315.186 97.8298 315.16 98.3236C315.071 100.025 314.97 101.953 314.099 103.417C313.491 104.438 312.611 105.026 311.621 105.074C310.537 105.128 309.458 104.535 308.665 103.455C307.036 101.232 306.786 98.2362 306.864 96.1144L306.875 95.8075C306.974 93.216 307.11 89.6669 304.38 88.6672C303.215 88.241 302.113 88.679 301.636 89.7571C301.327 90.4566 301.241 91.3294 301.15 92.2533C300.989 93.8867 300.807 95.7378 299.197 96.7843C298.564 97.1951 297.852 97.3026 297.135 97.0954C296.285 96.8494 295.539 96.1836 295.138 95.3139C294.454 93.8275 294.511 91.8818 294.561 90.1651C294.573 89.7371 294.585 89.3327 294.584 88.9564C294.582 87.1708 294.097 85.9734 293.142 85.397C291.885 84.6392 290.203 85.2896 289.259 86.2878C288.171 87.4379 287.651 89.0862 287.192 90.5407L284.02 100.591C283.323 102.798 282.206 106.339 279.225 106.339Z" fill="#1E9A5F"/>
<path d="M311.344 106.36C312.622 106.36 313.657 105.324 313.657 104.047C313.657 102.769 312.622 101.733 311.344 101.733C310.066 101.733 309.03 102.769 309.03 104.047C309.03 105.324 310.066 106.36 311.344 106.36Z" fill="#0A1D12"/>
<path d="M396.947 73.4553C398.225 73.4553 399.261 72.4195 399.261 71.1417C399.261 69.864 398.225 68.8281 396.947 68.8281C395.67 68.8281 394.634 69.864 394.634 71.1417C394.634 72.4195 395.67 73.4553 396.947 73.4553Z" fill="#0A1D12"/>
</g>
<defs>
<filter id="filter0_d_147_3347" x="0" y="0.198242" width="442" height="338.802" filterUnits="userSpaceOnUse" color-interpolation-filters="sRGB">
<feFlood flood-opacity="0" result="BackgroundImageFix"/>
<feColorMatrix in="SourceAlpha" type="matrix" values="0 0 0 0 0 0 0 0 0 0 0 0 0 0 0 0 0 0 127 0" result="hardAlpha"/>
<feOffset dy="8"/>
<feGaussianBlur stdDeviation="7"/>
<feComposite in2="hardAlpha" operator="out"/>
<feColorMatrix type="matrix" values="0 0 0 0 0 0 0 0 0 0 0 0 0 0 0 0 0 0 0.2 0"/>
<feBlend mode="normal" in2="BackgroundImageFix" result="effect1_dropShadow_147_3347"/>
<feBlend mode="normal" in="SourceGraphic" in2="effect1_dropShadow_147_3347" result="shape"/>
</filter>
</defs>
</svg>
