<svg width="1413" height="1286" viewBox="0 0 1413 1286" fill="none" xmlns="http://www.w3.org/2000/svg">
<g filter="url(#filter0_d_237_29)">
<g opacity="0.5">
<path d="M885.266 64.6512L893.567 105.575C875.773 112.776 858.804 121.379 842.867 131.37L815.299 100.18C807.778 91.6704 794.763 90.9646 786.225 98.601L732.771 146.41C724.214 154.064 723.361 167.192 730.872 175.733L758.679 207.357C746.93 222.346 736.453 238.323 727.402 255.127L687.366 241.84C676.571 238.257 664.838 244.222 661.157 255.165L638.092 323.727C634.396 334.711 640.165 346.544 650.983 350.15L691.156 363.55C688.318 382.28 687.133 401.43 687.561 420.806L645.7 429.663C634.462 432.041 627.141 443.192 629.35 454.575L643.193 525.918C645.412 537.35 656.349 544.691 667.62 542.306L709.606 533.423C716.533 551.558 724.879 568.859 734.614 585.125L702.492 614.099C693.829 621.912 692.958 635.349 700.549 644.114L748.11 699.019C755.73 707.816 768.944 708.589 777.616 700.742L809.735 671.684C824.64 683.762 840.572 694.485 857.328 703.766L843.719 745.215C840.034 756.438 845.94 768.55 856.915 772.264L925.625 795.514C936.625 799.237 948.515 793.131 952.176 781.882L965.566 740.753C984.386 743.608 1003.63 744.716 1023.09 744.152L1031.69 786.563C1034.05 798.172 1045.17 805.64 1056.54 803.235L1127.64 788.193C1139.01 785.788 1146.29 774.425 1143.9 762.823L1135.24 720.775C1153.44 713.473 1170.76 704.683 1187.02 694.472L1214.99 726.28C1222.75 735.112 1236.05 735.889 1244.68 728.012L1298.59 678.819C1307.2 670.962 1307.87 657.458 1300.09 648.66L1272.21 617.118C1284.17 601.683 1294.74 585.203 1303.83 567.9L1343.29 581.062C1354.32 584.741 1366.14 578.672 1369.68 567.513L1391.79 497.867C1395.32 486.75 1389.25 474.781 1378.25 471.129L1339.16 458.159C1341.82 438.987 1342.72 419.407 1341.95 399.636L1382.1 391.142C1393.37 388.757 1400.53 377.589 1398.09 366.204L1382.83 295.16C1380.4 283.823 1369.31 276.566 1358.08 278.944L1318.04 287.414C1310.72 269.166 1301.98 251.8 1291.83 235.537L1322.08 208.166C1330.59 200.47 1331.25 187.277 1323.55 178.703L1275.54 125.179C1267.88 116.637 1254.78 115.926 1246.28 123.59L1215.84 151.053C1200.74 139.214 1184.65 128.713 1167.76 119.706L1180.48 80.6084C1184.03 69.7285 1178.1 58.0348 1167.26 54.4857L1099.5 32.3208C1088.68 28.7803 1077.02 34.7072 1073.46 45.5621L1060.59 84.7523C1041.97 82.1361 1022.95 81.1999 1003.72 81.9289L995.37 41.3559C993.071 30.192 982.175 23.0565 971.032 25.414L901.345 40.1582C890.197 42.5169 883 53.4799 885.266 64.6512ZM766.594 462.398C739.152 324.322 827.292 189.669 963.313 160.891C1099.33 132.113 1232.92 219.854 1261.86 357.615C1290.96 496.209 1203.21 632.765 1065.7 661.858C928.183 690.953 794.202 601.31 766.594 462.398Z" fill="url(#paint0_linear_237_29)"/>
</g>
<path d="M784.431 1201.16C766.827 1195.32 753.67 1180.38 749.959 1162.02L724.336 1035.2L505.156 1042.99L478.182 1175.1C474.404 1193.6 489.527 1212.16 506.943 1218.97L598.644 1254.85C615.699 1261.53 634.032 1264.18 652.254 1262.63L846.05 1246.05C851.715 1245.56 856.259 1241.11 856.918 1235.4C857.578 1229.68 861.547 1223.27 856.145 1221.48L784.431 1201.16Z" fill="#0A4C2D"/>
<path d="M786.6 1193.45C769.014 1187.68 755.869 1172.93 752.163 1154.8L726.566 1029.58L512.728 1037.27L485.78 1167.72C482.006 1185.99 491.992 1204.31 509.391 1211.04L600.999 1246.47C618.037 1253.06 636.353 1255.68 654.556 1254.14L848.156 1237.77C853.815 1237.29 858.356 1232.9 859.014 1227.25C859.672 1221.61 856.268 1216.29 850.871 1214.52L786.6 1193.45Z" fill="#1E9A5F"/>
<path d="M57.2932 1119.49C33.5247 1120.91 14.0796 1105.49 14.0796 1085.11V350.662C14.0796 330.285 33.5247 314.549 57.2932 315.579L1156.49 363.206C1173.94 363.962 1188.07 378.675 1188.07 396.005V1020.65C1188.07 1037.98 1173.94 1052.92 1156.49 1053.96L57.2932 1119.49Z" fill="#0A4C2D"/>
<path d="M67.1716 1119.49C43.4031 1120.91 23.958 1105.49 23.958 1085.11V350.662C23.958 330.285 43.4031 314.549 67.1716 315.579L1166.37 363.206C1183.82 363.962 1197.95 378.675 1197.95 396.005V1020.65C1197.95 1037.98 1183.82 1052.92 1166.37 1053.96L67.1716 1119.49Z" fill="#B7E8D0"/>
<path opacity="0.3" d="M1166.37 377.906L67.1715 332.687C54.4646 332.165 44.1338 340.561 44.1338 351.442V922.648V1084C44.1338 1094.88 54.4651 1103.11 67.1715 1102.38L1166.37 1039.26C1175.72 1038.72 1183.29 1030.75 1183.29 1021.45V878.662V395.439C1183.29 386.14 1175.72 378.291 1166.37 377.906Z" fill="#D8DEE8"/>
<path d="M67.1715 1039.99C62.2243 1040.23 58.1958 1036.99 58.1958 1032.75V351.984C58.1958 347.753 62.2249 344.468 67.1715 344.664L1166.37 388.197C1170.02 388.342 1172.98 391.412 1172.98 395.041V978.741C1172.98 982.369 1170.02 985.468 1166.37 985.649L67.1715 1039.99Z" fill="#1E9A5F"/>
<path opacity="0.6" d="M1051.62 1008.5C959.144 951.297 1023.74 788.654 919.883 706.935C815.181 624.548 667.852 725.595 594.51 640.274C539.901 576.744 603.8 500.034 551.657 440.288C469.885 346.593 260.556 475.455 164.384 383.15C150.729 370.044 136.95 350.162 129.108 318.262L67.1721 315.579C43.4036 314.549 23.9585 330.285 23.9585 350.662V1085.11C23.9585 1105.49 43.4036 1120.91 67.1721 1119.49L1166.37 1053.96C1183.82 1052.92 1197.95 1037.98 1197.95 1020.65V1009.54C1124.96 1034.31 1080.35 1026.27 1051.62 1008.5Z" fill="#B7E8D0"/>
<path d="M255.579 636.865L265.341 636.705L450.983 766.715C422.759 806.484 406.187 852.69 406.187 906.341L157.957 912.787C157.957 808.332 194.458 715.311 255.579 636.865Z" fill="url(#paint1_linear_237_29)"/>
<path d="M580.448 671.769C538.188 685.751 506.435 713.265 477.021 745.481C476.787 745.737 476.664 746.384 476.327 746.402C468.945 746.808 471.554 746.926 466.938 746.624L466.525 746.332L273.009 617.122C336.599 546.075 420.956 494.35 514.514 471.912L523.819 471.899L580.448 671.769Z" fill="url(#paint2_linear_237_29)"/>
<path d="M801.26 488.523L751.253 670.972C728.946 663.58 704.146 657.239 678.999 656.41C656.427 655.665 626.696 661.726 605.41 666.528L539.638 465.831C582.181 457.546 626.235 454.97 670.802 458.654C717.212 462.489 760.961 472.851 801.26 488.523Z" fill="url(#paint3_linear_237_29)"/>
<path d="M1002.7 645.505L863.246 745.574L864.559 750.918L855.838 751.165C832.256 720.366 801.019 696.152 764.54 680.02L822.928 497.737C828.982 497.394 826.171 497.652 831.704 497.63C831.865 497.629 831.998 497.732 832.145 497.801C902.817 531.162 960.108 584.789 1002.7 645.505Z" fill="url(#paint4_linear_237_29)"/>
<path d="M1079.13 888.166L904.547 892.938C904.547 845.545 891.521 804.922 868.889 769.277L1014.75 663.956C1023.2 663.784 1022.03 663.497 1023.2 663.784C1024.64 664.136 1018.34 669.777 1019.14 671.107C1057.33 734.595 1079.13 808.014 1079.13 888.166Z" fill="url(#paint5_linear_237_29)"/>
<path d="M642.529 829.876L884.182 639.041L713.721 891.727L642.529 829.876Z" fill="url(#paint6_linear_237_29)"/>
<path d="M734.849 872.976C734.849 907.224 706.429 936.034 670.802 937.346C634.529 938.681 604.639 911.102 604.639 875.722C604.639 840.343 634.529 811.502 670.802 811.307C706.429 811.116 734.849 838.728 734.849 872.976Z" fill="url(#paint7_linear_237_29)"/>
<path d="M670.802 912.619C648.875 913.291 630.858 896.494 630.858 875.17C630.858 853.845 648.875 836.288 670.802 836.035C692.49 835.785 709.965 852.593 709.965 873.501C709.965 894.409 692.49 911.954 670.802 912.619ZM670.802 843.506C653.173 843.742 638.714 857.873 638.714 875.003C638.714 892.134 653.172 905.655 670.802 905.147C688.277 904.644 702.383 890.521 702.383 873.66C702.383 856.799 688.277 843.272 670.802 843.506Z" fill="url(#paint8_linear_237_29)"/>
<path d="M265.34 637.584L460.399 766.876C432.224 806.61 415.681 852.559 415.681 906.163L167.893 912.932C167.893 808.571 204.329 714.267 265.34 637.584Z" fill="url(#paint9_linear_237_29)"/>
<path d="M589.638 671.333C545.533 685.936 506.368 712.011 476.326 746.339L282.74 616.713C346.216 545.731 430.425 494.814 523.819 471.395L589.638 671.333Z" fill="url(#paint10_linear_237_29)"/>
<path d="M810.073 488.496L751.252 670.972C728.945 663.58 704.979 659.176 679.836 658.352C657.267 657.611 635.159 659.796 613.907 664.589L548.899 465.824C591.368 457.545 635.345 454.972 679.836 458.652C726.167 462.484 769.842 472.837 810.073 488.496Z" fill="url(#paint11_linear_237_29)"/>
<path d="M1011.17 645.349L864.559 750.336C841.015 720.195 809.831 695.656 773.414 679.537L831.703 497.557C905.564 530.784 967.185 582.587 1011.17 645.349Z" fill="url(#paint12_linear_237_29)"/>
<path d="M1087.48 887.81L913.185 892.572C913.185 845.219 900.18 804.629 877.586 769.014L1023.2 663.784C1064.04 728.843 1087.48 804.712 1087.48 887.81Z" fill="url(#paint13_linear_237_29)"/>
<path d="M651.612 829.556L892.854 638.888L722.682 891.355L651.612 829.556Z" fill="url(#paint14_linear_237_29)"/>
<path d="M743.775 872.621C743.775 906.841 715.404 935.625 679.837 936.934C643.627 938.267 613.788 910.71 613.788 875.361C613.788 840.013 643.627 811.197 679.837 811.004C715.403 810.813 743.775 838.402 743.775 872.621Z" fill="url(#paint15_linear_237_29)"/>
<path d="M679.837 912.228C657.948 912.899 639.962 896.116 639.962 874.809C639.962 853.503 657.948 835.961 679.837 835.71C701.489 835.46 718.933 852.255 718.933 873.145C718.933 894.035 701.489 911.565 679.837 912.228ZM679.837 843.174C662.238 843.41 647.805 857.528 647.805 874.644C647.805 891.76 662.239 905.269 679.837 904.763C697.282 904.261 711.365 890.15 711.365 873.304C711.365 856.458 697.282 842.941 679.837 843.174Z" fill="white"/>
<path d="M995.272 22.4904L585.176 6.25762C578.493 5.99328 572.896 11.7748 572.896 19.1825V34.0948V42.0459V257.222C572.896 264.63 578.524 270.833 585.207 271.053L590.742 271.235L597.327 257.424L1000.19 269.625C1006.75 269.823 1007.05 278.985 1007.05 271.659V58.8357V50.9718V36.2225C1007.05 28.8952 1001.82 22.7497 995.272 22.4904Z" fill="#0A4C2D"/>
<path d="M1013.46 51.3057V272.239C1013.46 279.012 1009.09 284.455 1003.23 285.085C1002.73 285.148 1002.32 285.172 1001.8 285.156L590.763 271.595C584.063 271.377 578.387 265.165 578.387 257.751V34.3931L1013.46 51.3057Z" fill="white"/>
<path d="M1001.89 22.8074L591.069 6.54343C584.371 6.27796 578.94 12.0747 578.94 19.491V42.3798L1013.76 59.198V36.5587C1013.76 29.224 1008.44 23.0672 1001.89 22.8074Z" fill="url(#paint16_linear_237_29)"/>
<path d="M606.797 25.0636C606.797 28.3585 604.385 30.9351 601.41 30.819C598.434 30.703 596.021 27.9374 596.021 24.6419C596.021 21.3459 598.434 18.7692 601.41 18.8864C604.385 19.003 606.797 21.7687 606.797 25.0636Z" fill="white"/>
<path opacity="0.2" d="M663.043 244.706L632.134 243.665V76.2346L663.043 77.4058V244.706Z" fill="#B7E8D0"/>
<path d="M663.043 244.706L632.134 243.665V164.173L663.043 165.276V244.706Z" fill="url(#paint17_linear_237_29)"/>
<path opacity="0.2" d="M705.967 246.151L675.125 245.113V77.8632L705.967 79.0315V246.151Z" fill="#B7E8D0"/>
<path d="M705.967 246.151L675.125 245.113V205.41L705.967 206.479V246.151Z" fill="url(#paint18_linear_237_29)"/>
<path opacity="0.2" d="M748.798 247.594L718.023 246.558V79.4883L748.798 80.6537V247.594Z" fill="#B7E8D0"/>
<path d="M748.798 247.594L718.023 246.558V225.736L748.798 226.788V247.594Z" fill="url(#paint19_linear_237_29)"/>
<path opacity="0.2" d="M791.538 249.033L760.829 247.999V81.1099L791.538 82.2731V249.033Z" fill="#B7E8D0"/>
<path d="M791.538 249.033L760.829 247.999V117.26L791.538 118.396V249.033Z" fill="url(#paint20_linear_237_29)"/>
<path opacity="0.2" d="M834.186 250.469L803.542 249.437V82.7277L834.186 83.8886V250.469Z" fill="#B7E8D0"/>
<path d="M834.186 250.469L803.542 249.437V133.681L834.186 134.802V250.469Z" fill="url(#paint21_linear_237_29)"/>
<path opacity="0.2" d="M876.741 251.902L846.163 250.872V84.3419L876.741 85.5V251.902Z" fill="#B7E8D0"/>
<path d="M876.741 251.902L846.163 250.872V108.556L876.741 109.695V251.902Z" fill="url(#paint22_linear_237_29)"/>
<path opacity="0.2" d="M919.206 253.333L888.693 252.305V85.9529L919.206 87.1087V253.333Z" fill="#B7E8D0"/>
<path d="M919.206 253.333L888.693 252.305V150.125L919.206 151.231V253.333Z" fill="url(#paint23_linear_237_29)"/>
<path opacity="0.2" d="M961.579 254.759L931.132 253.734V87.5605L961.579 88.7141V254.759Z" fill="#B7E8D0"/>
<path d="M961.579 254.759L931.132 253.734V196.042L961.579 197.111V254.759Z" fill="url(#paint24_linear_237_29)"/>
<path opacity="0.4" d="M1003.38 285.099C1002.89 285.162 1002.39 285.179 1001.88 285.163L590.795 271.599C584.095 271.381 578.386 265.165 578.386 257.751V45.5066C582.512 57.3526 593.019 79.5226 631.856 85.77C638.605 86.8681 646.344 87.4868 654.895 87.48C657.596 87.4732 660.342 87.5423 662.978 87.6634C667.092 87.8327 671.148 88.1462 675.089 88.6002C686.031 89.8341 696.36 92.0847 705.947 95.1996C710.111 96.5491 714.146 98.0711 718.02 99.7478C729.555 104.71 739.874 111.015 748.794 118.383C753.141 121.971 757.159 125.811 760.828 129.857C776.985 147.657 786.441 169.554 787.923 192.621C788.175 196.515 789.421 199.872 791.544 202.774C794.233 206.465 798.324 209.429 803.537 211.886C811.481 215.635 822.029 218.171 834.183 220.197C838.03 220.84 842.032 221.421 846.162 221.982C855.791 223.283 866.124 224.431 876.74 225.681C880.691 226.153 884.692 226.63 888.7 227.153C898.876 228.461 909.164 229.964 919.211 231.896C923.237 232.67 927.206 233.502 931.133 234.44C941.914 236.986 952.218 240.149 961.581 244.263C981.161 252.88 996.562 265.566 1003.38 285.099Z" fill="#F2F8F5"/>
</g>
<defs>
<filter id="filter0_d_237_29" x="0.0795898" y="0.248901" width="1412.48" height="1284.81" filterUnits="userSpaceOnUse" color-interpolation-filters="sRGB">
<feFlood flood-opacity="0" result="BackgroundImageFix"/>
<feColorMatrix in="SourceAlpha" type="matrix" values="0 0 0 0 0 0 0 0 0 0 0 0 0 0 0 0 0 0 127 0" result="hardAlpha"/>
<feOffset dy="8"/>
<feGaussianBlur stdDeviation="7"/>
<feComposite in2="hardAlpha" operator="out"/>
<feColorMatrix type="matrix" values="0 0 0 0 0 0 0 0 0 0 0 0 0 0 0 0 0 0 0.2 0"/>
<feBlend mode="normal" in2="BackgroundImageFix" result="effect1_dropShadow_237_29"/>
<feBlend mode="normal" in="SourceGraphic" in2="effect1_dropShadow_237_29" result="shape"/>
</filter>
<linearGradient id="paint0_linear_237_29" x1="628.955" y1="414.326" x2="1399" y2="393" gradientUnits="userSpaceOnUse">
<stop offset="0.0036" stop-color="#A2DB1E"/>
<stop offset="1" stop-color="#0A4C2D"/>
</linearGradient>
<linearGradient id="paint1_linear_237_29" x1="298.578" y1="834.968" x2="-64.7603" y2="2244.94" gradientUnits="userSpaceOnUse">
<stop stop-color="#311944"/>
<stop offset="1" stop-color="#893976"/>
</linearGradient>
<linearGradient id="paint2_linear_237_29" x1="443.327" y1="199.99" x2="421.102" y2="795.119" gradientUnits="userSpaceOnUse">
<stop stop-color="#311944"/>
<stop offset="1" stop-color="#893976"/>
</linearGradient>
<linearGradient id="paint3_linear_237_29" x1="658.573" y1="668.686" x2="582.72" y2="1891.81" gradientUnits="userSpaceOnUse">
<stop stop-color="#311944"/>
<stop offset="1" stop-color="#893976"/>
</linearGradient>
<linearGradient id="paint4_linear_237_29" x1="827.39" y1="637.048" x2="1779.65" y2="-92.2986" gradientUnits="userSpaceOnUse">
<stop stop-color="#311944"/>
<stop offset="1" stop-color="#893976"/>
</linearGradient>
<linearGradient id="paint5_linear_237_29" x1="1211.86" y1="-68.3289" x2="901.642" y2="1101.65" gradientUnits="userSpaceOnUse">
<stop stop-color="#311944"/>
<stop offset="1" stop-color="#893976"/>
</linearGradient>
<linearGradient id="paint6_linear_237_29" x1="745.038" y1="717.718" x2="814.628" y2="781.321" gradientUnits="userSpaceOnUse">
<stop stop-color="#311944"/>
<stop offset="1" stop-color="#893976"/>
</linearGradient>
<linearGradient id="paint7_linear_237_29" x1="604.639" y1="874.35" x2="734.849" y2="874.35" gradientUnits="userSpaceOnUse">
<stop stop-color="#311944"/>
<stop offset="1" stop-color="#893976"/>
</linearGradient>
<linearGradient id="paint8_linear_237_29" x1="630.858" y1="874.335" x2="709.964" y2="874.335" gradientUnits="userSpaceOnUse">
<stop stop-color="#311944"/>
<stop offset="1" stop-color="#893976"/>
</linearGradient>
<linearGradient id="paint9_linear_237_29" x1="307.934" y1="836.201" x2="-51.462" y2="2230.87" gradientUnits="userSpaceOnUse">
<stop stop-color="#A2DB1E"/>
<stop offset="1" stop-color="#0A4C2D"/>
</linearGradient>
<linearGradient id="paint10_linear_237_29" x1="358.5" y1="471" x2="670" y2="875.5" gradientUnits="userSpaceOnUse">
<stop stop-color="#F9BC38"/>
<stop offset="0.5407" stop-color="#A2DB1E"/>
<stop offset="0.9964" stop-color="#1E9A5F"/>
</linearGradient>
<linearGradient id="paint11_linear_237_29" x1="716.266" y1="-115.899" x2="641.093" y2="1096.24" gradientUnits="userSpaceOnUse">
<stop stop-color="#FFC444"/>
<stop offset="0.5407" stop-color="#F8964E"/>
<stop offset="0.9964" stop-color="#F36F56"/>
</linearGradient>
<linearGradient id="paint12_linear_237_29" x1="546.136" y1="858.9" x2="1495.77" y2="131.571" gradientUnits="userSpaceOnUse">
<stop stop-color="#FFC444"/>
<stop offset="0.2965" stop-color="#FBAB49"/>
<stop offset="0.9964" stop-color="#F36F56"/>
</linearGradient>
<linearGradient id="paint13_linear_237_29" x1="882.199" y1="967.922" x2="204.465" y2="1910.29" gradientUnits="userSpaceOnUse">
<stop stop-color="#FFC444"/>
<stop offset="0.9964" stop-color="#F36F56"/>
</linearGradient>
<linearGradient id="paint14_linear_237_29" x1="-12131.5" y1="5506.91" x2="-11347.7" y2="5510.56" gradientUnits="userSpaceOnUse">
<stop stop-color="#0A4C2D"/>
<stop offset="0.9964" stop-color="#1E9A5F"/>
</linearGradient>
<linearGradient id="paint15_linear_237_29" x1="441.405" y1="1187.36" x2="826.84" y2="678.47" gradientUnits="userSpaceOnUse">
<stop stop-color="#0A4C2D"/>
<stop offset="0.9964" stop-color="#1E9A5F"/>
</linearGradient>
<linearGradient id="paint16_linear_237_29" x1="830.105" y1="-17.8589" x2="649.722" y2="277.029" gradientUnits="userSpaceOnUse">
<stop stop-color="#A2DB1E"/>
<stop offset="1" stop-color="#0A4C2D"/>
</linearGradient>
<linearGradient id="paint17_linear_237_29" x1="661.17" y1="147.179" x2="606.606" y2="273.216" gradientUnits="userSpaceOnUse">
<stop stop-color="#A2DB1E"/>
<stop offset="1" stop-color="#0A4C2D"/>
</linearGradient>
<linearGradient id="paint18_linear_237_29" x1="704.098" y1="196.812" x2="688.244" y2="269.045" gradientUnits="userSpaceOnUse">
<stop stop-color="#A2DB1E"/>
<stop offset="1" stop-color="#0A4C2D"/>
</linearGradient>
<linearGradient id="paint19_linear_237_29" x1="746.933" y1="221.124" x2="742.205" y2="261.185" gradientUnits="userSpaceOnUse">
<stop stop-color="#A2DB1E"/>
<stop offset="1" stop-color="#0A4C2D"/>
</linearGradient>
<linearGradient id="paint20_linear_237_29" x1="789.677" y1="89.4545" x2="673.924" y2="251.805" gradientUnits="userSpaceOnUse">
<stop stop-color="#A2DB1E"/>
<stop offset="1" stop-color="#0A4C2D"/>
</linearGradient>
<linearGradient id="paint21_linear_237_29" x1="832.328" y1="109.037" x2="734.229" y2="263.948" gradientUnits="userSpaceOnUse">
<stop stop-color="#A2DB1E"/>
<stop offset="1" stop-color="#0A4C2D"/>
</linearGradient>
<linearGradient id="paint22_linear_237_29" x1="874.888" y1="78.3076" x2="745.745" y2="244.102" gradientUnits="userSpaceOnUse">
<stop stop-color="#A2DB1E"/>
<stop offset="1" stop-color="#0A4C2D"/>
</linearGradient>
<linearGradient id="paint23_linear_237_29" x1="917.356" y1="128.346" x2="835.437" y2="274.101" gradientUnits="userSpaceOnUse">
<stop stop-color="#A2DB1E"/>
<stop offset="1" stop-color="#0A4C2D"/>
</linearGradient>
<linearGradient id="paint24_linear_237_29" x1="959.734" y1="183.651" x2="928.024" y2="282.608" gradientUnits="userSpaceOnUse">
<stop stop-color="#A2DB1E"/>
<stop offset="1" stop-color="#0A4C2D"/>
</linearGradient>
</defs>
</svg>
