<svg width="35" height="36" viewBox="0 0 35 36" fill="none" xmlns="http://www.w3.org/2000/svg">
<path fill-rule="evenodd" clip-rule="evenodd" d="M26.1699 0.672852H9.16992C4.49535 0.672852 0.669922 4.57011 0.669922 9.33631V26.6632C0.669922 31.4277 4.49535 35.3267 9.16992 35.3267H26.1699C30.8445 35.3267 34.6699 31.4277 34.6699 26.6632V9.33631C34.6699 4.57011 30.8445 0.672852 26.1699 0.672852ZM17.6689 25.2197C13.7564 25.2197 10.5854 21.9865 10.5854 18.0005C10.5854 14.0127 13.7564 10.7808 17.6689 10.7808C21.5798 10.7808 24.7524 14.0127 24.7524 18.0005C24.7524 21.9865 21.5798 25.2197 17.6689 25.2197ZM24.7539 8.6146C24.7539 9.81059 25.7042 10.7805 26.8789 10.7805C28.0536 10.7805 29.0039 9.81059 29.0039 8.6146C29.0039 7.41861 28.0536 6.44873 26.8789 6.44873C25.7042 6.44873 24.7539 7.41861 24.7539 8.6146Z" fill="#F2F8F5"/>
</svg>
