<svg width="42" height="42" viewBox="0 0 42 42" fill="none" xmlns="http://www.w3.org/2000/svg">
<path d="M36.5449 7.88603V34.114C36.5449 34.7136 36.3067 35.2887 35.8827 35.7128C35.4587 36.1368 34.8836 36.375 34.2839 36.375H8.05595C7.45629 36.375 6.88119 36.1368 6.45716 35.7128C6.03314 35.2887 5.79492 34.7136 5.79492 34.114V7.88603C5.79492 7.28637 6.03314 6.71127 6.45716 6.28724C6.88119 5.86321 7.45629 5.625 8.05595 5.625H34.2839C34.8836 5.625 35.4587 5.86321 35.8827 6.28724C36.3067 6.71127 36.5449 7.28637 36.5449 7.88603ZM14.839 17.3824H10.317V31.8529H14.839V17.3824ZM15.246 12.4081C15.2484 12.066 15.1834 11.7269 15.0547 11.4099C14.926 11.093 14.7361 10.8045 14.4959 10.561C14.2557 10.3174 13.9699 10.1236 13.6548 9.99047C13.3397 9.85738 13.0015 9.78766 12.6594 9.78529H12.578C11.8824 9.78529 11.2153 10.0616 10.7234 10.5535C10.2315 11.0454 9.95522 11.7125 9.95522 12.4081C9.95522 13.1037 10.2315 13.7708 10.7234 14.2627C11.2153 14.7546 11.8824 15.0309 12.578 15.0309C12.9201 15.0393 13.2605 14.9802 13.5797 14.857C13.899 14.7339 14.1908 14.549 14.4386 14.313C14.6863 14.077 14.8852 13.7945 15.0237 13.4816C15.1623 13.1687 15.2378 12.8316 15.246 12.4895V12.4081ZM32.0229 23.0621C32.0229 18.7118 29.2554 17.0206 26.506 17.0206C25.6057 16.9755 24.7094 17.1672 23.9065 17.5767C23.1035 17.9861 22.4219 18.5989 21.9296 19.354H21.803V17.3824H17.5523V31.8529H22.0743V24.1564C22.009 23.3681 22.2573 22.5859 22.7653 21.9797C23.2733 21.3734 24 20.9921 24.7876 20.9186H24.9594C26.3974 20.9186 27.4646 21.823 27.4646 24.1021V31.8529H31.9867L32.0229 23.0621Z" fill="#F2F8F5"/>
</svg>
