<svg width="2801" height="2789" viewBox="0 0 2801 2789" fill="none" xmlns="http://www.w3.org/2000/svg">
<path d="M742.467 1672.93C742.467 1672.93 750.777 1323.54 589.851 1230.03C428.926 1136.51 122.949 1078.05 111.48 576.357C104.765 282.644 97.4984 154.228 92.6264 98.2329C90.7264 76.3899 110.136 58.7589 131.682 62.8179C284.092 91.5299 779.207 209.708 883.012 547.646C1006.07 948.275 742.467 1672.93 742.467 1672.93Z" fill="#F3F9F6"/>
<path d="M249.552 202.403C416.853 351.612 610.305 615.68 713.417 879.749C726.653 923.269 765.368 1015.82 782.181 1180.26C797.197 1317.4 789.732 1462.32 771.524 1558.25C770.373 1564.32 764.523 1568.3 758.459 1567.15C748.031 1565.17 749.418 1553.95 749.512 1554.31C770.307 1390.41 761.675 1186.41 714.026 1002.34C653.15 776.332 517.373 557.206 376.936 371.356L362.484 353.055C253.679 213.325 230.773 212.295 240.945 202.555C243.347 200.255 247.107 200.234 249.552 202.403Z" fill="url(#paint0_linear_260_28)"/>
<path d="M1001.08 2344.68C1022.85 2355.36 794.959 2068.78 723.571 1618.68C689.931 1406.59 689.492 1140.85 568.673 1038.44C468.119 953.216 125.948 1007.02 13.9904 1027.47C0.000389099 1030.03 -4.70961 1047.7 6.18039 1056.85C59.8704 1101.94 174.724 1208.29 204.649 1315.48C244.094 1456.77 378.414 1546.63 498.665 1570.95C618.916 1595.27 685.809 1618.87 744.391 1811.18C802.974 2003.49 939.216 2314.34 1001.08 2344.68Z" fill="#E5EDE9"/>
<path d="M171.453 1087.17C314.295 1093.15 467.624 1158.31 545.433 1280.53L552.777 1292.2C569.739 1319.55 665.87 1513.96 719.261 1675.11C719.926 1677.12 718.837 1679.29 716.828 1679.96C713.415 1681.09 711.706 1677.33 712.032 1677.66C674.834 1586.62 621.407 1471.19 578.856 1384.88C533.224 1290.69 501.29 1226.9 397.206 1165.8C281.357 1100 170.68 1093.23 171.012 1093.3C169.323 1093.13 168.093 1091.62 168.266 1089.93C168.432 1088.3 169.843 1087.1 171.453 1087.17Z" fill="#BDD0FB"/>
<path d="M2529.93 2681.64H672.322C611.859 2681.64 562.514 2632.12 561.324 2570.24L514.974 158.73C513.77 96.0818 562.343 44.2608 623.549 42.8938L2527.5 0.362818C2589.75 -1.02718 2640.95 50.2388 2640.95 113.964V2568.01C2640.95 2630.76 2591.24 2681.64 2529.93 2681.64Z" fill="url(#paint1_linear_260_28)"/>
<path d="M2447.43 2563.41H740.096C703.179 2563.41 673.251 2533.48 673.251 2496.56V404.982C673.251 368.065 703.179 338.137 740.096 338.137H2447.43C2484.34 338.137 2514.27 368.064 2514.27 404.982V2496.56C2514.27 2533.48 2484.34 2563.41 2447.43 2563.41Z" fill="#D8FEEB"/>
<path d="M2442.49 435.255H1424.86V515.483H2442.49V435.255Z" fill="#B7E8D0"/>
<path d="M2442.49 549.263H1424.86V595.71H2442.49V549.263Z" fill="#B7E8D0"/>
<path d="M2442.49 629.491H1424.86V675.939H2442.49V629.491Z" fill="#B7E8D0"/>
<path d="M2442.49 709.719H1424.86V756.167H2442.49V709.719Z" fill="#B7E8D0"/>
<path d="M1386.86 1440.22H804.149V1520.44H1386.86V1440.22Z" fill="#BDD0FB"/>
<path d="M1386.86 1554.22H804.149V1600.67H1386.86V1554.22Z" fill="#BDD0FB"/>
<path d="M1386.86 1634.45H804.149V1680.9H1386.86V1634.45Z" fill="#BDD0FB"/>
<path d="M1386.86 1714.68H804.149V1761.13H1386.86V1714.68Z" fill="#BDD0FB"/>
<path d="M1398.69 1037.87H1341.9V1279.76H1398.69V1037.87Z" fill="#B7E8D0"/>
<path d="M1493.58 1121.01H1436.79V1279.76H1493.58V1121.01Z" fill="#B7E8D0"/>
<path d="M1588.47 915.552H1531.68V1279.76H1588.47V915.552Z" fill="#B7E8D0"/>
<path d="M1683.36 1192.26H1626.57V1279.76H1683.36V1192.26Z" fill="#B7E8D0"/>
<path d="M1778.25 964.243H1721.46V1279.76H1778.25V964.243Z" fill="#B7E8D0"/>
<path d="M1873.14 1018.87H1816.35V1279.76H1873.14V1018.87Z" fill="#B7E8D0"/>
<path d="M1968.03 1078.25H1911.24V1279.76H1968.03V1078.25Z" fill="#B7E8D0"/>
<path d="M2062.92 841.92H2006.13V1279.76H2062.92V841.92Z" fill="#B7E8D0"/>
<path d="M2157.81 888.237H2101.02V1279.76H2157.81V888.237Z" fill="#B7E8D0"/>
<path d="M2252.71 958.306H2195.92V1279.76H2252.71V958.306Z" fill="#B7E8D0"/>
<path d="M2347.6 1200.38H2290.81V1279.76H2347.6V1200.38Z" fill="#B7E8D0"/>
<path d="M2442.49 1046.19H2385.7V1279.76H2442.49V1046.19Z" fill="#B7E8D0"/>
<path d="M2442.49 2415.62H804.149V2462.07H2442.49V2415.62Z" fill="#B7E8D0"/>
<path d="M1202.81 1279.76H870.126C833.688 1279.76 804.149 1250.22 804.149 1213.78V501.231C804.149 464.793 833.688 435.255 870.125 435.255H1202.81C1239.25 435.255 1268.78 464.794 1268.78 501.231V1213.78C1268.79 1250.22 1239.25 1279.76 1202.81 1279.76Z" fill="#B7E8D0"/>
<path opacity="0.57" d="M1369.86 2343.83H825.371C815.982 2343.83 808.371 2336.22 808.371 2326.83V1862.58C808.371 1853.19 815.982 1845.58 825.371 1845.58H1369.86C1379.25 1845.58 1386.86 1853.19 1386.86 1862.58V2326.83C1386.86 2336.22 1379.25 2343.83 1369.86 2343.83Z" fill="white"/>
<path d="M1965.05 1889.52C1958.58 1889.52 1952.34 1886.9 1947.78 1882.19C1942.41 1876.63 1940.05 1868.84 1941.42 1861.24L2013.87 1459.95C2015.01 1453.66 2018.61 1448.08 2023.88 1444.45C2029.15 1440.82 2035.65 1439.45 2041.94 1440.62C2223.76 1474.81 2364.67 1620.59 2392.55 1803.37C2393.51 1809.69 2391.91 1816.14 2388.1 1821.28C2384.3 1826.42 2378.59 1829.83 2372.26 1830.75L1968.49 1889.27C1967.34 1889.44 1966.19 1889.52 1965.05 1889.52Z" fill="#B7E8D0"/>
<path d="M1858.72 2335.39C1662.04 2335.39 1502.02 2175.37 1502.02 1978.69C1502.02 1782.01 1662.04 1621.99 1858.72 1621.99C1880.68 1621.99 1902.98 1624.09 1924.99 1628.23C1937.95 1630.67 1946.52 1643.11 1944.18 1656.1L1891.7 1946.72L2184.15 1904.33C2197.16 1902.47 2209.33 1911.43 2211.32 1924.47C2214.04 1942.29 2215.42 1960.53 2215.42 1978.69C2215.42 2175.37 2055.41 2335.39 1858.72 2335.39Z" fill="#B7E8D0"/>
<path d="M384.349 1437.57C378.117 1660.11 357.908 2427.74 367.555 2699.76C368.577 2728.58 394.671 2751.71 427.222 2752.65C588.212 2757.31 1178.39 2769.14 1441.72 2759.36C1496.57 2757.32 1540.18 2717.99 1541.32 2669.4C1546.79 2435.81 1558.87 1778.83 1530.17 1477.86C1526.73 1441.8 1494.76 1413.09 1454.09 1409.48C1278.77 1393.95 686.045 1356 458.547 1369.07C417.518 1371.43 385.367 1401.18 384.349 1437.57Z" fill="url(#paint2_linear_260_28)"/>
<path d="M430.587 1535.69V1724.28C430.587 1760.45 459.905 1789.77 496.071 1789.77H1397.14C1433.3 1789.77 1462.62 1760.45 1462.62 1724.28V1535.69C1462.62 1499.52 1433.3 1470.2 1397.14 1470.2H496.071C459.905 1470.2 430.587 1499.52 430.587 1535.69Z" fill="#1E9A5F"/>
<path opacity="0.2" d="M1416.66 1534.61C1408.69 1526.37 1397.78 1521.64 1386.32 1521.46L543.181 1508.06C520.64 1507.7 501.622 1524.75 499.52 1547.19L482.001 1734.25C480.566 1749.56 505.763 1762.46 537.887 1762.85L1366.81 1772.89C1398.89 1773.28 1425.4 1761.05 1425.67 1745.74L1428.79 1565.36C1428.99 1553.91 1424.63 1542.84 1416.66 1534.61Z" fill="white"/>
<path d="M655.854 1980.98C655.854 2014.25 628.881 2041.23 595.609 2041.23H522.266C488.993 2041.23 462.021 2014.25 462.021 1980.98C462.021 1947.71 488.994 1920.73 522.266 1920.73H595.609C628.881 1920.74 655.854 1947.71 655.854 1980.98Z" fill="url(#paint3_linear_260_28)"/>
<path d="M928.267 1980.98C928.267 2014.25 901.294 2041.23 868.022 2041.23H794.681C761.408 2041.23 734.436 2014.25 734.436 1980.98C734.436 1947.71 761.409 1920.73 794.681 1920.73H868.022C901.295 1920.74 928.267 1947.71 928.267 1980.98Z" fill="url(#paint4_linear_260_28)"/>
<path d="M1190.21 1980.98C1190.21 2014.25 1163.23 2041.23 1129.96 2041.23H1056.62C1023.34 2041.23 996.372 2014.25 996.372 1980.98C996.372 1947.71 1023.35 1920.73 1056.62 1920.73H1129.96C1163.23 1920.74 1190.21 1947.71 1190.21 1980.98Z" fill="url(#paint5_linear_260_28)"/>
<path d="M1455.73 1989.83C1455.73 2023.64 1428.32 2051.05 1394.51 2051.05H1323.62C1289.81 2051.05 1262.4 2023.64 1262.4 1989.83C1262.4 1956.01 1289.81 1928.6 1323.62 1928.6H1394.51C1428.32 1928.6 1455.73 1956.01 1455.73 1989.83Z" fill="url(#paint6_linear_260_28)"/>
<path d="M655.854 2169.58C655.854 2202.85 628.881 2229.82 595.609 2229.82H522.266C488.993 2229.82 462.021 2202.85 462.021 2169.58C462.021 2136.3 488.994 2109.33 522.266 2109.33H595.609C628.881 2109.33 655.854 2136.3 655.854 2169.58Z" fill="url(#paint7_linear_260_28)"/>
<path d="M928.267 2169.58C928.267 2202.85 901.294 2229.82 868.022 2229.82H794.681C761.408 2229.82 734.436 2202.85 734.436 2169.58C734.436 2136.3 761.409 2109.33 794.681 2109.33H868.022C901.295 2109.33 928.267 2136.3 928.267 2169.58Z" fill="url(#paint8_linear_260_28)"/>
<path d="M1190.21 2169.58C1190.21 2202.85 1163.23 2229.82 1129.96 2229.82H1056.62C1023.34 2229.82 996.372 2202.85 996.372 2169.58C996.372 2136.3 1023.35 2109.33 1056.62 2109.33H1129.96C1163.23 2109.33 1190.21 2136.3 1190.21 2169.58Z" fill="url(#paint9_linear_260_28)"/>
<path d="M1462.62 2169.58C1462.62 2202.85 1435.65 2229.82 1402.37 2229.82H1329.03C1295.76 2229.82 1268.79 2202.85 1268.79 2169.58C1268.79 2136.3 1295.76 2109.33 1329.03 2109.33H1402.37C1435.65 2109.33 1462.62 2136.3 1462.62 2169.58Z" fill="url(#paint10_linear_260_28)"/>
<path opacity="0.63" d="M655.854 2336.6C655.854 2369.87 628.881 2396.85 595.609 2396.85H522.266C488.993 2396.85 462.021 2369.87 462.021 2336.6C462.021 2303.33 488.994 2276.36 522.266 2276.36H595.609C628.881 2276.36 655.854 2303.33 655.854 2336.6Z" fill="url(#paint11_linear_260_28)"/>
<path opacity="0.63" d="M928.267 2336.6C928.267 2369.87 901.294 2396.85 868.022 2396.85H794.681C761.408 2396.85 734.436 2369.87 734.436 2336.6C734.436 2303.33 761.409 2276.36 794.681 2276.36H868.022C901.295 2276.36 928.267 2303.33 928.267 2336.6Z" fill="url(#paint12_linear_260_28)"/>
<path opacity="0.63" d="M1190.21 2336.6C1190.21 2369.87 1163.23 2396.85 1129.96 2396.85H1056.62C1023.34 2396.85 996.373 2369.87 996.373 2336.6C996.373 2303.33 1023.35 2276.36 1056.62 2276.36H1129.96C1163.23 2276.36 1190.21 2303.33 1190.21 2336.6Z" fill="url(#paint13_linear_260_28)"/>
<path opacity="0.63" d="M655.854 2519.96C655.854 2553.23 628.881 2580.2 595.609 2580.2H522.266C488.993 2580.2 462.021 2553.23 462.021 2519.96C462.021 2486.68 488.994 2459.71 522.266 2459.71H595.609C628.881 2459.71 655.854 2486.69 655.854 2519.96Z" fill="url(#paint14_linear_260_28)"/>
<path opacity="0.63" d="M928.267 2519.96C928.267 2553.23 901.294 2580.2 868.022 2580.2H794.681C761.408 2580.2 734.436 2553.23 734.436 2519.96C734.436 2486.68 761.409 2459.71 794.681 2459.71H868.022C901.295 2459.71 928.267 2486.69 928.267 2519.96Z" fill="url(#paint15_linear_260_28)"/>
<path opacity="0.63" d="M1190.21 2519.96C1190.21 2553.23 1163.23 2580.2 1129.96 2580.2H1056.62C1023.34 2580.2 996.373 2553.23 996.373 2519.96C996.373 2486.68 1023.35 2459.71 1056.62 2459.71H1129.96C1163.23 2459.71 1190.21 2486.69 1190.21 2519.96Z" fill="url(#paint16_linear_260_28)"/>
<path d="M1436.43 2515.04C1436.43 2557.15 1402.28 2591.29 1360.17 2591.29H1355.52C1313.41 2591.29 1279.26 2557.15 1279.26 2515.04V2368.94C1279.26 2326.83 1313.41 2292.69 1355.52 2292.69H1360.17C1402.28 2292.69 1436.43 2326.83 1436.43 2368.94V2515.04Z" fill="url(#paint17_linear_260_28)"/>
<path d="M2121 1972.4C2145.9 1974.55 2189.12 1978.05 2223.19 1979.55C2243.67 1980.45 2255.46 1978.44 2262.25 1975.72C2262.24 1976.49 2262.22 1977.21 2262.19 1977.88C2262.03 1981.47 2259.12 1984.34 2255.5 1984.54C2191.11 1988.13 2139.91 1985.78 2121.68 1984.67C2117.91 1984.44 2115.67 1980.35 2117.6 1977.13C2118.56 1975.53 2119.73 1973.95 2121 1972.4Z" fill="url(#paint18_linear_260_28)"/>
<path d="M2223.19 1979.55C2189.12 1978.05 2145.9 1974.55 2121 1972.4C2145.48 1942.36 2223.19 1922.11 2223.19 1922.11H2245.14C2260.23 1943.87 2262.42 1964.59 2262.25 1975.72C2255.46 1978.44 2243.67 1980.45 2223.19 1979.55Z" fill="url(#paint19_linear_260_28)"/>
<path d="M2248.83 1886.28L2246.78 1926.93C2246.56 1931.33 2243.26 1935.02 2238.86 1935.66C2234.47 1936.28 2228.6 1936.36 2222.37 1934.29C2218.54 1933.01 2215.69 1929.79 2214.99 1925.85L2207.89 1886.28H2248.83Z" fill="url(#paint20_linear_260_28)"/>
<path d="M2533.91 1979.24C2544.71 1977.73 2549.59 1972.12 2551.64 1966.13C2551.66 1966.18 2551.67 1966.23 2551.68 1966.29C2553.27 1972.61 2549.59 1979.17 2542.23 1982.29C2533.32 1986.06 2523.59 1986.7 2516.04 1986.39C2507.93 1986.06 2500.49 1982.7 2496.4 1977.33L2496.34 1977.25C2504.48 1981.28 2515.9 1981.75 2533.91 1979.24Z" fill="url(#paint21_linear_260_28)"/>
<path d="M2482.99 1886.02H2501.09C2528.66 1885.46 2545.98 1943.61 2551.64 1966.13C2549.6 1972.13 2544.71 1977.74 2533.91 1979.24C2515.9 1981.75 2504.48 1981.28 2496.34 1977.25C2481.45 1957.65 2474.06 1928.95 2470.51 1912.19C2466.48 1893.14 2482.99 1886.02 2482.99 1886.02Z" fill="url(#paint22_linear_260_28)"/>
<path d="M2498.77 1848.3L2508.82 1888.27C2510.05 1893.17 2507.7 1898.24 2503.17 1900.57C2497.55 1903.45 2489.63 1906.49 2482.36 1905.61C2478.94 1905.2 2476.1 1902.79 2474.97 1899.57L2460.21 1857.51L2498.77 1848.3Z" fill="url(#paint23_linear_260_28)"/>
<path d="M2510.76 1859.85C2498.25 1870.94 2457.58 1872.41 2457.58 1872.41C2311.07 1520.77 2251.13 1470.81 2251.13 1470.81C2272.29 1603.54 2254.54 1897.37 2254.54 1897.37C2230.37 1908.04 2199.2 1897.37 2199.2 1897.37C2197.23 1680.08 2163.84 1490.59 2124.38 1341.19C2223.4 1338.97 2276.06 1305.08 2293.26 1291.48C2375.8 1424.56 2510.76 1859.85 2510.76 1859.85Z" fill="url(#paint24_linear_260_28)"/>
<path d="M2268.11 887.094C2286.85 980.584 2280.14 1147.92 2275.72 1224.24C2274.48 1245.69 2289.46 1275.43 2301.56 1295.72C2303.46 1298.9 2302.29 1302.98 2298.99 1304.67C2278.73 1315.09 2210.07 1347.37 2130.5 1351.38C2125.2 1351.65 2120.46 1348.04 2119.09 1342.9C2060.07 1122.52 1991.51 981.697 1991.51 981.697C2067.2 860.831 2268.11 887.094 2268.11 887.094Z" fill="url(#paint25_linear_260_28)"/>
<path d="M2241.14 1462.49C2241.97 1462.49 2242.81 1462.26 2243.57 1461.8C2245.79 1460.45 2246.49 1457.57 2245.14 1455.36C2244.35 1454.06 2225.4 1423.43 2187.05 1404.92C2184.72 1403.81 2181.91 1404.77 2180.78 1407.11C2179.66 1409.44 2180.64 1412.25 2182.97 1413.37C2218.72 1430.63 2236.95 1459.94 2237.13 1460.24C2238.01 1461.68 2239.56 1462.49 2241.14 1462.49Z" fill="url(#paint26_linear_260_28)"/>
<path d="M2385.68 1155.41C2379.66 1198.96 2361.87 1246.47 2326.28 1296.93L2312.76 1285.9C2312.76 1285.9 2328.37 1222.55 2319.5 1150.65C2341.45 1146.37 2367.37 1150.78 2385.68 1155.41Z" fill="url(#paint27_linear_260_28)"/>
<path d="M2247.18 1002.45L2268.11 887.094C2268.11 887.094 2407.99 994.011 2385.68 1155.41C2367.37 1150.78 2341.45 1146.37 2319.5 1150.65C2313.1 1098.85 2294 1042.63 2247.18 1002.45Z" fill="url(#paint28_linear_260_28)"/>
<path d="M1991.51 981.697L2045.5 1097.97C2036.77 1168.18 1999.06 1198.53 1958.4 1210.17C1955.86 1178.18 1947.77 1152.33 1940.27 1134.45C1992.22 1080.81 1991.51 981.697 1991.51 981.697Z" fill="url(#paint29_linear_260_28)"/>
<path d="M1940.27 1134.45C1947.77 1152.33 1955.86 1178.18 1958.4 1210.17C1849.91 1252.26 1821.21 1170.63 1821.21 1170.63L1841.26 1167.09C1886.54 1171.87 1918.17 1157.27 1940.27 1134.45Z" fill="url(#paint30_linear_260_28)"/>
<path d="M2041.25 838.142L2067.32 933.962C2070.25 944.726 2081.89 950.506 2092.25 946.365C2103.43 941.897 2117.61 935.797 2129.82 929.206C2142.85 922.17 2146.93 905.406 2138.68 893.106L2084.49 812.303L2041.25 838.142Z" fill="url(#paint31_linear_260_28)"/>
<path d="M1771.49 1106.51L2439.4 1349.6C2467.41 1359.8 2480.8 1391.69 2468.46 1418.83L2466.43 1423.29C2455.51 1447.29 2427.14 1457.83 2403.2 1446.75L1754.67 1146.74L1771.49 1106.51Z" fill="url(#paint32_linear_260_28)"/>
<g opacity="0.15">
<path d="M1464.49 1284.05C1646.59 1284.05 1794.2 1139.1 1794.2 960.287C1794.2 781.478 1646.59 636.525 1464.49 636.525C1282.4 636.525 1134.78 781.478 1134.78 960.287C1134.78 1139.1 1282.4 1284.05 1464.49 1284.05Z" fill="#7D97F4"/>
</g>
<path d="M1097.62 960.286C1097.62 1159.25 1261.87 1320.55 1464.49 1320.55C1667.11 1320.55 1831.37 1159.25 1831.37 960.286C1831.37 761.321 1667.11 600.027 1464.49 600.027C1261.87 600.027 1097.62 761.322 1097.62 960.286ZM1151.51 960.286C1151.51 790.548 1291.64 652.947 1464.49 652.947C1637.35 652.947 1777.48 790.548 1777.48 960.286C1777.48 1130.03 1637.35 1267.62 1464.49 1267.62C1291.64 1267.63 1151.51 1130.03 1151.51 960.286Z" fill="url(#paint33_linear_260_28)"/>
<path d="M1803.48 1004.14C1803.41 1004.14 1803.33 1004.13 1803.26 1004.12C1802.34 1004.01 1801.68 1003.16 1801.8 1002.24C1802.88 993.788 1803.64 985.205 1804.06 976.727C1804.1 975.797 1804.96 975.013 1805.82 975.125C1806.76 975.171 1807.47 975.962 1807.43 976.892C1807 985.459 1806.24 994.128 1805.15 1002.66C1805.04 1003.51 1804.32 1004.14 1803.48 1004.14ZM1800.96 903.403C1800.16 903.403 1799.44 902.83 1799.3 902.012C1795.2 879.136 1788.62 856.633 1779.76 835.129V835.122C1727.51 708.38 1603.76 626.482 1464.49 626.482C1399.55 626.482 1336.41 644.522 1281.92 678.654C1281.13 679.149 1280.08 678.911 1279.59 678.12C1279.1 677.329 1279.34 676.287 1280.12 675.793C1335.16 641.325 1398.91 623.106 1464.49 623.106C1605.13 623.106 1730.1 705.821 1782.87 833.836C1791.83 855.565 1798.48 878.302 1802.62 901.418C1802.79 902.335 1802.18 903.211 1801.26 903.376C1801.16 903.393 1801.06 903.403 1800.96 903.403Z" fill="#BDD0FB"/>
<path d="M1984.23 765.343C1983.99 766.988 2005.97 874.688 2005.97 874.688L2067.2 860.832L2061.53 755.66C2061.53 755.66 1988.2 737.795 1984.23 765.343Z" fill="url(#paint34_linear_260_28)"/>
<path d="M2047.76 779.096L2055.08 834.227C2055.17 834.934 2055.17 835.632 2055.07 836.339C2054.45 840.66 2051.24 855.373 2036.39 851.165C2022.91 847.348 2010.56 844.064 2002.02 846.675C1998.19 847.847 1995.88 851.728 1996.68 855.655C1998.68 865.44 2003.59 887.405 2010.77 905.838C2012.23 909.578 2016.33 911.543 2020.18 910.418C2031.79 907.033 2056.08 899.208 2074.15 888.335C2076.6 886.863 2078.06 884.199 2077.94 881.345C2077.35 867.427 2075.72 825.12 2077.09 813.26C2078.38 802.128 2092.04 795.459 2097.98 793.068C2099.92 792.285 2101.45 790.751 2102.23 788.803C2104.97 781.915 2108.76 765.976 2088.68 759.445C2084.47 758.078 2082.26 753.545 2083.75 749.386C2086.73 741.103 2087.98 728.463 2072.44 721.5C2056.65 714.422 2044.85 722.841 2038.48 729.684C2035.91 732.451 2031.78 732.872 2028.58 730.853C2026.76 729.704 2024.42 729.327 2021.59 731.091C2017.77 733.468 2012.72 731.848 2010.75 727.807C2006.97 720.043 1999.26 711.728 1983.8 714.376C1956.36 719.074 1953.25 749.478 1960.49 767.295C1967.73 785.112 1997.19 778.326 2011.97 769.344C2023.2 762.516 2037.78 769.673 2044.12 773.497C2046.12 774.708 2047.45 776.77 2047.76 779.096Z" fill="url(#paint35_linear_260_28)"/>
<path d="M2079.56 833.359C2079.56 833.359 2068.28 801.773 2079.87 794.038C2091.45 786.303 2108.62 790.319 2104.84 813.201C2100.14 841.662 2079.56 833.359 2079.56 833.359Z" fill="url(#paint36_linear_260_28)"/>
<path d="M2318.34 1283.98L2255.2 1278.84L2227.85 1304.04C2227.85 1304.04 2234.32 1312.98 2254.55 1307.85C2274.77 1302.71 2302.48 1301.44 2302.48 1301.44C2302.48 1301.44 2330.4 1314.03 2330.74 1290.48L2318.34 1283.98Z" fill="url(#paint37_linear_260_28)"/>
<path d="M1829.25 1185.57C1823.79 1189.83 1805.08 1180.93 1793.64 1174.77C1788.06 1171.77 1785.35 1165.25 1787.27 1159.21C1790.02 1150.52 1794.62 1139.31 1800.27 1137.89C1809.66 1135.55 1851.76 1167.99 1829.25 1185.57Z" fill="url(#paint38_linear_260_28)"/>
<path d="M2426.22 1436.63C2425.52 1436.63 2424.86 1436.19 2424.62 1435.5C2424.32 1434.62 2424.78 1433.65 2425.67 1433.35C2444.84 1426.72 2454.89 1415.94 2455.52 1401.31C2456.17 1386.51 2446.82 1372.76 2432.26 1367.08L2352.06 1335.81C2351.19 1335.47 2350.76 1334.49 2351.1 1333.62C2351.44 1332.76 2352.42 1332.32 2353.29 1332.66L2433.48 1363.94C2449.39 1370.14 2459.6 1385.22 2458.9 1401.46C2458.19 1417.61 2447.39 1429.41 2426.77 1436.54C2426.59 1436.6 2426.4 1436.63 2426.22 1436.63Z" fill="#BDD0FB"/>
<path d="M2327.96 1326.29C2327.76 1326.29 2327.55 1326.25 2327.35 1326.17L2316.96 1322.12C2316.09 1321.78 2315.66 1320.8 2316 1319.93C2316.34 1319.06 2317.31 1318.64 2318.18 1318.98L2328.57 1323.03C2329.44 1323.37 2329.87 1324.34 2329.53 1325.21C2329.27 1325.88 2328.64 1326.29 2327.96 1326.29Z" fill="#BDD0FB"/>
<path d="M300.331 2707.88C300.331 2707.88 295.519 2735.12 293.16 2762.09C292.238 2772.63 300.363 2781.78 310.932 2782.22C346.841 2783.71 423.65 2786.62 451.211 2785.39C455.354 2785.21 458.063 2780.96 456.53 2777.11C455.245 2773.88 452.766 2771.27 449.609 2769.82L322.735 2711.51L300.331 2707.88Z" fill="url(#paint39_linear_260_28)"/>
<path d="M296.389 2691.88L300.254 2724.46C300.254 2724.46 322.48 2734.81 337.658 2723.16L328.454 2686.85L296.389 2691.88Z" fill="url(#paint40_linear_260_28)"/>
<path d="M299.294 2079.33C297.624 2087.84 290.331 2503.93 334.807 2690.39C335.534 2693.43 333.991 2696.57 331.095 2697.75C324.274 2700.54 310.9 2704.58 294.873 2705.12C289.909 2705.28 285.459 2702.06 284.059 2697.29C271.346 2654.03 210.424 2437.27 202.477 2230.21C193.597 1998.84 202.477 2222.33 202.477 2222.33L207.685 2079.31L299.294 2079.33Z" fill="url(#paint41_linear_260_28)"/>
<path d="M154.383 2722.09C154.383 2722.09 146.723 2735.85 139.308 2772.39C137.969 2778.99 142.58 2785.3 149.281 2785.96C161.138 2787.13 179.392 2788.63 194.014 2788.53C200.754 2788.48 206.014 2782.61 205.202 2775.92C203.582 2762.58 198.536 2740.7 182.949 2723.64L154.383 2722.09Z" fill="url(#paint42_linear_260_28)"/>
<path d="M147.656 2680.19L156.689 2729.46C156.689 2729.46 165.621 2736.1 183.288 2731.29L178.977 2678.27L147.656 2680.19Z" fill="url(#paint43_linear_260_28)"/>
<path d="M123.253 2092.1C86.8773 2311.63 131.144 2634.69 146.074 2697.92C146.988 2701.79 150.112 2704.76 154.036 2705.41C160.7 2706.51 171.671 2707.41 182.488 2704.27C186.215 2703.19 188.833 2699.83 188.986 2695.95C190.989 2644.83 187.383 2331 221.277 2206.98C222.995 2200.69 226.833 2195.21 232.144 2191.43L297.931 2144.66L302.975 2069.07L123.253 2092.1Z" fill="url(#paint44_linear_260_28)"/>
<path d="M355.043 1676.12C246.03 1674.32 125.748 1704.75 125.748 1704.75C93.2543 1894.35 120.066 2113.05 120.066 2113.05C204.461 2135.18 299.663 2099.51 299.663 2099.51C313.689 2020.26 379.136 1797.23 379.136 1797.23C432.4 1790.62 476.277 1775.25 512.41 1754.94C484.848 1722.99 471.855 1682.34 466.211 1658.31C427.668 1670.28 388.667 1676.68 355.043 1676.12Z" fill="url(#paint45_linear_260_28)"/>
<path d="M677.046 1515.56C666.338 1502.62 652.783 1508.74 652.783 1508.74C636.741 1576.5 552.627 1631.45 466.21 1658.31C471.853 1682.34 484.847 1722.99 512.409 1754.94C655.825 1674.3 677.046 1515.56 677.046 1515.56Z" fill="url(#paint46_linear_260_28)"/>
<path d="M674.447 1518.84C675.568 1522.41 662.592 1527.83 654.952 1513.26C654.686 1506.28 650.439 1476.37 654.611 1470.68C676.833 1440.38 719.916 1402.4 719.916 1402.4C727.197 1409.59 721.198 1416.65 721.198 1416.65L700.298 1438.42C704.67 1446.32 710.002 1452.99 712.501 1462.54C714.394 1469.78 713.236 1477.51 709.582 1484.1C705.913 1490.71 700.908 1499.3 696.175 1506.02C687.219 1518.75 674.447 1518.84 674.447 1518.84Z" fill="url(#paint47_linear_260_28)"/>
<path d="M691.157 1452.55L672.111 1468.69L666.132 1484.77L683.113 1503.61C683.113 1503.61 688.823 1471.71 693.066 1464.81C697.309 1457.9 695.108 1454.57 691.157 1452.55Z" fill="url(#paint48_linear_260_28)"/>
<path d="M167.56 1810.3L125.748 1704.75C125.748 1704.75 23.9242 1773.93 7.1792 1861.65C26.4192 1863.07 61.4292 1868.07 95.6962 1885.38C103.227 1843.96 167.56 1810.3 167.56 1810.3Z" fill="url(#paint49_linear_260_28)"/>
<path d="M256.543 1909.63C256.543 1909.63 142.22 1974.24 103.647 1919.07C95.6382 1907.61 93.7232 1896.23 95.6962 1885.38C61.4282 1868.07 26.4192 1863.07 7.17921 1861.65C2.13021 1888.1 4.79924 1916.22 20.3382 1944.65C87.9082 2068.25 271.673 1937.82 271.673 1937.82L256.543 1909.63Z" fill="url(#paint50_linear_260_28)"/>
<path d="M242.807 1991.37L305.2 1773.48C305.908 1771 308.018 1769.2 310.573 1768.9C321.878 1767.58 354.633 1763.88 392.454 1760.68C433.456 1757.21 480.41 1754.34 512.437 1755.73C521.734 1756.14 527.559 1765.92 523.414 1774.26C500.046 1821.23 433.339 1953.09 398.783 1998.32C397.556 1999.93 395.658 2000.86 393.638 2000.85L248.877 1999.5C244.665 1999.46 241.648 1995.42 242.807 1991.37Z" fill="url(#paint51_linear_260_28)"/>
<path d="M398.927 1741.79L444.163 1734.25C446.572 1733.85 448.546 1736.16 447.779 1738.47L443.301 1752.04C442.911 1753.22 441.881 1754.08 440.648 1754.25L397.117 1760.06C394.865 1760.36 393.008 1758.32 393.527 1756.1L396.299 1744.25C396.597 1742.98 397.633 1742.01 398.927 1741.79Z" fill="#0A1D12"/>
<path d="M365.055 1780.09L368.781 1760.68C369.155 1758.73 370.762 1757.26 372.734 1757.06L464.101 1747.79C467.176 1747.47 469.639 1750.29 468.917 1753.3L463.108 1777.49C462.644 1779.42 460.959 1780.82 458.971 1780.92L369.688 1785.41C366.782 1785.56 364.507 1782.94 365.055 1780.09Z" fill="url(#paint52_linear_260_28)"/>
<path d="M257.881 1938.72C257.881 1938.72 249.19 1902.99 252.696 1890.31C256.202 1877.63 262.995 1861.33 285.637 1864.95C308.278 1868.57 334.986 1878.11 334.986 1878.11C334.986 1878.11 333.637 1894.62 316.429 1889.3L327.099 1897.55C327.099 1897.55 325.574 1910.78 311.039 1903.71L320.964 1914.66C320.964 1914.66 314.722 1925.52 304.028 1918.56C293.335 1911.59 288.208 1943.03 257.881 1938.72Z" fill="url(#paint53_linear_260_28)"/>
<path d="M244.623 1587.62L209.936 1687.93C209.362 1689.6 210.044 1691.44 211.584 1692.29C221.039 1697.52 255.104 1712.63 296.154 1686.6C300.431 1683.89 303.342 1679.46 303.991 1674.44L315.223 1587.62H244.623Z" fill="url(#paint54_linear_260_28)"/>
<path d="M320.094 1494.73C320.094 1494.73 358.183 1566.43 353.301 1595.4C348.419 1624.36 301.213 1622.28 259.992 1598.76L231.188 1521.34L320.094 1494.73Z" fill="url(#paint55_linear_260_28)"/>
<path d="M261.814 1560.74C263.489 1559.99 264.108 1557.94 263.104 1556.41C260.052 1551.75 254.332 1542.24 252.508 1533.91C252.508 1533.91 245.661 1529.53 269.935 1523.72C294.21 1517.91 330.409 1508.89 338.018 1488.23C345.437 1468.08 325.945 1417.42 294.848 1457.79C293.665 1459.32 291.347 1459.36 290.165 1457.82C285.067 1451.18 271.664 1437.41 253.056 1445.76C235.644 1453.57 233.682 1466.33 233.921 1472.76C233.991 1474.66 232.3 1476.13 230.44 1475.77C221.636 1474.09 200.509 1472.65 190.648 1494.32C182.526 1512.17 187.805 1522.28 192.613 1527.22C194.171 1528.82 193.488 1531.46 191.352 1532.11C185.566 1533.89 178.094 1538.79 178.842 1552.35C179.875 1571.09 200.829 1569.44 206.794 1568.58C207.772 1568.44 208.756 1568.78 209.418 1569.51C214.533 1575.17 237.58 1599.21 262.522 1602.1C264.682 1602.35 266.356 1600.22 265.649 1598.17L254.854 1566.79C254.353 1565.33 255.05 1563.73 256.459 1563.11L261.814 1560.74Z" fill="url(#paint56_linear_260_28)"/>
<path d="M266.154 1565.19C266.154 1565.19 239.034 1546.58 237.053 1562.25C235.071 1577.92 261.474 1584.95 274.552 1579.11L266.154 1565.19Z" fill="url(#paint57_linear_260_28)"/>
<path d="M2052.92 2757.22C2057.73 2757.22 2061.63 2754.41 2061.63 2750.94V2000.12C2061.63 1996.65 2057.73 1993.83 2052.92 1993.83C2048.11 1993.83 2044.21 1996.65 2044.21 2000.12V2750.94C2044.21 2754.41 2048.11 2757.22 2052.92 2757.22Z" fill="url(#paint58_linear_260_28)"/>
<path d="M2211.98 2757.22C2216.79 2757.22 2220.69 2754.39 2220.69 2750.89V1994.63C2220.69 1991.13 2216.79 1988.3 2211.98 1988.3C2207.17 1988.3 2203.27 1991.13 2203.27 1994.63V2750.89C2203.27 2754.39 2207.17 2757.22 2211.98 2757.22Z" fill="url(#paint59_linear_260_28)"/>
<path d="M2792 2763.12C2793.14 2763.12 2794.3 2762.92 2795.41 2762.5C2799.84 2760.82 2801.9 2756.25 2800.02 2752.29L2437.28 1989.7C2437.28 1989.7 2416.46 1985.74 2418.34 1989.7L2783.98 2758.38C2785.39 2761.34 2788.62 2763.12 2792 2763.12Z" fill="url(#paint60_linear_260_28)"/>
<path d="M2516.83 2763.12C2517.96 2763.12 2519.12 2762.92 2520.23 2762.5C2524.66 2760.82 2526.72 2756.25 2524.84 2752.29L2163.82 1993.31C2161.93 1989.35 2142.64 1988.58 2144.52 1992.54L2508.81 2758.38C2510.21 2761.34 2513.44 2763.12 2516.83 2763.12Z" fill="url(#paint61_linear_260_28)"/>
<path d="M2034.93 2007.98H2563.83C2565.37 2007.98 2566.63 2006.72 2566.63 2005.17V1988.83C2566.63 1987.28 2565.37 1986.03 2563.83 1986.03H2034.93C2033.38 1986.03 2032.12 1987.28 2032.12 1988.83V2005.17C2032.12 2006.72 2033.38 2007.98 2034.93 2007.98Z" fill="url(#paint62_linear_260_28)"/>
<path d="M2499.31 2131.32H2223.32V2146.89H2499.31V2131.32Z" fill="url(#paint63_linear_260_28)"/>
<path d="M2581.29 2308.45H2305.3V2324.02H2581.29V2308.45Z" fill="url(#paint64_linear_260_28)"/>
<path d="M2391.27 2501.15H2667.26C2672.08 2501.15 2675.97 2497.66 2675.97 2493.36C2675.97 2489.06 2672.08 2485.58 2667.26 2485.58H2391.27C2386.46 2485.58 2382.56 2489.06 2382.56 2493.36C2382.56 2497.66 2386.46 2501.15 2391.27 2501.15Z" fill="url(#paint65_linear_260_28)"/>
<path d="M2474.39 2678.28H2750.38C2755.2 2678.28 2759.1 2674.79 2759.1 2670.49C2759.1 2666.19 2755.2 2662.71 2750.38 2662.71H2474.39C2469.58 2662.71 2465.68 2666.19 2465.68 2670.49C2465.68 2674.79 2469.58 2678.28 2474.39 2678.28Z" fill="url(#paint66_linear_260_28)"/>
<path d="M1979.26 201.117L2080.19 117.319C2089.92 109.239 2102.17 104.816 2114.82 104.816H2603.48C2633.41 104.816 2657.68 129.086 2657.68 159.028V326.624C2657.68 356.564 2633.41 380.835 2603.48 380.835H2114.82C2102.17 380.835 2089.92 376.412 2080.19 368.332L1979.26 284.533C1953.16 262.857 1953.16 222.795 1979.26 201.117Z" fill="url(#paint67_linear_260_28)"/>
<path d="M2455.18 152.366H2542.35C2565.24 152.366 2583.81 170.93 2583.81 193.83V280.991C2583.81 303.891 2565.24 322.455 2542.35 322.455H2455.18C2432.29 322.455 2413.72 303.891 2413.72 280.991V193.83C2413.72 170.929 2432.28 152.366 2455.18 152.366Z" fill="#1E9A5F"/>
<path d="M2451.35 215.711L2496.97 298.701L2546.18 176.118L2492.48 240.722L2451.35 215.711Z" fill="url(#paint68_linear_260_28)"/>
<path d="M497.821 1309.56C560.616 1309.56 611.521 1258.65 611.521 1195.86C611.521 1133.06 560.616 1082.16 497.821 1082.16C435.026 1082.16 384.121 1133.06 384.121 1195.86C384.121 1258.65 435.026 1309.56 497.821 1309.56Z" fill="url(#paint69_linear_260_28)"/>
<path d="M497.821 1305.78C558.528 1305.78 607.74 1256.57 607.74 1195.86C607.74 1135.15 558.528 1085.94 497.821 1085.94C437.115 1085.94 387.902 1135.15 387.902 1195.86C387.902 1256.57 437.115 1305.78 497.821 1305.78Z" fill="url(#paint70_linear_260_28)"/>
<path opacity="0.78" d="M409.451 1149.28C408.895 1149.25 408.337 1149.1 407.82 1148.8C406.056 1147.8 405.444 1145.55 406.451 1143.79C426.26 1109.09 463.336 1088.81 503.211 1090.85C509.575 1091.18 515.917 1092.08 522.063 1093.53C524.038 1093.99 525.262 1095.97 524.798 1097.95C524.333 1099.92 522.363 1101.16 520.377 1100.68C514.661 1099.34 508.758 1098.5 502.834 1098.19C465.747 1096.29 431.262 1115.16 412.835 1147.43C412.124 1148.68 410.793 1149.35 409.451 1149.28Z" fill="white"/>
<path opacity="0.78" d="M565.856 1264.15C602.188 1227.82 602.188 1168.92 565.857 1132.58C529.525 1096.25 470.62 1096.25 434.289 1132.58C397.957 1168.92 397.957 1227.82 434.288 1264.15C470.619 1300.48 529.524 1300.48 565.856 1264.15Z" fill="white"/>
<path d="M487.427 1266.98L487.946 1256.87C477.43 1255.9 467.135 1252.88 459.899 1249.26C457.315 1247.97 456.12 1244.93 457.022 1242.19L460.073 1232.9C461.192 1229.5 465.04 1227.91 468.271 1229.46C475.456 1232.91 484.398 1235.81 494.175 1236.32C504.325 1236.84 512.07 1233.79 512.432 1226.73C512.759 1220.37 507.104 1216.28 493.192 1211.77C473.348 1205.24 459.348 1195.72 460.257 1178C461.078 1162 473.403 1150.39 493.87 1148.16L494.389 1138.06C494.556 1134.8 497.328 1132.3 500.581 1132.47L506.52 1132.77C509.772 1132.94 512.274 1135.71 512.107 1138.96L511.641 1148.04C521.372 1148.93 528.384 1150.96 533.915 1153.23C536.749 1154.39 538.166 1157.58 537.214 1160.49L534.406 1169.08C533.323 1172.39 529.64 1174.05 526.449 1172.65C521.364 1170.42 514.136 1168 504.605 1167.51C492.563 1166.9 488.867 1171.71 488.637 1176.18C488.355 1181.69 495.385 1185.84 510.792 1191.46C532.811 1199.32 541.623 1209.09 540.767 1225.77C539.981 1241.08 527.921 1254.26 505.725 1256.57L505.144 1267.88C504.977 1271.14 502.205 1273.64 498.952 1273.47L493.012 1273.17C489.762 1273 487.26 1270.23 487.427 1266.98Z" fill="#A2DB1E"/>
<path d="M597.88 980.662C700.361 980.662 783.438 897.585 783.438 795.104C783.438 692.623 700.361 609.546 597.88 609.546C495.399 609.546 412.322 692.623 412.322 795.104C412.322 897.585 495.399 980.662 597.88 980.662Z" fill="url(#paint71_linear_260_28)"/>
<path d="M597.88 974.492C696.953 974.492 777.268 894.177 777.268 795.104C777.268 696.031 696.953 615.716 597.88 615.716C498.807 615.716 418.492 696.031 418.492 795.104C418.492 894.177 498.807 974.492 597.88 974.492Z" fill="url(#paint72_linear_260_28)"/>
<path opacity="0.78" d="M453.795 716.543C453.274 716.516 452.751 716.371 452.266 716.094C450.613 715.15 450.038 713.044 450.982 711.395C482.831 655.606 542.44 622.993 606.548 626.284C616.778 626.809 626.977 628.256 636.859 630.59C638.712 631.025 639.86 632.88 639.423 634.735C638.986 636.586 637.132 637.755 635.278 637.295C625.798 635.06 616.012 633.671 606.195 633.167C544.7 630.01 487.52 661.295 456.967 714.809C456.3 715.977 455.053 716.608 453.795 716.543Z" fill="white"/>
<path opacity="0.78" d="M708.927 906.565C768.22 847.272 768.22 751.14 708.927 691.847C649.635 632.554 553.502 632.554 494.21 691.847C434.917 751.14 434.917 847.272 494.21 906.565C553.502 965.858 649.635 965.858 708.927 906.565Z" fill="white"/>
<path d="M580.917 911.168L581.764 894.671C564.602 893.1 547.801 888.168 535.991 882.259C531.774 880.149 529.823 875.195 531.296 870.715L536.275 855.564C538.102 850.006 544.382 847.405 549.655 849.941C561.381 855.58 575.975 860.314 591.931 861.133C608.495 861.983 621.136 857.002 621.727 845.491C622.26 835.104 613.032 828.438 590.328 821.08C557.943 810.41 535.094 794.881 536.579 765.964C537.919 739.854 558.034 720.901 591.435 717.269L592.282 700.771C592.555 695.462 597.079 691.38 602.387 691.653L612.08 692.15C617.389 692.423 621.471 696.947 621.199 702.255L620.439 717.068C636.319 718.522 647.763 721.837 656.79 725.54C661.415 727.437 663.728 732.642 662.174 737.393L657.59 751.407C655.823 756.811 649.812 759.511 644.604 757.231C636.305 753.596 624.509 749.649 608.955 748.851C589.302 747.842 583.271 755.695 582.896 762.995C582.435 771.979 593.909 778.76 619.052 787.933C654.988 800.755 669.369 816.694 667.97 843.926C666.688 868.913 647.006 890.421 610.782 894.192L609.834 912.653C609.561 917.962 605.037 922.045 599.729 921.772L590.035 921.275C584.727 921.001 580.645 916.477 580.917 911.168Z" fill="#A2DB1E"/>
<path d="M847.518 1331.3C952.97 1331.3 1038.46 1245.82 1038.46 1140.36C1038.46 1034.91 952.97 949.428 847.518 949.428C742.067 949.428 656.582 1034.91 656.582 1140.36C656.582 1245.82 742.067 1331.3 847.518 1331.3Z" fill="url(#paint73_linear_260_28)"/>
<path d="M847.519 1324.95C949.464 1324.95 1032.11 1242.31 1032.11 1140.36C1032.11 1038.42 949.464 955.777 847.519 955.777C745.573 955.777 662.931 1038.42 662.931 1140.36C662.931 1242.31 745.573 1324.95 847.519 1324.95Z" fill="url(#paint74_linear_260_28)"/>
<path opacity="0.78" d="M699.26 1059.43C698.739 1059.4 698.216 1059.25 697.731 1058.98C696.078 1058.03 695.503 1055.93 696.447 1054.28C729.2 996.905 790.5 963.369 856.43 966.753C866.95 967.293 877.438 968.782 887.602 971.181C889.455 971.617 890.603 973.472 890.166 975.326C889.729 977.177 887.887 978.336 886.021 977.886C876.257 975.586 866.182 974.155 856.076 973.636C792.76 970.386 733.888 1002.59 702.431 1057.69C701.766 1058.86 700.519 1059.49 699.26 1059.43Z" fill="white"/>
<path opacity="0.78" d="M1000.66 1190.22C1025.88 1107.71 979.439 1020.37 896.925 995.151C814.411 969.93 727.075 1016.37 701.854 1098.89C676.633 1181.4 723.079 1268.74 805.593 1293.96C888.107 1319.18 975.443 1272.73 1000.66 1190.22Z" fill="white"/>
<path d="M830.064 1259.79L830.935 1242.82C813.275 1241.2 795.987 1236.13 783.835 1230.05C779.496 1227.87 777.488 1222.78 779.004 1218.17L784.128 1202.58C786.008 1196.86 792.47 1194.18 797.895 1196.79C809.962 1202.59 824.978 1207.46 841.396 1208.31C858.44 1209.18 871.447 1204.06 872.056 1192.21C872.605 1181.52 863.109 1174.66 839.747 1167.09C806.422 1156.11 782.912 1140.13 784.439 1110.38C785.818 1083.51 806.516 1064.01 840.885 1060.27L841.756 1043.3C842.037 1037.83 846.692 1033.63 852.155 1033.91L862.128 1034.42C867.591 1034.7 871.791 1039.36 871.511 1044.82L870.728 1060.06C887.069 1061.56 898.844 1064.97 908.133 1068.78C912.892 1070.73 915.272 1076.09 913.673 1080.98L908.957 1095.4C907.138 1100.96 900.953 1103.74 895.594 1101.39C887.054 1097.65 874.917 1093.59 858.912 1092.77C838.69 1091.73 832.483 1099.81 832.097 1107.32C831.622 1116.57 843.429 1123.54 869.302 1132.98C906.279 1146.18 921.077 1162.58 919.638 1190.6C918.318 1216.31 898.066 1238.44 860.793 1242.32L859.818 1261.32C859.538 1266.78 854.882 1270.98 849.42 1270.7L839.445 1270.19C833.985 1269.91 829.784 1265.26 830.064 1259.79Z" fill="#A2DB1E"/>
<path d="M1010.29 902.593C1094.63 902.593 1163 834.224 1163 749.888C1163 665.551 1094.63 597.183 1010.29 597.183C925.957 597.183 857.589 665.551 857.589 749.888C857.589 834.224 925.957 902.593 1010.29 902.593Z" fill="url(#paint75_linear_260_28)"/>
<path d="M1010.29 897.515C1091.83 897.515 1157.92 831.42 1157.92 749.888C1157.92 668.356 1091.83 602.261 1010.29 602.261C928.762 602.261 862.667 668.356 862.667 749.888C862.667 831.42 928.762 897.515 1010.29 897.515Z" fill="url(#paint76_linear_260_28)"/>
<path opacity="0.78" d="M891.67 686.16C891.102 686.131 890.53 685.973 890.001 685.67C888.197 684.639 887.57 682.341 888.6 680.54C914.984 634.324 964.367 607.308 1017.47 610.034C1025.94 610.468 1034.38 611.667 1042.58 613.6C1044.6 614.075 1045.86 616.1 1045.38 618.121C1044.91 620.142 1042.9 621.425 1040.86 620.92C1033.1 619.094 1025.1 617.959 1017.09 617.548C966.833 614.968 920.102 640.535 895.132 684.268C894.405 685.543 893.044 686.23 891.67 686.16Z" fill="white"/>
<path opacity="0.78" d="M1101.67 841.618C1150.47 792.823 1150.47 713.711 1101.67 664.917C1052.88 616.122 973.768 616.122 924.973 664.917C876.179 713.711 876.179 792.823 924.973 841.618C973.768 890.413 1052.88 890.413 1101.67 841.618Z" fill="white"/>
<path d="M996.334 845.403L997.031 831.827C982.908 830.534 969.081 826.475 959.362 821.612C955.892 819.876 954.287 815.799 955.498 812.112L959.596 799.643C961.1 795.069 966.268 792.929 970.607 795.015C980.258 799.656 992.267 803.552 1005.4 804.227C1019.03 804.927 1029.43 800.827 1029.92 791.354C1030.36 782.806 1022.76 777.32 1004.08 771.266C977.427 762.485 958.624 749.705 959.845 725.909C960.948 704.422 977.501 688.825 1004.99 685.836L1005.69 672.258C1005.91 667.889 1009.63 664.529 1014 664.753L1021.98 665.162C1026.35 665.386 1029.71 669.11 1029.48 673.479L1028.86 685.669C1041.93 686.866 1051.34 689.594 1058.77 692.641C1062.58 694.202 1064.48 698.485 1063.2 702.395L1059.43 713.927C1057.98 718.373 1053.03 720.597 1048.74 718.72C1041.91 715.729 1032.21 712.481 1019.41 711.824C1003.23 710.994 998.27 717.456 997.962 723.464C997.582 730.857 1007.03 736.438 1027.72 743.986C1057.29 754.538 1069.13 767.654 1067.97 790.066C1066.92 810.629 1050.72 828.329 1020.91 831.432L1020.13 846.625C1019.91 850.994 1016.18 854.354 1011.82 854.129L1003.84 853.72C999.47 853.495 996.11 849.771 996.334 845.403Z" fill="#A2DB1E"/>
<defs>
<linearGradient id="paint0_linear_260_28" x1="-47.8034" y1="490.949" x2="3098.33" y2="2740.25" gradientUnits="userSpaceOnUse">
<stop stop-color="#DAE3FE"/>
<stop offset="1" stop-color="#E9EFFD"/>
</linearGradient>
<linearGradient id="paint1_linear_260_28" x1="2357.56" y1="531.234" x2="52.0661" y2="2988.75" gradientUnits="userSpaceOnUse">
<stop stop-color="#1E9A5F"/>
<stop offset="1" stop-color="#B7E8D0"/>
</linearGradient>
<linearGradient id="paint2_linear_260_28" x1="364.989" y1="2064.75" x2="1548.56" y2="2064.75" gradientUnits="userSpaceOnUse">
<stop stop-color="#0A4C2D"/>
<stop offset="1" stop-color="#1E9A5F"/>
</linearGradient>
<linearGradient id="paint3_linear_260_28" x1="713.717" y1="-254.774" x2="-148.186" y2="45.9668" gradientUnits="userSpaceOnUse">
<stop stop-color="#B7E8D0"/>
<stop offset="1" stop-color="#1E9A5F"/>
</linearGradient>
<linearGradient id="paint4_linear_260_28" x1="986.131" y1="-254.774" x2="124.228" y2="45.9664" gradientUnits="userSpaceOnUse">
<stop stop-color="#B7E8D0"/>
<stop offset="1" stop-color="#1E9A5F"/>
</linearGradient>
<linearGradient id="paint5_linear_260_28" x1="1248.07" y1="-254.774" x2="386.162" y2="45.9695" gradientUnits="userSpaceOnUse">
<stop stop-color="#B7E8D0"/>
<stop offset="1" stop-color="#1E9A5F"/>
</linearGradient>
<linearGradient id="paint6_linear_260_28" x1="1278" y1="1912" x2="1486.5" y2="2095" gradientUnits="userSpaceOnUse">
<stop stop-color="#D6F58D"/>
<stop offset="1" stop-color="#A2DB1E"/>
</linearGradient>
<linearGradient id="paint7_linear_260_28" x1="713.717" y1="-66.1616" x2="-148.185" y2="234.581" gradientUnits="userSpaceOnUse">
<stop stop-color="#B7E8D0"/>
<stop offset="1" stop-color="#1E9A5F"/>
</linearGradient>
<linearGradient id="paint8_linear_260_28" x1="986.131" y1="-66.1616" x2="124.23" y2="234.581" gradientUnits="userSpaceOnUse">
<stop stop-color="#B7E8D0"/>
<stop offset="1" stop-color="#1E9A5F"/>
</linearGradient>
<linearGradient id="paint9_linear_260_28" x1="1248.07" y1="-66.1616" x2="386.164" y2="234.584" gradientUnits="userSpaceOnUse">
<stop stop-color="#B7E8D0"/>
<stop offset="1" stop-color="#1E9A5F"/>
</linearGradient>
<linearGradient id="paint10_linear_260_28" x1="1520.48" y1="-66.1616" x2="658.581" y2="234.581" gradientUnits="userSpaceOnUse">
<stop stop-color="#B7E8D0"/>
<stop offset="1" stop-color="#0A4C2D"/>
</linearGradient>
<linearGradient id="paint11_linear_260_28" x1="713.717" y1="100.865" x2="-148.185" y2="401.608" gradientUnits="userSpaceOnUse">
<stop stop-color="#B7E8D0"/>
<stop offset="1" stop-color="#1E9A5F"/>
</linearGradient>
<linearGradient id="paint12_linear_260_28" x1="684.5" y1="2194" x2="613.691" y2="2368.83" gradientUnits="userSpaceOnUse">
<stop stop-color="#B7E8D0"/>
<stop offset="1" stop-color="#0A4C2D"/>
</linearGradient>
<linearGradient id="paint13_linear_260_28" x1="946.437" y1="2194" x2="875.628" y2="2368.83" gradientUnits="userSpaceOnUse">
<stop stop-color="#B7E8D0"/>
<stop offset="1" stop-color="#0A4C2D"/>
</linearGradient>
<linearGradient id="paint14_linear_260_28" x1="412.086" y1="2377.35" x2="341.277" y2="2552.19" gradientUnits="userSpaceOnUse">
<stop stop-color="#B7E8D0"/>
<stop offset="1" stop-color="#0A4C2D"/>
</linearGradient>
<linearGradient id="paint15_linear_260_28" x1="684.5" y1="2377.35" x2="613.691" y2="2552.19" gradientUnits="userSpaceOnUse">
<stop stop-color="#B7E8D0"/>
<stop offset="1" stop-color="#0A4C2D"/>
</linearGradient>
<linearGradient id="paint16_linear_260_28" x1="946.437" y1="2377.35" x2="875.628" y2="2552.19" gradientUnits="userSpaceOnUse">
<stop stop-color="#B7E8D0"/>
<stop offset="1" stop-color="#0A4C2D"/>
</linearGradient>
<linearGradient id="paint17_linear_260_28" x1="1483.34" y1="-3098.76" x2="709.498" y2="-3010.42" gradientUnits="userSpaceOnUse">
<stop stop-color="#B7E8D0"/>
<stop offset="1" stop-color="#0A4C2D"/>
</linearGradient>
<linearGradient id="paint18_linear_260_28" x1="2305.65" y1="1718.5" x2="2185.35" y2="1988.23" gradientUnits="userSpaceOnUse">
<stop stop-color="#B7E8D0"/>
<stop offset="1" stop-color="#1E9A5F"/>
</linearGradient>
<linearGradient id="paint19_linear_260_28" x1="2076.6" y1="1963.68" x2="2088.85" y2="1841.6" gradientUnits="userSpaceOnUse">
<stop stop-color="#0A4C2D"/>
<stop offset="1" stop-color="#1E9A5F"/>
</linearGradient>
<linearGradient id="paint20_linear_260_28" x1="2248.83" y1="1911.16" x2="2207.89" y2="1911.16" gradientUnits="userSpaceOnUse">
<stop stop-color="#FEBBBA"/>
<stop offset="1" stop-color="#FF928E"/>
</linearGradient>
<linearGradient id="paint21_linear_260_28" x1="2568.68" y1="1599.03" x2="2363.34" y2="1721.06" gradientUnits="userSpaceOnUse">
<stop stop-color="#B7E8D0"/>
<stop offset="1" stop-color="#1E9A5F"/>
</linearGradient>
<linearGradient id="paint22_linear_260_28" x1="2444.18" y1="1954.35" x2="2497.62" y2="1766.88" gradientUnits="userSpaceOnUse">
<stop stop-color="#0A4C2D"/>
<stop offset="1" stop-color="#1E9A5F"/>
</linearGradient>
<linearGradient id="paint23_linear_260_28" x1="2509.14" y1="1877.03" x2="2460.21" y2="1877.03" gradientUnits="userSpaceOnUse">
<stop stop-color="#FEBBBA"/>
<stop offset="1" stop-color="#FF928E"/>
</linearGradient>
<linearGradient id="paint24_linear_260_28" x1="2864.59" y1="539.212" x2="2204.87" y2="1819.18" gradientUnits="userSpaceOnUse">
<stop stop-color="#B7E8D0"/>
<stop offset="1" stop-color="#1E9A5F"/>
</linearGradient>
<linearGradient id="paint25_linear_260_28" x1="-1482.84" y1="-7696.64" x2="-1270.19" y2="-7186.97" gradientUnits="userSpaceOnUse">
<stop stop-color="#B7E8D0"/>
<stop offset="1" stop-color="#A2DB1E"/>
</linearGradient>
<linearGradient id="paint26_linear_260_28" x1="2516.89" y1="843.967" x2="2290.75" y2="1282.76" gradientUnits="userSpaceOnUse">
<stop stop-color="#09005D"/>
<stop offset="1" stop-color="#1A0F91"/>
</linearGradient>
<linearGradient id="paint27_linear_260_28" x1="2284.95" y1="1163.75" x2="2459.15" y2="1318.01" gradientUnits="userSpaceOnUse">
<stop stop-color="#FEBBBA"/>
<stop offset="1" stop-color="#FF928E"/>
</linearGradient>
<linearGradient id="paint28_linear_260_28" x1="672.793" y1="-4046.38" x2="815.037" y2="-3777.65" gradientUnits="userSpaceOnUse">
<stop stop-color="#B7E8D0"/>
<stop offset="1" stop-color="#A2DB1E"/>
</linearGradient>
<linearGradient id="paint29_linear_260_28" x1="764.483" y1="-3219.23" x2="894.076" y2="-3004.5" gradientUnits="userSpaceOnUse">
<stop stop-color="#B7E8D0"/>
<stop offset="1" stop-color="#A2DB1E"/>
</linearGradient>
<linearGradient id="paint30_linear_260_28" x1="1958.4" y1="1178.34" x2="1821.21" y2="1178.34" gradientUnits="userSpaceOnUse">
<stop stop-color="#FEBBBA"/>
<stop offset="1" stop-color="#FF928E"/>
</linearGradient>
<linearGradient id="paint31_linear_260_28" x1="2091.75" y1="811.723" x2="2093.25" y2="1067.91" gradientUnits="userSpaceOnUse">
<stop stop-color="#FEBBBA"/>
<stop offset="1" stop-color="#FF928E"/>
</linearGradient>
<linearGradient id="paint32_linear_260_28" x1="1774.97" y1="1093.81" x2="2493.91" y2="1438.09" gradientUnits="userSpaceOnUse">
<stop stop-color="#0A4C2D"/>
<stop offset="1" stop-color="#1E9A5F"/>
</linearGradient>
<linearGradient id="paint33_linear_260_28" x1="866.999" y1="1119.53" x2="1218.69" y2="-336.618" gradientUnits="userSpaceOnUse">
<stop stop-color="#0A4C2D"/>
<stop offset="1" stop-color="#1E9A5F"/>
</linearGradient>
<linearGradient id="paint34_linear_260_28" x1="2008.62" y1="769.598" x2="2109.6" y2="952.718" gradientUnits="userSpaceOnUse">
<stop stop-color="#FEBBBA"/>
<stop offset="1" stop-color="#FF928E"/>
</linearGradient>
<linearGradient id="paint35_linear_260_28" x1="2123.59" y1="797.053" x2="1686.05" y2="852.374" gradientUnits="userSpaceOnUse">
<stop stop-color="#0A4C2D"/>
<stop offset="1" stop-color="#1E9A5F"/>
</linearGradient>
<linearGradient id="paint36_linear_260_28" x1="2172.55" y1="926.73" x2="2087.26" y2="809.578" gradientUnits="userSpaceOnUse">
<stop stop-color="#FEBBBA"/>
<stop offset="1" stop-color="#FF928E"/>
</linearGradient>
<linearGradient id="paint37_linear_260_28" x1="2216.16" y1="1241.43" x2="2390.36" y2="1395.69" gradientUnits="userSpaceOnUse">
<stop stop-color="#FEBBBA"/>
<stop offset="1" stop-color="#FF928E"/>
</linearGradient>
<linearGradient id="paint38_linear_260_28" x1="1835.79" y1="1162.23" x2="1786.66" y2="1162.23" gradientUnits="userSpaceOnUse">
<stop stop-color="#FEBBBA"/>
<stop offset="1" stop-color="#FF928E"/>
</linearGradient>
<linearGradient id="paint39_linear_260_28" x1="241.584" y1="2763.98" x2="260.753" y2="2599.81" gradientUnits="userSpaceOnUse">
<stop stop-color="#0A4C2D"/>
<stop offset="1" stop-color="#1E9A5F"/>
</linearGradient>
<linearGradient id="paint40_linear_260_28" x1="296.389" y1="2707.77" x2="337.658" y2="2707.77" gradientUnits="userSpaceOnUse">
<stop stop-color="#FEBBBA"/>
<stop offset="1" stop-color="#FF928E"/>
</linearGradient>
<linearGradient id="paint41_linear_260_28" x1="113.728" y1="2581.51" x2="780.352" y2="1757.71" gradientUnits="userSpaceOnUse">
<stop stop-color="#0A4C2D"/>
<stop offset="1" stop-color="#1E9A5F"/>
</linearGradient>
<linearGradient id="paint42_linear_260_28" x1="118.267" y1="2770" x2="151.323" y2="2636.06" gradientUnits="userSpaceOnUse">
<stop stop-color="#0A4C2D"/>
<stop offset="1" stop-color="#1E9A5F"/>
</linearGradient>
<linearGradient id="paint43_linear_260_28" x1="147.656" y1="2705.66" x2="183.288" y2="2705.66" gradientUnits="userSpaceOnUse">
<stop stop-color="#FEBBBA"/>
<stop offset="1" stop-color="#FF928E"/>
</linearGradient>
<linearGradient id="paint44_linear_260_28" x1="48.3631" y1="2528.61" x2="714.984" y2="1704.82" gradientUnits="userSpaceOnUse">
<stop stop-color="#0A4C2D"/>
<stop offset="1" stop-color="#1E9A5F"/>
</linearGradient>
<linearGradient id="paint45_linear_260_28" x1="672.21" y1="1232.73" x2="262.13" y2="1830.13" gradientUnits="userSpaceOnUse">
<stop stop-color="#B7E8D0"/>
<stop offset="1" stop-color="#A2DB1E"/>
</linearGradient>
<linearGradient id="paint46_linear_260_28" x1="466.211" y1="1631.12" x2="677.047" y2="1631.12" gradientUnits="userSpaceOnUse">
<stop stop-color="#FEBBBA"/>
<stop offset="1" stop-color="#FF928E"/>
</linearGradient>
<linearGradient id="paint47_linear_260_28" x1="630.08" y1="1595.77" x2="488.603" y2="1917.67" gradientUnits="userSpaceOnUse">
<stop stop-color="#FEBBBA"/>
<stop offset="1" stop-color="#FF928E"/>
</linearGradient>
<linearGradient id="paint48_linear_260_28" x1="676.035" y1="1488.57" x2="735.067" y2="1397.81" gradientUnits="userSpaceOnUse">
<stop stop-color="#FEBBBA"/>
<stop offset="1" stop-color="#FF928E"/>
</linearGradient>
<linearGradient id="paint49_linear_260_28" x1="550.423" y1="1149.13" x2="140.343" y2="1746.53" gradientUnits="userSpaceOnUse">
<stop stop-color="#B7E8D0"/>
<stop offset="1" stop-color="#A2DB1E"/>
</linearGradient>
<linearGradient id="paint50_linear_260_28" x1="4.85811" y1="1929.76" x2="271.673" y2="1929.76" gradientUnits="userSpaceOnUse">
<stop stop-color="#FEBBBA"/>
<stop offset="1" stop-color="#FF928E"/>
</linearGradient>
<linearGradient id="paint51_linear_260_28" x1="242.557" y1="1878.11" x2="524.773" y2="1878.11" gradientUnits="userSpaceOnUse">
<stop stop-color="#1E9A5F"/>
<stop offset="1" stop-color="#0A4C2D"/>
</linearGradient>
<linearGradient id="paint52_linear_260_28" x1="332.264" y1="1774.91" x2="339.375" y2="1695.01" gradientUnits="userSpaceOnUse">
<stop stop-color="#0A4C2D"/>
<stop offset="1" stop-color="#1E9A5F"/>
</linearGradient>
<linearGradient id="paint53_linear_260_28" x1="251.863" y1="1901.78" x2="334.987" y2="1901.78" gradientUnits="userSpaceOnUse">
<stop stop-color="#FEBBBA"/>
<stop offset="1" stop-color="#FF928E"/>
</linearGradient>
<linearGradient id="paint54_linear_260_28" x1="209.735" y1="1644.52" x2="315.224" y2="1644.52" gradientUnits="userSpaceOnUse">
<stop stop-color="#FEBBBA"/>
<stop offset="1" stop-color="#FF928E"/>
</linearGradient>
<linearGradient id="paint55_linear_260_28" x1="340.314" y1="1577.41" x2="224.328" y2="1506.66" gradientUnits="userSpaceOnUse">
<stop stop-color="#FEBBBA"/>
<stop offset="1" stop-color="#FF928E"/>
</linearGradient>
<linearGradient id="paint56_linear_260_28" x1="128.25" y1="1557.62" x2="206.82" y2="1235.6" gradientUnits="userSpaceOnUse">
<stop stop-color="#0A4C2D"/>
<stop offset="1" stop-color="#1E9A5F"/>
</linearGradient>
<linearGradient id="paint57_linear_260_28" x1="309.85" y1="1603.79" x2="205.494" y2="1540.14" gradientUnits="userSpaceOnUse">
<stop stop-color="#FEBBBA"/>
<stop offset="1" stop-color="#FF928E"/>
</linearGradient>
<linearGradient id="paint58_linear_260_28" x1="2038.73" y1="2544.24" x2="2188.95" y2="2530.3" gradientUnits="userSpaceOnUse">
<stop stop-color="#0A4C2D"/>
<stop offset="1" stop-color="#1E9A5F"/>
</linearGradient>
<linearGradient id="paint59_linear_260_28" x1="2197.79" y1="2542.7" x2="2348.04" y2="2528.86" gradientUnits="userSpaceOnUse">
<stop stop-color="#0A4C2D"/>
<stop offset="1" stop-color="#1E9A5F"/>
</linearGradient>
<linearGradient id="paint60_linear_260_28" x1="2298.01" y1="2546.85" x2="2959.99" y2="1218.83" gradientUnits="userSpaceOnUse">
<stop stop-color="#0A4C2D"/>
<stop offset="1" stop-color="#1E9A5F"/>
</linearGradient>
<linearGradient id="paint61_linear_260_28" x1="2024.6" y1="2547.41" x2="2685.26" y2="1223.3" gradientUnits="userSpaceOnUse">
<stop stop-color="#0A4C2D"/>
<stop offset="1" stop-color="#1E9A5F"/>
</linearGradient>
<linearGradient id="paint62_linear_260_28" x1="1864.13" y1="2001.85" x2="1864.6" y2="1954.92" gradientUnits="userSpaceOnUse">
<stop stop-color="#0A4C2D"/>
<stop offset="1" stop-color="#1E9A5F"/>
</linearGradient>
<linearGradient id="paint63_linear_260_28" x1="2136.57" y1="2142.55" x2="2137.04" y2="2109.25" gradientUnits="userSpaceOnUse">
<stop stop-color="#0A4C2D"/>
<stop offset="1" stop-color="#1E9A5F"/>
</linearGradient>
<linearGradient id="paint64_linear_260_28" x1="2218.56" y1="2319.68" x2="2219.02" y2="2286.38" gradientUnits="userSpaceOnUse">
<stop stop-color="#0A4C2D"/>
<stop offset="1" stop-color="#1E9A5F"/>
</linearGradient>
<linearGradient id="paint65_linear_260_28" x1="2290.34" y1="2496.81" x2="2290.77" y2="2463.51" gradientUnits="userSpaceOnUse">
<stop stop-color="#0A4C2D"/>
<stop offset="1" stop-color="#1E9A5F"/>
</linearGradient>
<linearGradient id="paint66_linear_260_28" x1="2373.46" y1="2673.94" x2="2373.9" y2="2640.64" gradientUnits="userSpaceOnUse">
<stop stop-color="#0A4C2D"/>
<stop offset="1" stop-color="#1E9A5F"/>
</linearGradient>
<linearGradient id="paint67_linear_260_28" x1="2309" y1="148" x2="2169.5" y2="381" gradientUnits="userSpaceOnUse">
<stop stop-color="#D6F58D"/>
<stop offset="1" stop-color="#A2DB1E"/>
</linearGradient>
<linearGradient id="paint68_linear_260_28" x1="2816.81" y1="-459.968" x2="2381.42" y2="451.322" gradientUnits="userSpaceOnUse">
<stop stop-color="#FF928E"/>
<stop offset="1" stop-color="#FE7062"/>
</linearGradient>
<linearGradient id="paint69_linear_260_28" x1="333.174" y1="1368.23" x2="494.561" y2="1199.27" gradientUnits="userSpaceOnUse">
<stop stop-color="#D6F58D"/>
<stop offset="1" stop-color="#A2DB1E"/>
</linearGradient>
<linearGradient id="paint70_linear_260_28" x1="-2068.31" y1="-2956.16" x2="-1995.58" y2="-2694.52" gradientUnits="userSpaceOnUse">
<stop stop-color="#B7E8D0"/>
<stop offset="1" stop-color="#1E9A5F"/>
</linearGradient>
<linearGradient id="paint71_linear_260_28" x1="329.176" y1="1076.42" x2="592.56" y2="800.674" gradientUnits="userSpaceOnUse">
<stop stop-color="#D6F58D"/>
<stop offset="1" stop-color="#A2DB1E"/>
</linearGradient>
<linearGradient id="paint72_linear_260_28" x1="-3590.05" y1="-5981" x2="-3471.35" y2="-5554" gradientUnits="userSpaceOnUse">
<stop stop-color="#B7E8D0"/>
<stop offset="1" stop-color="#1E9A5F"/>
</linearGradient>
<linearGradient id="paint73_linear_260_28" x1="571.025" y1="1429.83" x2="842.045" y2="1146.1" gradientUnits="userSpaceOnUse">
<stop stop-color="#D6F58D"/>
<stop offset="1" stop-color="#A2DB1E"/>
</linearGradient>
<linearGradient id="paint74_linear_260_28" x1="-3461.81" y1="-5832.16" x2="-3339.67" y2="-5392.78" gradientUnits="userSpaceOnUse">
<stop stop-color="#B7E8D0"/>
<stop offset="1" stop-color="#1E9A5F"/>
</linearGradient>
<linearGradient id="paint75_linear_260_28" x1="789.164" y1="981.395" x2="1005.92" y2="754.472" gradientUnits="userSpaceOnUse">
<stop stop-color="#D6F58D"/>
<stop offset="1" stop-color="#A2DB1E"/>
</linearGradient>
<linearGradient id="paint76_linear_260_28" x1="-2436.16" y1="-4826.5" x2="-2338.47" y2="-4475.09" gradientUnits="userSpaceOnUse">
<stop stop-color="#B7E8D0"/>
<stop offset="1" stop-color="#1E9A5F"/>
</linearGradient>
</defs>
</svg>
