<svg width="397" height="348" viewBox="0 0 397 348" fill="none" xmlns="http://www.w3.org/2000/svg">
<path d="M375.443 235.329C338.687 313.927 240.777 357.958 155.869 346.081C142.053 344.148 104.176 338.391 70.6404 311.231C6.08274 258.946 -7.72345 155.415 44.3533 82.4541C82.256 29.3513 150.2 -0.750856 214.761 0.754839C228.667 1.07911 281.962 3.07803 328.799 38.152C335.679 43.3037 350.852 55.5455 364.527 74.9663C396.638 120.57 399.398 184.106 375.443 235.329Z" fill="#F2F8F5"/>
<path d="M45.1677 83.0349C82.8564 30.2322 150.47 0.255764 214.738 1.75464C228.602 2.07792 281.626 4.07563 328.2 38.9529C335.035 44.0713 350.118 56.24 363.709 75.5417C395.59 120.819 398.358 183.969 374.538 234.906C337.997 313.043 240.554 356.917 156.008 345.091C142.226 343.163 104.581 337.433 71.2693 310.454C7.14407 258.519 -6.61787 155.588 45.1677 83.0349Z" stroke="url(#paint0_linear_147_3558)" stroke-opacity="0.14" stroke-width="2"/>
<path d="M167.148 279.7L158.597 333.29H257.802L244.881 279.7H167.148Z" fill="url(#paint1_linear_147_3558)"/>
<path d="M0.5 108.108V267.615C0.5 280.737 12.0137 291.467 26.4572 291.805C90.6083 293.307 314.978 296.95 376.045 296.133C386.541 295.992 395.043 288.364 395.346 278.835C396.524 241.78 398.436 152.673 391.359 111.305C389.868 102.593 381.771 96.0785 372.068 95.7967C318.318 94.2352 80.472 89.2765 19.433 90.5214C8.9059 90.7361 0.5 98.5455 0.5 108.108Z" fill="url(#paint2_linear_147_3558)"/>
<path d="M11.52 107.334V258.876C11.52 266.537 18.2917 272.78 26.7265 272.894L367.259 276.715C375.621 276.829 382.476 270.719 382.507 263.123L383.077 112.935C383.099 107.504 378.335 103.054 372.357 102.922L23.7147 96.5252C17.0283 96.3773 11.52 101.26 11.52 107.334Z" fill="#E5EDE9"/>
<path d="M385.071 282.97C385.068 282.97 385.065 282.97 385.062 282.97L11.5111 277.19C11.2227 277.185 10.993 276.969 10.9979 276.708C11.0027 276.446 11.246 276.246 11.5289 276.241L385.08 282.022C385.368 282.027 385.598 282.242 385.593 282.504C385.588 282.763 385.356 282.97 385.071 282.97Z" fill="#A2DB1E"/>
<path d="M201.981 290.028C199.55 290.028 197.573 288.232 197.573 286.024C197.573 283.816 199.55 282.02 201.981 282.02C204.412 282.02 206.39 283.816 206.39 286.024C206.39 288.232 204.412 290.028 201.981 290.028ZM201.981 282.968C200.126 282.968 198.617 284.339 198.617 286.024C198.617 287.708 200.126 289.079 201.981 289.079C203.836 289.079 205.346 287.708 205.346 286.024C205.346 284.339 203.836 282.968 201.981 282.968Z" fill="#A2DB1E"/>
<path d="M279.171 347.54H133.977C130.033 347.54 127.071 344.99 127.833 342.251L129.696 335.56C130.257 333.547 132.694 332.07 135.59 331.988L275.562 328.021C278.587 327.935 281.266 329.394 281.925 331.485L285.283 342.143C286.156 344.912 283.18 347.54 279.171 347.54Z" fill="url(#paint3_linear_147_3558)"/>
<path d="M212.136 333.843C211.852 333.843 211.619 333.636 211.615 333.376C211.61 333.114 211.841 332.899 212.129 332.895L218.127 332.815C218.13 332.815 218.132 332.815 218.135 332.815C218.42 332.815 218.653 333.023 218.657 333.282C218.661 333.544 218.431 333.759 218.142 333.763L212.144 333.843C212.142 333.843 212.139 333.843 212.136 333.843Z" fill="#A2DB1E"/>
<path d="M133.209 343.895C133.182 343.895 133.154 343.893 133.126 343.889C132.842 343.848 132.648 343.605 132.693 343.346L133.549 338.479C134.012 335.843 136.483 333.901 139.422 333.861L203.04 333.017C203.328 333.006 203.566 333.222 203.57 333.484C203.574 333.746 203.344 333.961 203.056 333.965L139.438 334.81C137.006 334.842 134.963 336.448 134.58 338.629L133.724 343.496C133.683 343.729 133.461 343.895 133.209 343.895Z" fill="#A2DB1E"/>
<g opacity="0.53">
<path d="M49.4241 138.894H32.2402V261.864H49.4241V138.894Z" fill="white"/>
<path d="M78.1363 138.894H60.9524V261.863H78.1363V138.894Z" fill="white"/>
<path d="M106.849 138.894H89.6653V261.863H106.849V138.894Z" fill="white"/>
<path d="M135.562 138.894H118.378V261.863H135.562V138.894Z" fill="white"/>
<path d="M164.274 138.894H147.09V261.863H164.274V138.894Z" fill="white"/>
<path d="M192.987 138.894H175.803V261.863H192.987V138.894Z" fill="white"/>
<path d="M221.699 138.894H204.516V261.863H221.699V138.894Z" fill="white"/>
<path d="M252.576 138.894H235.392V261.863H252.576V138.894Z" fill="white"/>
<path d="M281.288 138.894H264.104V261.863H281.288V138.894Z" fill="white"/>
<path d="M310.002 138.894H292.818V261.863H310.002V138.894Z" fill="white"/>
</g>
<path d="M49.4241 197.51H32.2402V261.865H49.4241V197.51Z" fill="url(#paint4_linear_147_3558)"/>
<path d="M78.1375 219.627H60.9536V261.864H78.1375V219.627Z" fill="url(#paint5_linear_147_3558)"/>
<path d="M106.849 164.966H89.6655V261.866H106.849V164.966Z" fill="url(#paint6_linear_147_3558)"/>
<path d="M135.562 238.587H118.378V261.866H135.562V238.587Z" fill="url(#paint7_linear_147_3558)"/>
<path d="M164.274 177.919H147.09V261.864H164.274V177.919Z" fill="url(#paint8_linear_147_3558)"/>
<path d="M192.987 192.453H175.803V261.863H192.987V192.453Z" fill="url(#paint9_linear_147_3558)"/>
<path d="M221.7 208.253H204.516V261.865H221.7V208.253Z" fill="url(#paint10_linear_147_3558)"/>
<path d="M252.428 153.33H235.245V261.864H252.428V153.33Z" fill="url(#paint11_linear_147_3558)"/>
<path d="M281.141 240.746H263.957V261.865H281.141V240.746Z" fill="url(#paint12_linear_147_3558)"/>
<path d="M309.853 199.721H292.669V261.864H309.853V199.721Z" fill="url(#paint13_linear_147_3558)"/>
<path d="M377.793 122.976L340.319 63.3047L302.846 122.976H316.966V260.424H362.862V122.976H377.793Z" fill="url(#paint14_linear_147_3558)"/>
<path d="M314.297 270.689C313.661 270.689 313.132 270.234 313.104 269.651C313.096 269.493 312.227 253.685 303.905 247.379C301.166 245.303 297.862 244.489 294.083 244.956C276.368 247.15 276.996 269.342 277.004 269.566C277.027 270.165 276.51 270.668 275.851 270.688C275.176 270.709 274.637 270.241 274.614 269.642C274.604 269.396 274.405 263.54 276.594 257.296C279.558 248.839 285.494 243.828 293.76 242.804C298.232 242.251 302.164 243.229 305.44 245.714C314.573 252.639 315.459 268.868 315.493 269.556C315.522 270.155 315.01 270.662 314.351 270.688C314.333 270.689 314.315 270.689 314.297 270.689Z" fill="url(#paint15_linear_147_3558)"/>
<path d="M254.516 264.938C254.588 264.547 255.004 264.255 255.498 264.248L309.431 263.535L327.091 347.769H241.873C238.946 347.769 254.516 264.938 254.516 264.938Z" fill="#52D496"/>
<path d="M318.863 264.177L309.431 263.535L327.09 347.769H337.654C339.796 347.769 341.397 346.194 340.96 344.516L320.319 265.21C320.173 264.646 319.58 264.226 318.863 264.177Z" fill="url(#paint16_linear_147_3558)"/>
<path d="M264.035 270.51C263.394 270.51 262.863 270.048 262.841 269.462C262.831 269.216 262.632 263.36 264.82 257.116C267.785 248.659 273.72 243.648 281.986 242.625C286.461 242.072 290.39 243.05 293.668 245.534C302.8 252.459 303.686 268.688 303.719 269.376C303.748 269.975 303.237 270.482 302.577 270.508C301.917 270.536 301.36 270.071 301.33 269.472C301.322 269.313 300.454 253.506 292.131 247.199C289.393 245.124 286.088 244.309 282.31 244.777C264.568 246.974 265.222 269.161 265.231 269.385C265.254 269.985 264.738 270.488 264.078 270.509C264.063 270.509 264.049 270.51 264.035 270.51Z" fill="url(#paint17_linear_147_3558)"/>
<path d="M123.028 54.9365L183.813 36.446C187.167 35.4259 190.812 36.9713 192.105 39.9609L226.11 118.63C227.122 120.969 225.799 123.605 223.191 124.446L153.948 146.788C151.498 147.579 148.81 146.391 147.984 144.151L118.275 63.6022C116.952 60.0172 119.081 56.1375 123.028 54.9365Z" fill="url(#paint18_linear_147_3558)"/>
<path d="M163.637 142.359L163.636 142.359L155.807 144.639C153.172 145.406 150.313 144.092 149.434 141.709L145.491 131.02C145.455 130.92 145.514 130.813 145.623 130.779C145.737 130.751 145.852 130.8 145.888 130.899L149.831 141.588C150.637 143.775 153.261 144.981 155.679 144.277L163.509 141.997C163.619 141.965 163.736 142.02 163.772 142.12C163.807 142.22 163.747 142.327 163.637 142.359Z" fill="#BDD0FB"/>
<path d="M144.533 127.83C144.424 127.862 144.306 127.808 144.27 127.709L143.631 125.978C143.595 125.879 143.654 125.771 143.763 125.738C143.764 125.737 143.764 125.737 143.764 125.737C143.874 125.705 143.992 125.759 144.028 125.857L144.667 127.588C144.704 127.688 144.644 127.796 144.535 127.829C144.534 127.829 144.534 127.829 144.533 127.83Z" fill="#BDD0FB"/>
<path d="M123.506 55.6678C132.178 54.1484 161.869 48.5757 184.872 39.7781C185.921 39.3769 187.124 39.8213 187.536 40.7668L221.409 118.417C221.873 119.482 221.288 120.691 220.099 121.125C210.366 124.669 170.238 139.132 155.154 142.203C154.236 142.39 153.316 141.927 153.017 141.132L121.834 58.2342C121.41 57.1081 122.199 55.8969 123.506 55.6678Z" fill="#1E9A5F"/>
<path opacity="0.6" d="M124.633 56.0425C132.984 54.5964 161.576 49.283 183.703 40.791C184.712 40.4037 185.874 40.8429 186.277 41.7683L219.338 117.754C219.792 118.796 219.234 119.975 218.09 120.393C208.727 123.812 170.121 137.763 155.598 140.696C154.714 140.875 153.825 140.419 153.532 139.641L123.035 58.5418C122.621 57.4401 123.374 56.2606 124.633 56.0425Z" fill="white"/>
<g opacity="0.6">
<path d="M185.623 47.7693C185.916 47.6801 186.06 47.3949 185.942 47.1354L185.877 46.991C185.76 46.7315 185.424 46.5902 185.13 46.6773L133.275 62.0397C132.981 62.1267 132.953 62.3228 133.212 62.4753L134.127 63.0135C134.386 63.1662 134.837 63.2181 135.13 63.1289L185.623 47.7693Z" fill="white"/>
</g>
<g opacity="0.6">
<path d="M134.416 65.13C134.122 65.217 134.094 65.4131 134.353 65.5656L135.267 66.1039C135.527 66.2565 135.978 66.3084 136.271 66.2193L186.764 50.8596C187.057 50.7705 187.2 50.4852 187.083 50.2257L187.018 50.0814C186.901 49.8218 186.565 49.6806 186.271 49.7677L134.416 65.13Z" fill="white"/>
</g>
<path d="M153.737 90.5063C153.731 90.5085 153.725 90.5105 153.718 90.5126L146.931 92.7346C145.953 93.0547 144.899 92.7167 144.48 91.9482L141.778 86.9953C141.618 86.7006 141.598 86.3623 141.725 86.0425C141.865 85.6851 142.177 85.3858 142.579 85.2208C143.135 84.9932 143.896 84.6673 144.733 84.3088C146.556 83.5283 148.622 82.6436 149.869 82.2067C149.879 82.2036 149.888 82.2003 149.897 82.1972C150.793 81.8949 151.768 82.1311 152.275 82.7767C153.113 83.8428 153.998 86.0937 154.907 88.5028C155.205 89.2931 154.681 90.1882 153.737 90.5063ZM142.821 85.7084C142.564 85.814 142.366 86.0012 142.279 86.2227C142.207 86.4045 142.217 86.5948 142.306 86.758L145.008 91.7109C145.294 92.2359 146.035 92.4597 146.732 92.2317L153.519 90.0098C153.523 90.0084 153.528 90.0067 153.532 90.0053C154.179 89.7872 154.545 89.1935 154.35 88.6762C153.456 86.306 152.588 84.095 151.796 83.0872C151.446 82.6413 150.707 82.4711 150.081 82.7057C148.854 83.1357 146.708 84.0544 144.984 84.7925C144.143 85.1525 143.379 85.4795 142.821 85.7084Z" fill="white"/>
<path opacity="0.6" d="M143.759 85.9811C145.144 85.4138 148.116 84.0875 149.573 83.577C150.191 83.3608 150.875 83.5176 151.22 83.9573C151.891 84.8111 152.627 86.7157 153.292 88.4783C153.491 89.0062 153.133 89.602 152.485 89.8142L147.061 91.5898C146.394 91.8081 145.674 91.5827 145.393 91.0675L143.233 87.1096C143.01 86.7003 143.246 86.1914 143.759 85.9811Z" fill="white"/>
<g opacity="0.6">
<path d="M157.458 83.1662C157.166 83.2576 157.073 83.5201 157.251 83.7495L158.75 85.684C158.928 85.9134 159.311 86.0211 159.6 85.9235L193.711 74.4191C194.001 74.3214 194.144 74.0281 194.031 73.7673L193.453 72.4431C193.339 72.1823 193.007 72.0437 192.715 72.135L157.458 83.1662Z" fill="white"/>
</g>
<path d="M144.378 86.693C144.77 86.2562 145.482 86.1979 145.954 86.564L148.176 88.2857C148.398 88.4581 148.742 88.3265 148.762 88.0615L149.335 80.2561C149.363 79.8666 149.956 79.795 150.1 80.1627C150.903 82.2203 151.896 86.3115 149.627 90.7813C149.627 90.7813 147.357 90.75 144.456 88.1028C144.037 87.7204 144.002 87.1109 144.378 86.693Z" fill="url(#paint19_linear_147_3558)"/>
<path d="M148.729 76.511C148.723 76.5131 148.717 76.5152 148.711 76.5172L141.923 78.7393C140.945 79.0593 139.892 78.7213 139.473 77.9529L136.77 73C136.61 72.7053 136.591 72.367 136.717 72.047C136.857 71.6897 137.169 71.3903 137.571 71.2255C138.127 70.9977 138.888 70.6718 139.725 70.3135C141.548 69.533 143.614 68.6483 144.862 68.2114C144.871 68.2082 144.88 68.2049 144.889 68.2018C145.786 67.8995 146.76 68.1358 147.268 68.7813C148.105 69.8473 148.99 72.0982 149.899 74.5073C150.197 75.2976 149.673 76.1927 148.729 76.511ZM137.813 71.7129C137.556 71.8185 137.358 72.0057 137.271 72.2272C137.199 72.4089 137.209 72.5993 137.298 72.7625L140 77.7154C140.286 78.2404 141.028 78.4642 141.724 78.2362L148.511 76.0143C148.516 76.0129 148.52 76.0112 148.525 76.0098C149.171 75.7918 149.538 75.1981 149.343 74.6807C148.449 72.3105 147.58 70.0995 146.789 69.0918C146.438 68.6458 145.7 68.4756 145.074 68.7102C143.846 69.1402 141.701 70.0591 139.977 70.797C139.136 71.157 138.372 71.4841 137.813 71.7129Z" fill="white"/>
<path opacity="0.6" d="M138.751 71.9857C140.135 71.4184 143.107 70.0921 144.565 69.5817C145.182 69.3654 145.866 69.5223 146.211 69.9619C146.882 70.8158 147.618 72.7202 148.283 74.4829C148.483 75.0108 148.124 75.6066 147.476 75.8188L142.052 77.5945C141.386 77.8128 140.665 77.5873 140.384 77.0722L138.225 73.1142C138.002 72.7049 138.238 72.1961 138.751 71.9857Z" fill="white"/>
<g opacity="0.6">
<path d="M152.45 69.1687C152.158 69.2601 152.065 69.5226 152.242 69.7518L153.742 71.6864C153.92 71.9158 154.303 72.0235 154.592 71.9259L188.703 60.4215C188.993 60.3238 189.136 60.0305 189.023 59.7697L188.445 58.4455C188.331 58.1847 187.999 58.0461 187.707 58.1375L152.45 69.1687Z" fill="white"/>
</g>
<path d="M139.37 72.6964C139.762 72.2596 140.474 72.2013 140.946 72.5674L143.168 74.2891C143.391 74.4615 143.734 74.3299 143.754 74.0649L144.327 66.2595C144.355 65.8701 144.949 65.7984 145.092 66.1662C145.895 68.2237 146.888 72.3149 144.619 76.7847C144.619 76.7847 142.349 76.7535 139.448 74.1063C139.029 73.7238 138.994 73.1144 139.37 72.6964Z" fill="url(#paint20_linear_147_3558)"/>
<path d="M159.12 103.67C159.114 103.672 159.108 103.674 159.102 103.676L152.315 105.898C151.337 106.218 150.283 105.88 149.864 105.112L147.162 100.159C147.001 99.864 146.982 99.5257 147.108 99.2059C147.249 98.8485 147.56 98.5491 147.962 98.3842C148.518 98.1565 149.279 97.8307 150.116 97.4722C151.939 96.6919 154.005 95.807 155.253 95.37C155.262 95.367 155.271 95.3637 155.28 95.3606C156.177 95.0581 157.151 95.2944 157.659 95.9403C158.496 97.0062 159.382 99.2571 160.29 101.666C160.589 102.457 160.064 103.352 159.12 103.67ZM148.205 98.8718C147.947 98.9773 147.75 99.1646 147.662 99.3861C147.591 99.568 147.6 99.7583 147.689 99.9217L150.391 104.874C150.678 105.399 151.419 105.623 152.115 105.395L158.902 103.173C158.907 103.172 158.911 103.17 158.916 103.169C159.562 102.951 159.929 102.357 159.734 101.84C158.84 99.4695 157.971 97.2584 157.18 96.251C156.829 95.8046 156.093 95.641 155.465 95.8693C154.237 96.2992 152.092 97.218 150.367 97.956C149.527 98.3159 148.763 98.643 148.205 98.8718Z" fill="white"/>
<path opacity="0.6" d="M149.143 99.145C150.527 98.5775 153.499 97.2514 154.957 96.7409C155.574 96.5245 156.258 96.6815 156.603 97.1212C157.274 97.9749 158.01 99.8794 158.675 101.642C158.874 102.17 158.516 102.766 157.868 102.978L152.444 104.754C151.777 104.972 151.057 104.747 150.776 104.232L148.617 100.274C148.394 99.8642 148.629 99.3554 149.143 99.145Z" fill="white"/>
<g opacity="0.6">
<path d="M162.842 96.3314C162.55 96.4229 162.456 96.6853 162.634 96.9147L164.134 98.8492C164.312 99.0786 164.694 99.1864 164.984 99.0887L199.095 87.5843C199.384 87.4866 199.528 87.1933 199.414 86.9326L198.836 85.6083C198.722 85.3476 198.39 85.209 198.098 85.3004L162.842 96.3314Z" fill="white"/>
</g>
<path d="M149.76 99.8553C150.152 99.4184 150.864 99.3601 151.336 99.7261L153.558 101.448C153.781 101.62 154.124 101.489 154.144 101.224L154.717 93.4183C154.746 93.029 155.339 92.9574 155.483 93.3251C156.286 95.3827 157.278 99.4739 155.009 103.944C155.009 103.944 152.739 103.913 149.839 101.265C149.419 100.883 149.384 100.273 149.76 99.8553Z" fill="url(#paint21_linear_147_3558)"/>
<path d="M163.656 116.524C163.65 116.526 163.644 116.528 163.638 116.53L156.851 118.752C155.873 119.072 154.819 118.734 154.4 117.965L151.698 113.013C151.537 112.718 151.518 112.379 151.644 112.06C151.784 111.702 152.096 111.403 152.498 111.238C153.054 111.01 153.814 110.685 154.65 110.327C156.383 109.585 158.541 108.661 159.789 108.224C160.677 107.92 161.682 108.142 162.195 108.794C163.032 109.86 163.918 112.111 164.826 114.52C165.125 115.31 164.6 116.205 163.656 116.524ZM152.741 111.725C152.483 111.831 152.285 112.018 152.198 112.24C152.127 112.422 152.136 112.612 152.225 112.775L154.927 117.728C155.214 118.253 155.955 118.477 156.651 118.248L163.438 116.027C164.072 115.801 164.466 115.214 164.27 114.693C163.376 112.323 162.508 110.112 161.716 109.104C161.365 108.658 160.632 108.501 160.001 108.723C158.773 109.153 156.626 110.072 154.901 110.81C154.062 111.17 153.298 111.496 152.741 111.725Z" fill="white"/>
<path opacity="0.6" d="M153.678 111.997C155.063 111.43 158.034 110.104 159.492 109.593C160.11 109.377 160.793 109.534 161.139 109.973C161.809 110.827 162.546 112.732 163.21 114.494C163.41 115.022 163.051 115.618 162.403 115.83L156.979 117.606C156.312 117.824 155.592 117.599 155.311 117.084L153.152 113.126C152.929 112.716 153.165 112.207 153.678 111.997Z" fill="white"/>
<g opacity="0.6">
<path d="M167.378 109.184C167.086 109.275 166.993 109.538 167.171 109.767L168.67 111.701C168.848 111.931 169.23 112.038 169.52 111.941L203.631 100.436C203.92 100.339 204.064 100.046 203.951 99.7847L203.372 98.4604C203.258 98.1996 202.926 98.061 202.634 98.1524L167.378 109.184Z" fill="white"/>
</g>
<path d="M154.297 112.71C154.689 112.273 155.401 112.215 155.873 112.581L158.095 114.302C158.317 114.475 158.661 114.343 158.681 114.078L159.254 106.273C159.282 105.883 159.876 105.812 160.019 106.179C160.822 108.237 161.815 112.328 159.546 116.798C159.546 116.798 157.276 116.767 154.375 114.119C153.956 113.737 153.921 113.128 154.297 112.71Z" fill="url(#paint22_linear_147_3558)"/>
<path d="M168.219 129.82C168.213 129.822 168.206 129.824 168.2 129.826L161.413 132.048C160.435 132.369 159.381 132.031 158.962 131.262L156.26 126.309C156.099 126.015 156.08 125.676 156.206 125.356C156.347 124.999 156.658 124.7 157.061 124.535C157.617 124.307 158.378 123.981 159.215 123.623C161.038 122.842 163.104 121.958 164.351 121.521C165.275 121.222 166.245 121.438 166.757 122.091C167.595 123.157 168.48 125.408 169.389 127.817C169.687 128.607 169.163 129.502 168.219 129.82ZM157.303 125.022C157.045 125.128 156.848 125.315 156.761 125.537C156.689 125.718 156.698 125.909 156.788 126.072L159.49 131.025C159.776 131.55 160.517 131.773 161.214 131.546L168.001 129.323C168.005 129.322 168.01 129.321 168.014 129.319C168.661 129.101 169.027 128.507 168.832 127.99C167.938 125.62 167.07 123.409 166.278 122.401C165.927 121.955 165.197 121.804 164.563 122.02C163.335 122.449 161.19 123.368 159.466 124.106C158.625 124.466 157.861 124.793 157.303 125.022Z" fill="white"/>
<path opacity="0.6" d="M158.24 125.294C159.625 124.727 162.596 123.4 164.054 122.89C164.672 122.674 165.355 122.831 165.701 123.27C166.371 124.124 167.107 126.029 167.772 127.791C167.972 128.319 167.613 128.915 166.965 129.127L161.541 130.903C160.875 131.121 160.154 130.896 159.873 130.381L157.714 126.423C157.491 126.013 157.727 125.504 158.24 125.294Z" fill="white"/>
<g opacity="0.6">
<path d="M171.94 122.479C171.648 122.571 171.555 122.833 171.733 123.063L173.232 124.997C173.41 125.227 173.793 125.334 174.082 125.237L208.193 113.732C208.483 113.635 208.627 113.341 208.513 113.08L207.935 111.756C207.821 111.495 207.489 111.357 207.197 111.448L171.94 122.479Z" fill="white"/>
</g>
<path d="M158.859 126.003C159.252 125.566 159.963 125.508 160.436 125.874L162.657 127.596C162.88 127.768 163.223 127.637 163.243 127.372L163.816 119.566C163.845 119.177 164.438 119.105 164.582 119.473C165.385 121.531 166.377 125.622 164.109 130.092C164.109 130.092 161.838 130.06 158.938 127.413C158.519 127.031 158.483 126.421 158.859 126.003Z" fill="url(#paint23_linear_147_3558)"/>
<path d="M153.165 33.6306C150.458 32.9114 148.559 33.5195 147.348 34.2885C146.243 34.99 145.845 36.3066 146.388 37.4272L149.087 42.996L156.188 41.4538C156.188 41.4538 158.475 35.0412 153.165 33.6306ZM151.842 39.1882C150.892 39.4771 149.864 39.0121 149.546 38.1496C149.228 37.287 149.74 36.3535 150.69 36.0646C151.64 35.7757 152.668 36.2407 152.986 37.1032C153.304 37.9658 152.792 38.8992 151.842 39.1882Z" fill="url(#paint24_linear_147_3558)"/>
<path d="M148.819 40.5461C148.684 40.5427 148.557 40.4704 148.499 40.3508L148.069 39.4638C147.989 39.2984 148.072 39.1055 148.254 39.0328C148.436 38.9597 148.649 39.0346 148.729 39.2005L149.159 40.0875C149.239 40.2528 149.156 40.4458 148.974 40.5185C148.924 40.5386 148.871 40.5475 148.819 40.5461ZM147.977 38.8082C147.842 38.8048 147.715 38.7326 147.657 38.6129L147.331 37.9395C146.778 36.7988 147.19 35.4553 148.309 34.7443C149.075 34.2579 149.94 33.9582 150.879 33.8544C151.074 33.8357 151.256 33.9601 151.28 34.1398C151.304 34.3191 151.163 34.4823 150.966 34.5041C150.145 34.5945 149.391 34.856 148.722 35.2805C147.883 35.8129 147.576 36.8201 147.99 37.676L148.317 38.3494C148.397 38.5148 148.314 38.7076 148.132 38.7804C148.082 38.8006 148.029 38.8095 147.977 38.8082Z" fill="#BDD0FB"/>
<path d="M141.044 49.5722L139.978 46.6836C139.61 45.6866 140.226 44.6111 141.336 44.3114L163.516 38.3231C164.5 38.0573 165.546 38.5153 165.93 39.3802L167.137 42.0998L141.044 49.5722Z" fill="url(#paint25_linear_147_3558)"/>
<path d="M146.972 43.8402C146.863 43.8724 146.746 43.8188 146.709 43.7198C146.672 43.6201 146.731 43.5125 146.841 43.4791L147.784 43.1922C147.899 43.1585 148.013 43.2124 148.049 43.312C148.086 43.4117 148.027 43.5194 147.917 43.5528L146.974 43.8397C146.974 43.8399 146.973 43.8401 146.972 43.8402Z" fill="#BDD0FB"/>
<path d="M141.83 48.4801C141.683 48.4764 141.548 48.3908 141.499 48.2568L141.068 47.0882C140.891 46.6085 140.93 46.0949 141.178 45.6418C141.427 45.1889 141.855 44.8507 142.383 44.6899L145.85 43.6354C146.038 43.5788 146.243 43.6703 146.306 43.842C146.369 44.0133 146.268 44.1986 146.079 44.2561L142.612 45.3106C141.898 45.5277 141.512 46.232 141.751 46.8804L142.182 48.0489C142.245 48.2203 142.143 48.4056 141.954 48.4632C141.913 48.4757 141.871 48.4811 141.83 48.4801Z" fill="#BDD0FB"/>
<path d="M133.783 50.6059L172.129 38.94C173.508 38.5205 175.019 39.0631 175.709 40.2254L175.804 40.3858C176.56 41.6589 175.87 43.2435 174.36 43.7031L135.019 55.6706C134.115 55.9456 133.142 55.4785 132.883 54.6453L132.377 53.0204C132.061 52.0039 132.68 50.9414 133.783 50.6059Z" fill="url(#paint26_linear_147_3558)"/>
<path d="M208.722 38.6158C208.722 38.6158 208.819 38.468 209.008 38.2013C209.115 38.05 209.336 38.006 209.503 38.1029C209.576 38.1459 209.626 38.2087 209.651 38.2784C209.804 38.2405 209.979 38.1992 210.171 38.1566C210.364 38.1142 210.557 38.2219 210.604 38.3961C210.651 38.5708 210.533 38.7466 210.34 38.7891C209.799 38.9085 209.416 39.0156 209.232 39.0669C209.179 39.0816 209.142 39.0918 209.124 39.0962L208.27 39.3052L208.722 38.6158ZM210.022 36.8394C210.365 36.3996 210.725 35.9549 211.093 35.5178C211.214 35.3752 211.439 35.3479 211.596 35.4572C211.752 35.5669 211.783 35.7705 211.663 35.9136C211.3 36.3441 210.945 36.7822 210.607 37.2154C210.493 37.362 210.269 37.3968 210.107 37.2929C210.079 37.2748 210.055 37.2539 210.034 37.2304C209.937 37.1201 209.927 36.9606 210.022 36.8394ZM211.663 38.2082C211.634 38.0305 211.77 37.865 211.965 37.8391C212.584 37.7567 213.197 37.7033 213.787 37.6802C213.985 37.6722 214.152 37.8114 214.16 37.9911C214.169 38.1706 214.016 38.3226 213.818 38.3303C213.252 38.3526 212.664 38.404 212.069 38.4831C211.939 38.5006 211.814 38.4515 211.737 38.3642C211.699 38.3206 211.672 38.2674 211.663 38.2082ZM215.237 38.0067C215.253 37.8276 215.426 37.6942 215.623 37.7087C216.258 37.7558 216.871 37.8438 217.447 37.9698C217.639 38.0116 217.758 38.1876 217.711 38.3625C217.665 38.5373 217.471 38.6447 217.279 38.6025C216.739 38.4842 216.162 38.4019 215.565 38.3577C215.462 38.3499 215.374 38.304 215.314 38.2365C215.259 38.1739 215.229 38.0929 215.237 38.0067ZM212.216 34.2336C212.602 33.8086 212.997 33.3889 213.39 32.9869C213.521 32.8525 213.748 32.8402 213.896 32.9596C214.044 33.0802 214.057 33.2847 213.926 33.4191C213.538 33.8155 213.149 34.2286 212.77 34.6474C212.644 34.7862 212.418 34.806 212.265 34.6918C212.245 34.6771 212.228 34.6609 212.213 34.6437C212.109 34.5259 212.107 34.3545 212.216 34.2336ZM218.729 38.6761C218.812 38.5125 219.024 38.4402 219.204 38.5148C219.612 38.6835 220.004 38.8796 220.369 39.0975C220.513 39.1837 220.654 39.2648 220.793 39.3415C220.962 39.4348 221.017 39.6349 220.914 39.7885C220.811 39.9422 220.591 39.9913 220.421 39.8981C220.275 39.8173 220.126 39.7316 219.975 39.641C219.641 39.4416 219.282 39.262 218.907 39.1071C218.854 39.0853 218.81 39.053 218.776 39.0145C218.694 38.9217 218.672 38.7916 218.729 38.6761ZM223.609 43.2847C223.712 43.1911 223.862 43.1659 223.989 43.2096C224.303 43.1229 224.652 43.1029 225.066 43.1438C225.262 43.1633 225.404 43.3237 225.383 43.5024C225.362 43.681 225.185 43.8102 224.988 43.7906C224.486 43.7411 224.141 43.802 223.834 43.9942L223.377 43.4958L223.609 43.2847ZM221.869 40.2333C221.943 40.0665 222.151 39.9853 222.335 40.052C222.904 40.2587 223.454 40.3913 223.969 40.4462C224.165 40.4672 224.306 40.6292 224.283 40.8074C224.26 40.986 224.082 41.1136 223.885 41.0929C223.307 41.0313 222.696 40.8844 222.069 40.6564C222.009 40.6347 221.96 40.6001 221.922 40.5577C221.844 40.4691 221.82 40.346 221.869 40.2333ZM214.615 31.7806C215.034 31.3841 215.464 30.9937 215.893 30.6198C216.035 30.4955 216.262 30.4996 216.399 30.6294C216.538 30.7594 216.531 30.9653 216.389 31.0897C215.967 31.4572 215.544 31.8413 215.132 32.2313C214.995 32.361 214.768 32.3654 214.625 32.2409C214.614 32.2307 214.603 32.2201 214.593 32.2089C214.483 32.0834 214.489 31.8997 214.615 31.7806ZM224.863 42.1219C225.344 41.6699 225.756 41.2729 226.09 40.9416C226.224 40.8089 226.45 40.7996 226.597 40.9208C226.739 41.0431 226.753 41.2479 226.619 41.3807C226.281 41.7163 225.864 42.1177 225.379 42.5739C225.242 42.7034 225.015 42.7068 224.872 42.5821C224.861 42.572 224.851 42.5617 224.841 42.5509C224.73 42.4251 224.737 42.2411 224.863 42.1219ZM226.429 43.7296C226.475 43.5549 226.668 43.4473 226.861 43.4892C227.371 43.6006 227.934 43.7164 228.587 43.8088C228.782 43.8366 228.916 44.0031 228.886 44.1804C228.855 44.358 228.672 44.4797 228.476 44.452C227.798 44.3562 227.219 44.2367 226.693 44.1222C226.613 44.1046 226.545 44.0637 226.497 44.0091C226.431 43.9334 226.402 43.8314 226.429 43.7296ZM225.356 40.7449C225.302 40.5718 225.413 40.3922 225.603 40.3435C226.157 40.2014 226.555 39.9743 226.818 39.824C226.93 39.7605 227.02 39.71 227.091 39.6789C227.129 39.6622 227.163 39.6497 227.192 39.6405C227.379 39.5826 227.573 39.6775 227.637 39.8477C227.701 40.0177 227.59 40.207 227.403 40.2649C227.35 40.2881 227.283 40.3276 227.2 40.3751C226.92 40.535 226.451 40.8024 225.798 40.9698C225.655 41.0065 225.508 40.959 225.421 40.8598C225.392 40.8269 225.369 40.7881 225.356 40.7449ZM217.226 29.5097C217.633 29.1867 218.047 28.8718 218.457 28.5742L218.618 28.4581C218.772 28.3469 218.997 28.3701 219.12 28.5102L219.121 28.5112C219.244 28.6521 219.218 28.8569 219.063 28.9682L218.905 29.0824C218.503 29.374 218.097 29.6827 217.698 29.9995C217.55 30.1179 217.323 30.104 217.193 29.9687C217.189 29.965 217.186 29.9613 217.183 29.9575C217.063 29.8226 217.081 29.6248 217.226 29.5097ZM229.954 44.2773C229.963 44.0978 230.13 43.9585 230.328 43.9663C230.897 43.9889 231.486 43.9841 232.081 43.9521C232.278 43.9415 232.448 44.078 232.46 44.2577C232.472 44.4371 232.321 44.5911 232.123 44.6018C231.504 44.6352 230.89 44.6402 230.297 44.6166C230.189 44.6124 230.095 44.5655 230.033 44.4946C229.98 44.4353 229.95 44.3593 229.954 44.2773ZM233.528 44.1555C233.499 43.9778 233.634 43.8121 233.829 43.7856C233.953 43.7689 234.078 43.7513 234.205 43.732C234.657 43.6643 235.105 43.5733 235.536 43.4613C235.726 43.4122 235.926 43.5123 235.979 43.6851C236.033 43.8579 235.923 44.0381 235.733 44.0874C235.275 44.206 234.8 44.3027 234.322 44.3742C234.191 44.3938 234.063 44.4122 233.935 44.4295C233.804 44.4471 233.679 44.3982 233.602 44.3106C233.564 44.2672 233.538 44.2144 233.528 44.1555ZM219.982 27.9273C219.868 27.7803 219.907 27.5772 220.069 27.4739C220.571 27.1535 221.08 26.8486 221.584 26.5675C221.753 26.4732 221.978 26.5205 222.077 26.6743C222.18 26.8274 222.128 27.0278 221.959 27.1218C221.468 27.396 220.971 27.6934 220.481 28.0063C220.326 28.1057 220.113 28.0769 219.996 27.9435C219.991 27.9383 219.987 27.9328 219.982 27.9273ZM236.988 43.3473C236.906 43.184 236.985 42.9911 237.165 42.9159C237.688 42.6985 238.2 42.4418 238.684 42.153C238.849 42.0546 239.076 42.0937 239.18 42.2466C239.289 42.3968 239.243 42.5986 239.077 42.6971C238.562 43.0039 238.02 43.2766 237.463 43.5079C237.311 43.5712 237.135 43.5292 237.034 43.4154C237.016 43.395 237.001 43.3722 236.988 43.3473ZM223.011 26.1912C222.92 26.0318 222.988 25.8352 223.163 25.7519C223.707 25.4938 224.26 25.2554 224.806 25.043C224.989 24.9724 225.199 25.0491 225.277 25.2143C225.355 25.3796 225.27 25.5711 225.088 25.6418C224.559 25.8472 224.023 26.0785 223.495 26.3291C223.34 26.4023 223.154 26.3631 223.049 26.244C223.035 26.2278 223.023 26.2102 223.011 26.1912ZM240.063 41.1922C240.493 40.8456 240.902 40.4656 241.281 40.0619C241.409 39.9252 241.635 39.9088 241.786 40.0253C241.937 40.1426 241.955 40.3472 241.827 40.4841C241.426 40.9106 240.993 41.3126 240.539 41.6788C240.391 41.7983 240.165 41.7859 240.033 41.6518C240.029 41.6476 240.025 41.6431 240.021 41.6385C239.903 41.5042 239.92 41.3077 240.063 41.1922ZM226.282 24.8692C226.22 24.6984 226.322 24.5145 226.51 24.4584C227.094 24.2845 227.685 24.1357 228.268 24.0158C228.462 23.9759 228.653 24.0868 228.697 24.2614C228.741 24.4366 228.619 24.6109 228.427 24.6505C227.865 24.7659 227.296 24.9094 226.734 25.0769C226.588 25.1205 226.433 25.0739 226.343 24.9709C226.317 24.9413 226.296 24.9072 226.282 24.8692ZM242.317 38.7908C242.787 38.1208 243.026 37.6173 243.069 37.4874L243.183 36.7747C243.211 36.5969 243.393 36.4735 243.589 36.4994C243.785 36.525 243.92 36.6904 243.892 36.8684L243.781 37.5644L243.775 37.5635C243.698 38.0295 242.93 39.1282 242.922 39.1404C242.816 39.292 242.594 39.3366 242.427 39.2401C242.393 39.2203 242.364 39.196 242.34 39.1688C242.246 39.0632 242.233 38.9112 242.317 38.7908ZM229.756 24.0941C229.732 23.9156 229.872 23.7535 230.069 23.7321C230.676 23.666 231.29 23.6292 231.893 23.6228C232.091 23.621 232.253 23.7655 232.256 23.9447C232.258 24.1243 232.099 24.2717 231.901 24.274C231.324 24.2799 230.736 24.3148 230.154 24.3786C230.026 24.3924 229.906 24.3434 229.831 24.2584C229.791 24.2127 229.764 24.1566 229.756 24.0941ZM233.329 23.987C233.348 23.8082 233.524 23.6773 233.721 23.6954C234.322 23.7493 234.929 23.8349 235.528 23.9493C235.721 23.9861 235.845 24.1592 235.804 24.3349C235.764 24.5108 235.573 24.6236 235.38 24.5863C234.807 24.4768 234.225 24.3949 233.65 24.343C233.55 24.3341 233.464 24.2886 233.406 24.2225C233.349 24.1583 233.319 24.075 233.329 23.987ZM243.44 35.1643L243.697 33.5539C243.726 33.3762 243.908 33.2529 244.104 33.2785C244.299 33.3041 244.435 33.4694 244.407 33.6473L244.15 35.2577C244.121 35.4355 243.939 35.5587 243.743 35.5331C243.649 35.5207 243.57 35.4765 243.515 35.4142C243.455 35.3464 243.425 35.2572 243.44 35.1643ZM236.841 24.5864C236.902 24.4153 237.104 24.3213 237.292 24.3764C237.858 24.5421 238.432 24.7387 238.998 24.9611C239.181 25.0324 239.264 25.2238 239.185 25.389C239.107 25.5539 238.896 25.6299 238.714 25.5586C238.169 25.3447 237.617 25.1553 237.073 24.996C237.003 24.9756 236.945 24.9379 236.903 24.8898C236.83 24.8074 236.803 24.6946 236.841 24.5864ZM243.955 31.9434L244.212 30.3329C244.24 30.1552 244.422 30.0318 244.618 30.0575C244.814 30.0832 244.949 30.2484 244.922 30.4264L244.664 32.0368C244.636 32.2146 244.454 32.3378 244.258 32.3122C244.164 32.3 244.084 32.2557 244.029 32.1934C243.97 32.1255 243.94 32.0363 243.955 31.9434ZM240.15 25.8167C240.244 25.6587 240.462 25.6001 240.636 25.6859C241.155 25.9417 241.68 26.2255 242.198 26.5299C242.363 26.6281 242.411 26.8292 242.303 26.98C242.196 27.1308 241.974 27.1739 241.808 27.0762C241.306 26.7811 240.797 26.5057 240.294 26.2579C240.251 26.2365 240.214 26.2082 240.185 26.1753C240.098 26.0762 240.079 25.9353 240.15 25.8167ZM243.182 27.5406C243.301 27.397 243.526 27.3683 243.684 27.4764C244.143 27.791 244.607 28.1293 245.063 28.4823L245.213 28.599L245.179 28.8161C245.15 28.9939 244.968 29.1171 244.772 29.091C244.644 29.0743 244.543 28.9987 244.495 28.8982C244.084 28.5823 243.666 28.2792 243.252 27.9961C243.228 27.9794 243.206 27.9602 243.188 27.9393C243.088 27.8261 243.081 27.6617 243.182 27.5406Z" fill="#1E9A5F"/>
<path d="M243.561 33.9071C243.561 33.9071 239.897 40.3044 234.435 38.3677C228.974 36.431 223.993 33.2461 221.461 34.2407C221.461 34.2407 231.112 23.1945 243.656 31.3646L243.561 33.9071Z" fill="url(#paint27_linear_147_3558)"/>
<path d="M257.955 41.6353C257.955 41.6353 257.007 48.6628 254.545 49.5356C252.204 50.3659 234.625 48.9298 232.915 48.7876C232.838 48.7812 232.782 48.7225 232.783 48.6523C232.791 48.0723 233.102 47.5321 233.623 47.196C236.137 45.5727 243.69 40.7842 246.485 40.0015C249.86 39.0562 257.955 41.6353 257.955 41.6353Z" fill="url(#paint28_linear_147_3558)"/>
<path d="M239.234 48.3421C239.264 48.3762 239.309 48.3994 239.361 48.4028C239.458 48.4092 249.1 49.0445 253.263 49.1712C254.004 49.1941 254.691 48.8175 255.012 48.2127C255.519 47.2588 256.447 45.363 256.967 43.3863C256.99 43.2992 256.931 43.2111 256.834 43.1903C256.738 43.1694 256.641 43.2234 256.618 43.3108C256.107 45.2577 255.19 47.129 254.689 48.071C254.429 48.5602 253.874 48.8643 253.275 48.846C249.119 48.7195 239.483 48.0848 239.387 48.0783C239.288 48.0717 239.202 48.1391 239.195 48.2289C239.192 48.2712 239.207 48.3112 239.234 48.3421Z" fill="url(#paint29_linear_147_3558)"/>
<path d="M258.19 25.1896C258.19 25.1896 257.442 18.1422 255.006 17.2118C252.69 16.3269 235.075 17.3493 233.361 17.4512C233.284 17.4558 233.227 17.5133 233.226 17.5834C233.217 18.1634 233.513 18.7108 234.024 19.0589C236.491 20.7408 243.905 25.7052 246.677 26.5533C250.024 27.5775 258.19 25.1896 258.19 25.1896Z" fill="url(#paint30_linear_147_3558)"/>
<path d="M239.663 18.2505C239.698 18.2898 239.752 18.314 239.811 18.3116C239.908 18.3074 249.559 17.8993 253.717 17.8706C254.317 17.8664 254.863 18.1837 255.109 18.6784C255.583 19.6321 256.446 21.5248 256.902 23.4826C256.921 23.5708 257.017 23.6268 257.114 23.6082C257.21 23.5897 257.273 23.5033 257.252 23.4152C256.812 21.5271 256.022 19.7245 255.436 18.5446C255.131 17.9325 254.456 17.54 253.714 17.5452C249.549 17.5739 239.892 17.9826 239.795 17.9864C239.696 17.9906 239.619 18.0669 239.624 18.1565C239.626 18.1921 239.64 18.2246 239.663 18.2505Z" fill="url(#paint31_linear_147_3558)"/>
<path d="M284.138 41.8505C280.52 42.8757 276.346 43.564 271.702 43.5217C257.282 43.3902 246.709 41.0287 243.723 40.2842C243.183 40.1496 242.773 39.7543 242.644 39.2591C241.627 35.3577 241.651 31.4645 242.71 27.5796C242.91 26.8488 243.548 26.2818 244.354 26.1074C247.854 25.3505 258.188 23.4249 271.985 23.6234C276.594 23.6897 280.719 24.4644 284.288 25.5609C286.193 32.0744 285.025 38.3375 284.138 41.8505Z" fill="#44CA8A"/>
<path d="M284.288 25.5632C292.172 27.9856 297.342 31.9799 298.999 33.3892C299.323 33.6646 299.316 34.1308 298.985 34.3986C297.293 35.7637 292.043 39.6131 284.138 41.8527C285.024 38.3397 286.193 32.0767 284.288 25.5632Z" fill="url(#paint32_linear_147_3558)"/>
<path d="M272.886 27.0068C269.151 26.963 266.081 29.8783 266.029 33.5188C265.978 37.1591 268.963 40.1456 272.698 40.1894C276.433 40.2333 279.502 37.3179 279.554 33.6776C279.606 30.0374 276.62 27.0508 272.886 27.0068Z" fill="url(#paint33_linear_147_3558)"/>
<path d="M273.058 28.164C270.082 28.1289 267.636 30.452 267.595 33.3527C267.554 36.2532 269.933 38.6331 272.909 38.668C275.884 38.7029 278.33 36.3799 278.372 33.4793C278.413 30.5786 276.034 28.1989 273.058 28.164Z" fill="url(#paint34_linear_147_3558)"/>
<path d="M273.933 37.1048C273.977 37.1547 274.051 37.1784 274.123 37.1594C275.961 36.6721 277.262 35.0664 277.288 33.2543C277.294 32.7979 277.222 32.3487 277.073 31.9189C277.044 31.833 276.943 31.7856 276.849 31.8125C276.755 31.8392 276.702 31.9305 276.732 32.0162C276.869 32.4132 276.935 32.8285 276.929 33.2502C276.906 34.9204 275.71 36.3996 274.023 36.847C273.928 36.8724 273.873 36.9625 273.901 37.0487C273.908 37.0699 273.919 37.0886 273.933 37.1048Z" fill="#A2DB1E"/>
<path d="M259.262 29.0828C256.795 29.0538 254.767 30.9799 254.733 33.3847C254.699 35.7896 256.671 37.7627 259.138 37.7917C261.606 37.8208 263.633 35.8947 263.668 33.4898C263.702 31.0848 261.73 29.1118 259.262 29.0828Z" fill="url(#paint35_linear_147_3558)"/>
<path d="M259.377 29.8474C257.411 29.8243 255.795 31.359 255.767 33.2753C255.74 35.1916 257.312 36.7637 259.278 36.7868C261.244 36.8099 262.86 35.2752 262.887 33.3589C262.914 31.4428 261.343 29.8705 259.377 29.8474Z" fill="url(#paint36_linear_147_3558)"/>
<path d="M259.907 35.7892C259.951 35.839 260.025 35.8629 260.097 35.8438C261.337 35.5152 262.214 34.4328 262.232 33.2117C262.236 32.9044 262.188 32.6016 262.087 32.312C262.058 32.2263 261.957 32.1786 261.862 32.2055C261.768 32.2325 261.716 32.3237 261.746 32.4095C261.834 32.6661 261.877 32.9346 261.873 33.2075C261.858 34.2871 261.086 35.2425 259.997 35.5313C259.902 35.5567 259.847 35.647 259.875 35.7331C259.882 35.7542 259.893 35.773 259.907 35.7892Z" fill="#A2DB1E"/>
<path d="M203.904 38.3675L201.553 38.8906C201.334 38.9395 201.112 38.8173 201.058 38.6177C201.004 38.418 201.138 38.2165 201.358 38.1676L201.385 38.1616L203.677 37.6434L203.705 37.637C203.927 37.5867 204.152 37.7095 204.207 37.9111C204.263 38.1127 204.128 38.3169 203.906 38.3671L203.904 38.3675Z" fill="#1E9A5F"/>
<path d="M199.171 39.2664L196.769 39.502C196.548 39.5236 196.351 39.379 196.327 39.1789C196.303 38.9788 196.462 38.7991 196.683 38.7775L196.706 38.7752L199.057 38.5366L199.083 38.534C199.305 38.5115 199.506 38.6571 199.531 38.8592C199.556 39.0615 199.395 39.2435 199.173 39.2662L199.171 39.2664Z" fill="#1E9A5F"/>
<path d="M194.357 39.6065L191.946 39.5903C191.73 39.5887 191.555 39.4279 191.557 39.2312C191.559 39.0343 191.736 38.876 191.952 38.8775H191.971L194.34 38.8856H194.361C194.58 38.8864 194.757 39.0483 194.756 39.2474C194.756 39.4464 194.577 39.6072 194.358 39.6065H194.357Z" fill="#1E9A5F"/>
<path d="M189.54 39.462L187.145 39.2324C186.934 39.2123 186.781 39.0407 186.803 38.8494C186.826 38.658 187.014 38.5193 187.225 38.5393L187.241 38.5407L189.603 38.7591L189.62 38.7608C189.833 38.7804 189.989 38.9534 189.967 39.1471C189.945 39.3408 189.755 39.4819 189.542 39.4621L189.54 39.462Z" fill="#1E9A5F"/>
<path d="M184.765 38.9109L182.401 38.5036C182.197 38.4685 182.064 38.2903 182.102 38.1055C182.141 37.9207 182.337 37.7993 182.541 37.8344L182.553 37.8366L184.89 38.2312L184.905 38.2336C185.111 38.2685 185.247 38.4484 185.208 38.6354C185.17 38.8225 184.972 38.9459 184.766 38.9111L184.765 38.9109Z" fill="#1E9A5F"/>
<path d="M180.056 38.0194L177.732 37.4644C177.536 37.4176 177.419 37.2358 177.471 37.0582C177.522 36.8805 177.722 36.7743 177.918 36.8211L177.928 36.8234L180.232 37.3653L180.243 37.368C180.441 37.4147 180.56 37.5983 180.509 37.7784C180.458 37.9583 180.255 38.0664 180.057 38.0199L180.056 38.0194Z" fill="#1E9A5F"/>
<path d="M175.429 36.8452L173.147 36.1669C172.96 36.111 172.857 35.9276 172.919 35.7573C172.98 35.5868 173.182 35.4938 173.37 35.5497L173.378 35.552L175.644 36.2173L175.653 36.2201C175.843 36.276 175.948 36.4613 175.886 36.6339C175.825 36.8066 175.621 36.9015 175.431 36.8456L175.429 36.8452Z" fill="#1E9A5F"/>
<path d="M170.886 35.4341L168.647 34.6515C168.467 34.5886 168.377 34.4053 168.446 34.2421C168.516 34.0789 168.717 33.9974 168.897 34.0603L168.904 34.0625L171.131 34.8323L171.139 34.8349C171.321 34.8979 171.413 35.0832 171.343 35.2487C171.274 35.4142 171.07 35.4975 170.888 35.4344L170.886 35.4341Z" fill="#1E9A5F"/>
<path d="M166.428 33.8217L164.23 32.9502C164.058 32.882 163.979 32.7001 164.054 32.5437C164.129 32.3874 164.33 32.316 164.502 32.3843L164.507 32.3864L166.696 33.2454L166.703 33.248C166.877 33.3165 166.958 33.5006 166.882 33.6591C166.807 33.8177 166.604 33.8907 166.429 33.8222L166.428 33.8217Z" fill="#1E9A5F"/>
<path d="M162.051 32.04L159.892 31.0918C159.728 31.0193 159.659 30.8395 159.738 30.69C159.818 30.5404 160.016 30.4778 160.181 30.5501L160.185 30.552L162.337 31.4882L162.342 31.4906C162.509 31.5634 162.58 31.7454 162.5 31.8973C162.42 32.0491 162.219 32.1131 162.052 32.0405L162.051 32.04Z" fill="#1E9A5F"/>
<path d="M157.753 30.1081L155.632 29.0928C155.474 29.0174 155.414 28.8402 155.497 28.6971C155.58 28.5541 155.775 28.4992 155.932 28.5746L155.936 28.5762L158.052 29.58L158.057 29.5823C158.217 29.6583 158.279 29.8376 158.195 29.9829C158.111 30.1282 157.914 30.1845 157.754 30.1086L157.753 30.1081Z" fill="#1E9A5F"/>
<path d="M153.529 28.0471L151.444 26.9724C151.293 26.8947 151.24 26.7208 151.326 26.584C151.411 26.4472 151.603 26.3992 151.754 26.4769L151.757 26.4784L153.838 27.542L153.842 27.5442C153.995 27.6223 154.049 27.7986 153.963 27.9376C153.877 28.0767 153.683 28.1259 153.53 28.0477L153.529 28.0471Z" fill="#1E9A5F"/>
<path d="M149.375 25.8726L147.323 24.7473C147.176 24.6671 147.129 24.4944 147.218 24.3616C147.306 24.2288 147.496 24.1861 147.642 24.2663L147.646 24.2681L149.692 25.3877L149.696 25.3896C149.843 25.4699 149.89 25.6433 149.801 25.7767C149.713 25.9101 149.522 25.9531 149.375 25.8727L149.375 25.8726Z" fill="#1E9A5F"/>
<path d="M145.287 23.5948L143.267 22.4212C143.124 22.3382 143.083 22.1658 143.174 22.0363C143.266 21.9066 143.455 21.8687 143.598 21.9517L143.601 21.9535L145.615 23.1214L145.619 23.1232C145.762 23.2065 145.804 23.3795 145.713 23.5097C145.621 23.64 145.43 23.6781 145.287 23.595L145.287 23.5948Z" fill="#1E9A5F"/>
<path d="M141.264 21.2264L139.278 20.0088C139.138 19.9234 139.101 19.7515 139.195 19.6249C139.29 19.4982 139.479 19.4648 139.618 19.5503L139.621 19.5519L141.603 20.7641L141.606 20.7659C141.746 20.8515 141.783 21.0241 141.689 21.1513C141.595 21.2786 141.405 21.3123 141.265 21.2266L141.264 21.2264Z" fill="#1E9A5F"/>
<path d="M137.306 18.77L135.352 17.5118C135.216 17.4241 135.184 17.2528 135.281 17.1291C135.377 17.0056 135.566 16.9764 135.702 17.064L135.704 17.0656L137.654 18.3184L137.657 18.3202C137.794 18.4082 137.826 18.5801 137.729 18.7043C137.633 18.8285 137.443 18.858 137.306 18.7701V18.77Z" fill="#1E9A5F"/>
<path d="M133.391 16.2983L131.35 15.1992L131.334 15.1904C131.191 15.1137 131.145 14.9468 131.229 14.8175C131.313 14.6883 131.497 14.6455 131.639 14.7221L133.714 15.837C133.857 15.9139 133.904 16.0814 133.82 16.2112C133.735 16.3412 133.551 16.3842 133.408 16.3073L133.407 16.3071L133.391 16.2983Z" fill="#1E9A5F"/>
<path d="M129.236 14.2192L127.059 13.3638L127.041 13.3571C126.89 13.2979 126.821 13.1389 126.886 13.0021C126.951 12.8652 127.126 12.8021 127.277 12.8614L129.49 13.7285C129.642 13.7878 129.711 13.9473 129.646 14.0847C129.581 14.2222 129.405 14.2855 129.254 14.2262L129.254 14.2261L129.236 14.2192Z" fill="#1E9A5F"/>
<path d="M124.826 12.635L122.546 12.0371L122.528 12.0324C122.372 11.9913 122.282 11.8429 122.327 11.7007C122.372 11.5586 122.535 11.4765 122.692 11.5177L125.008 12.123C125.165 12.1641 125.256 12.313 125.211 12.4557C125.166 12.5984 125.002 12.6809 124.844 12.6397L124.844 12.6396L124.826 12.635Z" fill="#1E9A5F"/>
<path d="M120.229 11.5732L117.884 11.242L117.866 11.2395C117.706 11.2169 117.597 11.0811 117.622 10.9361C117.647 10.7912 117.796 10.6919 117.956 10.7143L120.337 11.0486C120.498 11.0711 120.608 11.2073 120.583 11.3529C120.558 11.4986 120.408 11.5983 120.248 11.5758H120.247L120.229 11.5732Z" fill="#1E9A5F"/>
<path d="M115.522 11.0441L113.15 10.9849L113.131 10.9844C112.971 10.9804 112.845 10.8592 112.849 10.7138C112.854 10.5683 112.987 10.4537 113.147 10.4576L115.556 10.5155C115.717 10.5193 115.844 10.641 115.839 10.787C115.835 10.933 115.701 11.0483 115.54 11.0444H115.54L115.522 11.0441Z" fill="#1E9A5F"/>
<path d="M110.778 11.0642L108.417 11.2785L108.398 11.2801C108.24 11.2944 108.099 11.1896 108.083 11.046C108.068 10.9024 108.183 10.7743 108.341 10.76L110.738 10.5402C110.897 10.5256 111.039 10.6307 111.055 10.7749C111.071 10.9191 110.955 11.0478 110.796 11.0623H110.796L110.778 11.0642Z" fill="#1E9A5F"/>
<path d="M106.075 11.6286L103.763 12.1134L103.745 12.1171C103.591 12.1492 103.438 12.0623 103.403 11.9229C103.367 11.7834 103.463 11.6443 103.616 11.612L105.964 11.1176C106.118 11.0851 106.272 11.1723 106.307 11.3124C106.343 11.4524 106.247 11.5923 106.093 11.6246L106.093 11.6248L106.075 11.6286Z" fill="#1E9A5F"/>
<path d="M101.489 12.7316L99.2629 13.4795L99.246 13.4851C99.0994 13.5343 98.9366 13.4663 98.8824 13.3332C98.8282 13.2001 98.9028 13.0524 99.0494 13.0031L101.308 12.2418C101.456 12.1922 101.619 12.2603 101.674 12.3939C101.728 12.5276 101.653 12.6761 101.506 12.7257L101.506 12.7258L101.489 12.7316Z" fill="#1E9A5F"/>
<path d="M97.096 14.3544L95.0063 15.3707L94.9883 15.3795C94.8517 15.446 94.6817 15.3993 94.6085 15.2751C94.5354 15.151 94.5866 14.9967 94.7231 14.9303L96.8485 13.8942C96.9855 13.8274 97.1564 13.8742 97.23 13.9987C97.3035 14.1231 97.2522 14.2783 97.115 14.3451L97.1147 14.3452L97.096 14.3544Z" fill="#1E9A5F"/>
<path d="M92.9993 16.5205L91.0793 17.7869L91.0651 17.7962C90.9407 17.8782 90.7668 17.8532 90.6765 17.7402C90.5862 17.6272 90.6136 17.4693 90.7378 17.3874L92.6851 16.1004C92.8099 16.0179 92.9845 16.043 93.0754 16.1562C93.1662 16.2696 93.1387 16.4283 93.0139 16.5107L93.0136 16.5108L92.9993 16.5205Z" fill="#1E9A5F"/>
<path d="M89.2482 19.1585L87.5102 20.6271L87.4986 20.6371C87.3871 20.7313 87.2124 20.7256 87.1087 20.6243C87.0049 20.5231 87.0109 20.3647 87.1226 20.2705L88.8826 18.7802C88.9945 18.6854 89.1699 18.6911 89.2742 18.7927C89.3785 18.8943 89.3723 19.0536 89.2604 19.1483L89.2603 19.1485L89.2482 19.1585Z" fill="#1E9A5F"/>
<path d="M85.8673 22.1868L84.3247 23.828L84.3146 23.8388C84.2166 23.9431 84.0439 23.9555 83.9291 23.8665C83.8142 23.7775 83.8003 23.6209 83.8984 23.5166L85.4595 21.8524C85.558 21.7476 85.7314 21.7348 85.8468 21.8242C85.9623 21.9136 85.9762 22.0709 85.8778 22.1759L85.8777 22.1761L85.8673 22.1868Z" fill="#1E9A5F"/>
<path d="M82.8878 25.5462L81.5637 27.3375L81.5547 27.3496C81.4713 27.4625 81.3029 27.4926 81.1784 27.4168C81.0542 27.3409 81.0209 27.1883 81.1043 27.0753L82.4442 25.2586C82.5279 25.1451 82.6971 25.1148 82.8221 25.1908C82.947 25.2668 82.9805 25.4204 82.8968 25.5338L82.8966 25.5341L82.8878 25.5462Z" fill="#1E9A5F"/>
<path d="M80.36 29.1974L79.2864 31.121L79.2785 31.135C79.2114 31.2553 79.0498 31.3034 78.9174 31.2424C78.785 31.1815 78.732 31.0348 78.799 30.9146L79.8859 28.9622C79.9532 28.8414 80.1155 28.793 80.2486 28.8541C80.3817 28.9151 80.4349 29.0625 80.3677 29.1834L80.3675 29.1835L80.36 29.1974Z" fill="#1E9A5F"/>
<path d="M78.3537 33.1033L77.5752 35.1386L77.5688 35.1551C77.5207 35.2813 77.3689 35.348 77.2299 35.3042C77.0909 35.2603 77.0173 35.1227 77.0656 34.9966L77.8544 32.9277C77.9027 32.8009 78.0551 32.7337 78.1948 32.7776C78.3344 32.8214 78.4083 32.9599 78.36 33.0867L78.3599 33.0869L78.3537 33.1033Z" fill="#1E9A5F"/>
<path d="M76.9654 37.2207L76.5384 39.3377L76.5344 39.3572C76.5082 39.4874 76.3707 39.5736 76.2274 39.5498C76.084 39.5259 75.9891 39.4013 76.0154 39.2711L76.4478 37.1151C76.4741 36.9843 76.6121 36.8976 76.7562 36.9214C76.9002 36.9453 76.9957 37.0706 76.9694 37.2014L76.9654 37.2207Z" fill="#1E9A5F"/>
<path d="M76.3102 41.4792L76.2955 43.6282L76.2954 43.6505C76.2945 43.7816 76.1767 43.8873 76.0324 43.8864C75.8879 43.8857 75.7716 43.7789 75.7725 43.6479L75.7851 41.4546C75.7858 41.3229 75.904 41.2167 76.0491 41.2173C76.1941 41.2179 76.3111 41.3254 76.3104 41.457V41.4573L76.3102 41.4792Z" fill="#1E9A5F"/>
<path d="M76.5061 45.7661L76.9493 47.8753L76.9543 47.8988C76.9811 48.0264 76.889 48.1496 76.7484 48.174C76.6079 48.1983 76.4724 48.1148 76.4456 47.9873L75.9901 45.8316C75.963 45.7035 76.0555 45.5797 76.1966 45.5551C76.3377 45.5305 76.4742 45.6144 76.5012 45.7426V45.7429L76.5061 45.7661Z" fill="#1E9A5F"/>
<path d="M77.6261 49.9318L78.5312 51.916L78.5412 51.9378C78.5954 52.0567 78.5333 52.1931 78.4023 52.2424C78.2715 52.2916 78.1214 52.2353 78.0672 52.1165L77.1399 50.0891C77.0853 49.9698 77.1476 49.8327 77.2791 49.7831C77.4105 49.7335 77.5614 49.7901 77.616 49.9095L77.6162 49.9097L77.6261 49.9318Z" fill="#1E9A5F"/>
<path d="M79.683 53.7789C80.1215 54.3672 80.6178 54.919 81.1719 55.4176C81.2717 55.5075 81.2725 55.6539 81.1736 55.7446C81.0746 55.8354 80.9135 55.8361 80.8137 55.7462C80.2338 55.2255 79.7157 54.6504 79.2595 54.0394C79.1802 53.9332 79.2106 53.7889 79.3276 53.7168C79.4444 53.6448 79.6035 53.6726 79.6828 53.7787L79.683 53.7789Z" fill="#1E9A5F"/>
<path d="M82.997 56.7385C83.6563 57.1141 84.3631 57.4203 85.0997 57.6483C85.2315 57.6891 85.302 57.8193 85.2571 57.939C85.2121 58.0587 85.0691 58.1227 84.9372 58.0819C84.1636 57.8434 83.4205 57.5223 82.7281 57.1285C82.6095 57.0611 82.5736 56.9191 82.6477 56.8114C82.722 56.7038 82.8784 56.671 82.997 56.7385Z" fill="#1E9A5F"/>
<path d="M87.3769 58.0971C88.152 58.1694 88.936 58.164 89.7118 58.0868C89.8489 58.0732 89.9722 58.1631 89.9872 58.2877C90.0023 58.4122 89.9036 58.5242 89.7662 58.5378C88.9571 58.6191 88.1375 58.6257 87.3258 58.5507C87.1879 58.5381 87.0874 58.4263 87.1014 58.3009C87.1154 58.1757 87.2386 58.0844 87.3765 58.0971H87.3769Z" fill="#1E9A5F"/>
<path d="M92.0014 57.6496C92.7477 57.4375 93.4725 57.1619 94.1654 56.831C94.2863 56.7733 94.436 56.8155 94.4996 56.9254C94.5632 57.0353 94.5168 57.171 94.3959 57.2288C93.6777 57.5725 92.9257 57.8592 92.1501 58.0804C92.0191 58.1178 91.8795 58.0516 91.8384 57.9327C91.7972 57.8137 91.8701 57.6869 92.0011 57.6496H92.0014Z" fill="#1E9A5F"/>
<path d="M96.1404 55.6791C96.7609 55.2452 97.3414 54.7637 97.8744 54.2423C97.9665 54.1522 98.1215 54.147 98.2208 54.2306C98.32 54.3143 98.3259 54.4549 98.2338 54.5449C97.6831 55.0848 97.0831 55.5835 96.4411 56.0333C96.3334 56.1088 96.1788 56.0907 96.0957 55.9929C96.0127 55.8951 96.0326 55.7545 96.1403 55.6792L96.1404 55.6791Z" fill="#1E9A5F"/>
<path d="M99.3263 52.5646L99.9224 51.6428C100.133 51.3419 100.29 51.0129 100.466 50.6937L100.474 50.6807C100.534 50.5719 100.679 50.5279 100.799 50.5825C100.919 50.6371 100.967 50.7691 100.907 50.8777C100.727 51.2064 100.565 51.5437 100.348 51.856L99.7331 52.8088C99.6651 52.9141 99.5159 52.9494 99.3999 52.8877C99.2839 52.8259 99.245 52.6905 99.313 52.5851L99.3131 52.585L99.3263 52.5646Z" fill="#1E9A5F"/>
<path d="M101.287 48.693C101.502 48.0075 101.653 47.3062 101.733 46.5983C101.746 46.4785 101.864 46.3911 101.996 46.4032C102.128 46.4155 102.224 46.5222 102.211 46.6422C102.129 47.3769 101.973 48.1038 101.752 48.8129C101.715 48.9294 101.582 48.997 101.453 48.964C101.325 48.931 101.25 48.8096 101.287 48.693Z" fill="#1E9A5F"/>
<path d="M101.749 44.4714C101.679 43.7642 101.533 43.0634 101.314 42.3816C101.277 42.2671 101.349 42.1471 101.476 42.1137C101.602 42.0803 101.734 42.1458 101.771 42.2603C101.999 42.9686 102.152 43.6972 102.225 44.4324C102.237 44.5519 102.14 44.6575 102.009 44.6683C101.877 44.6792 101.761 44.5912 101.749 44.4717V44.4714Z" fill="#1E9A5F"/>
<path d="M100.448 40.4022C100.093 39.7682 99.6752 39.1629 99.2058 38.5923C99.1279 38.4977 99.1494 38.3637 99.2535 38.2929C99.3577 38.2221 99.5052 38.2414 99.5831 38.3361C100.068 38.925 100.501 39.5507 100.87 40.2073C100.929 40.3131 100.883 40.4425 100.766 40.4963C100.65 40.5502 100.507 40.5082 100.448 40.4024L100.448 40.4022Z" fill="#1E9A5F"/>
<path d="M97.654 36.9865C97.0924 36.4873 96.4902 36.0252 95.8568 35.6011C95.7532 35.5317 95.731 35.3992 95.8075 35.305C95.8839 35.2109 96.0296 35.1906 96.1334 35.2601C96.7839 35.6946 97.4033 36.1689 97.9819 36.6821C98.0744 36.7642 98.0762 36.899 97.9858 36.9831C97.8954 37.0672 97.747 37.0687 97.6543 36.9866L97.654 36.9865Z" fill="#1E9A5F"/>
<path d="M93.8717 34.4437C93.1835 34.0956 92.4718 33.7854 91.7429 33.5129C91.6251 33.4689 91.5688 33.3463 91.6172 33.2393C91.6657 33.1322 91.8005 33.0811 91.9183 33.1252C92.6637 33.4032 93.3921 33.7197 94.0971 34.0756C94.2091 34.1321 94.2495 34.2604 94.1872 34.3621C94.125 34.4637 93.9837 34.5005 93.8718 34.4439L93.8717 34.4437Z" fill="#1E9A5F"/>
<path d="M89.509 32.8078C88.7524 32.6079 87.9696 32.4782 87.2016 32.3097L87.1834 32.3058C87.0576 32.2782 86.9804 32.1634 87.0107 32.0491C87.0411 31.935 87.1677 31.8646 87.2934 31.8922L87.2941 31.8924C88.0743 32.0658 88.8602 32.2048 89.6354 32.4069C89.7574 32.4381 89.8286 32.5533 89.7942 32.6641C89.7598 32.7749 89.633 32.8396 89.511 32.8083L89.509 32.8078Z" fill="#1E9A5F"/>
<path d="M84.8579 31.9628L82.4928 31.7559L82.4773 31.7545C82.3412 31.7427 82.2415 31.6328 82.2546 31.5092C82.2676 31.3856 82.3887 31.2951 82.5247 31.307L82.526 31.3071L84.9207 31.5287C85.0531 31.5409 85.1494 31.6483 85.1359 31.7686C85.1224 31.8883 85.0051 31.9756 84.8732 31.9642L84.8579 31.9628Z" fill="#1E9A5F"/>
<path d="M80.1167 31.6824L77.7407 31.7353L77.7258 31.7357C77.5817 31.7389 77.4622 31.6354 77.4586 31.5046C77.4551 31.3739 77.5689 31.2653 77.7129 31.2621H77.7143L80.1202 31.2205C80.2606 31.2181 80.3764 31.3193 80.3791 31.4468C80.3818 31.5738 80.271 31.6788 80.1313 31.682L80.1167 31.6824Z" fill="#1E9A5F"/>
<path d="M75.3717 31.9094L73.0165 32.2009L73.0019 32.2027C72.8519 32.2213 72.7137 32.1258 72.6932 31.9896C72.6727 31.8534 72.7778 31.728 72.9277 31.7094L72.9293 31.7092L75.3152 31.4261C75.4617 31.4088 75.5959 31.5025 75.615 31.6355C75.6341 31.768 75.5318 31.8895 75.3861 31.9076L75.3717 31.9094Z" fill="#1E9A5F"/>
<path d="M70.6819 32.6057L68.3744 33.1225L68.3597 33.1258C68.2056 33.1604 68.0499 33.0748 68.0119 32.9349C67.9738 32.795 68.068 32.6536 68.222 32.6191L68.2236 32.6188L70.5635 32.1072C70.7142 32.0743 70.8658 32.1585 70.902 32.2953C70.9383 32.4316 70.8462 32.5688 70.6965 32.6024L70.6819 32.6057Z" fill="#1E9A5F"/>
<path d="M66.1015 33.7491L63.869 34.4864L63.8535 34.4916C63.6975 34.5431 63.5251 34.4701 63.4684 34.3283C63.4116 34.1866 63.4921 34.03 63.6481 33.9785L63.6496 33.978L65.9171 33.242C66.0699 33.1924 66.2381 33.2647 66.2927 33.4034C66.3472 33.5417 66.2683 33.6939 66.1165 33.7441L66.1015 33.7491Z" fill="#1E9A5F"/>
<path d="M61.6845 35.3349L59.5598 36.2955L59.5431 36.3031C59.388 36.3731 59.1997 36.3159 59.1223 36.175C59.0451 36.0341 59.1083 35.8631 59.2634 35.793L59.265 35.7922L61.4284 34.8277C61.5806 34.7598 61.7647 34.8168 61.8394 34.9551C61.9138 35.0929 61.8517 35.2593 61.7006 35.3277L61.6845 35.3349Z" fill="#1E9A5F"/>
<path d="M57.5057 37.3724L55.5287 38.5604L55.5128 38.57C55.3622 38.6605 55.1593 38.6229 55.0597 38.4862C54.96 38.3494 55.0013 38.1651 55.152 38.0746L55.1535 38.0737L57.1698 36.8766C57.3179 36.7886 57.5163 36.8264 57.6132 36.9609C57.7097 37.0949 57.6688 37.2744 57.522 37.3626L57.5057 37.3724Z" fill="#1E9A5F"/>
<path d="M53.6257 39.8471L51.794 41.2206L51.7818 41.2298C51.6369 41.3384 51.4223 41.3198 51.3027 41.1882C51.1831 41.0566 51.2036 40.8619 51.3485 40.7531L51.3499 40.7521L53.2145 39.3696C53.3572 39.2637 53.5674 39.283 53.6839 39.4127C53.8 39.5419 53.7794 39.7318 53.638 39.8379L53.6257 39.8471Z" fill="#1E9A5F"/>
<path d="M50.0306 42.668L48.333 44.1792L48.3235 44.1878C48.184 44.312 47.9602 44.3099 47.8235 44.1833C47.6869 44.0567 47.689 43.8534 47.8285 43.7292L47.8299 43.7279L49.5561 42.2082C49.6937 42.0871 49.9133 42.0903 50.0467 42.2151C50.1795 42.3397 50.1767 42.5381 50.0405 42.6594L50.0306 42.668Z" fill="#1E9A5F"/>
<path d="M46.6974 45.7473L45.1207 47.3659L45.1129 47.3741C44.9789 47.5117 44.7474 47.5246 44.5957 47.4028C44.4442 47.281 44.4301 47.0707 44.5642 46.9331L44.5654 46.9319L46.1673 45.3047C46.2999 45.17 46.5275 45.1584 46.6756 45.2788C46.8234 45.3988 46.8365 45.6044 46.7054 45.7391L46.6974 45.7473Z" fill="#1E9A5F"/>
<path d="M43.6011 49.0293L42.137 50.7337L42.1303 50.7415C42.0017 50.8914 41.7636 50.918 41.5987 50.8012C41.4337 50.6843 41.4044 50.4681 41.533 50.3183L41.5343 50.3169L43.0216 48.6037C43.1491 48.457 43.3832 48.4318 43.5448 48.5475C43.7058 48.6628 43.7339 48.8745 43.608 49.0212L43.6011 49.0293Z" fill="#1E9A5F"/>
<path d="M40.7266 52.4774L39.3685 54.2536L39.3626 54.2613C39.2394 54.4225 38.9955 54.4624 38.818 54.3505C38.6405 54.2385 38.5966 54.0171 38.7199 53.856L38.721 53.8544L40.1012 52.0693C40.2234 51.9114 40.4636 51.8732 40.6376 51.9842C40.811 52.0947 40.8534 52.3118 40.7326 52.4697L40.7266 52.4774Z" fill="#1E9A5F"/>
<path d="M38.0615 56.0611L36.806 57.8989L36.8007 57.9068C36.6831 58.0788 36.4342 58.1318 36.2446 58.025C36.0552 57.9181 35.9968 57.692 36.1145 57.52L36.1156 57.5184L37.3925 55.6711C37.5092 55.5022 37.7546 55.4512 37.9405 55.5573C38.1259 55.6629 38.1822 55.8846 38.067 56.0532L38.0615 56.0611Z" fill="#1E9A5F"/>
<path d="M35.6015 59.7644L34.4479 61.6568L34.443 61.665C34.3316 61.8477 34.0783 61.9138 33.8771 61.8127C33.6759 61.7115 33.6032 61.4814 33.7145 61.2988L33.7156 61.2971L34.89 59.394C35.0008 59.2145 35.2506 59.1507 35.4482 59.2513C35.645 59.3515 35.7156 59.5772 35.6065 59.7564L35.6015 59.7644Z" fill="#1E9A5F"/>
<path d="M33.3459 63.5756L32.2973 65.5177L32.2925 65.5265C32.1884 65.7195 31.9314 65.7994 31.7188 65.7047C31.5063 65.61 31.4184 65.3768 31.5227 65.1836L31.5237 65.1818L32.5929 63.2273C32.6966 63.0375 32.9502 62.96 33.1592 63.0543C33.3674 63.1483 33.4528 63.3773 33.3505 63.5668L33.3459 63.5756Z" fill="#1E9A5F"/>
<path d="M31.3037 67.482L30.3675 69.4702L30.3628 69.4802C30.2669 69.6837 30.0076 69.778 29.7835 69.6911C29.5594 69.604 29.4555 69.3685 29.5513 69.1651L29.5521 69.1632L30.5091 67.16C30.6047 66.9598 30.861 66.868 31.0813 66.9549C31.3009 67.0414 31.4021 67.2728 31.3081 67.4725L31.3037 67.482Z" fill="#1E9A5F"/>
<path d="M29.4917 71.4794L28.6803 73.5108L28.6756 73.5225C28.5903 73.7363 28.3299 73.8468 28.0943 73.7693C27.8587 73.6918 27.737 73.4554 27.8225 73.2414L27.8234 73.2394L28.6557 71.1889C28.7412 70.9784 28.9984 70.8707 29.2303 70.9483C29.4614 71.0257 29.58 71.258 29.4962 71.4681L29.4917 71.4794Z" fill="#1E9A5F"/>
<path d="M27.9378 75.5643L27.2724 77.6363L27.2678 77.6507C27.1956 77.8751 26.9368 78.004 26.6896 77.9386C26.4423 77.8732 26.3005 77.6381 26.3725 77.4136L26.3732 77.4115L27.0597 75.3146C27.132 75.0935 27.3881 74.9675 27.6316 75.0333C27.8743 75.0987 28.0128 75.33 27.9422 75.5505L27.9378 75.5643Z" fill="#1E9A5F"/>
<path d="M26.6925 79.7255L26.2074 81.833L26.204 81.848C26.15 82.0827 25.8967 82.2332 25.6383 82.1841C25.3798 82.135 25.2137 81.907 25.2678 81.6724C25.4285 80.9567 25.6046 80.2441 25.7724 79.53C25.8269 79.2983 26.0778 79.1505 26.3331 79.2C26.5882 79.2494 26.7509 79.4773 26.6964 79.7091L26.6925 79.7255Z" fill="#1E9A5F"/>
<path d="M25.8195 83.9579L25.5414 86.0943L25.5387 86.115C25.508 86.3507 25.2726 86.5193 25.0131 86.4913C24.7535 86.4634 24.5679 86.2506 24.5985 86.0148L24.8774 83.8367C24.9077 83.5998 25.1439 83.43 25.4047 83.4575C25.6658 83.4851 25.8527 83.6994 25.8223 83.9365L25.8222 83.9373L25.8195 83.9579Z" fill="#1E9A5F"/>
<path d="M25.3791 88.2392L25.3395 90.3896L25.3391 90.4121C25.3348 90.647 25.1216 90.8344 24.8629 90.8304C24.6041 90.8264 24.3978 90.6336 24.4022 90.3988L24.4378 88.2033C24.4416 87.9672 24.6556 87.7786 24.9156 87.782C25.1757 87.7855 25.3833 87.9798 25.3796 88.216V88.2169L25.3791 88.2392Z" fill="#1E9A5F"/>
<path d="M25.427 92.5378L25.6451 94.6771L25.6475 94.7008C25.671 94.9324 25.4835 95.1376 25.2285 95.159C24.9735 95.1804 24.7476 95.0108 24.724 94.7792L24.4962 92.5931C24.4721 92.3604 24.6602 92.1538 24.9165 92.1318C25.1729 92.1098 25.4002 92.2806 25.4245 92.5134L25.4246 92.5142L25.427 92.5378Z" fill="#1E9A5F"/>
<path d="M25.9961 96.8006L26.4804 98.9022L26.4857 98.9256C26.5377 99.151 26.3786 99.3719 26.1305 99.419C25.8824 99.4662 25.6394 99.3226 25.5874 99.0971L25.0877 96.9494C25.035 96.7229 25.1944 96.5006 25.4438 96.4527C25.6931 96.4049 25.9379 96.5496 25.9907 96.7761L25.9908 96.7769L25.9961 96.8006Z" fill="#1E9A5F"/>
<path d="M27.0961 100.976L27.8424 103.015L27.8505 103.037C27.9297 103.253 27.8008 103.487 27.5627 103.559C27.3247 103.63 27.0677 103.514 26.9885 103.298L26.2215 101.216C26.1414 100.999 26.2705 100.764 26.5097 100.691C26.7489 100.618 27.0076 100.735 27.0878 100.953L27.0881 100.953L27.0961 100.976Z" fill="#1E9A5F"/>
<path d="M28.7143 105.012L29.7055 106.964L29.7156 106.984C29.8195 107.189 29.7211 107.431 29.4956 107.526C29.2701 107.62 29.0034 107.531 28.8994 107.327L27.8835 105.336C27.7786 105.13 27.8771 104.886 28.1036 104.791C28.33 104.696 28.5986 104.785 28.7037 104.991L28.7041 104.992L28.7143 105.012Z" fill="#1E9A5F"/>
<path d="M30.8098 108.866L32.0195 110.716L32.0308 110.733C32.1563 110.925 32.0867 111.173 31.8753 111.287C31.6642 111.401 31.3916 111.338 31.2661 111.146L30.0295 109.264C29.903 109.071 29.9724 108.822 30.1844 108.707C30.3965 108.592 30.671 108.655 30.7977 108.848L30.7981 108.848L30.8098 108.866Z" fill="#1E9A5F"/>
<path d="M33.3267 112.513L34.7248 114.253L34.7363 114.268C34.8797 114.446 34.8366 114.696 34.6403 114.826C34.444 114.956 34.169 114.918 34.0257 114.74L32.6005 112.973C32.456 112.794 32.4987 112.543 32.6959 112.411C32.893 112.28 33.17 112.319 33.3145 112.498L33.3151 112.499L33.3267 112.513Z" fill="#1E9A5F"/>
<path d="M36.2064 115.936L37.7624 117.565L37.7735 117.576C37.9312 117.741 37.9116 117.991 37.7299 118.134C37.5483 118.277 37.2737 118.26 37.1162 118.095L35.5339 116.446C35.3751 116.28 35.3942 116.029 35.5765 115.885C35.7587 115.741 36.0353 115.758 36.1943 115.924L36.1948 115.924L36.2064 115.936Z" fill="#1E9A5F"/>
<path d="M39.3869 119.137L41.072 120.657L41.0825 120.666C41.2513 120.818 41.2523 121.066 41.0846 121.22C40.917 121.373 40.6449 121.374 40.4761 121.222L38.7665 119.686C38.5964 119.533 38.5949 119.284 38.7631 119.13C38.9313 118.975 39.2055 118.974 39.3757 119.127L39.3763 119.127L39.3869 119.137Z" fill="#1E9A5F"/>
<path d="M42.8126 122.126L44.605 123.545L44.6147 123.552C44.7921 123.693 44.8106 123.937 44.656 124.098C44.5014 124.259 44.233 124.277 44.0556 124.136L42.2404 122.705C42.0617 122.564 42.0426 122.319 42.1977 122.157C42.3527 121.994 42.6234 121.977 42.802 122.118L42.8026 122.118L42.8126 122.126Z" fill="#1E9A5F"/>
<path d="M46.4444 124.916L48.3246 126.242L48.3333 126.248C48.5171 126.377 48.5505 126.618 48.4079 126.785C48.2652 126.952 48.0013 126.982 47.8173 126.853L45.9163 125.518C45.7311 125.388 45.6971 125.147 45.8402 124.979C45.9833 124.81 46.2494 124.78 46.4346 124.909L46.4353 124.91L46.4444 124.916Z" fill="#1E9A5F"/>
<path d="M50.2424 127.523L52.1943 128.763L52.2022 128.768C52.3908 128.887 52.4367 129.123 52.3048 129.294C52.173 129.466 51.9139 129.508 51.7254 129.388L49.7546 128.142C49.5647 128.022 49.5179 127.785 49.6501 127.612C49.7824 127.44 50.0434 127.397 50.2334 127.518L50.2341 127.518L50.2424 127.523Z" fill="#1E9A5F"/>
<path d="M54.1781 129.969L56.1737 131.167C56.3639 131.28 56.417 131.512 56.2923 131.685C56.1677 131.858 55.9117 131.906 55.7214 131.792L53.7205 130.597C53.5294 130.482 53.4764 130.249 53.6022 130.075C53.728 129.902 53.9848 129.854 54.1759 129.968L54.1781 129.969Z" fill="#1E9A5F"/>
<path d="M58.1731 132.359L60.1755 133.547C60.3638 133.659 60.417 133.888 60.2941 134.059C60.1714 134.23 59.9194 134.278 59.731 134.167L57.7251 132.982C57.5355 132.869 57.4817 132.639 57.6052 132.467C57.7284 132.295 57.9822 132.246 58.1719 132.358L58.1731 132.359Z" fill="#1E9A5F"/>
<path d="M62.1794 134.736L64.1813 135.925C64.3674 136.035 64.4196 136.262 64.2979 136.431C64.1763 136.6 63.9269 136.647 63.7409 136.537L61.7374 135.352C61.5499 135.241 61.4966 135.014 61.6183 134.844C61.74 134.673 61.9908 134.625 62.1782 134.735L62.1794 134.736Z" fill="#1E9A5F"/>
<path d="M66.1795 137.118L68.1737 138.318C68.3568 138.428 68.4069 138.652 68.2856 138.818C68.1643 138.984 67.9166 139.029 67.7335 138.919L65.7396 137.725C65.5546 137.615 65.5027 137.39 65.6236 137.222C65.7445 137.054 65.9924 137.007 66.1774 137.117L66.1795 137.118Z" fill="#1E9A5F"/>
<path d="M70.1621 139.525L72.1412 140.746C72.3208 140.857 72.3674 141.079 72.2455 141.242C72.1237 141.405 71.8792 141.447 71.6996 141.337L71.6978 141.335L69.7208 140.121L69.7186 140.12C69.5377 140.009 69.4903 139.786 69.6126 139.621C69.7349 139.457 69.9806 139.414 70.1614 139.525L70.1621 139.525Z" fill="#1E9A5F"/>
<path d="M74.1114 141.983L76.0697 143.236C76.2449 143.348 76.287 143.568 76.1635 143.728C76.0401 143.887 75.7978 143.925 75.6225 143.813L75.6198 143.811L73.665 142.566L73.6619 142.564C73.4853 142.451 73.4426 142.23 73.5665 142.07C73.6903 141.909 73.9339 141.871 74.1105 141.983L74.1114 141.983Z" fill="#1E9A5F"/>
<path d="M78.0124 144.506L79.9381 145.798C80.1084 145.913 80.1445 146.131 80.0187 146.286C79.8928 146.44 79.6527 146.473 79.4824 146.359L79.479 146.356L77.5583 145.073L77.5544 145.07C77.3828 144.955 77.346 144.736 77.4722 144.58C77.5986 144.424 77.8401 144.391 78.0117 144.506L78.0124 144.506Z" fill="#1E9A5F"/>
<path d="M81.8454 147.115L83.7328 148.458C83.8975 148.575 83.9264 148.791 83.7973 148.94C83.6683 149.09 83.4303 149.116 83.2656 148.999L83.2616 148.996L81.3805 147.664L81.376 147.66C81.21 147.543 81.1804 147.325 81.3099 147.175C81.4393 147.024 81.6788 146.997 81.8448 147.115L81.8454 147.115Z" fill="#1E9A5F"/>
<path d="M85.5996 149.82L87.4489 151.201C87.6086 151.32 87.6316 151.534 87.5003 151.679C87.3692 151.824 87.1335 151.845 86.9738 151.726L86.9709 151.723L85.1256 150.351L85.1221 150.349C84.9613 150.229 84.9376 150.014 85.0693 149.868C85.201 149.721 85.4381 149.7 85.5989 149.82L85.5996 149.82Z" fill="#1E9A5F"/>
<path d="M89.2799 152.604L91.0874 154.035C91.2411 154.157 91.2571 154.369 91.1231 154.509C90.989 154.648 90.7557 154.663 90.602 154.541L90.5976 154.538L88.7965 153.117L88.7918 153.114C88.6368 152.991 88.6203 152.778 88.7549 152.637C88.8894 152.497 89.1242 152.482 89.2792 152.604L89.2799 152.604Z" fill="#1E9A5F"/>
<path d="M92.8666 155.499L94.6127 156.994C94.7593 157.119 94.7661 157.328 94.628 157.461C94.4899 157.594 94.2592 157.601 94.1127 157.475L94.1073 157.471L92.3695 155.989L92.3638 155.984C92.2161 155.858 92.2088 155.647 92.3475 155.513C92.4862 155.379 92.7183 155.372 92.8662 155.498L92.8666 155.499Z" fill="#1E9A5F"/>
<path d="M96.3209 158.525L97.9846 160.098C98.1222 160.228 98.1177 160.435 97.9743 160.56C97.831 160.685 97.6032 160.681 97.4656 160.55L97.459 160.544L95.8059 158.987L95.799 158.981C95.6601 158.85 95.6643 158.642 95.8082 158.516C95.9522 158.39 96.1815 158.393 96.3203 158.524L96.3209 158.525Z" fill="#1E9A5F"/>
<path d="M99.5975 161.715L101.153 163.38C101.28 163.516 101.261 163.719 101.112 163.834C100.962 163.95 100.738 163.933 100.611 163.797L100.604 163.789L99.0606 162.144L99.0529 162.136C98.9248 161.999 98.9429 161.794 99.0932 161.678C99.2434 161.562 99.4691 161.578 99.5971 161.715L99.5975 161.715Z" fill="#1E9A5F"/>
<path d="M102.642 165.095L104.056 166.862C104.17 167.004 104.136 167.203 103.979 167.306C103.823 167.41 103.604 167.378 103.49 167.236L103.482 167.226L102.08 165.482L102.072 165.472C101.957 165.329 101.991 165.128 102.149 165.024C102.306 164.92 102.527 164.951 102.642 165.094L102.642 165.095Z" fill="#1E9A5F"/>
<path d="M105.387 168.684L106.623 170.56C106.721 170.709 106.667 170.902 106.503 170.991C106.34 171.08 106.128 171.031 106.03 170.883L106.021 170.87L104.799 169.022L104.79 169.009C104.691 168.859 104.744 168.665 104.909 168.575C105.074 168.485 105.287 168.534 105.386 168.683L105.387 168.684Z" fill="#1E9A5F"/>
<path d="M107.753 172.49L108.764 174.476C108.842 174.63 108.769 174.811 108.6 174.882C108.432 174.953 108.232 174.887 108.154 174.734L108.146 174.719L107.139 172.769L107.131 172.754C107.05 172.598 107.124 172.412 107.296 172.339C107.467 172.266 107.672 172.333 107.752 172.489L107.753 172.49Z" fill="#1E9A5F"/>
<path d="M109.648 176.512L110.396 178.593C110.452 178.747 110.359 178.913 110.189 178.963C110.02 179.013 109.838 178.93 109.782 178.777L109.776 178.759L109.027 176.717L109.021 176.7C108.964 176.543 109.057 176.373 109.23 176.321C109.403 176.269 109.59 176.353 109.648 176.511L109.648 176.512Z" fill="#1E9A5F"/>
<path d="M111.001 180.712L111.456 182.862C111.489 183.015 111.378 183.162 111.21 183.192C111.042 183.221 110.88 183.122 110.847 182.97L110.843 182.952L110.383 180.84L110.379 180.822C110.345 180.666 110.457 180.515 110.629 180.484C110.8 180.453 110.967 180.554 111.001 180.71L111.001 180.712Z" fill="#1E9A5F"/>
<path d="M111.758 185.034L111.906 187.219C111.916 187.368 111.791 187.496 111.627 187.505C111.464 187.514 111.324 187.402 111.313 187.254L111.311 187.237L111.153 185.086L111.151 185.069C111.14 184.917 111.267 184.785 111.434 184.775C111.601 184.765 111.746 184.88 111.757 185.032L111.758 185.034Z" fill="#1E9A5F"/>
<path d="M111.889 189.41L111.714 191.587C111.703 191.73 111.566 191.836 111.41 191.826C111.254 191.816 111.137 191.693 111.147 191.552L111.148 191.539L111.308 189.387L111.309 189.373C111.32 189.227 111.459 189.117 111.619 189.127C111.779 189.137 111.9 189.263 111.889 189.408L111.889 189.41Z" fill="#1E9A5F"/>
<path d="M111.425 193.755L111.034 195.909C111.009 196.043 110.87 196.134 110.723 196.112C110.576 196.09 110.476 195.964 110.499 195.83L110.501 195.82L110.876 193.685L110.877 193.675C110.902 193.537 111.044 193.444 111.195 193.466C111.346 193.488 111.449 193.617 111.425 193.754L111.425 193.755Z" fill="#1E9A5F"/>
<path d="M110.538 198.046L109.927 200.159C109.891 200.284 109.75 200.359 109.613 200.326C109.476 200.293 109.393 200.166 109.429 200.042L109.432 200.029L110.023 197.938L110.026 197.926C110.063 197.798 110.207 197.72 110.348 197.753C110.489 197.786 110.574 197.917 110.538 198.045L110.538 198.046Z" fill="#1E9A5F"/>
<path d="M109.184 202.239L108.278 204.269C108.227 204.383 108.085 204.437 107.96 204.391C107.836 204.345 107.775 204.217 107.825 204.104L107.833 204.086L108.711 202.085L108.718 202.069C108.77 201.952 108.916 201.895 109.045 201.942C109.173 201.989 109.236 202.121 109.185 202.238L109.184 202.239Z" fill="#1E9A5F"/>
<path d="M107.167 206.217C106.756 206.848 106.301 207.458 105.788 208.029C105.707 208.119 105.561 208.132 105.462 208.059C105.364 207.986 105.349 207.854 105.429 207.764C105.921 207.21 106.36 206.616 106.757 205.998C106.823 205.895 106.969 205.86 107.082 205.921C107.196 205.981 107.234 206.113 107.168 206.216L107.167 206.217Z" fill="#1E9A5F"/>
<path d="M104.058 209.591C103.415 210.049 102.699 210.432 101.927 210.692C101.814 210.731 101.688 210.679 101.646 210.576C101.604 210.474 101.661 210.36 101.773 210.322C102.497 210.073 103.171 209.71 103.78 209.271C103.877 209.201 104.018 209.216 104.096 209.304C104.173 209.392 104.156 209.52 104.059 209.59L104.058 209.591Z" fill="#1E9A5F"/>
<path d="M79.8857 334.595C79.8857 334.595 78.9744 339.033 78.5043 343.429C78.3205 345.148 79.7648 346.653 81.6632 346.742C88.1131 347.042 101.91 347.636 106.865 347.478C107.61 347.454 108.104 346.767 107.835 346.135C107.61 345.606 107.169 345.176 106.604 344.935L83.9053 335.221L79.8857 334.595Z" fill="url(#paint37_linear_147_3558)"/>
<path d="M79.2051 331.979L79.8438 337.302C79.8438 337.302 83.8198 339.025 86.5672 337.147L84.9756 331.208L79.2051 331.979Z" fill="url(#paint38_linear_147_3558)"/>
<path d="M80.7767 232.019C80.4622 233.405 78.4383 301.296 86.1107 331.794C86.236 332.292 85.9535 332.801 85.4311 332.99C84.2005 333.434 81.7905 334.072 78.9095 334.135C78.0174 334.154 77.2232 333.621 76.9797 332.841C74.7694 325.761 64.1938 290.294 63.1208 256.491C61.9217 218.719 63.1342 255.205 63.1342 255.205L64.3152 231.874L80.7767 232.019Z" fill="url(#paint39_linear_147_3558)"/>
<path d="M53.6351 336.688C53.6351 336.688 52.2352 338.92 50.8401 344.872C50.5882 345.947 51.406 346.985 52.609 347.103C54.7377 347.312 58.015 347.585 60.6427 347.591C61.8538 347.594 62.809 346.644 62.6747 345.551C62.4065 343.372 61.5374 339.793 58.7658 336.985L53.6351 336.688Z" fill="url(#paint40_linear_147_3558)"/>
<path d="M52.4978 329.839L54.0364 337.893C54.0364 337.893 55.6299 338.992 58.813 338.233L58.1291 329.575L52.4978 329.839Z" fill="url(#paint41_linear_147_3558)"/>
<path d="M49.1218 233.829C42.2088 269.598 49.6094 322.387 52.1838 332.729C52.3414 333.363 52.8978 333.852 53.6017 333.964C54.7973 334.154 56.7672 334.319 58.7164 333.823C59.3878 333.652 59.8641 333.107 59.8981 332.475C60.3457 324.136 60.2359 272.916 66.539 252.729C66.8584 251.706 67.5575 250.817 68.5184 250.209L80.4199 242.68L81.4558 230.351L49.1218 233.829Z" fill="url(#paint42_linear_147_3558)"/>
<path d="M91.4852 166.306C71.8995 165.843 50.2333 170.62 50.2333 170.62C44.0692 201.511 48.5123 237.242 48.5123 237.242C63.6395 240.985 80.8078 235.313 80.8078 235.313C83.4642 222.402 95.6069 186.107 95.6069 186.107C105.189 185.111 113.1 182.672 119.628 179.412C114.73 174.156 112.465 167.501 111.492 163.571C104.545 165.466 97.5262 166.449 91.4852 166.306Z" fill="url(#paint43_linear_147_3558)"/>
<path d="M149.623 140.605C147.721 138.478 145.275 139.455 145.275 139.455C142.276 150.489 127.067 159.324 111.492 163.572C112.465 167.503 114.73 174.157 119.628 179.413C145.537 166.478 149.623 140.605 149.623 140.605Z" fill="url(#paint44_linear_147_3558)"/>
<path d="M149.151 141.136C149.346 141.719 147.005 142.584 145.657 140.195C145.621 139.055 144.909 134.167 145.669 133.245C149.714 128.336 157.521 122.205 157.521 122.205C158.817 123.389 157.727 124.531 157.727 124.531L153.934 128.052C154.706 129.348 155.653 130.444 156.085 132.008C156.413 133.191 156.192 134.452 155.524 135.521C154.853 136.594 153.939 137.988 153.077 139.078C151.446 141.141 149.151 141.136 149.151 141.136Z" fill="url(#paint45_linear_147_3558)"/>
<path d="M152.267 130.344L148.817 132.949L147.715 135.563L150.734 138.663C150.734 138.663 151.815 133.467 152.589 132.347C153.364 131.228 152.974 130.679 152.267 130.344Z" fill="url(#paint46_linear_147_3558)"/>
<path d="M57.5661 187.912L50.2336 170.621C50.2336 170.621 31.8178 181.753 28.6584 196.042C32.1132 196.303 38.3957 197.174 44.5239 200.051C45.9481 193.304 57.5661 187.912 57.5661 187.912Z" fill="url(#paint47_linear_147_3558)"/>
<path d="M73.386 204.259C73.386 204.259 52.7322 214.624 45.8952 205.561C44.4758 203.679 44.1512 201.818 44.5244 200.05C38.3962 197.173 32.1139 196.302 28.659 196.041C27.7064 200.348 28.1378 204.942 30.8814 209.605C42.8112 229.882 76.0563 208.882 76.0563 208.882L73.386 204.259Z" fill="url(#paint48_linear_147_3558)"/>
<path d="M71.7956 151.692L65.3906 168.008C65.2846 168.278 65.4041 168.58 65.6792 168.721C67.3693 169.589 73.4645 172.108 80.8858 167.924C81.6589 167.489 82.1897 166.771 82.3149 165.953L84.4821 151.802L71.7956 151.692Z" fill="url(#paint49_linear_147_3558)"/>
<path d="M85.517 136.65C85.517 136.65 92.2386 148.41 91.3116 153.129C90.3846 157.847 81.9057 157.434 74.5388 153.532L69.4956 140.853L85.517 136.65Z" fill="url(#paint50_linear_147_3558)"/>
<path d="M74.9318 147.331C75.2341 147.213 75.3486 146.879 75.171 146.628C74.6306 145.862 73.6191 144.301 73.3053 142.939C73.3053 142.939 72.0824 142.213 76.4544 141.303C80.8264 140.392 87.3468 138.977 88.7495 135.617C90.1171 132.341 86.7013 124.043 81.0442 130.582C80.829 130.831 80.4125 130.833 80.2027 130.58C79.2982 129.489 76.9134 127.221 73.5553 128.555C70.413 129.803 70.0386 131.882 70.0705 132.932C70.0799 133.241 69.7734 133.478 69.4399 133.417C67.8609 133.129 64.0669 132.861 62.2577 136.383C60.7677 139.283 61.699 140.941 62.5544 141.754C62.8316 142.018 62.7043 142.448 62.3193 142.551C61.2765 142.831 59.9256 143.62 60.0367 145.833C60.1905 148.893 63.9583 148.656 65.0318 148.526C65.2076 148.505 65.3841 148.561 65.5017 148.682C66.4112 149.613 70.5111 153.572 74.9883 154.083C75.376 154.128 75.6806 153.782 75.5569 153.445L73.6709 148.308C73.5833 148.069 73.7113 147.81 73.9655 147.71L74.9318 147.331Z" fill="url(#paint51_linear_147_3558)"/>
<path d="M75.7033 148.066C75.7033 148.066 70.862 144.988 70.4789 147.542C70.0962 150.096 74.8284 151.284 77.1884 150.351L75.7033 148.066Z" fill="url(#paint52_linear_147_3558)"/>
<path d="M69.1642 220.641L80.4151 184.958C80.5429 184.553 80.9234 184.258 81.3842 184.209C83.4227 183.993 89.3294 183.386 96.1494 182.862C104.364 182.231 113.904 181.72 119.605 182.155C120.415 182.217 120.905 182.995 120.544 183.657C117.303 189.614 103.968 213.842 97.2907 221.779C97.0694 222.042 96.7273 222.196 96.363 222.192L70.2589 221.972C69.4991 221.966 68.9552 221.304 69.1642 220.641Z" fill="url(#paint53_linear_147_3558)"/>
<path d="M71.8823 212.021C71.8823 212.021 70.3149 206.168 70.9471 204.091C71.5794 202.015 72.8043 199.345 76.887 199.939C80.97 200.532 85.7861 202.094 85.7861 202.094C85.7861 202.094 85.5427 204.798 82.4397 203.926L84.364 205.278C84.364 205.278 84.0889 207.444 81.4679 206.287L83.2576 208.08C83.2576 208.08 82.1319 209.858 80.2035 208.718C78.2753 207.577 77.3508 212.725 71.8823 212.021Z" fill="url(#paint54_linear_147_3558)"/>
<path d="M95.3992 193.516C95.3992 195.173 96.8778 196.516 98.7019 196.516C100.526 196.516 102.004 195.173 102.004 193.516C102.004 191.86 100.526 190.517 98.7019 190.517C96.8778 190.517 95.3992 191.86 95.3992 193.516Z" fill="#B7E8D0"/>
<path d="M81.6882 195.493L83.9788 188.436C84.2598 187.569 85.0271 186.918 85.9808 186.737C93.1605 185.377 112.812 185.088 113.009 185.086L112.996 184.288C112.186 184.3 93.0627 184.581 85.8015 185.957C84.5307 186.198 83.5095 187.061 83.1363 188.21L80.8457 195.267L81.6882 195.493Z" fill="#B7E8D0"/>
<defs>
<linearGradient id="paint0_linear_147_3558" x1="-101.208" y1="-458.204" x2="666.446" y2="-369.472" gradientUnits="userSpaceOnUse">
<stop stop-color="#0A1D12"/>
<stop offset="0.475962" stop-color="#1E9A5F"/>
<stop offset="1" stop-color="#0A1D12"/>
</linearGradient>
<linearGradient id="paint1_linear_147_3558" x1="243.354" y1="284.374" x2="136.549" y2="377.144" gradientUnits="userSpaceOnUse">
<stop stop-color="#0A4C2D"/>
<stop offset="1" stop-color="#1E9A5F"/>
</linearGradient>
<linearGradient id="paint2_linear_147_3558" x1="188.238" y1="43.6628" x2="198.894" y2="266.606" gradientUnits="userSpaceOnUse">
<stop stop-color="#0A4C2D"/>
<stop offset="1" stop-color="#1E9A5F"/>
</linearGradient>
<linearGradient id="paint3_linear_147_3558" x1="204.624" y1="57.1049" x2="205.808" y2="267.561" gradientUnits="userSpaceOnUse">
<stop stop-color="#0A4C2D"/>
<stop offset="1" stop-color="#1E9A5F"/>
</linearGradient>
<linearGradient id="paint4_linear_147_3558" x1="38.752" y1="150.362" x2="43.515" y2="241.595" gradientUnits="userSpaceOnUse">
<stop stop-color="#D6F58D"/>
<stop offset="1" stop-color="#A2DB1E"/>
</linearGradient>
<linearGradient id="paint5_linear_147_3558" x1="67.4654" y1="188.682" x2="69.5202" y2="248.653" gradientUnits="userSpaceOnUse">
<stop stop-color="#D6F58D"/>
<stop offset="1" stop-color="#A2DB1E"/>
</linearGradient>
<linearGradient id="paint6_linear_147_3558" x1="96.1772" y1="93.9743" x2="106.939" y2="230.873" gradientUnits="userSpaceOnUse">
<stop stop-color="#D6F58D"/>
<stop offset="1" stop-color="#A2DB1E"/>
</linearGradient>
<linearGradient id="paint7_linear_147_3558" x1="124.89" y1="221.532" x2="125.515" y2="254.612" gradientUnits="userSpaceOnUse">
<stop stop-color="#D6F58D"/>
<stop offset="1" stop-color="#A2DB1E"/>
</linearGradient>
<linearGradient id="paint8_linear_147_3558" x1="153.602" y1="116.418" x2="161.691" y2="235.196" gradientUnits="userSpaceOnUse">
<stop stop-color="#D6F58D"/>
<stop offset="1" stop-color="#A2DB1E"/>
</linearGradient>
<linearGradient id="paint9_linear_147_3558" x1="182.315" y1="141.601" x2="187.854" y2="239.957" gradientUnits="userSpaceOnUse">
<stop stop-color="#D6F58D"/>
<stop offset="1" stop-color="#A2DB1E"/>
</linearGradient>
<linearGradient id="paint10_linear_147_3558" x1="211.028" y1="168.976" x2="214.336" y2="245.042" gradientUnits="userSpaceOnUse">
<stop stop-color="#D6F58D"/>
<stop offset="1" stop-color="#A2DB1E"/>
</linearGradient>
<linearGradient id="paint11_linear_147_3558" x1="241.756" y1="73.8138" x2="255.236" y2="226.911" gradientUnits="userSpaceOnUse">
<stop stop-color="#D6F58D"/>
<stop offset="1" stop-color="#A2DB1E"/>
</linearGradient>
<linearGradient id="paint12_linear_147_3558" x1="270.469" y1="225.274" x2="270.983" y2="255.286" gradientUnits="userSpaceOnUse">
<stop stop-color="#D6F58D"/>
<stop offset="1" stop-color="#A2DB1E"/>
</linearGradient>
<linearGradient id="paint13_linear_147_3558" x1="299.181" y1="154.193" x2="303.623" y2="242.306" gradientUnits="userSpaceOnUse">
<stop stop-color="#D6F58D"/>
<stop offset="1" stop-color="#A2DB1E"/>
</linearGradient>
<linearGradient id="paint14_linear_147_3558" x1="331.247" y1="-81.1117" x2="341.507" y2="198.721" gradientUnits="userSpaceOnUse">
<stop stop-color="#D6F58D"/>
<stop offset="1" stop-color="#A2DB1E"/>
</linearGradient>
<linearGradient id="paint15_linear_147_3558" x1="274.606" y1="256.672" x2="315.494" y2="256.672" gradientUnits="userSpaceOnUse">
<stop stop-color="#0A4C2D"/>
<stop offset="1" stop-color="#1E9A5F"/>
</linearGradient>
<linearGradient id="paint16_linear_147_3558" x1="243.903" y1="365.937" x2="313.945" y2="302.187" gradientUnits="userSpaceOnUse">
<stop stop-color="#1E9A5F"/>
<stop offset="1" stop-color="#0A4C2D"/>
</linearGradient>
<linearGradient id="paint17_linear_147_3558" x1="318.259" y1="147.516" x2="307.083" y2="193.665" gradientUnits="userSpaceOnUse">
<stop stop-color="#0A4C2D"/>
<stop offset="1" stop-color="#1E9A5F"/>
</linearGradient>
<linearGradient id="paint18_linear_147_3558" x1="115.118" y1="46.5715" x2="204.797" y2="136.498" gradientUnits="userSpaceOnUse">
<stop stop-color="#1E9A5F"/>
<stop offset="1" stop-color="#0A4C2D"/>
</linearGradient>
<linearGradient id="paint19_linear_147_3558" x1="146.734" y1="71.9663" x2="147.073" y2="87.3954" gradientUnits="userSpaceOnUse">
<stop stop-color="#D6F58D"/>
<stop offset="1" stop-color="#A2DB1E"/>
</linearGradient>
<linearGradient id="paint20_linear_147_3558" x1="141.726" y1="57.9698" x2="142.065" y2="73.3988" gradientUnits="userSpaceOnUse">
<stop stop-color="#D6F58D"/>
<stop offset="1" stop-color="#A2DB1E"/>
</linearGradient>
<linearGradient id="paint21_linear_147_3558" x1="152.117" y1="85.1286" x2="152.455" y2="100.558" gradientUnits="userSpaceOnUse">
<stop stop-color="#D6F58D"/>
<stop offset="1" stop-color="#A2DB1E"/>
</linearGradient>
<linearGradient id="paint22_linear_147_3558" x1="156.653" y1="97.9829" x2="156.992" y2="113.412" gradientUnits="userSpaceOnUse">
<stop stop-color="#D6F58D"/>
<stop offset="1" stop-color="#A2DB1E"/>
</linearGradient>
<linearGradient id="paint23_linear_147_3558" x1="161.216" y1="111.277" x2="161.554" y2="126.706" gradientUnits="userSpaceOnUse">
<stop stop-color="#D6F58D"/>
<stop offset="1" stop-color="#A2DB1E"/>
</linearGradient>
<linearGradient id="paint24_linear_147_3558" x1="163.783" y1="27.6203" x2="132.469" y2="59.9569" gradientUnits="userSpaceOnUse">
<stop stop-color="#0A4C2D"/>
<stop offset="1" stop-color="#1E9A5F"/>
</linearGradient>
<linearGradient id="paint25_linear_147_3558" x1="160.757" y1="24.5114" x2="147.619" y2="67.19" gradientUnits="userSpaceOnUse">
<stop stop-color="#0A4C2D"/>
<stop offset="1" stop-color="#1E9A5F"/>
</linearGradient>
<linearGradient id="paint26_linear_147_3558" x1="157.987" y1="27.6266" x2="151.824" y2="65.8981" gradientUnits="userSpaceOnUse">
<stop stop-color="#0A4C2D"/>
<stop offset="1" stop-color="#1E9A5F"/>
</linearGradient>
<linearGradient id="paint27_linear_147_3558" x1="249.29" y1="35.9137" x2="225.93" y2="30.9454" gradientUnits="userSpaceOnUse">
<stop stop-color="#D6F58D"/>
<stop offset="1" stop-color="#A2DB1E"/>
</linearGradient>
<linearGradient id="paint28_linear_147_3558" x1="232.783" y1="44.7927" x2="257.955" y2="44.7927" gradientUnits="userSpaceOnUse">
<stop stop-color="#44CA8A"/>
<stop offset="1" stop-color="#1E9A5F"/>
</linearGradient>
<linearGradient id="paint29_linear_147_3558" x1="239.194" y1="46.1789" x2="256.972" y2="46.1789" gradientUnits="userSpaceOnUse">
<stop stop-color="#A2DB1E"/>
<stop offset="1" stop-color="#D6F58D"/>
</linearGradient>
<linearGradient id="paint30_linear_147_3558" x1="233.226" y1="21.8313" x2="258.19" y2="21.8313" gradientUnits="userSpaceOnUse">
<stop stop-color="#44CA8A"/>
<stop offset="1" stop-color="#1E9A5F"/>
</linearGradient>
<linearGradient id="paint31_linear_147_3558" x1="239.624" y1="20.5783" x2="257.256" y2="20.5783" gradientUnits="userSpaceOnUse">
<stop stop-color="#A2DB1E"/>
<stop offset="1" stop-color="#D6F58D"/>
</linearGradient>
<linearGradient id="paint32_linear_147_3558" x1="295.565" y1="27.7428" x2="270.63" y2="46.2028" gradientUnits="userSpaceOnUse">
<stop stop-color="#D6F58D"/>
<stop offset="1" stop-color="#A2DB1E"/>
</linearGradient>
<linearGradient id="paint33_linear_147_3558" x1="277.204" y1="38.6076" x2="269.392" y2="27.8535" gradientUnits="userSpaceOnUse">
<stop stop-color="#44CA8A"/>
<stop offset="1" stop-color="#1E9A5F"/>
</linearGradient>
<linearGradient id="paint34_linear_147_3558" x1="280.976" y1="-18.8491" x2="278.338" y2="2.07137" gradientUnits="userSpaceOnUse">
<stop stop-color="#1E9A5F"/>
<stop offset="1" stop-color="#44CA8A"/>
</linearGradient>
<linearGradient id="paint35_linear_147_3558" x1="262.115" y1="36.7467" x2="256.954" y2="29.6421" gradientUnits="userSpaceOnUse">
<stop stop-color="#44CA8A"/>
<stop offset="1" stop-color="#1E9A5F"/>
</linearGradient>
<linearGradient id="paint36_linear_147_3558" x1="266.91" y1="14.6839" x2="262.343" y2="28.292" gradientUnits="userSpaceOnUse">
<stop stop-color="#1E9A5F"/>
<stop offset="1" stop-color="#44CA8A"/>
</linearGradient>
<linearGradient id="paint37_linear_147_3558" x1="106.339" y1="328.68" x2="30.5652" y2="417.723" gradientUnits="userSpaceOnUse">
<stop stop-color="#0A4C2D"/>
<stop offset="1" stop-color="#1E9A5F"/>
</linearGradient>
<linearGradient id="paint38_linear_147_3558" x1="79.178" y1="334.572" x2="86.5933" y2="334.65" gradientUnits="userSpaceOnUse">
<stop stop-color="#FEBBBA"/>
<stop offset="1" stop-color="#FF928E"/>
</linearGradient>
<linearGradient id="paint39_linear_147_3558" x1="73.6384" y1="222.292" x2="78.2146" y2="332.622" gradientUnits="userSpaceOnUse">
<stop stop-color="#0A4C2D"/>
<stop offset="1" stop-color="#1E9A5F"/>
</linearGradient>
<linearGradient id="paint40_linear_147_3558" x1="87.7745" y1="312.881" x2="11.9971" y2="401.927" gradientUnits="userSpaceOnUse">
<stop stop-color="#0A4C2D"/>
<stop offset="1" stop-color="#1E9A5F"/>
</linearGradient>
<linearGradient id="paint41_linear_147_3558" x1="52.4543" y1="333.995" x2="58.8566" y2="334.062" gradientUnits="userSpaceOnUse">
<stop stop-color="#FEBBBA"/>
<stop offset="1" stop-color="#FF928E"/>
</linearGradient>
<linearGradient id="paint42_linear_147_3558" x1="62.7644" y1="220.625" x2="65.9209" y2="332.718" gradientUnits="userSpaceOnUse">
<stop stop-color="#0A4C2D"/>
<stop offset="1" stop-color="#1E9A5F"/>
</linearGradient>
<linearGradient id="paint43_linear_147_3558" x1="71.373" y1="163.933" x2="107.984" y2="319.137" gradientUnits="userSpaceOnUse">
<stop stop-color="#1E9A5F"/>
<stop offset="1" stop-color="#0A4C2D"/>
</linearGradient>
<linearGradient id="paint44_linear_147_3558" x1="111.539" y1="159.136" x2="149.425" y2="159.532" gradientUnits="userSpaceOnUse">
<stop stop-color="#FEBBBA"/>
<stop offset="1" stop-color="#FF928E"/>
</linearGradient>
<linearGradient id="paint45_linear_147_3558" x1="114.496" y1="172.789" x2="155.007" y2="121.139" gradientUnits="userSpaceOnUse">
<stop stop-color="#FEBBBA"/>
<stop offset="1" stop-color="#FF928E"/>
</linearGradient>
<linearGradient id="paint46_linear_147_3558" x1="149.488" y1="136.199" x2="158.868" y2="120.645" gradientUnits="userSpaceOnUse">
<stop stop-color="#FEBBBA"/>
<stop offset="1" stop-color="#FF928E"/>
</linearGradient>
<linearGradient id="paint47_linear_147_3558" x1="37.3848" y1="171.951" x2="73.9956" y2="327.156" gradientUnits="userSpaceOnUse">
<stop stop-color="#1E9A5F"/>
<stop offset="1" stop-color="#0A4C2D"/>
</linearGradient>
<linearGradient id="paint48_linear_147_3558" x1="81.5691" y1="210.41" x2="16.3371" y2="204.709" gradientUnits="userSpaceOnUse">
<stop stop-color="#FEBBBA"/>
<stop offset="1" stop-color="#FF928E"/>
</linearGradient>
<linearGradient id="paint49_linear_147_3558" x1="66.2263" y1="177.487" x2="79.9051" y2="149.17" gradientUnits="userSpaceOnUse">
<stop stop-color="#FEBBBA"/>
<stop offset="1" stop-color="#FF928E"/>
</linearGradient>
<linearGradient id="paint50_linear_147_3558" x1="89.0087" y1="150.172" x2="69.4494" y2="136.754" gradientUnits="userSpaceOnUse">
<stop stop-color="#FEBBBA"/>
<stop offset="1" stop-color="#FF928E"/>
</linearGradient>
<linearGradient id="paint51_linear_147_3558" x1="57.3829" y1="126.185" x2="82.0446" y2="148.055" gradientUnits="userSpaceOnUse">
<stop stop-color="#0A4C2D"/>
<stop offset="1" stop-color="#1E9A5F"/>
</linearGradient>
<linearGradient id="paint52_linear_147_3558" x1="83.4892" y1="154.433" x2="65.8915" y2="142.36" gradientUnits="userSpaceOnUse">
<stop stop-color="#FEBBBA"/>
<stop offset="1" stop-color="#FF928E"/>
</linearGradient>
<linearGradient id="paint53_linear_147_3558" x1="69.0014" y1="222.379" x2="115.843" y2="177.177" gradientUnits="userSpaceOnUse">
<stop stop-color="#0A4C2D"/>
<stop offset="1" stop-color="#1E9A5F"/>
</linearGradient>
<linearGradient id="paint54_linear_147_3558" x1="70.7969" y1="205.971" x2="85.786" y2="205.971" gradientUnits="userSpaceOnUse">
<stop stop-color="#FEBBBA"/>
<stop offset="1" stop-color="#FF928E"/>
</linearGradient>
</defs>
</svg>
